<svg width="732" height="380" viewBox="0 0 732 380" fill="none" xmlns="http://www.w3.org/2000/svg">
<path d="M0.442139 1.82993C-0.0162354 1.52184 -0.138062 0.900499 0.170044 0.442139C0.478149 -0.0162212 1.09949 -0.138033 1.55786 0.170066L0.442139 1.82993ZM138.153 232.033L137.44 232.734L138.153 232.033ZM596.657 308.592L596.491 309.578L596.657 308.592ZM724.707 379.707C724.317 380.098 723.683 380.098 723.293 379.707L716.929 373.343C716.538 372.953 716.538 372.319 716.929 371.929C717.319 371.538 717.953 371.538 718.343 371.929L724 377.586L729.657 371.929C730.047 371.538 730.681 371.538 731.071 371.929C731.462 372.319 731.462 372.953 731.071 373.343L724.707 379.707ZM722.966 377.013C722.947 376.461 723.38 375.998 723.931 375.979C724.483 375.96 724.946 376.392 724.965 376.944L722.966 377.013ZM724.685 372.923C724.743 373.472 724.345 373.965 723.796 374.023C723.247 374.082 722.755 373.684 722.696 373.134L724.685 372.923ZM722.138 369.285C722.037 368.742 722.396 368.221 722.939 368.12C723.482 368.019 724.004 368.378 724.105 368.921L722.138 369.285ZM723.2 364.954C723.345 365.487 723.031 366.036 722.498 366.182C721.965 366.327 721.415 366.012 721.27 365.479L723.2 364.954ZM720.088 361.773C719.897 361.254 720.163 360.68 720.682 360.489C721.2 360.299 721.775 360.565 721.965 361.083L720.088 361.773ZM720.399 357.337C720.634 357.836 720.42 358.432 719.92 358.667C719.421 358.903 718.825 358.688 718.59 358.188L720.399 357.337ZM716.783 354.75C716.505 354.273 716.666 353.661 717.144 353.383C717.621 353.105 718.233 353.266 718.511 353.743L716.783 354.75ZM716.32 350.328C716.638 350.779 716.529 351.403 716.077 351.721C715.625 352.038 715.002 351.93 714.684 351.478L716.32 350.328ZM712.316 348.387C711.963 347.962 712.021 347.332 712.445 346.979C712.87 346.625 713.501 346.683 713.854 347.108L712.316 348.387ZM711.143 344.094C711.528 344.49 711.518 345.123 711.122 345.508C710.725 345.892 710.092 345.883 709.707 345.486L711.143 344.094ZM706.889 342.779C706.478 342.41 706.444 341.778 706.812 341.367C707.181 340.956 707.813 340.921 708.224 341.29L706.889 342.779ZM705.133 338.694C705.567 339.036 705.642 339.665 705.3 340.099C704.958 340.533 704.33 340.607 703.896 340.266L705.133 338.694ZM700.75 337.935C700.297 337.618 700.187 336.995 700.503 336.542C700.819 336.089 701.442 335.979 701.895 336.295L700.75 337.935ZM698.534 334.078C699.002 334.37 699.145 334.987 698.853 335.456C698.561 335.924 697.944 336.067 697.476 335.775L698.534 334.078ZM694.091 333.775C693.61 333.505 693.438 332.895 693.708 332.414C693.978 331.932 694.588 331.76 695.069 332.03L694.091 333.775ZM691.519 330.138C692.011 330.388 692.208 330.99 691.959 331.482C691.709 331.975 691.107 332.172 690.615 331.922L691.519 330.138ZM687.063 330.207C686.561 329.976 686.342 329.382 686.573 328.881C686.804 328.379 687.398 328.16 687.9 328.391L687.063 330.207ZM684.235 326.779C684.744 326.993 684.983 327.579 684.769 328.088C684.555 328.597 683.969 328.837 683.46 328.623L684.235 326.779ZM679.8 327.151C679.285 326.952 679.028 326.374 679.226 325.858C679.425 325.343 680.004 325.086 680.519 325.284L679.8 327.151ZM676.76 323.897C677.281 324.081 677.553 324.652 677.369 325.173C677.185 325.694 676.613 325.966 676.093 325.782L676.76 323.897ZM672.345 324.508C671.82 324.336 671.534 323.772 671.705 323.247C671.876 322.722 672.441 322.435 672.966 322.607L672.345 324.508ZM669.154 321.409C669.683 321.569 669.982 322.127 669.822 322.656C669.662 323.184 669.104 323.484 668.575 323.324L669.154 321.409ZM664.778 322.218C664.246 322.069 663.936 321.517 664.085 320.985C664.234 320.454 664.786 320.143 665.318 320.293L664.778 322.218ZM661.459 319.249C661.994 319.388 662.314 319.934 662.174 320.469C662.035 321.003 661.489 321.323 660.954 321.184L661.459 319.249ZM657.111 320.215C656.574 320.084 656.245 319.543 656.376 319.006C656.507 318.47 657.048 318.141 657.584 318.272L657.111 320.215ZM653.701 317.356C654.239 317.479 654.576 318.015 654.453 318.553C654.33 319.092 653.794 319.429 653.256 319.306L653.701 317.356ZM649.384 318.45C648.844 318.335 648.5 317.803 648.616 317.263C648.732 316.723 649.263 316.379 649.803 316.495L649.384 318.45ZM645.897 315.682C646.438 315.792 646.789 316.319 646.679 316.86C646.57 317.402 646.043 317.752 645.501 317.643L645.897 315.682ZM641.61 316.879C641.068 316.775 640.712 316.251 640.816 315.709C640.919 315.166 641.443 314.81 641.986 314.914L641.61 316.879ZM638.064 314.184C638.607 314.283 638.968 314.803 638.869 315.347C638.771 315.89 638.25 316.251 637.707 316.152L638.064 314.184ZM633.796 315.459C633.252 315.365 632.887 314.847 632.982 314.303C633.076 313.759 633.593 313.394 634.138 313.488L633.796 315.459ZM630.212 312.822C630.756 312.913 631.125 313.428 631.034 313.973C630.943 314.517 630.428 314.886 629.884 314.795L630.212 312.822ZM625.967 314.156C625.422 314.068 625.051 313.555 625.138 313.01C625.226 312.465 625.739 312.093 626.284 312.181L625.967 314.156ZM622.345 311.558C622.89 311.643 623.264 312.154 623.179 312.7C623.093 313.246 622.582 313.619 622.036 313.534L622.345 311.558ZM618.106 312.927C617.56 312.843 617.185 312.333 617.268 311.787C617.352 311.241 617.862 310.866 618.408 310.95L618.106 312.927ZM614.477 310.352C615.023 310.435 615.398 310.945 615.316 311.491C615.233 312.037 614.724 312.412 614.177 312.33L614.477 310.352ZM610.254 311.737C609.708 311.654 609.332 311.145 609.415 310.598C609.498 310.052 610.007 309.677 610.553 309.759L610.254 311.737ZM606.617 309.161C607.163 309.245 607.538 309.755 607.455 310.301C607.371 310.847 606.861 311.222 606.315 311.138L606.617 309.161ZM602.373 310.528C601.827 310.443 601.454 309.931 601.54 309.386C601.625 308.84 602.137 308.467 602.683 308.553L602.373 310.528ZM598.757 307.926C599.302 308.014 599.672 308.528 599.583 309.073C599.494 309.619 598.98 309.988 598.435 309.899L598.757 307.926ZM594.541 309.258C593.996 309.17 593.625 308.656 593.713 308.111C593.801 307.566 594.315 307.195 594.86 307.283L594.541 309.258ZM590.901 306.666C591.447 306.748 591.823 307.258 591.741 307.804C591.659 308.35 591.15 308.726 590.604 308.644L590.901 306.666ZM586.62 308.067C586.073 307.991 585.691 307.485 585.767 306.938C585.844 306.391 586.349 306.01 586.896 306.086L586.62 308.067ZM582.876 305.546C583.424 305.617 583.81 306.118 583.739 306.666C583.668 307.214 583.167 307.6 582.619 307.529L582.876 305.546ZM578.672 307.037C578.124 306.971 577.733 306.473 577.799 305.924C577.865 305.376 578.363 304.985 578.911 305.051L578.672 307.037ZM574.906 304.587C575.455 304.648 575.85 305.143 575.789 305.692C575.728 306.241 575.233 306.636 574.684 306.575L574.906 304.587ZM570.656 306.143C570.107 306.087 569.707 305.596 569.764 305.046C569.82 304.497 570.312 304.097 570.861 304.154L570.656 306.143ZM566.881 303.76C567.431 303.812 567.834 304.3 567.781 304.85C567.729 305.4 567.241 305.803 566.691 305.751L566.881 303.76ZM562.706 305.386C562.155 305.337 561.749 304.852 561.797 304.302C561.845 303.752 562.331 303.345 562.881 303.393L562.706 305.386ZM558.846 303.053C559.397 303.097 559.807 303.58 559.762 304.13C559.718 304.681 559.235 305.091 558.685 305.046L558.846 303.053ZM554.673 304.735C554.122 304.694 553.709 304.214 553.75 303.663C553.791 303.112 554.271 302.699 554.821 302.74L554.673 304.735ZM550.829 302.455C551.38 302.493 551.797 302.97 551.759 303.521C551.721 304.072 551.244 304.488 550.693 304.45L550.829 302.455ZM546.682 304.187C546.131 304.153 545.712 303.678 545.747 303.127C545.781 302.576 546.256 302.157 546.808 302.191L546.682 304.187ZM542.757 301.948C543.308 301.98 543.729 302.453 543.698 303.004C543.666 303.555 543.194 303.977 542.642 303.945L542.757 301.948ZM538.654 303.727C538.102 303.698 537.679 303.227 537.707 302.676C537.736 302.124 538.207 301.701 538.758 301.729L538.654 303.727ZM534.749 301.529C535.301 301.556 535.727 302.024 535.7 302.576C535.674 303.127 535.206 303.553 534.654 303.527L534.749 301.529ZM530.629 303.345C530.077 303.321 529.649 302.854 529.673 302.303C529.696 301.751 530.163 301.323 530.715 301.347L530.629 303.345ZM526.672 301.181C527.224 301.202 527.654 301.667 527.632 302.219C527.611 302.771 527.146 303.201 526.594 303.179L526.672 301.181ZM522.605 303.032C522.053 303.012 521.621 302.549 521.64 301.997C521.66 301.445 522.123 301.014 522.675 301.033L522.605 303.032ZM518.656 300.899C519.208 300.917 519.641 301.378 519.624 301.93C519.606 302.482 519.145 302.916 518.593 302.898L518.656 300.899ZM514.559 302.778C514.007 302.763 513.572 302.302 513.588 301.75C513.603 301.198 514.063 300.763 514.615 300.779L514.559 302.778ZM510.589 300.672C511.141 300.686 511.577 301.145 511.564 301.697C511.55 302.249 511.091 302.685 510.539 302.671L510.589 300.672ZM506.539 302.577C505.986 302.565 505.549 302.108 505.561 301.555C505.573 301.003 506.031 300.566 506.583 300.578L506.539 302.577ZM502.558 300.494C503.111 300.505 503.549 300.961 503.539 301.513C503.528 302.066 503.072 302.504 502.519 302.494L502.558 300.494ZM498.482 302.42C497.93 302.411 497.49 301.956 497.499 301.403C497.509 300.851 497.964 300.411 498.516 300.42L498.482 302.42ZM494.5 300.357C495.052 300.365 495.493 300.819 495.485 301.371C495.477 301.924 495.022 302.365 494.47 302.356L494.5 300.357ZM490.463 302.301C489.91 302.294 489.468 301.841 489.475 301.289C489.482 300.736 489.936 300.294 490.488 300.301L490.463 302.301ZM486.461 300.254C487.014 300.26 487.457 300.712 487.451 301.265C487.444 301.817 486.992 302.26 486.44 302.254L486.461 300.254ZM482.402 302.213C481.85 302.208 481.406 301.756 481.411 301.204C481.416 300.651 481.868 300.208 482.42 300.213L482.402 302.213ZM478.409 300.179C478.961 300.183 479.405 300.634 479.401 301.187C479.397 301.739 478.945 302.183 478.393 302.179L478.409 300.179ZM474.381 302.15C473.829 302.146 473.384 301.696 473.388 301.143C473.391 300.591 473.842 300.146 474.394 300.15L474.381 302.15ZM470.367 300.126C470.919 300.129 471.365 300.579 471.362 301.131C471.359 301.683 470.909 302.129 470.356 302.126L470.367 300.126ZM466.32 302.106C465.768 302.103 465.322 301.653 465.324 301.101C465.327 300.549 465.777 300.103 466.329 300.106L466.32 302.106ZM462.319 300.089C462.871 300.091 463.317 300.54 463.315 301.093C463.313 301.645 462.863 302.091 462.311 302.089L462.319 300.089ZM458.296 302.075C457.743 302.073 457.297 301.624 457.299 301.072C457.301 300.519 457.75 300.073 458.302 300.075L458.296 302.075ZM454.276 300.063C454.828 300.064 455.275 300.513 455.273 301.065C455.272 301.618 454.823 302.064 454.27 302.063L454.276 300.063ZM450.236 302.052C449.684 302.05 449.238 301.602 449.239 301.049C449.24 300.497 449.689 300.05 450.242 300.052L450.236 302.052ZM446.23 300.042C446.782 300.043 447.229 300.492 447.228 301.044C447.226 301.597 446.777 302.043 446.225 302.042L446.23 300.042ZM442.207 302.032C441.655 302.03 441.208 301.582 441.21 301.029C441.211 300.477 441.66 300.03 442.212 300.032L442.207 302.032ZM438.188 300.021C438.74 300.023 439.187 300.472 439.185 301.024C439.184 301.576 438.735 302.023 438.182 302.021L438.188 300.021ZM434.151 302.009C433.599 302.008 433.153 301.558 433.154 301.006C433.156 300.454 433.605 300.008 434.158 300.009L434.151 302.009ZM430.144 299.996C430.696 299.998 431.142 300.447 431.14 300.999C431.138 301.552 430.689 301.998 430.136 301.996L430.144 299.996ZM426.116 301.979C425.564 301.977 425.118 301.527 425.121 300.975C425.123 300.423 425.573 299.977 426.125 299.979L426.116 301.979ZM422.103 299.96C422.655 299.963 423.1 300.413 423.097 300.965C423.095 301.518 422.645 301.963 422.092 301.96L422.103 299.96ZM418.064 301.937C417.512 301.934 417.067 301.483 417.07 300.931C417.074 300.379 417.524 299.934 418.077 299.937L418.064 301.937ZM414.06 299.91C414.612 299.914 415.056 300.365 415.052 300.917C415.048 301.47 414.597 301.914 414.045 301.91L414.06 299.91ZM410.024 301.878C409.471 301.873 409.027 301.422 409.032 300.869C409.037 300.317 409.489 299.873 410.041 299.878L410.024 301.878ZM406.02 299.84C406.572 299.846 407.016 300.298 407.01 300.85C407.004 301.403 406.552 301.846 406 301.84L406.02 299.84ZM401.975 301.796C401.423 301.79 400.98 301.337 400.987 300.785C400.993 300.233 401.446 299.79 401.999 299.797L401.975 301.796ZM397.979 299.746C398.531 299.753 398.973 300.207 398.966 300.759C398.958 301.312 398.504 301.753 397.952 301.746L397.979 299.746ZM393.929 301.688C393.377 301.679 392.936 301.225 392.945 300.673C392.953 300.12 393.408 299.68 393.96 299.688L393.929 301.688ZM389.941 299.622C390.494 299.632 390.933 300.087 390.924 300.639C390.914 301.192 390.459 301.631 389.906 301.622L389.941 299.622ZM385.885 301.547C385.333 301.536 384.894 301.08 384.905 300.528C384.916 299.976 385.372 299.537 385.924 299.548L385.885 301.547ZM381.903 299.464C382.455 299.476 382.892 299.933 382.88 300.486C382.868 301.038 382.411 301.475 381.858 301.463L381.903 299.464ZM377.834 301.369C377.282 301.356 376.846 300.897 376.859 300.345C376.873 299.793 377.331 299.356 377.883 299.37L377.834 301.369ZM373.867 299.266C374.42 299.281 374.855 299.741 374.84 300.293C374.825 300.845 374.365 301.28 373.813 301.265L373.867 299.266ZM369.795 301.149C369.243 301.133 368.809 300.672 368.826 300.12C368.842 299.568 369.303 299.134 369.855 299.15L369.795 301.149ZM365.832 299.023C366.384 299.041 366.817 299.503 366.799 300.055C366.78 300.607 366.318 301.04 365.766 301.022L365.832 299.023ZM361.741 300.881C361.189 300.861 360.758 300.398 360.778 299.846C360.798 299.294 361.262 298.863 361.814 298.883L361.741 300.881ZM357.801 298.73C358.353 298.752 358.783 299.217 358.761 299.769C358.739 300.321 358.274 300.75 357.722 300.728L357.801 298.73ZM353.708 300.561C353.156 300.537 352.729 300.07 352.753 299.519C352.776 298.967 353.243 298.539 353.795 298.563L353.708 300.561ZM349.772 298.381C350.323 298.407 350.75 298.875 350.724 299.427C350.698 299.978 350.229 300.404 349.678 300.378L349.772 298.381ZM345.653 300.181C345.102 300.153 344.678 299.683 344.706 299.131C344.734 298.579 345.204 298.155 345.755 298.183L345.653 300.181ZM341.747 297.97C342.299 298.001 342.721 298.472 342.691 299.024C342.66 299.575 342.189 299.998 341.637 299.967L341.747 297.97ZM337.629 299.737C337.078 299.704 336.658 299.231 336.69 298.68C336.723 298.128 337.197 297.708 337.748 297.741L337.629 299.737ZM333.726 297.492C334.277 297.527 334.695 298.003 334.66 298.554C334.624 299.105 334.149 299.523 333.598 299.488L333.726 297.492ZM329.576 299.221C329.025 299.183 328.609 298.706 328.647 298.155C328.685 297.604 329.163 297.188 329.714 297.226L329.576 299.221ZM325.712 296.94C326.263 296.981 326.677 297.461 326.636 298.011C326.596 298.562 326.116 298.976 325.565 298.935L325.712 296.94ZM321.563 298.63C321.012 298.586 320.601 298.105 320.644 297.554C320.688 297.004 321.169 296.592 321.72 296.636L321.563 298.63ZM317.702 296.308C318.252 296.355 318.661 296.838 318.614 297.389C318.568 297.939 318.084 298.347 317.534 298.301L317.702 296.308ZM313.518 297.951C312.968 297.902 312.562 297.416 312.611 296.866C312.661 296.316 313.147 295.91 313.697 295.959L313.518 297.951ZM309.706 295.589C310.255 295.642 310.659 296.13 310.606 296.68C310.553 297.23 310.065 297.633 309.515 297.58L309.706 295.589ZM305.518 297.185C304.968 297.129 304.568 296.639 304.624 296.089C304.68 295.54 305.171 295.14 305.72 295.195L305.518 297.185ZM301.711 294.775C302.26 294.834 302.657 295.327 302.598 295.876C302.538 296.425 302.045 296.822 301.496 296.763L301.711 294.775ZM297.489 296.316C296.941 296.253 296.547 295.758 296.61 295.209C296.673 294.66 297.169 294.266 297.717 294.329L297.489 296.316ZM293.741 293.859C294.289 293.926 294.679 294.425 294.613 294.973C294.546 295.521 294.048 295.911 293.499 295.845L293.741 293.859ZM289.508 295.345C288.96 295.274 288.574 294.773 288.644 294.225C288.715 293.677 289.216 293.291 289.764 293.361L289.508 295.345ZM285.768 292.832C286.316 292.906 286.699 293.41 286.624 293.957C286.549 294.505 286.045 294.888 285.498 294.813L285.768 292.832ZM281.507 294.254C280.961 294.175 280.581 293.668 280.66 293.121C280.739 292.575 281.246 292.195 281.792 292.274L281.507 294.254ZM277.837 291.688C278.383 291.771 278.758 292.281 278.675 292.827C278.592 293.373 278.082 293.749 277.536 293.665L277.837 291.688ZM273.552 293.043C273.007 292.955 272.636 292.442 272.724 291.897C272.811 291.351 273.324 290.98 273.87 291.068L273.552 293.043ZM269.896 290.412C270.441 290.505 270.807 291.021 270.715 291.565C270.623 292.11 270.107 292.476 269.562 292.384L269.896 290.412ZM265.594 291.694C265.051 291.597 264.689 291.077 264.786 290.534C264.883 289.99 265.402 289.628 265.946 289.725L265.594 291.694ZM262.019 289.005C262.562 289.108 262.919 289.63 262.817 290.173C262.715 290.716 262.193 291.073 261.65 290.971L262.019 289.005ZM257.677 290.204C257.135 290.097 256.783 289.571 256.89 289.029C256.998 288.487 257.524 288.135 258.066 288.242L257.677 290.204ZM254.125 287.442C254.665 287.554 255.012 288.084 254.9 288.625C254.787 289.165 254.257 289.512 253.717 289.4L254.125 287.442ZM249.782 288.559C249.243 288.441 248.901 287.908 249.02 287.368C249.138 286.829 249.671 286.487 250.21 286.605L249.782 288.559ZM246.316 285.73C246.854 285.854 247.19 286.391 247.066 286.929C246.942 287.467 246.405 287.803 245.867 287.679L246.316 285.73ZM241.92 286.747C241.383 286.617 241.053 286.077 241.183 285.54C241.313 285.003 241.853 284.673 242.39 284.803L241.92 286.747ZM238.495 283.837C239.03 283.973 239.354 284.517 239.217 285.052C239.081 285.588 238.537 285.911 238.002 285.775L238.495 283.837ZM234.115 284.762C233.581 284.619 233.264 284.071 233.407 283.538C233.549 283.004 234.097 282.687 234.631 282.83L234.115 284.762ZM230.763 281.771C231.295 281.92 231.605 282.472 231.456 283.004C231.307 283.536 230.755 283.846 230.223 283.697L230.763 281.771ZM226.331 282.579C225.801 282.423 225.498 281.867 225.654 281.337C225.81 280.807 226.366 280.504 226.896 280.66L226.331 282.579ZM223.063 279.505C223.591 279.668 223.886 280.228 223.723 280.755C223.56 281.283 223 281.579 222.473 281.416L223.063 279.505ZM218.65 280.206C218.124 280.036 217.836 279.472 218.006 278.947C218.177 278.422 218.741 278.134 219.266 278.304L218.65 280.206ZM215.44 277.034C215.963 277.212 216.243 277.78 216.065 278.303C215.888 278.826 215.32 279.106 214.797 278.928L215.44 277.034ZM210.98 277.599C210.459 277.414 210.188 276.842 210.373 276.321C210.559 275.801 211.131 275.53 211.651 275.715L210.98 277.599ZM207.902 274.346C208.419 274.54 208.682 275.116 208.489 275.633C208.295 276.15 207.719 276.413 207.202 276.22L207.902 274.346ZM203.433 274.777C202.919 274.575 202.665 273.995 202.867 273.481C203.068 272.966 203.649 272.713 204.163 272.915L203.433 274.777ZM200.433 271.417C200.944 271.627 201.188 272.211 200.978 272.722C200.768 273.233 200.183 273.477 199.672 273.267L200.433 271.417ZM195.956 271.701C195.448 271.482 195.215 270.894 195.433 270.387C195.652 269.88 196.24 269.646 196.748 269.865L195.956 271.701ZM193.104 268.256C193.607 268.483 193.831 269.076 193.603 269.579C193.376 270.082 192.783 270.306 192.28 270.078L193.104 268.256ZM188.596 268.372C188.097 268.135 187.885 267.539 188.121 267.04C188.358 266.541 188.954 266.328 189.453 266.565L188.596 268.372ZM185.851 264.815C186.346 265.061 186.547 265.661 186.301 266.156C186.055 266.65 185.455 266.852 184.96 266.606L185.851 264.815ZM181.373 264.778C180.884 264.522 180.694 263.918 180.949 263.429C181.205 262.939 181.809 262.749 182.298 263.005L181.373 264.778ZM178.765 261.116C179.249 261.381 179.427 261.989 179.162 262.474C178.897 262.958 178.289 263.136 177.805 262.871L178.765 261.116ZM174.273 260.89C173.794 260.615 173.629 260.004 173.904 259.525C174.179 259.046 174.791 258.881 175.27 259.156L174.273 260.89ZM171.828 257.131C172.301 257.416 172.453 258.031 172.168 258.504C171.883 258.977 171.269 259.129 170.796 258.844L171.828 257.131ZM167.361 256.723C166.894 256.428 166.755 255.81 167.05 255.343C167.346 254.876 167.963 254.737 168.43 255.033L167.361 256.723ZM165.068 252.853C165.528 253.159 165.653 253.779 165.348 254.239C165.042 254.7 164.422 254.825 163.962 254.519L165.068 252.853ZM160.62 252.245C160.167 251.929 160.056 251.305 160.372 250.852C160.688 250.399 161.311 250.288 161.764 250.604L160.62 252.245ZM158.519 248.284C158.964 248.611 159.061 249.236 158.735 249.682C158.408 250.127 157.782 250.224 157.337 249.897L158.519 248.284ZM154.099 247.466C153.662 247.129 153.58 246.501 153.917 246.064C154.254 245.626 154.882 245.544 155.319 245.881L154.099 247.466ZM152.182 243.405C152.611 243.752 152.678 244.382 152.33 244.811C151.983 245.241 151.353 245.307 150.924 244.96L152.182 243.405ZM147.811 242.377C147.391 242.02 147.34 241.388 147.698 240.968C148.055 240.547 148.686 240.496 149.107 240.854L147.811 242.377ZM146.099 238.23C146.51 238.598 146.546 239.23 146.177 239.642C145.809 240.053 145.177 240.088 144.765 239.72L146.099 238.23ZM141.785 236.985C141.383 236.607 141.364 235.974 141.743 235.572C142.121 235.17 142.754 235.151 143.156 235.529L141.785 236.985ZM140.28 232.751C140.672 233.14 140.675 233.773 140.286 234.165C139.897 234.557 139.264 234.56 138.872 234.171L140.28 232.751ZM136.03 231.281C135.647 230.883 135.661 230.249 136.06 229.867C136.458 229.485 137.091 229.499 137.473 229.897L136.03 231.281ZM134.754 226.988C135.126 227.396 135.097 228.028 134.689 228.4C134.28 228.772 133.648 228.743 133.276 228.335L134.754 226.988ZM130.601 225.326C130.239 224.909 130.284 224.278 130.701 223.916C131.118 223.554 131.75 223.599 132.112 224.016L130.601 225.326ZM129.537 220.974C129.888 221.4 129.828 222.03 129.403 222.382C128.977 222.734 128.346 222.674 127.995 222.248L129.537 220.974ZM125.468 219.116C125.126 218.682 125.201 218.053 125.635 217.711C126.069 217.369 126.698 217.444 127.039 217.878L125.468 219.116ZM124.608 214.718C124.94 215.16 124.851 215.786 124.41 216.118C123.968 216.45 123.341 216.361 123.01 215.92L124.608 214.718ZM120.628 212.676C120.306 212.227 120.409 211.603 120.857 211.281C121.306 210.959 121.931 211.061 122.253 211.51L120.628 212.676ZM119.963 208.246C120.275 208.701 120.159 209.324 119.704 209.636C119.248 209.949 118.626 209.833 118.313 209.377L119.963 208.246ZM116.07 206.036C115.767 205.574 115.896 204.954 116.357 204.651C116.819 204.348 117.439 204.476 117.742 204.938L116.07 206.036ZM115.587 201.584C115.881 202.051 115.74 202.669 115.273 202.963C114.805 203.257 114.188 203.116 113.894 202.649L115.587 201.584ZM111.783 199.222C111.498 198.749 111.65 198.135 112.122 197.849C112.595 197.564 113.21 197.716 113.495 198.189L111.783 199.222ZM111.466 194.756C111.743 195.234 111.58 195.846 111.102 196.123C110.624 196.4 110.012 196.237 109.735 195.759L111.466 194.756ZM107.748 192.261C107.479 191.779 107.652 191.17 108.134 190.901C108.617 190.632 109.226 190.805 109.495 191.287L107.748 192.261ZM107.58 187.787C107.842 188.274 107.659 188.88 107.172 189.141C106.686 189.402 106.079 189.219 105.818 188.733L107.58 187.787ZM103.943 185.175C103.69 184.685 103.881 184.081 104.372 183.827C104.862 183.573 105.466 183.765 105.72 184.256L103.943 185.175ZM103.91 180.698C104.157 181.192 103.957 181.792 103.463 182.039C102.969 182.286 102.368 182.086 102.121 181.592L103.91 180.698ZM100.348 177.985C100.107 177.488 100.316 176.89 100.813 176.649C101.31 176.409 101.908 176.617 102.148 177.114L100.348 177.985ZM100.432 173.508C100.666 174.008 100.451 174.603 99.9504 174.837C99.4504 175.072 98.855 174.856 98.6206 174.356L100.432 173.508ZM96.9371 170.709C96.7084 170.207 96.9305 169.614 97.4332 169.385C97.9359 169.156 98.5289 169.378 98.7576 169.881L96.9371 170.709ZM97.1216 166.234C97.3451 166.739 97.1168 167.33 96.6117 167.553C96.1066 167.777 95.5161 167.548 95.2926 167.043L97.1216 166.234ZM93.6862 163.364C93.4675 162.857 93.7015 162.269 94.2086 162.05C94.7158 161.831 95.3041 162.065 95.5228 162.572L93.6862 163.364ZM93.9556 158.893C94.1699 159.402 93.9309 159.988 93.4219 160.202C92.9128 160.417 92.3265 160.178 92.1122 159.669L93.9556 158.893ZM90.5703 155.964C90.36 155.454 90.6035 154.869 91.1141 154.659C91.6248 154.449 92.2093 154.692 92.4196 155.203L90.5703 155.964ZM90.9091 151.498C91.1159 152.01 90.8684 152.593 90.3563 152.8C89.8442 153.006 89.2614 152.759 89.0546 152.247L90.9091 151.498ZM87.5642 148.523C87.3605 148.009 87.6115 147.428 88.1249 147.224C88.6382 147.021 89.2195 147.272 89.4232 147.785L87.5642 148.523ZM87.9572 144.062C88.1582 144.576 87.9042 145.156 87.3898 145.357C86.8754 145.558 86.2954 145.304 86.0944 144.79L87.9572 144.062ZM84.6428 141.051C84.444 140.536 84.7005 139.957 85.2158 139.758C85.731 139.559 86.3099 139.816 86.5087 140.331L84.6428 141.051ZM85.0745 136.594C85.2715 137.11 85.0129 137.688 84.497 137.885C83.981 138.082 83.4031 137.823 83.2061 137.307L85.0745 136.594ZM81.7809 133.56C81.5853 133.043 81.8453 132.466 82.3618 132.27C82.8782 132.075 83.4555 132.335 83.6512 132.851L81.7809 133.56ZM82.2361 129.105C82.4308 129.622 82.1697 130.199 81.653 130.394C81.1361 130.588 80.5593 130.327 80.3646 129.81L82.2361 129.105ZM78.9535 126.059C78.7593 125.542 79.0209 124.966 79.5379 124.772C80.0549 124.577 80.6315 124.839 80.8257 125.356L78.9535 126.059ZM79.4171 121.605C79.6113 122.122 79.3495 122.699 78.8325 122.893C78.3155 123.087 77.739 122.826 77.5448 122.308L79.4171 121.605ZM76.1354 118.559C75.9409 118.043 76.2021 117.466 76.719 117.271C77.2359 117.077 77.8126 117.338 78.0072 117.855L76.1354 118.559ZM76.5922 114.104C76.7875 114.62 76.5272 115.198 76.0106 115.393C75.494 115.588 74.9169 115.328 74.7215 114.811L76.5922 114.104ZM73.3013 111.07C73.1047 110.553 73.3636 109.976 73.8798 109.779C74.3958 109.582 74.9736 109.841 75.1703 110.357L73.3013 111.07ZM73.7359 106.611C73.9343 107.126 73.6772 107.705 73.1617 107.903C72.6463 108.102 72.0677 107.844 71.8693 107.329L73.7359 106.611ZM70.4257 103.6C70.2252 103.085 70.4799 102.506 70.9945 102.305C71.5091 102.105 72.0888 102.359 72.2893 102.874L70.4257 103.6ZM70.8225 99.1361C71.0256 99.6497 70.7739 100.231 70.2603 100.434C69.7467 100.637 69.1657 100.385 68.9626 99.8716L70.8225 99.1361ZM67.4821 96.1591C67.2759 95.6467 67.5242 95.0642 68.0366 94.8581C68.5489 94.6519 69.1313 94.9002 69.3375 95.4125L67.4821 96.1591ZM67.8256 91.6909C68.0353 92.2018 67.791 92.786 67.2801 92.9957C66.7692 93.2053 66.185 92.9611 65.9753 92.4502L67.8256 91.6909ZM64.4443 88.7596C64.2307 88.2503 64.4704 87.6642 64.9797 87.4506C65.489 87.2369 66.075 87.4766 66.2886 87.9859L64.4443 88.7596ZM64.7184 84.2874C64.9365 84.7948 64.702 85.383 64.1946 85.6011C63.6872 85.8191 63.0991 85.5846 62.881 85.0772L64.7184 84.2874ZM61.2861 81.4149C61.0631 80.9096 61.2919 80.3193 61.7972 80.0963C62.3024 79.8732 62.8928 80.1021 63.1158 80.6073L61.2861 81.4149ZM61.4738 76.9394C61.7022 77.4422 61.4797 78.035 60.9769 78.2634C60.4741 78.4918 59.8812 78.2693 59.6528 77.7664L61.4738 76.9394ZM57.9805 74.1399C57.7463 73.6397 57.9618 73.0444 58.462 72.8102C58.9621 72.5759 59.5574 72.7915 59.7917 73.2916L57.9805 74.1399ZM58.0642 69.6624C58.3047 70.1595 58.0967 70.7576 57.5996 70.9981C57.1025 71.2387 56.5045 71.0307 56.2639 70.5336L58.0642 69.6624ZM54.5005 66.9516C54.2531 66.4578 54.4529 65.857 54.9467 65.6096C55.4405 65.3623 56.0413 65.562 56.2887 66.0558L54.5005 66.9516ZM54.4619 62.4745C54.7165 62.9646 54.5256 63.5683 54.0355 63.823C53.5454 64.0776 52.9417 63.8867 52.6871 63.3966L54.4619 62.4745ZM50.8193 59.8694C50.557 59.3834 50.7383 58.7768 51.2243 58.5145C51.7103 58.2521 52.317 58.4334 52.5793 58.9194L50.8193 59.8694ZM50.6396 55.3966C50.9101 55.8781 50.739 56.4878 50.2575 56.7583C49.776 57.0288 49.1664 56.8577 48.8959 56.3762L50.6396 55.3966ZM46.9111 52.9155C46.632 52.4389 46.7921 51.8263 47.2687 51.5472C47.7452 51.2682 48.3578 51.4282 48.6369 51.9048L46.9111 52.9155ZM46.5712 48.4524C46.8593 48.9236 46.7109 49.5391 46.2397 49.8272C45.7686 50.1153 45.153 49.9669 44.8649 49.4957L46.5712 48.4524ZM42.7513 46.1148C42.4538 45.6495 42.5898 45.0311 43.0551 44.7336C43.5204 44.4361 44.1389 44.5721 44.4363 45.0375L42.7513 46.1148ZM42.2326 41.6687C42.5398 42.1276 42.4168 42.7487 41.9579 43.056C41.499 43.3632 40.8779 43.2402 40.5706 42.7813L42.2326 41.6687ZM38.3179 39.4949C38.0005 39.0428 38.1098 38.4192 38.5618 38.1019C39.0139 37.7845 39.6375 37.8938 39.9548 38.3458L38.3179 39.4949ZM37.6025 35.0752C37.9302 35.5198 37.8354 36.1458 37.3909 36.4735C36.9463 36.8012 36.3203 36.7064 35.9926 36.2618L37.6025 35.0752ZM33.5927 33.0858C33.2544 32.6492 33.334 32.0211 33.7706 31.6828C34.2072 31.3446 34.8353 31.4243 35.1736 31.8608L33.5927 33.0858ZM32.6643 28.7039C33.0134 29.1319 32.9493 29.7619 32.5214 30.1109C32.0934 30.46 31.4634 30.396 31.1144 29.968L32.6643 28.7039ZM28.562 26.919C28.202 26.5001 28.2498 25.8687 28.6686 25.5088C29.0875 25.1488 29.7189 25.1966 30.0789 25.6154L28.562 26.919ZM27.4067 22.588C27.7776 22.9971 27.7467 23.6295 27.3376 24.0005C26.9284 24.3715 26.296 24.3405 25.925 23.9314L27.4067 22.588ZM23.2185 21.0261C22.8365 20.6272 22.8503 19.9942 23.2493 19.6122C23.6482 19.2303 24.2812 19.2441 24.6631 19.643L23.2185 21.0261ZM21.8271 16.762C22.22 17.1502 22.2239 17.7833 21.8358 18.1762C21.4476 18.5691 20.8145 18.573 20.4216 18.1848L21.8271 16.762ZM17.5613 15.4376C17.1576 15.0607 17.1359 14.4279 17.5128 14.0242C17.8896 13.6205 18.5225 13.5988 18.9261 13.9757L17.5613 15.4376ZM15.9305 11.2581C16.3448 11.6233 16.3847 12.2552 16.0196 12.6695C15.6544 13.0839 15.0225 13.1238 14.6082 12.7586L15.9305 11.2581ZM11.5966 10.1806C11.1719 9.82752 11.1138 9.19702 11.4669 8.77233C11.8199 8.34763 12.4504 8.28957 12.8751 8.64263L11.5966 10.1806ZM9.72821 6.10303C10.163 6.44358 10.2394 7.07212 9.89886 7.50691C9.55835 7.94171 8.92981 8.01811 8.495 7.67756L9.72821 6.10303ZM5.33716 5.27731C4.89264 4.94952 4.79803 4.32346 5.12585 3.87897C5.45361 3.43448 6.07965 3.33987 6.52417 3.66766L5.33716 5.27731ZM3.23907 1.318C3.69287 1.63275 3.80566 2.25579 3.49091 2.70961C3.17615 3.16344 2.5531 3.27618 2.0993 2.96144L3.23907 1.318ZM723 379C723 378.33 722.989 377.668 722.966 377.013L724.965 376.944C724.988 377.622 725 378.308 725 379H723ZM722.696 373.134C722.557 371.82 722.37 370.538 722.138 369.285L724.105 368.921C724.346 370.225 724.54 371.559 724.685 372.923L722.696 373.134ZM721.27 365.479C720.925 364.211 720.53 362.976 720.088 361.773L721.965 361.083C722.427 362.34 722.839 363.63 723.2 364.954L721.27 365.479ZM718.59 358.188C718.035 357.01 717.432 355.864 716.783 354.75L718.511 353.743C719.189 354.907 719.819 356.105 720.399 357.337L718.59 358.188ZM714.684 351.478C713.939 350.417 713.149 349.388 712.316 348.387L713.854 347.108C714.72 348.149 715.543 349.222 716.32 350.328L714.684 351.478ZM709.707 345.486C708.806 344.557 707.866 343.655 706.889 342.779L708.224 341.29C709.235 342.195 710.209 343.13 711.143 344.094L709.707 345.486ZM703.896 340.266C702.879 339.465 701.83 338.688 700.75 337.935L701.895 336.295C703.005 337.069 704.085 337.869 705.133 338.694L703.896 340.266ZM697.476 335.775C696.374 335.088 695.245 334.421 694.091 333.775L695.069 332.03C696.249 332.691 697.404 333.374 698.534 334.078L697.476 335.775ZM690.615 331.922C689.452 331.333 688.267 330.762 687.063 330.207L687.9 328.391C689.125 328.955 690.332 329.537 691.519 330.138L690.615 331.922ZM683.46 328.623C682.256 328.117 681.036 327.626 679.8 327.151L680.519 325.284C681.772 325.767 683.012 326.265 684.235 326.779L683.46 328.623ZM676.093 325.782C674.856 325.344 673.606 324.92 672.345 324.508L672.966 322.607C674.242 323.023 675.507 323.453 676.76 323.897L676.093 325.782ZM668.575 323.324C667.318 322.944 666.052 322.576 664.778 322.218L665.318 320.293C666.604 320.653 667.884 321.025 669.154 321.409L668.575 323.324ZM660.954 321.184C659.679 320.851 658.397 320.528 657.111 320.215L657.584 318.272C658.881 318.587 660.173 318.913 661.459 319.249L660.954 321.184ZM653.256 319.306C651.968 319.012 650.678 318.727 649.384 318.45L649.803 316.495C651.105 316.773 652.404 317.06 653.701 317.356L653.256 319.306ZM645.501 317.643C644.205 317.381 642.907 317.126 641.61 316.879L641.986 314.914C643.289 315.163 644.593 315.419 645.897 315.682L645.501 317.643ZM637.707 316.152C636.401 315.915 635.097 315.684 633.796 315.459L634.138 313.488C635.443 313.714 636.752 313.946 638.064 314.184L637.707 316.152ZM629.884 314.795C628.573 314.577 627.267 314.364 625.967 314.156L626.284 312.181C627.587 312.39 628.896 312.604 630.212 312.822L629.884 314.795ZM622.036 313.534C620.717 313.328 619.406 313.126 618.106 312.927L618.408 310.95C619.71 311.149 621.023 311.352 622.345 311.558L622.036 313.534ZM614.177 312.33C612.856 312.13 611.549 311.933 610.254 311.737L610.553 309.759C611.846 309.955 613.156 310.152 614.477 310.352L614.177 312.33ZM606.315 311.138C604.983 310.934 603.668 310.731 602.373 310.528L602.683 308.553C603.975 308.755 605.287 308.958 606.617 309.161L606.315 311.138ZM598.435 309.899C597.781 309.793 597.133 309.686 596.491 309.578L596.822 307.606C597.46 307.713 598.106 307.819 598.757 307.926L598.435 309.899ZM596.491 309.578C595.843 309.47 595.193 309.363 594.541 309.258L594.86 307.283C595.516 307.389 596.17 307.497 596.822 307.606L596.491 309.578ZM590.604 308.644C589.284 308.446 587.955 308.253 586.62 308.067L586.896 306.086C588.239 306.274 589.574 306.467 590.901 306.666L590.604 308.644ZM582.619 307.529C581.311 307.36 579.995 307.195 578.672 307.037L578.911 305.051C580.239 305.211 581.561 305.375 582.876 305.546L582.619 307.529ZM574.684 306.575C573.348 306.426 572.005 306.282 570.656 306.143L570.861 304.154C572.216 304.294 573.564 304.438 574.906 304.587L574.684 306.575ZM566.691 305.751C565.369 305.625 564.04 305.503 562.706 305.386L562.881 303.393C564.22 303.511 565.553 303.633 566.881 303.76L566.691 305.751ZM558.685 305.046C557.353 304.938 556.016 304.835 554.673 304.735L554.821 302.74C556.168 302.84 557.51 302.945 558.846 303.053L558.685 305.046ZM550.693 304.45C549.361 304.359 548.024 304.272 546.682 304.187L546.808 302.191C548.153 302.276 549.494 302.363 550.829 302.455L550.693 304.45ZM542.642 303.945C541.317 303.869 539.988 303.796 538.654 303.727L538.758 301.729C540.095 301.799 541.428 301.872 542.757 301.948L542.642 303.945ZM534.654 303.527C533.317 303.464 531.975 303.403 530.629 303.345L530.715 301.347C532.064 301.405 533.408 301.466 534.749 301.529L534.654 303.527ZM526.594 303.179C525.268 303.128 523.938 303.079 522.605 303.032L522.675 301.033C524.011 301.08 525.343 301.129 526.672 301.181L526.594 303.179ZM518.593 302.898C517.252 302.856 515.907 302.816 514.559 302.778L514.615 300.779C515.966 300.817 517.312 300.857 518.656 300.899L518.593 302.898ZM510.539 302.671C509.209 302.638 507.875 302.607 506.539 302.577L506.583 300.578C507.921 300.607 509.257 300.639 510.589 300.672L510.539 302.671ZM502.519 302.494C501.177 302.468 499.831 302.443 498.482 302.42L498.516 300.42C499.866 300.443 501.214 300.468 502.558 300.494L502.519 302.494ZM494.47 302.356C493.137 302.337 491.801 302.318 490.463 302.301L490.488 300.301C491.828 300.319 493.165 300.337 494.5 300.357L494.47 302.356ZM486.44 302.254C485.096 302.239 483.75 302.225 482.402 302.213L482.42 300.213C483.77 300.226 485.117 300.239 486.461 300.254L486.44 302.254ZM478.393 302.179C477.058 302.168 475.72 302.159 474.381 302.15L474.394 300.15C475.734 300.159 477.073 300.168 478.409 300.179L478.393 302.179ZM470.356 302.126C469.013 302.118 467.667 302.112 466.32 302.106L466.329 300.106C467.677 300.112 469.023 300.118 470.367 300.126L470.356 302.126ZM462.311 302.089C460.974 302.084 459.636 302.079 458.296 302.075L458.302 300.075C459.642 300.079 460.981 300.084 462.319 300.089L462.311 302.089ZM454.27 302.063C452.927 302.059 451.583 302.055 450.236 302.052L450.242 300.052C451.588 300.055 452.933 300.059 454.276 300.063L454.27 302.063ZM446.225 302.042C444.887 302.038 443.548 302.035 442.207 302.032L442.212 300.032C443.553 300.035 444.892 300.038 446.23 300.042L446.225 302.042ZM438.182 302.021C436.84 302.017 435.496 302.013 434.151 302.009L434.158 300.009C435.502 300.013 436.845 300.017 438.188 300.021L438.182 302.021ZM430.136 301.996C428.797 301.991 427.457 301.985 426.116 301.979L426.125 299.979C427.465 299.985 428.805 299.991 430.144 299.996L430.136 301.996ZM422.092 301.96C420.75 301.953 419.407 301.946 418.064 301.937L418.077 299.937C419.419 299.946 420.761 299.953 422.103 299.96L422.092 301.96ZM414.045 301.91C412.705 301.9 411.364 301.89 410.024 301.878L410.041 299.878C411.381 299.89 412.721 299.9 414.06 299.91L414.045 301.91ZM406 301.84C404.659 301.827 403.317 301.812 401.975 301.796L401.999 299.797C403.339 299.812 404.68 299.827 406.02 299.84L406 301.84ZM397.952 301.746C396.611 301.728 395.27 301.708 393.929 301.688L393.96 299.688C395.299 299.709 396.639 299.728 397.979 299.746L397.952 301.746ZM389.906 301.622C388.566 301.598 387.225 301.574 385.885 301.547L385.924 299.548C387.263 299.574 388.602 299.599 389.941 299.622L389.906 301.622ZM381.858 301.463C380.517 301.434 379.175 301.402 377.834 301.369L377.883 299.37C379.223 299.403 380.562 299.434 381.903 299.464L381.858 301.463ZM373.813 301.265C372.473 301.228 371.134 301.19 369.795 301.149L369.855 299.15C371.192 299.191 372.529 299.229 373.867 299.266L373.813 301.265ZM365.766 301.022C364.424 300.977 363.082 300.93 361.741 300.881L361.814 298.883C363.153 298.932 364.492 298.978 365.832 299.023L365.766 301.022ZM357.722 300.728C356.383 300.675 355.045 300.619 353.708 300.561L353.795 298.563C355.129 298.621 356.465 298.676 357.801 298.73L357.722 300.728ZM349.678 300.378C348.335 300.315 346.993 300.249 345.653 300.181L345.755 298.183C347.093 298.252 348.432 298.317 349.772 298.381L349.678 300.378ZM341.637 299.967C340.3 299.893 338.964 299.817 337.629 299.737L337.748 297.741C339.08 297.82 340.413 297.897 341.747 297.97L341.637 299.967ZM333.598 299.488C332.256 299.402 330.915 299.313 329.576 299.221L329.714 297.226C331.049 297.318 332.387 297.406 333.726 297.492L333.598 299.488ZM325.565 298.935C324.229 298.837 322.895 298.735 321.563 298.63L321.72 296.636C323.049 296.741 324.38 296.842 325.712 296.94L325.565 298.935ZM317.534 298.301C316.193 298.188 314.854 298.072 313.518 297.951L313.697 295.959C315.03 296.079 316.365 296.195 317.702 296.308L317.534 298.301ZM309.515 297.58C308.18 297.452 306.848 297.321 305.518 297.185L305.72 295.195C307.046 295.33 308.375 295.462 309.706 295.589L309.515 297.58ZM301.496 296.763C300.158 296.618 298.822 296.469 297.489 296.316L297.717 294.329C299.046 294.482 300.377 294.63 301.711 294.775L301.496 296.763ZM293.499 295.845C292.166 295.682 290.836 295.516 289.508 295.345L289.764 293.361C291.086 293.532 292.412 293.698 293.741 293.859L293.499 295.845ZM285.498 294.813C284.165 294.631 282.834 294.445 281.507 294.254L281.792 292.274C283.114 292.465 284.44 292.65 285.768 292.832L285.498 294.813ZM277.536 293.665C276.204 293.463 274.877 293.255 273.552 293.043L273.87 291.068C275.188 291.28 276.511 291.486 277.837 291.688L277.536 293.665ZM269.562 292.384C268.236 292.159 266.913 291.929 265.594 291.694L265.946 289.725C267.259 289.96 268.576 290.189 269.896 290.412L269.562 292.384ZM261.65 290.971C260.321 290.721 258.997 290.466 257.677 290.204L258.066 288.242C259.379 288.503 260.697 288.757 262.019 289.005L261.65 290.971ZM253.717 289.4C252.401 289.126 251.089 288.845 249.782 288.559L250.21 286.605C251.511 286.89 252.815 287.169 254.125 287.442L253.717 289.4ZM245.867 287.679C244.546 287.375 243.23 287.065 241.92 286.747L242.39 284.803C243.694 285.119 245.002 285.428 246.316 285.73L245.867 287.679ZM238.002 285.775C236.701 285.444 235.405 285.106 234.115 284.762L234.631 282.83C235.913 283.172 237.202 283.508 238.495 283.837L238.002 285.775ZM230.223 283.697C228.92 283.332 227.623 282.959 226.331 282.579L226.896 280.66C228.179 281.038 229.468 281.408 230.763 281.771L230.223 283.697ZM222.473 281.416C221.192 281.02 219.918 280.617 218.65 280.206L219.266 278.304C220.525 278.712 221.791 279.112 223.063 279.505L222.473 281.416ZM214.797 278.928C213.518 278.493 212.246 278.05 210.98 277.599L211.651 275.715C212.908 276.163 214.171 276.603 215.44 277.034L214.797 278.928ZM207.202 276.22C205.939 275.747 204.682 275.266 203.433 274.777L204.163 272.915C205.402 273.401 206.649 273.878 207.902 274.346L207.202 276.22ZM199.672 273.267C198.426 272.754 197.187 272.232 195.956 271.701L196.748 269.865C197.969 270.391 199.197 270.909 200.433 271.417L199.672 273.267ZM192.28 270.078C191.044 269.519 189.816 268.951 188.596 268.372L189.453 266.565C190.662 267.138 191.879 267.702 193.104 268.256L192.28 270.078ZM184.96 266.606C183.756 266.007 182.561 265.397 181.373 264.778L182.298 263.005C183.474 263.618 184.659 264.222 185.851 264.815L184.96 266.606ZM177.805 262.871C176.619 262.221 175.442 261.561 174.273 260.89L175.27 259.156C176.426 259.82 177.591 260.474 178.765 261.116L177.805 262.871ZM170.796 258.844C169.641 258.148 168.497 257.441 167.361 256.723L168.43 255.033C169.553 255.743 170.686 256.443 171.828 257.131L170.796 258.844ZM163.962 254.519C162.838 253.773 161.724 253.015 160.62 252.245L161.764 250.604C162.856 251.366 163.957 252.115 165.068 252.853L163.962 254.519ZM157.337 249.897C156.248 249.099 155.168 248.289 154.099 247.466L155.319 245.881C156.376 246.694 157.442 247.495 158.519 248.284L157.337 249.897ZM150.924 244.96C149.876 244.112 148.838 243.251 147.811 242.377L149.107 240.854C150.121 241.717 151.146 242.567 152.182 243.405L150.924 244.96ZM144.765 239.72C143.761 238.822 142.768 237.91 141.785 236.985L143.156 235.529C144.126 236.442 145.107 237.342 146.099 238.23L144.765 239.72ZM138.872 234.171C138.392 233.696 137.914 233.216 137.44 232.734L138.866 231.331C139.334 231.808 139.806 232.281 140.28 232.751L138.872 234.171ZM137.44 232.734C136.966 232.252 136.496 231.768 136.03 231.281L137.473 229.897C137.934 230.378 138.398 230.856 138.866 231.331L137.44 232.734ZM133.276 228.335C132.37 227.341 131.478 226.338 130.601 225.326L132.112 224.016C132.979 225.015 133.859 226.006 134.754 226.988L133.276 228.335ZM127.995 222.248C127.139 221.212 126.297 220.168 125.468 219.116L127.039 217.878C127.859 218.918 128.691 219.95 129.537 220.974L127.995 222.248ZM123.01 215.92C122.203 214.846 121.409 213.765 120.628 212.676L122.253 211.51C123.026 212.587 123.811 213.657 124.608 214.718L123.01 215.92ZM118.313 209.377C117.554 208.271 116.806 207.156 116.07 206.036L117.742 204.938C118.471 206.048 119.211 207.151 119.963 208.246L118.313 209.377ZM113.894 202.649C113.179 201.513 112.476 200.371 111.783 199.222L113.495 198.189C114.182 199.327 114.879 200.459 115.587 201.584L113.894 202.649ZM109.735 195.759C109.063 194.599 108.401 193.433 107.748 192.261L109.495 191.287C110.142 192.45 110.799 193.606 111.466 194.756L109.735 195.759ZM105.818 188.733C105.185 187.552 104.56 186.366 103.943 185.175L105.72 184.256C106.332 185.438 106.952 186.615 107.58 187.787L105.818 188.733ZM102.121 181.592C101.522 180.394 100.931 179.192 100.348 177.985L102.148 177.114C102.728 178.313 103.315 179.508 103.91 180.698L102.121 181.592ZM98.6206 174.356C98.0527 173.144 97.4917 171.929 96.9371 170.709L98.7576 169.881C99.3092 171.094 99.8671 172.303 100.432 173.508L98.6206 174.356ZM95.2926 167.043C94.7515 165.82 94.2161 164.594 93.6862 163.364L95.5228 162.572C96.0504 163.796 96.5831 165.017 97.1216 166.234L95.2926 167.043ZM92.1122 159.669C91.5936 158.436 91.0797 157.201 90.5703 155.964L92.4196 155.203C92.9272 156.435 93.439 157.665 93.9556 158.893L92.1122 159.669ZM89.0546 152.247C88.5541 151.007 88.0574 149.766 87.5642 148.523L89.4232 147.785C89.915 149.025 90.4102 150.262 90.9091 151.498L89.0546 152.247ZM86.0944 144.79C85.6077 143.544 85.124 142.298 84.6428 141.051L86.5087 140.331C86.989 141.576 87.4717 142.819 87.9572 144.062L86.0944 144.79ZM83.2061 137.307C82.7292 136.059 82.2543 134.809 81.7809 133.56L83.6512 132.851C84.1241 134.099 84.5983 135.347 85.0745 136.594L83.2061 137.307ZM80.3646 129.81C79.8934 128.56 79.4232 127.309 78.9535 126.059L80.8257 125.356C81.2953 126.606 81.7652 127.855 82.2361 129.105L80.3646 129.81ZM77.5448 122.308C77.0751 121.058 76.6055 119.808 76.1354 118.559L78.0072 117.855C78.4775 119.104 78.9473 120.355 79.4171 121.605L77.5448 122.308ZM74.7215 114.811C74.2492 113.563 73.776 112.315 73.3013 111.07L75.1703 110.357C75.6456 111.605 76.1194 112.854 76.5922 114.104L74.7215 114.811ZM71.8693 107.329C71.3902 106.084 70.9092 104.841 70.4257 103.6L72.2893 102.874C72.7739 104.118 73.2559 105.363 73.7359 106.611L71.8693 107.329ZM68.9626 99.8716C68.4722 98.6313 67.9788 97.3937 67.4821 96.1591L69.3375 95.4125C69.8359 96.6511 70.3307 97.8924 70.8225 99.1361L68.9626 99.8716ZM65.9753 92.4502C65.4691 91.2165 64.9589 89.9862 64.4443 88.7596L66.2886 87.9859C66.8054 89.2176 67.3175 90.4527 67.8256 91.6909L65.9753 92.4502ZM62.881 85.0772C62.3545 83.8523 61.8231 82.6314 61.2861 81.4149L63.1158 80.6073C63.6555 81.83 64.1895 83.0569 64.7184 84.2874L62.881 85.0772ZM59.6528 77.7664C59.1016 76.5527 58.5443 75.3438 57.9805 74.1399L59.7917 73.2916C60.3589 74.5028 60.9195 75.7189 61.4738 76.9394L59.6528 77.7664ZM56.2639 70.5336C55.6834 69.334 55.0958 68.1399 54.5005 66.9516L56.2887 66.0558C56.8882 67.2526 57.4799 68.4549 58.0642 69.6624L56.2639 70.5336ZM52.6871 63.3966C52.0729 62.2145 51.4505 61.0387 50.8193 59.8694L52.5793 58.9194C53.2156 60.0982 53.843 61.2834 54.4619 62.4745L52.6871 63.3966ZM48.8959 56.3762C48.2438 55.2155 47.5824 54.0618 46.9111 52.9155L48.6369 51.9048C49.3145 53.0618 49.9819 54.2258 50.6396 55.3966L48.8959 56.3762ZM44.8649 49.4957C44.171 48.3609 43.4667 47.2338 42.7513 46.1148L44.4363 45.0375C45.1591 46.168 45.8705 47.3064 46.5712 48.4524L44.8649 49.4957ZM40.5706 42.7813C39.8315 41.6772 39.0807 40.5816 38.3179 39.4949L39.9548 38.3458C40.7264 39.4449 41.4854 40.5526 42.2326 41.6687L40.5706 42.7813ZM35.9926 36.2618C35.2054 35.1939 34.4056 34.1351 33.5927 33.0858L35.1736 31.8608C35.9966 32.923 36.8061 33.9946 37.6025 35.0752L35.9926 36.2618ZM31.1144 29.968C30.2774 28.9417 29.4268 27.9253 28.562 26.919L30.0789 25.6154C30.955 26.635 31.8167 27.6646 32.6643 28.7039L31.1144 29.968ZM25.925 23.9314C25.0375 22.9525 24.1356 21.984 23.2185 21.0261L24.6631 19.643C25.5929 20.6141 26.5072 21.5959 27.4067 22.588L25.925 23.9314ZM20.4216 18.1848C19.4836 17.2582 18.5303 16.3424 17.5613 15.4376L18.9261 13.9757C19.9091 14.8934 20.8759 15.8223 21.8271 16.762L20.4216 18.1848ZM14.6082 12.7586C13.6204 11.8881 12.6166 11.0286 11.5966 10.1806L12.8751 8.64263C13.9101 9.50303 14.9284 10.375 15.9305 11.2581L14.6082 12.7586ZM8.495 7.67756C7.45886 6.86603 6.40643 6.06584 5.33716 5.27731L6.52417 3.66766C7.60907 4.46773 8.67694 5.27962 9.72821 6.10303L8.495 7.67756ZM2.0993 2.96144C1.55121 2.58131 0.99884 2.20413 0.442139 1.82993L1.55786 0.170066C2.12262 0.549684 2.68298 0.932342 3.23907 1.318L2.0993 2.96144Z" fill="#B4B3EF"/>
</svg>
