<svg width="264" height="261" viewBox="0 0 264 261" fill="none" xmlns="http://www.w3.org/2000/svg">
<path d="M77.8274 152.891L78.3623 152.047L77.8274 152.891ZM161.308 186.215L160.99 187.163L161.308 186.215ZM204.814 199.838L205.3 198.964L204.814 199.838ZM232.383 218.836L231.702 219.569L232.383 218.836ZM259.924 260.386C259.71 260.896 259.124 261.135 258.615 260.922L250.314 257.444C249.805 257.23 249.565 256.644 249.778 256.135C249.992 255.626 250.578 255.386 251.087 255.599L258.466 258.691L261.557 251.313C261.771 250.803 262.357 250.563 262.866 250.777C263.376 250.99 263.616 251.576 263.402 252.086L259.924 260.386ZM258.076 260.379C257.676 259.403 257.284 258.45 256.897 257.519L258.744 256.751C259.133 257.686 259.526 258.642 259.927 259.621L258.076 260.379ZM254.475 251.845C253.617 249.901 252.764 248.05 251.888 246.267L253.684 245.386C254.573 247.198 255.439 249.075 256.305 251.037L254.475 251.845ZM249.03 240.848C248.021 239.077 246.957 237.355 245.808 235.654L247.466 234.535C248.645 236.281 249.735 238.046 250.767 239.858L249.03 240.848ZM242.19 230.731C240.967 229.197 239.648 227.655 238.208 226.086L239.682 224.734C241.151 226.335 242.501 227.912 243.754 229.485L242.19 230.731ZM233.931 221.69C233.215 220.992 232.472 220.285 231.702 219.569L233.064 218.104C233.845 218.831 234.599 219.548 235.327 220.258L233.931 221.69ZM231.702 219.569C231.001 218.916 230.317 218.292 229.647 217.693L230.979 216.202C231.66 216.81 232.354 217.443 233.064 218.104L231.702 219.569ZM225.422 214.103C223.937 212.909 222.481 211.812 221.006 210.768L222.161 209.135C223.67 210.203 225.158 211.324 226.676 212.545L225.422 214.103ZM216.392 207.698C214.885 206.751 213.312 205.809 211.626 204.831L212.63 203.102C214.33 204.088 215.924 205.042 217.456 206.005L216.392 207.698ZM206.774 202.075C205.985 201.634 205.171 201.18 204.328 200.712L205.3 198.964C206.143 199.433 206.959 199.887 207.75 200.329L206.774 202.075ZM204.328 200.712C203.479 200.24 202.648 199.798 201.833 199.382L202.741 197.6C203.578 198.027 204.43 198.481 205.3 198.964L204.328 200.712ZM196.714 197.022C194.903 196.275 193.15 195.645 191.423 195.092L192.032 193.187C193.807 193.755 195.611 194.404 197.477 195.173L196.714 197.022ZM185.983 193.557C184.162 193.101 182.331 192.687 180.442 192.269L180.874 190.316C182.766 190.735 184.621 191.154 186.469 191.617L185.983 193.557ZM174.852 191.02C173.069 190.609 171.217 190.161 169.27 189.645L169.783 187.711C171.703 188.221 173.533 188.664 175.302 189.072L174.852 191.02ZM163.737 188.052C162.843 187.774 161.928 187.478 160.99 187.163L161.627 185.267C162.55 185.577 163.451 185.868 164.332 186.143L163.737 188.052ZM160.99 187.163C160.109 186.867 159.219 186.57 158.323 186.27L158.957 184.373C159.854 184.673 160.744 184.971 161.627 185.267L160.99 187.163ZM152.983 184.49C151.221 183.904 149.439 183.311 147.641 182.712L148.273 180.815C150.07 181.414 151.852 182.006 153.614 182.593L152.983 184.49ZM142.3 180.926C140.53 180.331 138.749 179.73 136.963 179.123L137.607 177.229C139.39 177.836 141.168 178.436 142.937 179.03L142.3 180.926ZM131.632 177.294C129.858 176.68 128.082 176.06 126.311 175.433L126.978 173.547C128.745 174.173 130.516 174.792 132.286 175.404L131.632 177.294ZM121.002 173.53C119.229 172.885 117.463 172.234 115.711 171.576L116.414 169.703C118.159 170.359 119.918 171.007 121.686 171.65L121.002 173.53ZM110.44 169.56C108.673 168.87 106.923 168.173 105.197 167.469L105.952 165.617C107.668 166.317 109.408 167.01 111.167 167.696L110.44 169.56ZM99.9856 165.29C98.2294 164.536 96.5042 163.773 94.8158 163.003L95.6463 161.183C97.3198 161.947 99.0312 162.703 100.775 163.452L99.9856 165.29ZM89.6993 160.584C87.9659 159.734 86.2819 158.873 84.6545 158.003L85.5978 156.239C87.2025 157.098 88.8656 157.947 90.5801 158.788L89.6993 160.584ZM79.7114 155.22C78.8853 154.729 78.0786 154.234 77.2924 153.736L78.3623 152.047C79.1318 152.534 79.9227 153.018 80.7336 153.501L79.7114 155.22ZM77.2924 153.736C76.487 153.226 75.6665 152.671 74.8326 152.073L75.9986 150.448C76.8041 151.026 77.5925 151.559 78.3623 152.047L77.2924 153.736ZM70.1671 148.401C68.7307 147.177 67.2632 145.847 65.7715 144.418L67.1551 142.973C68.6217 144.378 70.0603 145.682 71.464 146.878L70.1671 148.401ZM61.5797 140.211C60.263 138.832 58.9325 137.385 57.5925 135.876L59.0881 134.548C60.4131 136.04 61.7273 137.469 63.0264 138.83L61.5797 140.211ZM53.7498 131.408C52.5155 129.929 51.2766 128.402 50.0363 126.831L51.6061 125.591C52.8356 127.149 54.0631 128.662 55.2854 130.127L53.7498 131.408ZM46.4421 122.159C45.2788 120.609 44.1171 119.024 42.9597 117.406L44.5862 116.242C45.735 117.848 46.8878 119.421 48.0418 120.959L46.4421 122.159ZM39.5835 112.577C38.4852 110.97 37.3932 109.336 36.3101 107.679L37.9843 106.585C39.0599 108.231 40.1442 109.853 41.2347 111.449L39.5835 112.577ZM33.1375 102.715C32.1022 101.059 31.0775 99.3828 30.0655 97.6893L31.7824 96.6634C32.7875 98.3454 33.8053 100.01 34.8335 101.655L33.1375 102.715ZM27.095 92.6032C26.1241 90.9018 25.1677 89.186 24.2281 87.4586L25.985 86.5029C26.9181 88.2183 27.8678 89.9222 28.8321 91.6119L27.095 92.6032ZM21.4682 82.2566C20.5657 80.5115 19.682 78.7572 18.8191 76.9961L20.6151 76.1161C21.4715 77.8639 22.3487 79.6054 23.2447 81.3379L21.4682 82.2566ZM16.2864 71.676C15.4595 69.8863 14.6559 68.0923 13.878 66.2964L15.7133 65.5014C16.4846 67.2822 17.2816 69.0616 18.102 70.8371L16.2864 71.676ZM11.6036 60.8566C10.8643 59.0214 10.154 57.1869 9.47505 55.3559L11.3503 54.6606C12.0225 56.4735 12.7261 58.2907 13.4587 60.1093L11.6036 60.8566ZM7.5069 49.7933C6.87337 47.9105 6.27589 46.0343 5.71715 44.1678L7.63313 43.5942C8.18517 45.4383 8.77579 47.2931 9.40247 49.1555L7.5069 49.7933ZM4.12813 38.4786C3.62823 36.5461 3.17378 34.6274 2.76782 32.7261L4.72372 32.3085C5.12343 34.1805 5.57127 36.0714 6.06439 37.9778L4.12813 38.4786ZM1.67148 26.9126C1.34927 24.9317 1.08545 22.9741 0.88382 21.0441L2.87299 20.8363C3.07043 22.7261 3.32907 24.6458 3.64554 26.5915L1.67148 26.9126ZM0.461334 15.1333C0.387085 13.1106 0.39032 11.1247 0.476013 9.18133L2.47409 9.26945C2.39093 11.1553 2.38757 13.0871 2.45999 15.0599L0.461334 15.1333ZM1.02078 3.23313C1.16199 2.24266 1.32843 1.26586 1.52087 0.30364L3.48204 0.695872C3.29715 1.62032 3.13692 2.56043 3.00073 3.51545L1.02078 3.23313Z" fill="#B4B3EF"/>
</svg>
