<svg width="244" height="190" viewBox="0 0 244 190" fill="none" xmlns="http://www.w3.org/2000/svg">
<path d="M204.376 62.0875L204.939 62.9138L204.376 62.0875ZM112.508 101.573L112.848 102.513L112.508 101.573ZM64.6322 117.714L64.1188 116.856L64.6322 117.714ZM34.2938 140.226L35.0016 140.932L34.2938 140.226ZM4.08921 189.409C4.31545 189.913 4.90727 190.138 5.4111 189.912L13.6214 186.225C14.1252 185.999 14.3502 185.407 14.124 184.903C13.8977 184.4 13.3059 184.175 12.8021 184.401L5.50409 187.678L2.22704 180.38C2.00081 179.876 1.40898 179.651 0.905156 179.877C0.401333 180.103 0.176302 180.695 0.402535 181.199L4.08921 189.409ZM5.93618 189.355C6.28285 188.443 6.62455 187.549 6.96243 186.67L5.0957 185.952C4.75673 186.834 4.41412 187.731 4.06675 188.644L5.93618 189.355ZM9.05164 181.335C9.78311 179.508 10.5072 177.751 11.2367 176.049L9.39861 175.261C8.6614 176.98 7.9311 178.753 7.19496 180.591L9.05164 181.335ZM13.5755 170.846C14.3998 169.104 15.2465 167.413 16.1322 165.758L14.3687 164.814C13.4659 166.501 12.6045 168.222 11.7676 169.991L13.5755 170.846ZM18.9569 160.825C19.9347 159.23 20.9684 157.653 22.0746 156.077L20.4376 154.928C19.3074 156.538 18.251 158.15 17.2518 159.779L18.9569 160.825ZM25.4779 151.525C26.6197 150.087 27.8345 148.637 29.1347 147.164L27.6349 145.84C26.313 147.339 25.0759 148.815 23.9116 150.282L25.4779 151.525ZM32.9993 142.975C33.6475 142.301 34.3146 141.62 35.0016 140.932L33.5859 139.519C32.8906 140.216 32.2149 140.905 31.5579 141.588L32.9993 142.975ZM35.0016 140.932C35.7662 140.166 36.512 139.433 37.2429 138.73L35.8561 137.288C35.1149 138.002 34.3595 138.744 33.5859 139.519L35.0016 140.932ZM41.8617 134.499C43.4931 133.085 45.0912 131.786 46.7096 130.551L45.4959 128.961C43.8444 130.222 42.2142 131.546 40.5515 132.988L41.8617 134.499ZM51.7943 126.901C53.4608 125.773 55.2002 124.65 57.0629 123.486L56.0027 121.79C54.1251 122.964 52.3643 124.1 50.6726 125.246L51.7943 126.901ZM62.4366 120.198C63.3104 119.672 64.2122 119.131 65.1457 118.573L64.1188 116.856C63.1844 117.415 62.2808 117.957 61.4046 118.485L62.4366 120.198ZM65.1457 118.573C66.0721 118.018 66.9787 117.498 67.868 117.01L66.9051 115.257C65.9938 115.758 65.0659 116.29 64.1188 116.856L65.1457 118.573ZM73.4679 114.225C75.4584 113.338 77.3844 112.59 79.2822 111.935L78.6295 110.044C76.6814 110.717 74.7014 111.486 72.6544 112.398L73.4679 114.225ZM85.2787 110.107C87.2894 109.563 89.3121 109.07 91.3971 108.573L90.9331 106.628C88.8444 107.126 86.7975 107.624 84.7561 108.177L85.2787 110.107ZM97.5708 107.089C99.5383 106.601 101.582 106.069 103.731 105.455L103.181 103.532C101.061 104.137 99.0411 104.663 97.089 105.148L97.5708 107.089ZM109.826 103.566C110.81 103.236 111.817 102.886 112.848 102.513L112.168 100.632C111.152 101 110.16 101.345 109.19 101.67L109.826 103.566ZM112.848 102.513C113.821 102.161 114.803 101.808 115.793 101.452L115.116 99.5696C114.125 99.9259 113.143 100.28 112.168 100.632L112.848 102.513ZM121.688 99.3364C123.633 98.6396 125.601 97.9349 127.585 97.2224L126.91 95.34C124.926 96.0522 122.958 96.7567 121.013 97.4536L121.688 99.3364ZM133.481 95.099C135.435 94.3922 137.4 93.6779 139.371 92.9559L138.683 91.0779C136.715 91.7988 134.752 92.5122 132.8 93.2183L133.481 95.099ZM145.253 90.7833C147.21 90.0537 149.168 89.3165 151.123 88.5717L150.41 86.7029C148.461 87.4457 146.508 88.1812 144.554 88.9093L145.253 90.7833ZM156.976 86.3111C158.93 85.5455 160.876 84.772 162.807 83.9906L162.057 82.1366C160.133 82.915 158.194 83.6857 156.246 84.4489L156.976 86.3111ZM168.611 81.5978C170.557 80.78 172.482 79.9536 174.382 79.1186L173.577 77.2877C171.688 78.118 169.773 78.9401 167.836 79.7541L168.611 81.5978ZM180.11 76.5357C182.039 75.6428 183.933 74.7403 185.786 73.828L184.903 72.0336C183.065 72.9383 181.185 73.834 179.27 74.7208L180.11 76.5357ZM191.395 70.9691C193.291 69.9662 195.133 68.9516 196.913 67.9252L195.914 66.1926C194.157 67.2057 192.336 68.2085 190.46 69.2012L191.395 70.9691ZM202.306 64.6529C203.205 64.0769 204.083 63.4973 204.939 62.9138L203.812 61.2613C202.973 61.8334 202.111 62.4026 201.227 62.9688L202.306 64.6529ZM204.939 62.9138C205.826 62.3089 206.699 61.6971 207.557 61.0788L206.387 59.4564C205.544 60.0644 204.685 60.6661 203.812 61.2613L204.939 62.9138ZM212.641 57.2001C214.326 55.8387 215.944 54.4507 217.496 53.0387L216.15 51.5594C214.628 52.9446 213.039 54.3071 211.384 55.6443L212.641 57.2001ZM222.092 48.5883C223.603 47.0292 225.037 45.4457 226.394 43.8413L224.867 42.5497C223.54 44.1191 222.136 45.6691 220.656 47.1966L222.092 48.5883ZM230.353 38.8036C231.633 37.0464 232.823 35.2691 233.925 33.4757L232.221 32.4289C231.147 34.1768 229.986 35.9107 228.737 37.6264L230.353 38.8036ZM237.054 27.8677C238.031 25.9244 238.907 23.9674 239.68 22.0017L237.818 21.27C237.068 23.1777 236.218 25.079 235.267 26.969L237.054 27.8677ZM241.739 15.9071C242.331 13.816 242.808 11.7209 243.168 9.62767L241.197 9.28841C240.849 11.3109 240.388 13.3373 239.815 15.362L241.739 15.9071ZM243.907 3.22389C243.97 2.14675 244.001 1.07176 244.001 -0.000244141H242.001C242.001 1.03262 241.971 2.06877 241.911 3.10744L243.907 3.22389Z" fill="#B4B3EF"/>
</svg>
