<svg width="280" height="271" viewBox="0 0 280 271" fill="none" xmlns="http://www.w3.org/2000/svg">
<path d="M204.376 143.088L204.939 143.914L204.376 143.088ZM112.508 182.573L112.848 183.513L112.508 182.573ZM64.6322 198.714L64.1188 197.856L64.6322 198.714ZM34.2938 221.226L35.0016 221.932L34.2938 221.226ZM4.08921 270.409C4.31545 270.913 4.90727 271.138 5.4111 270.912L13.6214 267.225C14.1252 266.999 14.3502 266.407 14.124 265.903C13.8977 265.4 13.3059 265.175 12.8021 265.401L5.50409 268.678L2.22704 261.38C2.0008 260.876 1.40898 260.651 0.905156 260.877C0.401333 261.103 0.176302 261.695 0.402535 262.199L4.08921 270.409ZM5.93618 270.355C6.28285 269.443 6.62455 268.549 6.96243 267.67L5.0957 266.952C4.75673 267.834 4.41412 268.731 4.06675 269.644L5.93618 270.355ZM9.05164 262.335C9.78311 260.508 10.5072 258.751 11.2367 257.049L9.39861 256.261C8.6614 257.98 7.9311 259.753 7.19496 261.591L9.05164 262.335ZM13.5755 251.846C14.3998 250.104 15.2465 248.413 16.1322 246.758L14.3687 245.814C13.4659 247.501 12.6045 249.222 11.7676 250.991L13.5755 251.846ZM18.9569 241.825C19.9347 240.23 20.9684 238.653 22.0746 237.077L20.4376 235.928C19.3074 237.538 18.251 239.15 17.2518 240.779L18.9569 241.825ZM25.4779 232.525C26.6197 231.087 27.8345 229.637 29.1347 228.164L27.6349 226.84C26.313 228.339 25.0759 229.815 23.9116 231.282L25.4779 232.525ZM32.9993 223.975C33.6475 223.301 34.3146 222.62 35.0016 221.932L33.5859 220.519C32.8906 221.216 32.2149 221.905 31.5579 222.588L32.9993 223.975ZM35.0016 221.932C35.7662 221.166 36.512 220.433 37.2429 219.73L35.8561 218.288C35.1149 219.002 34.3595 219.744 33.5859 220.519L35.0016 221.932ZM41.8617 215.499C43.4931 214.085 45.0912 212.786 46.7096 211.551L45.4959 209.961C43.8444 211.222 42.2142 212.546 40.5514 213.988L41.8617 215.499ZM51.7943 207.901C53.4608 206.773 55.2002 205.65 57.0629 204.486L56.0027 202.79C54.1251 203.964 52.3643 205.1 50.6726 206.246L51.7943 207.901ZM62.4366 201.198C63.3104 200.672 64.2122 200.131 65.1457 199.573L64.1188 197.856C63.1844 198.415 62.2808 198.957 61.4046 199.485L62.4366 201.198ZM65.1457 199.573C66.0721 199.018 66.9787 198.498 67.868 198.01L66.9051 196.257C65.9938 196.758 65.0659 197.29 64.1188 197.856L65.1457 199.573ZM73.4679 195.225C75.4584 194.338 77.3844 193.59 79.2822 192.935L78.6295 191.044C76.6814 191.717 74.7014 192.486 72.6543 193.398L73.4679 195.225ZM85.2787 191.107C87.2894 190.563 89.3121 190.07 91.3971 189.573L90.9331 187.628C88.8444 188.126 86.7974 188.624 84.7561 189.177L85.2787 191.107ZM97.5708 188.089C99.5383 187.601 101.582 187.069 103.731 186.455L103.181 184.532C101.061 185.137 99.041 185.663 97.089 186.148L97.5708 188.089ZM109.826 184.566C110.81 184.236 111.817 183.886 112.848 183.513L112.168 181.632C111.152 182 110.16 182.345 109.19 182.67L109.826 184.566ZM112.848 183.513C113.821 183.161 114.803 182.808 115.793 182.452L115.116 180.57C114.125 180.926 113.143 181.28 112.168 181.632L112.848 183.513ZM121.688 180.336C123.633 179.64 125.601 178.935 127.585 178.222L126.91 176.34C124.926 177.052 122.958 177.757 121.013 178.454L121.688 180.336ZM133.481 176.099C135.435 175.392 137.4 174.678 139.371 173.956L138.683 172.078C136.715 172.799 134.752 173.512 132.8 174.218L133.481 176.099ZM145.253 171.783C147.21 171.054 149.168 170.317 151.123 169.572L150.41 167.703C148.461 168.446 146.508 169.181 144.554 169.909L145.253 171.783ZM156.975 167.311C158.93 166.545 160.876 165.772 162.807 164.991L162.057 163.137C160.133 163.915 158.194 164.686 156.246 165.449L156.975 167.311ZM168.611 162.598C170.557 161.78 172.482 160.954 174.382 160.119L173.577 158.288C171.688 159.118 169.773 159.94 167.836 160.754L168.611 162.598ZM180.11 157.536C182.039 156.643 183.933 155.74 185.786 154.828L184.903 153.034C183.065 153.938 181.185 154.834 179.27 155.721L180.11 157.536ZM191.395 151.969C193.291 150.966 195.133 149.952 196.913 148.925L195.914 147.193C194.157 148.206 192.336 149.209 190.46 150.201L191.395 151.969ZM202.306 145.653C203.205 145.077 204.083 144.497 204.939 143.914L203.812 142.261C202.973 142.833 202.111 143.403 201.227 143.969L202.306 145.653ZM204.939 143.914C205.729 143.375 206.539 142.789 207.366 142.157L206.152 140.568C205.351 141.18 204.57 141.745 203.812 142.261L204.939 143.914ZM211.94 138.363C213.349 137.108 214.795 135.746 216.272 134.283L214.865 132.862C213.41 134.302 211.99 135.64 210.61 136.869L211.94 138.363ZM220.395 130.022C221.705 128.615 223.031 127.138 224.37 125.597L222.86 124.285C221.535 125.81 220.224 127.27 218.931 128.66L220.395 130.022ZM228.178 121.079C229.401 119.585 230.631 118.042 231.863 116.453L230.282 115.227C229.061 116.802 227.842 118.332 226.63 119.812L228.178 121.079ZM235.432 111.732C236.586 110.167 237.74 108.565 238.889 106.928L237.253 105.779C236.112 107.403 234.967 108.993 233.822 110.546L235.432 111.732ZM242.237 102.048C243.324 100.426 244.405 98.7747 245.477 97.0974L243.792 96.0203C242.728 97.6854 241.655 99.3245 240.576 100.935L242.237 102.048ZM248.61 92.0791C249.629 90.4062 250.638 88.7109 251.634 86.9956L249.904 85.9915C248.916 87.6944 247.914 89.3774 246.902 91.0382L248.61 92.0791ZM254.548 81.8485C255.497 80.1285 256.431 78.3913 257.348 76.6388L255.576 75.7115C254.666 77.4506 253.739 79.1749 252.797 80.8821L254.548 81.8485ZM260.032 71.3672C260.905 69.6016 261.759 67.8232 262.592 66.0339L260.779 65.1899C259.953 66.9646 259.105 68.7288 258.239 70.4805L260.032 71.3672ZM265.023 60.6391C265.811 58.8286 266.576 57.0092 267.315 55.183L265.462 54.4326C264.729 56.2422 263.971 58.0455 263.189 59.8404L265.023 60.6391ZM269.461 49.6657C270.153 47.8104 270.816 45.9503 271.448 44.0874L269.554 43.4447C268.928 45.2883 268.272 47.1298 267.587 48.967L269.461 49.6657ZM273.263 38.4478C273.84 36.5479 274.384 34.6471 274.89 32.7479L272.958 32.2326C272.457 34.1088 271.921 35.9873 271.349 37.866L273.263 38.4478ZM276.312 26.9895C276.752 25.0469 277.151 23.1081 277.506 21.1756L275.539 20.8143C275.189 22.7188 274.796 24.6306 274.361 26.5474L276.312 26.9895ZM278.448 15.3111C278.719 13.3321 278.94 11.3621 279.109 9.40389L277.116 9.23234C276.951 11.1557 276.733 13.0924 276.466 15.0397L278.448 15.3111ZM279.456 3.46533C279.486 2.47289 279.501 1.48425 279.501 0.499756H277.501C277.501 1.46375 277.487 2.43234 277.457 3.40517L279.456 3.46533Z" fill="#B4B3EF"/>
</svg>
