<svg width="558" height="235" viewBox="0 0 558 235" fill="none" xmlns="http://www.w3.org/2000/svg">
<path d="M0.558228 1.89712C0.0627441 1.65314 -0.141113 1.05369 0.102905 0.558221C0.346863 0.0627531 0.946289 -0.141112 1.44177 0.102876L0.558228 1.89712ZM96.988 119.456L96.3905 120.258L96.988 119.456ZM417.877 158.709L417.755 159.702L417.877 158.709ZM550.707 234.707C550.317 235.098 549.683 235.098 549.293 234.707L542.929 228.343C542.538 227.953 542.538 227.319 542.929 226.929C543.319 226.538 543.953 226.538 544.343 226.929L550 232.586L555.657 226.929C556.047 226.538 556.681 226.538 557.071 226.929C557.462 227.319 557.462 227.953 557.071 228.343L550.707 234.707ZM548.867 232.193C548.788 231.646 549.167 231.139 549.714 231.06C550.261 230.981 550.768 231.36 550.847 231.907L548.867 232.193ZM549.754 227.882C549.956 228.396 549.703 228.977 549.189 229.179C548.675 229.381 548.094 229.127 547.893 228.613L549.754 227.882ZM546.23 225.248C545.949 224.773 546.107 224.16 546.582 223.879C547.058 223.598 547.671 223.756 547.952 224.231L546.23 225.248ZM545.693 220.88C546.026 221.321 545.938 221.948 545.498 222.281C545.057 222.614 544.43 222.526 544.097 222.085L545.693 220.88ZM541.645 219.114C541.277 218.702 541.313 218.07 541.724 217.702C542.136 217.334 542.768 217.369 543.136 217.781L541.645 219.114ZM540.373 214.886C540.766 215.273 540.771 215.907 540.383 216.3C539.995 216.693 539.362 216.697 538.969 216.309L540.373 214.886ZM536.126 213.647C535.714 213.279 535.678 212.647 536.046 212.235C536.414 211.823 537.046 211.787 537.458 212.155L536.126 213.647ZM534.424 209.559C534.851 209.91 534.912 210.54 534.562 210.967C534.211 211.393 533.581 211.455 533.154 211.104L534.424 209.559ZM530.106 208.685C529.668 208.349 529.585 207.722 529.921 207.283C530.257 206.845 530.885 206.762 531.323 207.099L530.106 208.685ZM528.152 204.738C528.599 205.062 528.7 205.687 528.376 206.135C528.053 206.582 527.428 206.683 526.98 206.36L528.152 204.738ZM523.779 204.108C523.324 203.796 523.207 203.173 523.52 202.718C523.832 202.262 524.454 202.146 524.91 202.458L523.779 204.108ZM521.607 200.249C522.07 200.551 522.199 201.171 521.897 201.633C521.595 202.095 520.975 202.225 520.513 201.923L521.607 200.249ZM517.219 199.816C516.751 199.523 516.609 198.906 516.902 198.438C517.195 197.97 517.812 197.828 518.28 198.121L517.219 199.816ZM514.915 196.056C515.388 196.341 515.541 196.955 515.256 197.429C514.972 197.902 514.357 198.054 513.884 197.77L514.915 196.056ZM510.501 195.771C510.023 195.494 509.861 194.882 510.138 194.404C510.415 193.927 511.027 193.764 511.505 194.041L510.501 195.771ZM508.071 192.084C508.553 192.354 508.725 192.963 508.455 193.445C508.185 193.927 507.575 194.098 507.093 193.828L508.071 192.084ZM503.663 191.936C503.178 191.673 502.998 191.066 503.261 190.58C503.525 190.095 504.132 189.915 504.617 190.179L503.663 191.936ZM501.129 188.314C501.617 188.572 501.805 189.176 501.548 189.665C501.291 190.154 500.686 190.342 500.197 190.084L501.129 188.314ZM496.714 188.278C496.222 188.027 496.027 187.425 496.278 186.933C496.529 186.441 497.132 186.246 497.624 186.497L496.714 188.278ZM494.098 184.722C494.593 184.968 494.795 185.568 494.549 186.063C494.304 186.557 493.704 186.759 493.209 186.514L494.098 184.722ZM489.681 184.786C489.183 184.546 488.975 183.948 489.215 183.451C489.455 182.954 490.053 182.745 490.55 182.985L489.681 184.786ZM486.987 181.288C487.487 181.523 487.702 182.119 487.467 182.619C487.232 183.119 486.637 183.333 486.137 183.099L486.987 181.288ZM482.573 181.447C482.071 181.217 481.85 180.624 482.079 180.122C482.309 179.619 482.902 179.398 483.404 179.628L482.573 181.447ZM479.809 178.006C480.314 178.231 480.541 178.822 480.316 179.326C480.092 179.831 479.501 180.058 478.996 179.833L479.809 178.006ZM475.397 178.253C474.891 178.033 474.658 177.445 474.877 176.938C475.097 176.431 475.686 176.198 476.192 176.418L475.397 178.253ZM472.561 174.866C473.07 175.08 473.309 175.667 473.094 176.176C472.88 176.685 472.293 176.923 471.785 176.709L472.561 174.866ZM468.168 175.205C467.657 174.996 467.412 174.412 467.622 173.901C467.831 173.39 468.415 173.145 468.926 173.355L468.168 175.205ZM465.256 171.872C465.77 172.076 466.02 172.658 465.816 173.171C465.611 173.684 465.03 173.934 464.517 173.73L465.256 171.872ZM460.86 172.295C460.345 172.096 460.088 171.517 460.287 171.002C460.487 170.487 461.066 170.231 461.581 170.43L460.86 172.295ZM457.906 169.032C458.424 169.226 458.686 169.802 458.492 170.319C458.299 170.836 457.722 171.099 457.205 170.905L457.906 169.032ZM453.506 169.543C452.987 169.355 452.718 168.782 452.906 168.263C453.094 167.743 453.667 167.475 454.187 167.662L453.506 169.543ZM450.461 166.339C450.983 166.52 451.258 167.091 451.076 167.612C450.894 168.134 450.324 168.409 449.802 168.227L450.461 166.339ZM446.1 166.961C445.576 166.786 445.294 166.219 445.469 165.696C445.644 165.172 446.211 164.889 446.735 165.065L446.1 166.961ZM442.986 163.838C443.512 164.006 443.802 164.569 443.634 165.095C443.466 165.621 442.903 165.911 442.377 165.743L442.986 163.838ZM438.617 164.571C438.088 164.411 437.789 163.853 437.95 163.324C438.11 162.796 438.668 162.497 439.197 162.657L438.617 164.571ZM435.396 161.541C435.927 161.692 436.236 162.245 436.085 162.776C435.934 163.307 435.381 163.615 434.849 163.464L435.396 161.541ZM431.072 162.432C430.538 162.292 430.218 161.745 430.358 161.211C430.498 160.676 431.045 160.357 431.579 160.497L431.072 162.432ZM427.738 159.539C428.275 159.666 428.608 160.204 428.482 160.742C428.355 161.28 427.817 161.613 427.279 161.486L427.738 159.539ZM423.464 160.65C422.923 160.541 422.572 160.013 422.681 159.472C422.79 158.931 423.317 158.58 423.859 158.689L423.464 160.65ZM419.931 157.985C420.476 158.069 420.851 158.58 420.767 159.126C420.683 159.672 420.172 160.046 419.626 159.962L419.931 157.985ZM415.808 159.469C415.26 159.405 414.867 158.909 414.931 158.36C414.995 157.812 415.491 157.419 416.04 157.483L415.808 159.469ZM412.072 157.043C412.621 157.101 413.02 157.593 412.962 158.142C412.904 158.692 412.412 159.09 411.863 159.032L412.072 157.043ZM407.88 158.635C407.33 158.584 406.926 158.096 406.978 157.546C407.03 156.996 407.518 156.592 408.068 156.644L407.88 158.635ZM404.11 156.29C404.66 156.337 405.069 156.82 405.022 157.371C404.975 157.921 404.491 158.329 403.941 158.283L404.11 156.29ZM399.945 157.961C399.394 157.92 398.981 157.439 399.023 156.888C399.065 156.338 399.546 155.925 400.096 155.967L399.945 157.961ZM396.132 155.682C396.683 155.719 397.099 156.196 397.061 156.747C397.024 157.298 396.547 157.715 395.996 157.677L396.132 155.682ZM392.016 157.422C391.465 157.388 391.045 156.914 391.078 156.363C391.112 155.812 391.586 155.392 392.137 155.425L392.016 157.422ZM388.139 155.197C388.69 155.226 389.113 155.698 389.084 156.249C389.054 156.801 388.583 157.224 388.031 157.194L388.139 155.197ZM384.067 156.993C383.516 156.967 383.09 156.498 383.116 155.946C383.142 155.395 383.611 154.969 384.163 154.995L384.067 156.993ZM380.145 154.815C380.697 154.838 381.125 155.305 381.102 155.856C381.079 156.408 380.613 156.837 380.061 156.814L380.145 154.815ZM376.101 156.658C375.549 156.637 375.118 156.174 375.139 155.622C375.159 155.07 375.623 154.639 376.175 154.659L376.101 156.658ZM372.179 154.522C372.731 154.539 373.164 155.001 373.146 155.553C373.129 156.105 372.667 156.538 372.115 156.521L372.179 154.522ZM368.12 156.401C367.568 156.386 367.133 155.926 367.148 155.374C367.164 154.822 367.624 154.387 368.176 154.402L368.12 156.401ZM364.199 154.299C364.751 154.312 365.188 154.771 365.174 155.323C365.161 155.875 364.703 156.312 364.151 156.299L364.199 154.299ZM360.15 156.21C359.598 156.199 359.16 155.742 359.171 155.19C359.182 154.638 359.639 154.199 360.191 154.211L360.15 156.21ZM356.206 154.136C356.759 154.145 357.198 154.601 357.189 155.153C357.179 155.705 356.724 156.145 356.172 156.136L356.206 154.136ZM352.189 156.073C351.637 156.065 351.196 155.611 351.204 155.058C351.212 154.506 351.666 154.065 352.218 154.073L352.189 156.073ZM348.206 154.02C348.758 154.027 349.2 154.48 349.194 155.032C349.187 155.584 348.734 156.027 348.182 156.02L348.206 154.02ZM344.213 155.978C343.661 155.972 343.217 155.52 343.223 154.968C343.228 154.416 343.68 153.972 344.232 153.978L344.213 155.978ZM340.237 153.943C340.79 153.947 341.234 154.398 341.23 154.951C341.225 155.503 340.774 155.947 340.222 155.943L340.237 153.943ZM336.226 155.915C335.674 155.912 335.229 155.461 335.232 154.909C335.235 154.357 335.686 153.912 336.238 153.915L336.226 155.915ZM332.257 153.893C332.809 153.896 333.255 154.346 333.252 154.898C333.25 155.45 332.8 155.896 332.248 155.893L332.257 153.893ZM328.252 155.877C327.7 155.874 327.253 155.425 327.256 154.873C327.258 154.321 327.707 153.874 328.259 153.877L328.252 155.877ZM324.268 153.864C324.821 153.865 325.267 154.314 325.266 154.866C325.264 155.419 324.815 155.865 324.263 155.863L324.268 153.864ZM320.278 155.853C319.726 155.852 319.279 155.403 319.281 154.851C319.282 154.299 319.731 153.852 320.283 153.853L320.278 155.853ZM316.284 153.845C316.837 153.846 317.284 154.295 317.282 154.847C317.281 155.399 316.833 155.846 316.281 155.845L316.284 153.845ZM312.295 155.838C311.743 155.837 311.296 155.388 311.297 154.836C311.298 154.284 311.746 153.837 312.299 153.838L312.295 155.838ZM308.31 153.83C308.863 153.831 309.309 154.28 309.308 154.832C309.307 155.384 308.859 155.831 308.306 155.83L308.31 153.83ZM304.309 155.822C303.756 155.821 303.31 155.372 303.311 154.82C303.312 154.267 303.761 153.821 304.313 153.822L304.309 155.822ZM300.329 153.812C300.882 153.813 301.328 154.262 301.326 154.815C301.325 155.367 300.876 155.813 300.324 155.812L300.329 153.812ZM296.333 155.799C295.78 155.797 295.334 155.347 295.336 154.795C295.338 154.243 295.788 153.797 296.34 153.799L296.333 155.799ZM292.347 153.782C292.9 153.785 293.345 154.235 293.343 154.787C293.34 155.339 292.89 155.785 292.338 155.782L292.347 153.782ZM288.349 155.761C287.797 155.758 287.352 155.307 287.355 154.755C287.359 154.203 287.809 153.758 288.361 153.761L288.349 155.761ZM284.373 153.734C284.925 153.738 285.369 154.189 285.365 154.742C285.361 155.294 284.91 155.738 284.358 155.734L284.373 153.734ZM280.365 155.701C279.813 155.696 279.369 155.244 279.374 154.692C279.379 154.14 279.831 153.696 280.383 153.701L280.365 155.701ZM276.395 153.661C276.947 153.667 277.39 154.12 277.384 154.672C277.378 155.224 276.925 155.667 276.373 155.661L276.395 153.661ZM272.382 155.613C271.83 155.605 271.388 155.152 271.395 154.599C271.402 154.047 271.856 153.605 272.408 153.613L272.382 155.613ZM268.42 153.555C268.972 153.564 269.413 154.018 269.405 154.571C269.396 155.123 268.941 155.564 268.389 155.555L268.42 153.555ZM264.395 155.487C263.843 155.477 263.404 155.021 263.414 154.469C263.424 153.917 263.88 153.478 264.432 153.488L264.395 155.487ZM260.448 153.409C261.001 153.421 261.439 153.878 261.427 154.43C261.415 154.982 260.958 155.421 260.406 155.409L260.448 153.409ZM256.412 155.318C255.859 155.305 255.423 154.846 255.436 154.294C255.449 153.742 255.908 153.305 256.46 153.319L256.412 155.318ZM252.473 153.215C253.025 153.231 253.46 153.691 253.445 154.243C253.43 154.795 252.97 155.23 252.418 155.215L252.473 153.215ZM248.432 155.097C247.88 155.08 247.446 154.619 247.464 154.067C247.481 153.515 247.942 153.081 248.494 153.098L248.432 155.097ZM244.504 152.966C245.056 152.985 245.488 153.449 245.468 154.001C245.449 154.552 244.986 154.984 244.434 154.965L244.504 152.966ZM240.442 154.816C239.89 154.794 239.46 154.33 239.482 153.778C239.504 153.226 239.969 152.796 240.521 152.818L240.442 154.816ZM236.548 152.653C237.1 152.677 237.528 153.144 237.503 153.696C237.479 154.247 237.012 154.675 236.461 154.651L236.548 152.653ZM232.459 154.466C231.907 154.439 231.482 153.971 231.508 153.419C231.535 152.867 232.004 152.442 232.556 152.469L232.459 154.466ZM228.578 152.266C229.13 152.295 229.553 152.766 229.523 153.318C229.494 153.869 229.023 154.292 228.471 154.263L228.578 152.266ZM224.488 154.039C223.937 154.006 223.516 153.533 223.548 152.981C223.581 152.43 224.054 152.009 224.606 152.042L224.488 154.039ZM220.619 151.796C221.17 151.831 221.588 152.307 221.552 152.858C221.516 153.409 221.041 153.827 220.49 153.791L220.619 151.796ZM216.51 153.522C215.959 153.483 215.544 153.005 215.583 152.454C215.622 151.903 216.1 151.488 216.651 151.527L216.51 153.522ZM212.677 151.233C213.227 151.275 213.639 151.756 213.597 152.307C213.554 152.858 213.073 153.27 212.523 153.227L212.677 151.233ZM208.532 152.905C207.982 152.859 207.573 152.376 207.619 151.825C207.666 151.275 208.149 150.866 208.7 150.912L208.532 152.905ZM204.747 150.566C205.297 150.616 205.702 151.103 205.652 151.653C205.601 152.203 205.115 152.608 204.565 152.558L204.747 150.566ZM200.572 152.178C200.023 152.124 199.621 151.634 199.676 151.085C199.73 150.535 200.22 150.134 200.769 150.188L200.572 152.178ZM196.808 149.78C197.357 149.839 197.755 150.332 197.696 150.881C197.637 151.43 197.144 151.827 196.595 151.769L196.808 149.78ZM192.635 151.328C192.087 151.264 191.694 150.768 191.757 150.22C191.82 149.671 192.317 149.278 192.865 149.341L192.635 151.328ZM188.895 148.864C189.443 148.932 189.832 149.432 189.763 149.98C189.695 150.528 189.195 150.917 188.647 150.848L188.895 148.864ZM184.691 150.336C184.143 150.262 183.759 149.759 183.833 149.211C183.906 148.664 184.41 148.28 184.957 148.353L184.691 150.336ZM181.013 147.803C181.56 147.882 181.939 148.389 181.859 148.936C181.78 149.482 181.273 149.861 180.727 149.782L181.013 147.803ZM176.762 149.187C176.217 149.102 175.843 148.59 175.928 148.045C176.013 147.499 176.525 147.126 177.07 147.211L176.762 149.187ZM173.167 146.58C173.711 146.671 174.079 147.187 173.988 147.732C173.897 148.276 173.381 148.644 172.837 148.553L173.167 146.58ZM168.869 147.865C168.325 147.767 167.964 147.247 168.062 146.704C168.159 146.16 168.679 145.799 169.223 145.896L168.869 147.865ZM165.32 145.17C165.863 145.274 166.217 145.799 166.113 146.341C166.008 146.883 165.484 147.238 164.942 147.133L165.32 145.17ZM161.018 146.35C160.477 146.238 160.129 145.709 160.241 145.168C160.353 144.627 160.882 144.279 161.423 144.391L161.018 146.35ZM157.525 143.556C158.064 143.676 158.404 144.21 158.285 144.749C158.165 145.288 157.631 145.628 157.092 145.509L157.525 143.556ZM153.217 144.619C152.679 144.491 152.347 143.952 152.475 143.415C152.603 142.877 153.142 142.545 153.679 142.673L153.217 144.619ZM149.792 141.716C150.327 141.852 150.651 142.397 150.514 142.932C150.378 143.467 149.833 143.79 149.298 143.654L149.792 141.716ZM145.437 142.635C144.904 142.489 144.59 141.939 144.735 141.406C144.881 140.874 145.431 140.56 145.964 140.705L145.437 142.635ZM142.135 139.622C142.665 139.778 142.969 140.333 142.814 140.863C142.659 141.393 142.103 141.697 141.573 141.542L142.135 139.622ZM137.734 140.377C137.207 140.211 136.914 139.65 137.08 139.123C137.245 138.596 137.807 138.303 138.333 138.469L137.734 140.377ZM134.572 137.245C135.095 137.421 135.377 137.989 135.2 138.512C135.024 139.035 134.457 139.317 133.934 139.14L134.572 137.245ZM130.13 137.813C129.61 137.625 129.341 137.051 129.529 136.532C129.717 136.013 130.29 135.744 130.81 135.932L130.13 137.813ZM127.124 134.551C127.639 134.75 127.894 135.33 127.694 135.845C127.494 136.36 126.915 136.615 126.4 136.415L127.124 134.551ZM122.648 134.905C122.138 134.692 121.898 134.106 122.11 133.597C122.323 133.087 122.909 132.846 123.418 133.059L122.648 134.905ZM119.799 131.493C120.303 131.719 120.528 132.311 120.302 132.814C120.076 133.318 119.484 133.543 118.98 133.317L119.799 131.493ZM115.323 131.614C114.826 131.373 114.618 130.775 114.858 130.278C115.098 129.781 115.696 129.573 116.194 129.813L115.323 131.614ZM112.664 128.042C113.154 128.297 113.344 128.901 113.089 129.391C112.834 129.88 112.23 130.071 111.74 129.815L112.664 128.042ZM108.197 127.897C107.716 127.627 107.545 127.017 107.816 126.536C108.087 126.054 108.697 125.883 109.178 126.154L108.197 127.897ZM105.768 124.159C106.239 124.446 106.389 125.061 106.102 125.533C105.815 126.005 105.2 126.155 104.728 125.868L105.768 124.159ZM101.326 123.715C100.865 123.411 100.737 122.791 101.041 122.33C101.345 121.868 101.965 121.741 102.427 122.045L101.326 123.715ZM99.1692 119.809C99.6184 120.131 99.7223 120.755 99.4011 121.205C99.08 121.654 98.4554 121.758 98.0061 121.437L99.1692 119.809ZM94.7375 118.999C94.3015 118.66 94.2229 118.032 94.5619 117.596C94.9009 117.16 95.5292 117.081 95.9652 117.42L94.7375 118.999ZM92.8355 114.883C93.2573 115.239 93.3101 115.87 92.9535 116.292C92.597 116.714 91.966 116.766 91.5443 116.41L92.8355 114.883ZM88.4577 113.69C88.0509 113.316 88.0239 112.684 88.3974 112.277C88.771 111.87 89.4036 111.843 89.8104 112.217L88.4577 113.69ZM86.8873 109.421C87.2786 109.811 87.2799 110.444 86.8902 110.835C86.5005 111.227 85.8673 111.228 85.476 110.838L86.8873 109.421ZM82.6154 107.874C82.2397 107.469 82.2634 106.836 82.6683 106.461C83.0732 106.085 83.7059 106.109 84.0815 106.514L82.6154 107.874ZM81.3916 103.501C81.7515 103.92 81.7038 104.551 81.2849 104.911C80.8661 105.271 80.2347 105.223 79.8748 104.804L81.3916 103.501ZM77.2519 101.637C76.9073 101.206 76.9778 100.576 77.4094 100.232C77.841 99.8871 78.4702 99.9577 78.8148 100.389L77.2519 101.637ZM76.3474 97.1877C76.6772 97.6307 76.5854 98.2572 76.1423 98.5869C75.6993 98.9167 75.0728 98.8249 74.743 98.3818L76.3474 97.1877ZM72.3422 95.0469C72.0265 94.5937 72.1379 93.9705 72.5911 93.6547C73.0442 93.339 73.6675 93.4504 73.9832 93.9036L72.3422 95.0469ZM71.7155 90.5459C72.0181 91.0079 71.889 91.6277 71.4271 91.9304C70.9651 92.2331 70.3452 92.104 70.0426 91.642L71.7155 90.5459ZM67.8377 88.18C67.5469 87.7105 67.6917 87.0941 68.1612 86.8032C68.6307 86.5124 69.247 86.6572 69.5379 87.1267L67.8377 88.18ZM67.4408 83.6543C67.7212 84.1301 67.5628 84.7432 67.087 85.0236C66.6112 85.304 65.9981 85.1456 65.7177 84.6698L67.4408 83.6543ZM63.6716 81.1202C63.4001 80.6392 63.5699 80.0293 64.0509 79.7578C64.5319 79.4863 65.1418 79.6562 65.4133 80.1371L63.6716 81.1202ZM63.4442 76.583C63.7083 77.068 63.5292 77.6753 63.0441 77.9394C62.5591 78.2036 61.9518 78.0245 61.6877 77.5394L63.4442 76.583ZM59.7537 73.9355C59.4953 73.4474 59.6814 72.8422 60.1695 72.5837C60.6576 72.3253 61.2628 72.5115 61.5212 72.9995L59.7537 73.9355ZM59.632 69.3941C59.8865 69.8843 59.6955 70.4879 59.2054 70.7424C58.7152 70.997 58.1115 70.806 57.857 70.3158L59.632 69.3941ZM55.9843 66.6871C55.7319 66.1959 55.9256 65.593 56.4168 65.3407C56.9081 65.0883 57.5109 65.282 57.7632 65.7732L55.9843 66.6871ZM55.9021 62.1442C56.1541 62.6357 55.96 63.2383 55.4685 63.4904C54.9771 63.7424 54.3744 63.5483 54.1224 63.0569L55.9021 62.1442ZM52.2582 59.4322C52.0047 58.9415 52.197 58.3382 52.6877 58.0847C53.1783 57.8312 53.7816 58.0235 54.0351 58.5142L52.2582 59.4322ZM52.1487 54.8901C52.4055 55.3791 52.2173 55.9836 51.7284 56.2404C51.2394 56.4972 50.6349 56.309 50.3781 55.82L52.1487 54.8901ZM48.4688 52.2277C48.2069 51.7415 48.3887 51.135 48.8749 50.8731C49.3612 50.6112 49.9677 50.793 50.2296 51.2792L48.4688 52.2277ZM48.2641 47.6892C48.5329 48.1717 48.3597 48.7807 47.8773 49.0495C47.3948 49.3184 46.7858 49.1452 46.517 48.6628L48.2641 47.6892ZM44.5097 45.133C44.2322 44.6555 44.3944 44.0435 44.8719 43.766C45.3494 43.4885 45.9615 43.6507 46.2389 44.1282L44.5097 45.133ZM44.1413 40.6047C44.4291 41.0761 44.2803 41.6915 43.8089 41.9793C43.3376 42.2671 42.7221 42.1183 42.4343 41.647L44.1413 40.6047ZM40.2792 38.2139C39.9795 37.75 40.1126 37.131 40.5764 36.8313C41.0403 36.5316 41.6594 36.6647 41.9591 37.1286L40.2792 38.2139ZM39.6816 33.7109C39.9947 34.166 39.8795 34.7886 39.4245 35.1016C38.9695 35.4146 38.3469 35.2995 38.0339 34.8445L39.6816 33.7109ZM35.6887 31.5485C35.3611 31.1039 35.4561 30.4778 35.9008 30.1503C36.3455 29.8228 36.9714 29.9177 37.299 30.3624L35.6887 31.5485ZM34.8026 27.0943C35.1457 27.5271 35.0729 28.156 34.6401 28.4991C34.2073 28.8422 33.5783 28.7694 33.2352 28.3366L34.8026 27.0943ZM30.6671 25.219C30.3077 24.7996 30.3564 24.1683 30.7759 23.809C31.1953 23.4497 31.8266 23.4984 32.1859 23.9179L30.6671 25.219ZM29.4441 20.8443C29.8201 21.2488 29.7969 21.8816 29.3924 22.2575C28.9878 22.6335 28.3551 22.6104 27.9791 22.2058L29.4441 20.8443ZM25.1682 19.306C24.7755 18.9177 24.7719 18.2846 25.1602 17.8918C25.5484 17.4991 26.1816 17.4954 26.5743 17.8837L25.1682 19.306ZM23.5776 15.0472C23.9869 15.418 24.0182 16.0504 23.6474 16.4597C23.2766 16.869 22.6442 16.9002 22.2349 16.5294L23.5776 15.0472ZM19.1916 13.8924C18.7663 13.5401 18.7072 12.9097 19.0594 12.4844C19.4118 12.0591 20.0422 12 20.4675 12.3523L19.1916 13.8924ZM17.24 9.79726C17.6805 10.1304 17.7676 10.7575 17.4344 11.198C17.1014 11.6386 16.4742 11.7256 16.0337 11.3925L17.24 9.79726ZM12.7644 9.03214C12.3096 8.71877 12.195 8.09607 12.5084 7.6413C12.8217 7.18652 13.4445 7.07188 13.8992 7.38524L12.7644 9.03214ZM10.4489 5.11699C10.9169 5.41034 11.0584 6.02749 10.7651 6.49542C10.4717 6.96336 9.85455 7.10489 9.3866 6.81153L10.4489 5.11699ZM5.91785 4.73794C5.43799 4.46455 5.27057 3.85391 5.54395 3.37404C5.81732 2.89417 6.42798 2.72677 6.90784 3.00016L5.91785 4.73794ZM3.30322 1.04253C3.7937 1.29632 3.9856 1.8997 3.73181 2.39022C3.47803 2.88074 2.87463 3.07264 2.38416 2.81885L3.30322 1.04253ZM549 234C549 233.406 548.955 232.804 548.867 232.193L550.847 231.907C550.948 232.608 551 233.306 551 234H549ZM547.893 228.613C547.46 227.512 546.905 226.39 546.23 225.248L547.952 224.231C548.673 225.452 549.278 226.67 549.754 227.882L547.893 228.613ZM544.097 222.085C543.356 221.103 542.537 220.112 541.645 219.114L543.136 217.781C544.061 218.816 544.915 219.85 545.693 220.88L544.097 222.085ZM538.969 216.309C538.072 215.425 537.123 214.537 536.126 213.647L537.458 212.155C538.478 213.065 539.451 213.976 540.373 214.886L538.969 216.309ZM533.154 211.104C532.174 210.298 531.157 209.492 530.106 208.685L531.323 207.099C532.391 207.918 533.425 208.738 534.424 209.559L533.154 211.104ZM526.98 206.36C525.94 205.608 524.872 204.857 523.779 204.108L524.91 202.458C526.016 203.216 527.097 203.976 528.152 204.738L526.98 206.36ZM520.513 201.923C519.435 201.218 518.336 200.516 517.219 199.816L518.28 198.121C519.408 198.827 520.518 199.537 521.607 200.249L520.513 201.923ZM513.884 197.77C512.772 197.1 511.644 196.434 510.501 195.771L511.505 194.041C512.656 194.709 513.793 195.381 514.915 196.056L513.884 197.77ZM507.093 193.828C505.961 193.194 504.817 192.563 503.663 191.936L504.617 190.179C505.779 190.809 506.931 191.444 508.071 192.084L507.093 193.828ZM500.197 190.084C499.044 189.478 497.883 188.876 496.714 188.278L497.624 186.497C498.799 187.098 499.968 187.704 501.129 188.314L500.197 190.084ZM493.209 186.514C492.038 185.932 490.861 185.356 489.681 184.786L490.55 182.985C491.738 183.558 492.921 184.138 494.098 184.722L493.209 186.514ZM486.137 183.099C484.951 182.542 483.763 181.991 482.573 181.447L483.404 179.628C484.601 180.175 485.795 180.729 486.987 181.288L486.137 183.099ZM478.996 179.833C477.796 179.299 476.596 178.772 475.397 178.253L476.192 176.418C477.397 176.94 478.603 177.469 479.809 178.006L478.996 179.833ZM471.785 176.709C470.576 176.199 469.37 175.698 468.168 175.205L468.926 173.355C470.134 173.85 471.347 174.354 472.561 174.866L471.785 176.709ZM464.517 173.73C463.291 173.242 462.072 172.764 460.86 172.295L461.581 170.43C462.799 170.901 464.025 171.381 465.256 171.872L464.517 173.73ZM457.205 170.905C455.962 170.439 454.728 169.985 453.506 169.543L454.187 167.662C455.416 168.107 456.656 168.564 457.906 169.032L457.205 170.905ZM449.802 168.227C448.553 167.791 447.318 167.369 446.1 166.961L446.735 165.065C447.961 165.475 449.204 165.9 450.461 166.339L449.802 168.227ZM442.377 165.743C441.101 165.335 439.847 164.944 438.617 164.571L439.197 162.657C440.437 163.033 441.701 163.427 442.986 163.838L442.377 165.743ZM434.849 163.464C433.557 163.097 432.297 162.753 431.072 162.432L431.579 160.497C432.818 160.822 434.092 161.17 435.396 161.541L434.849 163.464ZM427.279 161.486C425.953 161.174 424.68 160.895 423.464 160.65L423.859 158.689C425.098 158.939 426.393 159.223 427.738 159.539L427.279 161.486ZM419.626 159.962C418.979 159.862 418.355 159.776 417.755 159.702L417.999 157.717C418.621 157.793 419.265 157.883 419.931 157.985L419.626 159.962ZM417.755 159.702C417.109 159.623 416.46 159.545 415.808 159.469L416.04 157.483C416.696 157.559 417.349 157.637 417.999 157.717L417.755 159.702ZM411.863 159.032C410.546 158.894 409.218 158.762 407.88 158.635L408.068 156.644C409.413 156.771 410.748 156.904 412.072 157.043L411.863 159.032ZM403.941 158.283C402.618 158.17 401.286 158.063 399.945 157.961L400.096 155.967C401.443 156.07 402.781 156.177 404.11 156.29L403.941 158.283ZM395.996 157.677C394.678 157.588 393.351 157.503 392.016 157.422L392.137 155.425C393.477 155.506 394.808 155.592 396.132 155.682L395.996 157.677ZM388.031 157.194C386.717 157.123 385.396 157.056 384.067 156.993L384.163 154.995C385.495 155.059 386.821 155.126 388.139 155.197L388.031 157.194ZM380.061 156.814C378.748 156.758 377.428 156.707 376.101 156.658L376.175 154.659C377.504 154.708 378.828 154.76 380.145 154.815L380.061 156.814ZM372.115 156.521C370.789 156.478 369.457 156.438 368.12 156.401L368.176 154.402C369.516 154.439 370.85 154.479 372.179 154.522L372.115 156.521ZM364.151 156.299C362.822 156.267 361.489 156.238 360.15 156.21L360.191 154.211C361.532 154.238 362.868 154.267 364.199 154.299L364.151 156.299ZM356.172 156.136C354.849 156.113 353.521 156.092 352.189 156.073L352.218 154.073C353.552 154.092 354.881 154.113 356.206 154.136L356.172 156.136ZM348.182 156.02C346.863 156.005 345.54 155.99 344.213 155.978L344.232 153.978C345.56 153.99 346.885 154.005 348.206 154.02L348.182 156.02ZM340.222 155.943C338.893 155.932 337.561 155.923 336.226 155.915L336.238 153.915C337.574 153.923 338.908 153.933 340.237 153.943L340.222 155.943ZM332.248 155.893C330.918 155.887 329.586 155.881 328.252 155.877L328.259 153.877C329.595 153.881 330.927 153.887 332.257 153.893L332.248 155.893ZM324.263 155.863C322.937 155.86 321.609 155.856 320.278 155.853L320.283 153.853C321.614 153.856 322.942 153.86 324.268 153.864L324.263 155.863ZM316.281 155.845C314.954 155.842 313.625 155.84 312.295 155.838L312.299 153.838C313.629 153.84 314.958 153.842 316.284 153.845L316.281 155.845ZM308.306 155.83C306.975 155.828 305.643 155.825 304.309 155.822L304.313 153.822C305.647 153.825 306.979 153.828 308.31 153.83L308.306 155.83ZM300.324 155.812C298.994 155.808 297.664 155.804 296.333 155.799L296.34 153.799C297.671 153.804 299 153.808 300.329 153.812L300.324 155.812ZM292.338 155.782C291.009 155.776 289.679 155.769 288.349 155.761L288.361 153.761C289.69 153.769 291.019 153.776 292.347 153.782L292.338 155.782ZM284.358 155.734C283.027 155.724 281.696 155.713 280.365 155.701L280.383 153.701C281.713 153.713 283.043 153.724 284.373 153.734L284.358 155.734ZM276.373 155.661C275.042 155.646 273.712 155.63 272.382 155.613L272.408 153.613C273.737 153.63 275.066 153.646 276.395 153.661L276.373 155.661ZM268.389 155.555C267.057 155.534 265.726 155.512 264.395 155.487L264.432 153.488C265.761 153.512 267.09 153.534 268.42 153.555L268.389 155.555ZM260.406 155.409C259.074 155.381 257.742 155.351 256.412 155.318L256.46 153.319C257.788 153.351 259.118 153.381 260.448 153.409L260.406 155.409ZM252.418 155.215C251.088 155.178 249.759 155.139 248.432 155.097L248.494 153.098C249.819 153.14 251.145 153.179 252.473 153.215L252.418 155.215ZM244.434 154.965C243.102 154.918 241.771 154.868 240.442 154.816L240.521 152.818C241.847 152.87 243.174 152.919 244.504 152.966L244.434 154.965ZM236.461 154.651C235.124 154.592 233.79 154.531 232.459 154.466L232.556 152.469C233.884 152.533 235.215 152.594 236.548 152.653L236.461 154.651ZM228.471 154.263C227.141 154.191 225.813 154.117 224.488 154.039L224.606 152.042C225.927 152.12 227.251 152.194 228.578 152.266L228.471 154.263ZM220.49 153.791C219.16 153.705 217.833 153.616 216.51 153.522L216.651 151.527C217.97 151.62 219.293 151.71 220.619 151.796L220.49 153.791ZM212.523 153.227C211.189 153.124 209.859 153.017 208.532 152.905L208.7 150.912C210.021 151.024 211.347 151.13 212.677 151.233L212.523 153.227ZM204.565 152.558C203.23 152.436 201.899 152.309 200.572 152.178L200.769 150.188C202.091 150.319 203.416 150.445 204.747 150.566L204.565 152.558ZM196.595 151.769C195.27 151.627 193.95 151.48 192.635 151.328L192.865 149.341C194.175 149.493 195.489 149.639 196.808 149.78L196.595 151.769ZM188.647 150.848C187.323 150.683 186.004 150.512 184.691 150.336L184.957 148.353C186.264 148.529 187.577 148.699 188.895 148.864L188.647 150.848ZM180.727 149.782C179.399 149.59 178.078 149.392 176.762 149.187L177.07 147.211C178.378 147.414 179.692 147.612 181.013 147.803L180.727 149.782ZM172.837 148.553C171.507 148.33 170.184 148.101 168.869 147.865L169.223 145.896C170.53 146.131 171.845 146.359 173.167 146.58L172.837 148.553ZM164.942 147.133C163.626 146.88 162.318 146.619 161.018 146.35L161.423 144.391C162.714 144.658 164.013 144.918 165.32 145.17L164.942 147.133ZM157.092 145.509C155.792 145.22 154.5 144.924 153.217 144.619L153.679 142.673C154.952 142.975 156.234 143.27 157.525 143.556L157.092 145.509ZM149.298 143.654C148.001 143.323 146.714 142.984 145.437 142.635L145.964 140.705C147.23 141.051 148.506 141.388 149.792 141.716L149.298 143.654ZM141.573 141.542C140.283 141.164 139.003 140.775 137.734 140.377L138.333 138.469C139.59 138.863 140.857 139.248 142.135 139.622L141.573 141.542ZM133.934 139.14C132.653 138.709 131.385 138.267 130.13 137.813L130.81 135.932C132.051 136.381 133.305 136.818 134.572 137.245L133.934 139.14ZM126.4 136.415C125.136 135.924 123.885 135.421 122.648 134.905L123.418 133.059C124.639 133.569 125.875 134.066 127.124 134.551L126.4 136.415ZM118.98 133.317C117.746 132.763 116.527 132.196 115.323 131.614L116.194 129.813C117.38 130.386 118.582 130.946 119.799 131.493L118.98 133.317ZM111.74 129.815C110.542 129.191 109.361 128.552 108.197 127.897L109.178 126.154C110.323 126.798 111.485 127.427 112.664 128.042L111.74 129.815ZM104.728 125.868C103.576 125.167 102.441 124.449 101.326 123.715L102.427 122.045C103.521 122.766 104.635 123.47 105.768 124.159L104.728 125.868ZM98.0061 121.437C97.4626 121.048 96.924 120.655 96.3905 120.258L97.5854 118.654C98.1083 119.043 98.6362 119.428 99.1692 119.809L98.0061 121.437ZM96.3905 120.258C95.8322 119.842 95.2812 119.422 94.7375 118.999L95.9652 117.42C96.4981 117.835 97.0381 118.246 97.5854 118.654L96.3905 120.258ZM91.5443 116.41C90.4871 115.516 89.4588 114.609 88.4577 113.69L89.8104 112.217C90.7917 113.118 91.7995 114.007 92.8355 114.883L91.5443 116.41ZM85.476 110.838C84.4958 109.862 83.5428 108.874 82.6154 107.874L84.0815 106.514C84.9915 107.494 85.9261 108.464 86.8873 109.421L85.476 110.838ZM79.8748 104.804C78.9764 103.759 78.1028 102.703 77.2519 101.637L78.8148 100.389C79.6512 101.437 80.5095 102.474 81.3916 103.501L79.8748 104.804ZM74.743 98.3818C73.9221 97.2788 73.1225 96.1668 72.3422 95.0469L73.9832 93.9036C74.7521 95.0072 75.5395 96.1022 76.3474 97.1877L74.743 98.3818ZM70.0426 91.642C69.2908 90.4946 68.5566 89.3403 67.8377 88.18L69.5379 87.1267C70.2484 88.2735 70.9735 89.4136 71.7155 90.5459L70.0426 91.642ZM65.7177 84.6698C65.0231 83.4911 64.3418 82.3075 63.6716 81.1202L65.4133 80.1371C66.0779 81.3147 66.753 82.4874 67.4408 83.6543L65.7177 84.6698ZM61.6877 77.5394C61.0348 76.3405 60.3909 75.1388 59.7537 73.9355L61.5212 72.9995C62.1553 74.1971 62.7955 75.3919 63.4442 76.583L61.6877 77.5394ZM57.857 70.3158C57.229 69.1065 56.6055 67.8964 55.9843 66.6871L57.7632 65.7732C58.3838 66.9811 59.0059 68.1884 59.632 69.3941L57.857 70.3158ZM54.1224 63.0569C53.5017 61.8465 52.8812 60.6381 52.2582 59.4322L54.0351 58.5142C54.6595 59.7228 55.2811 60.9334 55.9021 62.1442L54.1224 63.0569ZM50.3781 55.82C49.747 54.6183 49.1113 53.4205 48.4688 52.2277L50.2296 51.2792C50.876 52.4793 51.515 53.6833 52.1487 54.8901L50.3781 55.82ZM46.517 48.6628C45.8578 47.4797 45.1894 46.3028 44.5097 45.133L46.2389 44.1282C46.9253 45.3094 47.5996 46.4968 48.2641 47.6892L46.517 48.6628ZM42.4343 41.647C41.7303 40.494 41.0127 39.3493 40.2792 38.2139L41.9591 37.1286C42.7025 38.2792 43.4291 39.4383 44.1413 40.6047L42.4343 41.647ZM38.0339 34.8445C37.2708 33.7352 36.4898 32.6362 35.6887 31.5485L37.299 30.3624C38.1136 31.4683 38.907 32.5849 39.6816 33.7109L38.0339 34.8445ZM33.2352 28.3366C32.4017 27.285 31.5464 26.2455 30.6671 25.219L32.1859 23.9179C33.0824 24.9644 33.9539 26.0235 34.8026 27.0943L33.2352 28.3366ZM27.9791 22.2058C27.068 21.2255 26.1317 20.2585 25.1682 19.306L26.5743 17.8837C27.5583 18.8566 28.5143 19.8438 29.4441 20.8443L27.9791 22.2058ZM22.2349 16.5294C21.2485 15.6359 20.2347 14.7566 19.1916 13.8924L20.4675 12.3523C21.5336 13.2355 22.5697 14.1341 23.5776 15.0472L22.2349 16.5294ZM16.0337 11.3925C14.9734 10.5908 13.8842 9.80369 12.7644 9.03214L13.8992 7.38524C15.0433 8.17355 16.1563 8.97783 17.24 9.79726L16.0337 11.3925ZM9.3866 6.81153C8.26019 6.10536 7.10437 5.41393 5.91785 4.73794L6.90784 3.00016C8.11871 3.69001 9.29865 4.39585 10.4489 5.11699L9.3866 6.81153ZM2.38416 2.81885C1.78302 2.50785 1.17444 2.20058 0.558228 1.89712L1.44177 0.102876C2.06982 0.412165 2.69025 0.725407 3.30322 1.04253L2.38416 2.81885Z" fill="#B4B3EF"/>
</svg>
