<svg width="732" height="399" viewBox="0 0 732 399" fill="none" xmlns="http://www.w3.org/2000/svg">
<path d="M731.577 1.81694C732.028 1.49842 732.135 0.874456 731.817 0.423274C731.498 -0.0279084 730.874 -0.135455 730.423 0.183063L731.577 1.81694ZM593.847 243.645L594.577 244.329L593.847 243.645ZM135.343 324.053L135.517 325.038L135.343 324.053ZM7.29289 398.707C7.68342 399.098 8.31658 399.098 8.70711 398.707L15.0711 392.343C15.4616 391.953 15.4616 391.319 15.0711 390.929C14.6805 390.538 14.0474 390.538 13.6569 390.929L8 396.586L2.34315 390.929C1.95262 390.538 1.31946 390.538 0.928932 390.929C0.538408 391.319 0.538408 391.953 0.928932 392.343L7.29289 398.707ZM9.03154 395.98C9.04891 395.428 8.6155 394.966 8.06349 394.949C7.51147 394.932 7.0499 395.365 7.03253 395.917L9.03154 395.98ZM7.29265 391.847C7.23912 392.397 7.64134 392.886 8.19102 392.939C8.74071 392.993 9.22971 392.591 9.28323 392.041L7.29265 391.847ZM9.8057 388.113C9.8982 387.569 9.5318 387.052 8.98732 386.96C8.44283 386.867 7.92645 387.234 7.83395 387.778L9.8057 388.113ZM8.67649 383.746C8.54282 384.282 8.86887 384.825 9.40474 384.959C9.9406 385.092 10.4834 384.766 10.617 384.23L8.67649 383.746ZM11.7248 380.437C11.9007 379.913 11.619 379.346 11.0955 379.17C10.572 378.994 10.0049 379.276 9.82899 379.799L11.7248 380.437ZM11.297 375.96C11.0786 376.468 11.3128 377.056 11.8201 377.274C12.3274 377.492 12.9157 377.258 13.134 376.751L11.297 375.96ZM14.8428 373.195C15.1024 372.708 14.9178 372.102 14.4304 371.842C13.9429 371.583 13.3373 371.767 13.0776 372.255L14.8428 373.195ZM15.1591 368.708C14.8603 369.173 14.9946 369.791 15.4591 370.09C15.9236 370.389 16.5423 370.255 16.8411 369.79L15.1591 368.708ZM19.1117 366.553C19.4465 366.114 19.3618 365.486 18.9226 365.152C18.4833 364.817 17.8558 364.901 17.5211 365.341L19.1117 366.553ZM20.1344 362.171C19.7674 362.583 19.8044 363.215 20.2171 363.582C20.6298 363.949 21.2619 363.912 21.6289 363.5L20.1344 362.171ZM24.3649 360.636C24.7601 360.251 24.7679 359.618 24.3821 359.222C23.9964 358.827 23.3633 358.819 22.968 359.205L24.3649 360.636ZM25.9927 356.443C25.5731 356.802 25.5241 357.433 25.8832 357.853C26.2424 358.272 26.8736 358.321 27.2932 357.962L25.9927 356.443ZM30.3883 355.472C30.8286 355.138 30.9152 354.511 30.5818 354.071C30.2484 353.63 29.6211 353.544 29.1809 353.877L30.3883 355.472ZM32.5076 351.499C32.0499 351.808 31.9294 352.43 32.2384 352.888C32.5474 353.345 33.169 353.466 33.6267 353.157L32.5076 351.499ZM36.9875 351.008C37.4599 350.722 37.6108 350.107 37.3246 349.635C37.0385 349.163 36.4236 349.012 35.9512 349.298L36.9875 351.008ZM39.4881 347.263C39.0035 347.528 38.8255 348.135 39.0904 348.62C39.3554 349.104 39.963 349.282 40.4476 349.017L39.4881 347.263ZM43.9851 347.175C44.4799 346.93 44.682 346.33 44.4366 345.835C44.1912 345.34 43.5911 345.138 43.0964 345.384L43.9851 347.175ZM46.773 343.643C46.2698 343.871 46.0462 344.463 46.2737 344.966C46.5011 345.469 47.0935 345.693 47.5968 345.466L46.773 343.643ZM51.2716 343.877C51.782 343.666 52.0247 343.081 51.8137 342.571C51.6027 342.061 51.0179 341.818 50.5075 342.029L51.2716 343.877ZM54.2903 340.531C53.7739 340.727 53.5142 341.304 53.7101 341.82C53.9061 342.337 54.4835 342.597 54.9999 342.401L54.2903 340.531ZM58.765 341.029C59.2864 340.847 59.5612 340.277 59.379 339.755C59.1968 339.234 58.6264 338.959 58.105 339.141L58.765 341.029ZM61.9488 337.85C61.4232 338.02 61.1348 338.583 61.3046 339.109C61.4743 339.634 62.038 339.923 62.5635 339.753L61.9488 337.85ZM66.3962 338.561C66.9253 338.403 67.2258 337.846 67.0674 337.316C66.909 336.787 66.3517 336.487 65.8226 336.645L66.3962 338.561ZM69.7206 335.52C69.1885 335.668 68.8772 336.22 69.0252 336.752C69.1732 337.284 69.7246 337.595 70.2566 337.447L69.7206 335.52ZM74.1359 336.405C74.6705 336.267 74.9915 335.721 74.8529 335.186C74.7142 334.652 74.1685 334.331 73.6339 334.469L74.1359 336.405ZM77.5618 333.484C77.025 333.615 76.6954 334.155 76.8256 334.692C76.9557 335.229 77.4963 335.558 78.0331 335.428L77.5618 333.484ZM81.948 334.509C82.4865 334.386 82.8238 333.85 82.7013 333.312C82.5788 332.773 82.043 332.436 81.5044 332.559L81.948 334.509ZM85.4569 331.686C84.9168 331.802 84.5728 332.334 84.6884 332.874C84.804 333.414 85.3355 333.758 85.8756 333.642L85.4569 331.686ZM89.8143 332.823C90.3557 332.713 90.7057 332.186 90.5962 331.644C90.4867 331.103 89.9592 330.753 89.4178 330.862L89.8143 332.823ZM93.3884 330.08C92.846 330.184 92.4907 330.708 92.5948 331.251C92.6989 331.793 93.223 332.149 93.7654 332.044L93.3884 330.08ZM97.7234 331.303C98.2667 331.204 98.6265 330.683 98.5271 330.139C98.4277 329.596 97.9068 329.236 97.3635 329.336L97.7234 331.303ZM101.339 328.624C100.795 328.719 100.431 329.238 100.527 329.782C100.622 330.326 101.14 330.689 101.684 330.594L101.339 328.624ZM105.655 329.91C106.2 329.818 106.567 329.302 106.474 328.758C106.382 328.213 105.866 327.846 105.322 327.939L105.655 329.91ZM109.311 327.274C108.766 327.363 108.397 327.878 108.487 328.423C108.576 328.968 109.091 329.337 109.636 329.247L109.311 327.274ZM113.617 328.601C114.162 328.513 114.533 328 114.445 327.455C114.357 326.909 113.844 326.539 113.299 326.626L113.617 328.601ZM117.281 325.99C116.736 326.077 116.364 326.589 116.451 327.135C116.537 327.68 117.05 328.052 117.595 327.965L117.281 325.99ZM121.569 327.334C122.115 327.248 122.487 326.735 122.4 326.19C122.314 325.644 121.801 325.272 121.256 325.359L121.569 327.334ZM125.248 324.722C124.702 324.81 124.331 325.323 124.419 325.868C124.506 326.413 125.019 326.784 125.565 326.697L125.248 324.722ZM129.558 326.048C130.103 325.959 130.472 325.444 130.382 324.899C130.293 324.354 129.778 323.985 129.233 324.075L129.558 326.048ZM133.21 323.408C132.665 323.502 132.3 324.018 132.393 324.563C132.486 325.107 133.003 325.473 133.547 325.38L133.21 323.408ZM137.471 324.7C138.015 324.608 138.382 324.092 138.289 323.547C138.197 323.003 137.681 322.636 137.136 322.729L137.471 324.7ZM141.104 322.079C140.558 322.165 140.186 322.677 140.272 323.223C140.358 323.769 140.87 324.141 141.416 324.055L141.104 322.079ZM145.408 323.448C145.954 323.368 146.332 322.86 146.252 322.313C146.172 321.767 145.664 321.389 145.118 321.469L145.408 323.448ZM149.146 320.9C148.599 320.975 148.216 321.479 148.29 322.026C148.365 322.573 148.869 322.956 149.416 322.882L149.146 320.9ZM153.372 322.364C153.92 322.295 154.308 321.794 154.239 321.247C154.17 320.699 153.67 320.31 153.122 320.38L153.372 322.364ZM157.138 319.892C156.59 319.956 156.197 320.453 156.261 321.001C156.325 321.55 156.822 321.942 157.37 321.878L157.138 319.892ZM161.409 321.424C161.958 321.365 162.355 320.872 162.296 320.323C162.236 319.774 161.743 319.377 161.194 319.436L161.409 321.424ZM165.184 319.021C164.635 319.076 164.234 319.566 164.288 320.116C164.343 320.665 164.833 321.066 165.383 321.011L165.184 319.021ZM169.38 320.628C169.93 320.577 170.335 320.09 170.284 319.54C170.233 318.99 169.746 318.585 169.196 318.636L169.38 320.628ZM173.243 318.278C172.693 318.325 172.284 318.809 172.331 319.359C172.378 319.909 172.862 320.318 173.412 320.271L173.243 318.278ZM177.433 319.943C177.984 319.9 178.396 319.419 178.353 318.868C178.31 318.318 177.828 317.906 177.278 317.949L177.433 319.943ZM181.283 317.65C180.732 317.689 180.317 318.168 180.357 318.718C180.396 319.269 180.875 319.684 181.426 319.644L181.283 317.65ZM185.449 319.368C186 319.332 186.417 318.856 186.381 318.305C186.345 317.754 185.869 317.336 185.318 317.372L185.449 319.368ZM189.382 317.117C188.83 317.15 188.41 317.624 188.443 318.175C188.476 318.727 188.95 319.147 189.502 319.114L189.382 317.117ZM193.499 318.885C194.051 318.854 194.473 318.383 194.443 317.831C194.413 317.28 193.942 316.857 193.39 316.888L193.499 318.885ZM197.413 316.678C196.861 316.705 196.436 317.174 196.464 317.726C196.491 318.278 196.96 318.702 197.512 318.675L197.413 316.678ZM201.551 318.484C202.103 318.459 202.53 317.991 202.505 317.44C202.48 316.888 202.012 316.461 201.461 316.486L201.551 318.484ZM205.513 316.312C204.961 316.334 204.532 316.8 204.555 317.352C204.577 317.904 205.043 318.333 205.594 318.31L205.513 316.312ZM209.597 318.156C210.149 318.135 210.58 317.672 210.56 317.12C210.54 316.568 210.076 316.137 209.524 316.157L209.597 318.156ZM213.557 316.017C213.005 316.035 212.572 316.497 212.59 317.049C212.609 317.601 213.071 318.034 213.623 318.016L213.557 316.017ZM217.67 317.89C218.222 317.874 218.656 317.413 218.64 316.861C218.624 316.309 218.163 315.875 217.611 315.891L217.67 317.89ZM221.647 315.779C221.095 315.793 220.659 316.253 220.674 316.805C220.688 317.357 221.147 317.793 221.699 317.778L221.647 315.779ZM225.714 317.68C226.266 317.667 226.703 317.209 226.69 316.657C226.677 316.105 226.22 315.668 225.667 315.68L225.714 317.68ZM229.706 315.593C229.154 315.604 228.715 316.061 228.726 316.613C228.738 317.165 229.194 317.604 229.746 317.593L229.706 315.593ZM233.797 317.516C234.35 317.506 234.789 317.05 234.78 316.498C234.77 315.946 234.314 315.506 233.762 315.516L233.797 317.516ZM237.788 315.45C237.236 315.458 236.795 315.913 236.804 316.465C236.812 317.017 237.267 317.458 237.819 317.449L237.788 315.45ZM241.84 317.392C242.392 317.384 242.834 316.931 242.827 316.379C242.819 315.826 242.366 315.385 241.814 315.392L241.84 317.392ZM245.854 315.342C245.302 315.349 244.859 315.801 244.866 316.354C244.872 316.906 245.325 317.349 245.877 317.342L245.854 315.342ZM249.928 317.3C250.481 317.295 250.924 316.843 250.919 316.29C250.913 315.738 250.461 315.295 249.909 315.3L249.928 317.3ZM253.93 315.264C253.378 315.269 252.934 315.72 252.939 316.272C252.943 316.825 253.394 317.269 253.947 317.264L253.93 315.264ZM257.973 317.234C258.525 317.231 258.97 316.78 258.966 316.228C258.962 315.675 258.511 315.231 257.959 315.234L257.973 317.234ZM262 315.209C261.448 315.212 261.002 315.663 261.005 316.215C261.009 316.767 261.459 317.212 262.011 317.209L262 315.209ZM266.061 317.188C266.613 317.186 267.059 316.736 267.056 316.184C267.054 315.631 266.604 315.186 266.051 315.188L266.061 317.188ZM270.072 315.171C269.52 315.173 269.074 315.623 269.076 316.175C269.078 316.727 269.528 317.173 270.08 317.171L270.072 315.171ZM274.109 317.157C274.661 317.155 275.108 316.705 275.106 316.153C275.104 315.601 274.655 315.155 274.102 315.157L274.109 317.157ZM278.142 315.144C277.59 315.146 277.143 315.595 277.145 316.147C277.147 316.699 277.596 317.146 278.148 317.144L278.142 315.144ZM282.193 317.133C282.745 317.131 283.192 316.682 283.19 316.13C283.189 315.578 282.74 315.131 282.188 315.133L282.193 317.133ZM286.212 315.122C285.66 315.124 285.213 315.572 285.214 316.125C285.216 316.677 285.665 317.124 286.217 317.122L286.212 315.122ZM290.249 317.112C290.801 317.11 291.247 316.661 291.246 316.109C291.244 315.557 290.795 315.11 290.243 315.112L290.249 317.112ZM294.281 315.1C293.729 315.102 293.282 315.551 293.284 316.103C293.286 316.655 293.735 317.102 294.287 317.1L294.281 315.1ZM298.329 317.087C298.881 317.086 299.328 316.636 299.326 316.084C299.324 315.532 298.875 315.086 298.322 315.087L298.329 317.087ZM302.349 315.073C301.797 315.075 301.351 315.524 301.353 316.077C301.356 316.629 301.805 317.075 302.357 317.073L302.349 315.073ZM306.391 317.055C306.943 317.053 307.388 316.603 307.386 316.051C307.383 315.498 306.933 315.053 306.381 315.055L306.391 317.055ZM310.417 315.035C309.865 315.038 309.419 315.488 309.423 316.04C309.426 316.593 309.876 317.038 310.428 317.035L310.417 315.035ZM314.468 317.01C315.02 317.006 315.465 316.556 315.461 316.003C315.458 315.451 315.007 315.006 314.455 315.01L314.468 317.01ZM318.484 314.981C317.932 314.985 317.488 315.436 317.492 315.989C317.497 316.541 317.948 316.985 318.5 316.981L318.484 314.981ZM322.535 316.946C323.087 316.941 323.531 316.489 323.525 315.937C323.52 315.385 323.068 314.941 322.516 314.946L322.535 316.946ZM326.55 314.906C325.997 314.912 325.555 315.364 325.561 315.916C325.567 316.469 326.019 316.911 326.571 316.905L326.55 314.906ZM330.609 316.858C331.161 316.851 331.603 316.398 331.596 315.846C331.589 315.294 331.136 314.852 330.584 314.858L330.609 316.858ZM334.616 314.804C334.064 314.812 333.622 315.266 333.63 315.818C333.638 316.371 334.093 316.812 334.645 316.804L334.616 314.804ZM338.681 316.742C339.233 316.732 339.673 316.277 339.664 315.725C339.655 315.173 339.2 314.733 338.648 314.742L338.681 316.742ZM342.679 314.671C342.126 314.681 341.687 315.137 341.697 315.69C341.708 316.242 342.164 316.681 342.716 316.671L342.679 314.671ZM346.751 316.591C347.303 316.579 347.741 316.122 347.73 315.57C347.718 315.018 347.261 314.579 346.709 314.591L346.751 316.591ZM350.743 314.501C350.191 314.514 349.754 314.972 349.767 315.524C349.78 316.076 350.238 316.513 350.79 316.5L350.743 314.501ZM354.827 316.4C355.379 316.385 355.815 315.926 355.8 315.374C355.785 314.822 355.326 314.386 354.774 314.4L354.827 316.4ZM358.802 314.289C358.25 314.305 357.815 314.765 357.832 315.318C357.848 315.87 358.308 316.304 358.86 316.288L358.802 314.289ZM362.892 316.164C363.444 316.146 363.877 315.684 363.86 315.132C363.842 314.58 363.38 314.147 362.828 314.165L362.892 316.164ZM366.863 314.029C366.311 314.048 365.879 314.511 365.899 315.063C365.919 315.615 366.382 316.047 366.934 316.027L366.863 314.029ZM370.97 315.877C371.522 315.856 371.952 315.391 371.931 314.839C371.909 314.287 371.444 313.857 370.893 313.879L370.97 315.877ZM374.917 313.715C374.365 313.738 373.936 314.205 373.96 314.756C373.983 315.308 374.45 315.736 375.001 315.713L374.917 313.715ZM379.03 315.534C379.582 315.509 380.008 315.041 379.983 314.489C379.957 313.937 379.489 313.511 378.938 313.536L379.03 315.534ZM382.972 313.341C382.421 313.369 381.996 313.839 382.024 314.39C382.052 314.942 382.521 315.367 383.073 315.339L382.972 313.341ZM387.108 315.128C387.659 315.098 388.082 314.626 388.052 314.075C388.022 313.523 387.551 313.1 386.999 313.131L387.108 315.128ZM391.017 312.903C390.466 312.935 390.045 313.409 390.078 313.96C390.11 314.511 390.584 314.932 391.135 314.899L391.017 312.903ZM395.16 314.653C395.711 314.618 396.13 314.143 396.095 313.592C396.06 313.041 395.584 312.622 395.033 312.657L395.16 314.653ZM399.065 312.392C398.514 312.429 398.098 312.907 398.136 313.458C398.173 314.009 398.651 314.425 399.202 314.387L399.065 312.392ZM403.233 314.102C403.784 314.061 404.198 313.582 404.157 313.031C404.117 312.481 403.638 312.067 403.087 312.107L403.233 314.102ZM407.097 311.803C406.547 311.846 406.135 312.327 406.179 312.878C406.222 313.429 406.703 313.84 407.254 313.797L407.097 311.803ZM411.274 313.47C411.825 313.424 412.233 312.94 412.187 312.39C412.141 311.839 411.657 311.431 411.107 311.477L411.274 313.47ZM415.133 311.127C414.583 311.177 414.177 311.663 414.227 312.213C414.276 312.763 414.762 313.169 415.312 313.119L415.133 311.127ZM419.337 312.746C419.886 312.694 420.289 312.205 420.237 311.656C420.184 311.106 419.696 310.703 419.146 310.755L419.337 312.746ZM423.145 310.36C422.596 310.416 422.196 310.907 422.252 311.457C422.308 312.006 422.798 312.406 423.348 312.35L423.145 310.36ZM427.363 311.928C427.912 311.868 428.309 311.375 428.25 310.826C428.19 310.277 427.697 309.88 427.148 309.94L427.363 311.928ZM431.164 309.491C430.615 309.554 430.222 310.05 430.285 310.599C430.348 311.147 430.844 311.541 431.393 311.478L431.164 309.491ZM435.406 311.002C435.954 310.935 436.344 310.436 436.277 309.888C436.21 309.34 435.712 308.95 435.163 309.017L435.406 311.002ZM439.146 308.516C438.598 308.586 438.212 309.088 438.282 309.636C438.353 310.183 438.855 310.57 439.403 310.499L439.146 308.516ZM443.412 309.965C443.959 309.89 444.342 309.385 444.267 308.838C444.192 308.291 443.687 307.908 443.14 307.983L443.412 309.965ZM447.139 307.419C446.593 307.499 446.214 308.006 446.293 308.552C446.373 309.099 446.88 309.478 447.427 309.399L447.139 307.419ZM451.422 308.803C451.968 308.719 452.343 308.209 452.259 307.663C452.175 307.117 451.665 306.742 451.119 306.826L451.422 308.803ZM455.078 306.202C454.533 306.29 454.163 306.804 454.251 307.349C454.339 307.894 454.853 308.265 455.398 308.176L455.078 306.202ZM459.398 307.511C459.943 307.418 460.309 306.901 460.215 306.357C460.122 305.812 459.606 305.447 459.061 305.54L459.398 307.511ZM463.036 304.842C462.492 304.94 462.131 305.46 462.229 306.004C462.327 306.547 462.847 306.908 463.39 306.81L463.036 304.842ZM467.36 306.076C467.902 305.973 468.259 305.45 468.156 304.907C468.053 304.364 467.529 304.008 466.987 304.111L467.36 306.076ZM470.916 303.345C470.374 303.454 470.023 303.981 470.131 304.522C470.24 305.064 470.766 305.415 471.308 305.307L470.916 303.345ZM475.292 304.489C475.833 304.375 476.179 303.845 476.065 303.304C475.951 302.764 475.421 302.418 474.88 302.532L475.292 304.489ZM478.819 301.681C478.279 301.801 477.939 302.335 478.059 302.874C478.178 303.413 478.712 303.753 479.251 303.634L478.819 301.681ZM483.183 302.74C483.721 302.615 484.056 302.078 483.93 301.54C483.805 301.002 483.267 300.667 482.729 300.793L483.183 302.74ZM486.636 299.859C486.1 299.991 485.771 300.532 485.903 301.069C486.034 301.605 486.575 301.933 487.112 301.802L486.636 299.859ZM491.053 300.813C491.588 300.675 491.91 300.13 491.772 299.595C491.635 299.06 491.09 298.738 490.555 298.876L491.053 300.813ZM494.443 297.85C493.909 297.994 493.594 298.543 493.738 299.076C493.882 299.61 494.431 299.925 494.964 299.781L494.443 297.85ZM498.845 298.706C499.376 298.555 499.685 298.002 499.534 297.471C499.383 296.94 498.83 296.631 498.299 296.782L498.845 298.706ZM502.172 295.655C501.643 295.813 501.341 296.37 501.499 296.899C501.657 297.429 502.214 297.73 502.743 297.572L502.172 295.655ZM506.624 296.387C507.151 296.223 507.445 295.662 507.28 295.135C507.115 294.607 506.554 294.314 506.027 294.479L506.624 296.387ZM509.847 293.255C509.322 293.427 509.036 293.992 509.208 294.517C509.38 295.042 509.945 295.327 510.47 295.155L509.847 293.255ZM514.294 293.87C514.816 293.69 515.094 293.121 514.914 292.599C514.734 292.077 514.165 291.799 513.643 291.979L514.294 293.87ZM517.452 290.636C516.933 290.824 516.664 291.397 516.851 291.916C517.039 292.436 517.612 292.705 518.131 292.517L517.452 290.636ZM521.93 291.112C522.447 290.917 522.707 290.34 522.511 289.823C522.316 289.307 521.738 289.046 521.222 289.242L521.93 291.112ZM524.952 287.796C524.439 287.999 524.188 288.581 524.391 289.094C524.595 289.607 525.177 289.858 525.69 289.655L524.952 287.796ZM529.45 288.126C529.96 287.913 530.201 287.328 529.989 286.818C529.777 286.308 529.191 286.067 528.681 286.279L529.45 288.126ZM532.385 284.7C531.878 284.921 531.647 285.511 531.868 286.017C532.089 286.523 532.679 286.754 533.185 286.533L532.385 284.7ZM536.876 284.883C537.378 284.653 537.599 284.06 537.369 283.558C537.139 283.056 536.546 282.835 536.044 283.065L536.876 284.883ZM539.671 281.365C539.173 281.604 538.963 282.201 539.202 282.699C539.441 283.197 540.038 283.407 540.536 283.168L539.671 281.365ZM544.186 281.374C544.679 281.126 544.878 280.525 544.63 280.032C544.382 279.538 543.78 279.34 543.287 279.588L544.186 281.374ZM546.855 277.75C546.366 278.007 546.179 278.612 546.437 279.101C546.695 279.589 547.3 279.776 547.788 279.518L546.855 277.75ZM551.342 277.599C551.825 277.331 552 276.723 551.733 276.24C551.465 275.756 550.857 275.581 550.374 275.849L551.342 277.599ZM553.874 273.866C553.396 274.143 553.234 274.755 553.511 275.232C553.788 275.71 554.4 275.873 554.878 275.596L553.874 273.866ZM558.366 273.523C558.838 273.236 558.988 272.621 558.701 272.149C558.414 271.677 557.799 271.527 557.327 271.814L558.366 273.523ZM560.726 269.696C560.261 269.993 560.124 270.611 560.421 271.077C560.718 271.542 561.337 271.679 561.802 271.382L560.726 269.696ZM565.195 269.163C565.654 268.856 565.777 268.235 565.47 267.776C565.163 267.317 564.542 267.194 564.083 267.501L565.195 269.163ZM567.394 265.231C566.942 265.548 566.833 266.172 567.15 266.624C567.468 267.076 568.092 267.185 568.544 266.867L567.394 265.231ZM571.835 264.498C572.279 264.17 572.374 263.544 572.046 263.1C571.718 262.655 571.092 262.561 570.648 262.888L571.835 264.498ZM573.845 260.473C573.408 260.811 573.328 261.439 573.666 261.876C574.004 262.313 574.632 262.393 575.069 262.055L573.845 260.473ZM578.247 259.534C578.676 259.186 578.741 258.556 578.393 258.127C578.044 257.699 577.415 257.634 576.986 257.982L578.247 259.534ZM580.067 255.416C579.647 255.774 579.597 256.406 579.956 256.826C580.314 257.246 580.946 257.296 581.366 256.937L580.067 255.416ZM584.423 254.263C584.834 253.894 584.868 253.262 584.5 252.851C584.131 252.44 583.499 252.405 583.088 252.774L584.423 254.263ZM586.033 250.066C585.631 250.445 585.613 251.078 585.991 251.48C586.37 251.882 587.003 251.901 587.405 251.522L586.033 250.066ZM590.322 248.705C590.714 248.316 590.717 247.683 590.329 247.291C589.94 246.898 589.307 246.895 588.915 247.284L590.322 248.705ZM591.733 244.422C591.35 244.821 591.363 245.454 591.761 245.836C592.16 246.219 592.793 246.206 593.175 245.807L591.733 244.422ZM595.96 242.833C596.332 242.426 596.303 241.793 595.896 241.421C595.488 241.048 594.855 241.077 594.483 241.485L595.96 242.833ZM597.151 238.489C596.789 238.906 596.833 239.538 597.25 239.9C597.667 240.262 598.299 240.218 598.661 239.801L597.151 238.489ZM601.284 236.709C601.636 236.284 601.577 235.653 601.151 235.301C600.726 234.949 600.095 235.008 599.743 235.434L601.284 236.709ZM602.267 232.312C601.925 232.745 601.999 233.374 602.432 233.716C602.866 234.059 603.495 233.984 603.837 233.551L602.267 232.312ZM606.312 230.341C606.644 229.9 606.556 229.273 606.115 228.941C605.674 228.608 605.047 228.697 604.714 229.138L606.312 230.341ZM607.095 225.904C606.772 226.352 606.874 226.977 607.322 227.3C607.771 227.622 608.396 227.52 608.718 227.072L607.095 225.904ZM611.051 223.756C611.364 223.301 611.249 222.678 610.794 222.365C610.338 222.052 609.716 222.167 609.403 222.622L611.051 223.756ZM611.644 219.291C611.34 219.753 611.468 220.373 611.929 220.677C612.391 220.98 613.011 220.852 613.315 220.391L611.644 219.291ZM615.51 216.982C615.805 216.515 615.665 215.898 615.198 215.603C614.73 215.309 614.113 215.449 613.818 215.916L615.51 216.982ZM615.928 212.499C615.642 212.972 615.793 213.587 616.266 213.872C616.739 214.158 617.353 214.007 617.639 213.534L615.928 212.499ZM619.705 210.047C619.982 209.569 619.82 208.957 619.342 208.68C618.865 208.403 618.253 208.565 617.975 209.043L619.705 210.047ZM619.962 205.551C619.693 206.033 619.866 206.642 620.348 206.912C620.831 207.181 621.44 207.008 621.709 206.526L619.962 205.551ZM623.654 202.972C623.915 202.486 623.732 201.879 623.246 201.618C622.759 201.357 622.153 201.539 621.892 202.026L623.654 202.972ZM623.766 198.469C623.513 198.96 623.704 199.563 624.195 199.817C624.685 200.071 625.289 199.879 625.543 199.388L623.766 198.469ZM627.377 195.78C627.624 195.286 627.423 194.685 626.929 194.439C626.435 194.192 625.834 194.392 625.588 194.886L627.377 195.78ZM627.361 191.274C627.121 191.771 627.329 192.369 627.827 192.609C628.324 192.849 628.922 192.641 629.162 192.143L627.361 191.274ZM630.896 188.489C631.13 187.989 630.914 187.394 630.414 187.16C629.913 186.926 629.318 187.142 629.084 187.643L630.896 188.489ZM630.766 183.985C630.538 184.488 630.762 185.08 631.265 185.308C631.768 185.536 632.36 185.313 632.588 184.81L630.766 183.985ZM634.235 181.117C634.457 180.611 634.227 180.021 633.722 179.799C633.216 179.577 632.626 179.807 632.404 180.312L634.235 181.117ZM634.005 176.618C633.788 177.125 634.024 177.713 634.532 177.93C635.039 178.147 635.627 177.911 635.844 177.404L634.005 176.618ZM637.416 173.678C637.628 173.168 637.387 172.583 636.877 172.371C636.367 172.158 635.782 172.399 635.569 172.909L637.416 173.678ZM637.101 169.185C636.893 169.697 637.14 170.28 637.651 170.488C638.163 170.696 638.746 170.45 638.954 169.938L637.101 169.185ZM640.462 166.187C640.666 165.673 640.415 165.092 639.902 164.888C639.389 164.684 638.807 164.935 638.603 165.448L640.462 166.187ZM640.078 161.7C639.877 162.214 640.132 162.794 640.647 162.995C641.161 163.195 641.741 162.94 641.941 162.426L640.078 161.7ZM643.397 158.654C643.594 158.138 643.336 157.56 642.82 157.363C642.304 157.166 641.726 157.424 641.529 157.94L643.397 158.654ZM642.957 154.173C642.763 154.69 643.024 155.266 643.541 155.461C644.058 155.655 644.634 155.394 644.829 154.877L642.957 154.173ZM646.243 151.091C646.435 150.574 646.171 149.998 645.653 149.806C645.135 149.614 644.56 149.878 644.368 150.396L646.243 151.091ZM645.762 146.614C645.572 147.133 645.838 147.707 646.357 147.897C646.875 148.087 647.45 147.821 647.64 147.302L645.762 146.614ZM649.024 143.508C649.212 142.989 648.944 142.416 648.425 142.227C647.906 142.039 647.332 142.307 647.144 142.826L649.024 143.508ZM648.516 139.033C648.328 139.553 648.598 140.126 649.117 140.313C649.637 140.5 650.21 140.231 650.397 139.711L648.516 139.033ZM651.763 135.913C651.949 135.393 651.679 134.82 651.159 134.634C650.639 134.447 650.067 134.718 649.88 135.238L651.763 135.913ZM651.24 131.439C651.055 131.959 651.325 132.531 651.845 132.717C652.365 132.903 652.938 132.632 653.124 132.112L651.24 131.439ZM654.482 128.313C654.668 127.793 654.398 127.22 653.878 127.034C653.357 126.848 652.785 127.119 652.599 127.639L654.482 128.313ZM653.959 123.84C653.773 124.36 654.043 124.932 654.563 125.119C655.083 125.305 655.656 125.034 655.842 124.515L653.959 123.84ZM657.206 120.717C657.393 120.197 657.123 119.625 656.604 119.437C656.084 119.25 655.511 119.52 655.324 120.04L657.206 120.717ZM656.695 116.245C656.506 116.764 656.775 117.337 657.294 117.525C657.813 117.714 658.387 117.445 658.575 116.926L656.695 116.245ZM659.956 113.134C660.145 112.616 659.879 112.041 659.36 111.852C658.841 111.662 658.267 111.928 658.077 112.447L659.956 113.134ZM659.471 108.66C659.279 109.178 659.544 109.753 660.062 109.945C660.579 110.136 661.155 109.872 661.346 109.354L659.471 108.66ZM662.755 105.574C662.949 105.057 662.688 104.48 662.17 104.286C661.653 104.092 661.077 104.354 660.883 104.871L662.755 105.574ZM662.312 101.094C662.115 101.61 662.374 102.188 662.89 102.385C663.406 102.581 663.984 102.323 664.18 101.807L662.312 101.094ZM665.629 98.0449C665.829 97.5301 665.573 96.9506 665.059 96.7506C664.544 96.5505 663.964 96.8057 663.764 97.3205L665.629 98.0449ZM665.241 93.5583C665.038 94.0717 665.289 94.6529 665.802 94.8566C666.315 95.0602 666.897 94.8092 667.1 94.2958L665.241 93.5583ZM668.6 90.5584C668.807 90.0467 668.561 89.4634 668.049 89.2558C667.537 89.0481 666.954 89.2946 666.746 89.8063L668.6 90.5584ZM668.284 86.0644C668.072 86.5743 668.313 87.1597 668.823 87.3718C669.333 87.584 669.918 87.3426 670.13 86.8327L668.284 86.0644ZM671.693 83.1262C671.91 82.6183 671.674 82.0307 671.167 81.8136C670.659 81.5966 670.071 81.8323 669.854 82.3402L671.693 83.1262ZM671.465 78.625C671.242 79.1305 671.472 79.7206 671.977 79.943C672.483 80.1654 673.073 79.9358 673.295 79.4303L671.465 78.625ZM674.934 75.7616C675.162 75.2587 674.94 74.666 674.437 74.4378C673.934 74.2097 673.341 74.4324 673.113 74.9354L674.934 75.7616ZM674.81 71.2545C674.575 71.7545 674.791 72.35 675.291 72.5843C675.791 72.8187 676.386 72.6033 676.621 72.1032L674.81 71.2545ZM678.349 68.4783C678.59 67.9814 678.383 67.3831 677.886 67.1421C677.389 66.9011 676.791 67.1085 676.549 67.6054L678.349 68.4783ZM678.345 63.9697C678.097 64.4631 678.296 65.0642 678.789 65.3124C679.283 65.5605 679.884 65.3617 680.132 64.8683L678.345 63.9697ZM681.963 61.2944C682.219 60.8048 682.029 60.2007 681.54 59.945C681.05 59.6894 680.446 59.879 680.19 60.3685L681.963 61.2944ZM682.096 56.79C681.833 57.2753 682.012 57.8824 682.498 58.146C682.983 58.4097 683.59 58.23 683.854 57.7447L682.096 56.79ZM685.801 54.2326C686.073 53.752 685.904 53.1418 685.423 52.8698C684.942 52.5978 684.332 52.767 684.06 53.2476L685.801 54.2326ZM686.089 49.7375C685.808 50.2131 685.966 50.8263 686.442 51.107C686.917 51.3878 687.53 51.2299 687.811 50.7543L686.089 49.7375ZM689.885 47.3166C690.175 46.8465 690.029 46.2304 689.559 45.9405C689.089 45.6506 688.473 45.7966 688.183 46.2666L689.885 47.3166ZM690.347 42.8374C690.047 43.3015 690.181 43.9204 690.645 44.2199C691.109 44.5193 691.728 44.3859 692.027 43.9219L690.347 42.8374ZM694.239 40.5726C694.548 40.115 694.428 39.4934 693.971 39.1841C693.513 38.8747 692.892 38.9949 692.582 39.4524L694.239 40.5726ZM694.891 36.1178C694.572 36.5683 694.678 37.1925 695.128 37.512C695.579 37.8315 696.203 37.7252 696.522 37.2747L694.891 36.1178ZM698.881 34.0294C699.211 33.5865 699.119 32.96 698.676 32.6301C698.233 32.3002 697.607 32.3918 697.277 32.8347L698.881 34.0294ZM699.74 29.6094C699.399 30.0442 699.476 30.6727 699.911 31.0133C700.346 31.3538 700.974 31.2774 701.315 30.8426L699.74 29.6094ZM703.825 27.7178C704.177 27.2916 704.116 26.6614 703.69 26.31C703.264 25.9587 702.634 26.0193 702.282 26.4455L703.825 27.7178ZM704.907 23.3446C704.544 23.7615 704.589 24.3931 705.006 24.7553C705.422 25.1176 706.054 25.0733 706.416 24.6564L704.907 23.3446ZM709.082 21.6692C709.456 21.2621 709.428 20.6296 709.021 20.2564C708.614 19.8831 707.981 19.9106 707.608 20.3177L709.082 21.6692ZM710.398 17.3563C710.014 17.753 710.024 18.3861 710.421 18.7703C710.818 19.1545 711.451 19.1443 711.835 18.7476L710.398 17.3563ZM714.655 15.915C715.05 15.529 715.058 14.8959 714.672 14.5008C714.286 14.1058 713.653 14.0983 713.258 14.4842L714.655 15.915ZM716.211 11.6803C715.805 12.0548 715.78 12.6874 716.154 13.0933C716.529 13.4992 717.161 13.5246 717.567 13.1501L716.211 11.6803ZM720.541 10.4838C720.957 10.121 721.001 9.48933 720.638 9.07289C720.275 8.65646 719.644 8.61295 719.227 8.97571L720.541 10.4838ZM722.336 6.34577C721.909 6.6963 721.848 7.32644 722.198 7.75323C722.549 8.18002 723.179 8.24184 723.606 7.89131L722.336 6.34577ZM726.73 5.40043C727.167 5.06244 727.247 4.43436 726.909 3.99757C726.571 3.56079 725.943 3.4807 725.506 3.81869L726.73 5.40043ZM728.759 1.3765C728.312 1.7016 728.214 2.32708 728.539 2.77354C728.864 3.22 729.49 3.31838 729.936 2.99328L728.759 1.3765ZM9 398C9 397.319 9.01057 396.646 9.03154 395.98L7.03253 395.917C7.0109 396.604 7 397.299 7 398H9ZM9.28323 392.041C9.41371 390.701 9.58843 389.392 9.8057 388.113L7.83395 387.778C7.60859 389.105 7.42764 390.461 7.29265 391.847L9.28323 392.041ZM10.617 384.23C10.9406 382.933 11.3105 381.669 11.7248 380.437L9.82899 379.799C9.39765 381.083 9.01284 382.398 8.67649 383.746L10.617 384.23ZM13.134 376.751C13.6582 375.533 14.2285 374.348 14.8428 373.195L13.0776 372.255C12.4375 373.456 11.8432 374.691 11.297 375.96L13.134 376.751ZM16.8411 369.79C17.5552 368.68 18.3128 367.601 19.1117 366.553L17.5211 365.341C16.6906 366.43 15.9024 367.552 15.1591 368.708L16.8411 369.79ZM21.6289 363.5C22.5028 362.517 23.4155 361.563 24.3649 360.636L22.968 359.205C21.986 360.163 21.0406 361.152 20.1344 362.171L21.6289 363.5ZM27.2932 357.962C28.2924 357.107 29.3248 356.277 30.3883 355.472L29.1809 353.877C28.0869 354.706 27.0234 355.56 25.9927 356.443L27.2932 357.962ZM33.6267 353.157C34.7201 352.419 35.841 351.703 36.9875 351.008L35.9512 349.298C34.7779 350.009 33.6294 350.742 32.5076 351.499L33.6267 353.157ZM40.4476 349.017C41.6052 348.384 42.785 347.771 43.9851 347.175L43.0964 345.384C41.8735 345.99 40.6701 346.616 39.4881 347.263L40.4476 349.017ZM47.5968 345.466C48.8047 344.92 50.0302 344.391 51.2716 343.877L50.5075 342.029C49.247 342.55 48.0016 343.088 46.773 343.643L47.5968 345.466ZM54.9999 342.401C56.2419 341.929 57.4974 341.472 58.765 341.029L58.105 339.141C56.8216 339.59 55.5495 340.053 54.2903 340.531L54.9999 342.401ZM62.5635 339.753C63.8315 339.343 65.1096 338.946 66.3962 338.561L65.8226 336.645C64.5229 337.034 63.2311 337.436 61.9488 337.85L62.5635 339.753ZM70.2566 337.447C71.5434 337.089 72.8369 336.742 74.1359 336.405L73.6339 334.469C72.3241 334.809 71.0191 335.159 69.7206 335.52L70.2566 337.447ZM78.0331 335.428C79.3346 335.112 80.6401 334.806 81.948 334.509L81.5044 332.559C80.1877 332.858 78.873 333.166 77.5618 333.484L78.0331 335.428ZM85.8756 333.642C87.1879 333.361 88.5013 333.088 89.8143 332.823L89.4178 330.862C88.0979 331.129 86.7771 331.404 85.4569 331.686L85.8756 333.642ZM93.7654 332.044C95.0871 331.791 96.4069 331.544 97.7234 331.303L97.3635 329.336C96.0417 329.578 94.7162 329.826 93.3884 330.08L93.7654 332.044ZM101.684 330.594C103.013 330.361 104.337 330.133 105.655 329.91L105.322 327.939C104 328.162 102.672 328.39 101.339 328.624L101.684 330.594ZM109.636 329.247C110.972 329.028 112.299 328.813 113.617 328.601L113.299 326.626C111.98 326.838 110.65 327.054 109.311 327.274L109.636 329.247ZM117.595 327.965C118.933 327.752 120.258 327.542 121.569 327.334L121.256 325.359C119.946 325.567 118.619 325.777 117.281 325.99L117.595 327.965ZM125.565 326.697C126.914 326.48 128.246 326.264 129.558 326.048L129.233 324.075C127.925 324.29 126.596 324.506 125.248 324.722L125.565 326.697ZM133.547 325.38C134.21 325.266 134.866 325.152 135.517 325.038L135.17 323.068C134.523 323.182 133.87 323.295 133.21 323.408L133.547 325.38ZM135.517 325.038C136.166 324.924 136.817 324.811 137.471 324.7L137.136 322.729C136.479 322.84 135.824 322.953 135.17 323.068L135.517 325.038ZM141.416 324.055C142.738 323.846 144.069 323.644 145.408 323.448L145.118 321.469C143.772 321.666 142.434 321.87 141.104 322.079L141.416 324.055ZM149.416 322.882C150.728 322.704 152.047 322.531 153.372 322.364L153.122 320.38C151.79 320.548 150.465 320.721 149.146 320.9L149.416 322.882ZM157.37 321.878C158.71 321.722 160.056 321.571 161.409 321.424L161.194 319.436C159.836 319.583 158.484 319.735 157.138 319.892L157.37 321.878ZM165.383 321.011C166.709 320.879 168.042 320.751 169.38 320.628L169.196 318.636C167.853 318.76 166.516 318.888 165.184 319.021L165.383 321.011ZM173.412 320.271C174.747 320.157 176.088 320.048 177.433 319.943L177.278 317.949C175.927 318.055 174.582 318.164 173.243 318.278L173.412 320.271ZM181.426 319.644C182.762 319.549 184.103 319.457 185.449 319.368L185.318 317.372C183.968 317.461 182.623 317.553 181.283 317.65L181.426 319.644ZM189.502 319.114C190.83 319.034 192.162 318.958 193.499 318.885L193.39 316.888C192.05 316.961 190.713 317.037 189.382 317.117L189.502 319.114ZM197.512 318.675C198.854 318.608 200.2 318.545 201.551 318.484L201.461 316.486C200.107 316.547 198.758 316.611 197.413 316.678L197.512 318.675ZM205.594 318.31C206.925 318.256 208.259 318.205 209.597 318.156L209.524 316.157C208.183 316.206 206.846 316.258 205.513 316.312L205.594 318.31ZM213.623 318.016C214.968 317.971 216.317 317.93 217.67 317.89L217.611 315.891C216.256 315.931 214.905 315.972 213.557 316.017L213.623 318.016ZM221.699 317.778C223.034 317.744 224.372 317.711 225.714 317.68L225.667 315.68C224.324 315.711 222.984 315.744 221.647 315.779L221.699 317.778ZM229.746 317.593C231.094 317.565 232.444 317.54 233.797 317.516L233.762 315.516C232.407 315.54 231.055 315.566 229.706 315.593L229.746 317.593ZM237.819 317.449C239.157 317.429 240.497 317.41 241.84 317.392L241.814 315.392C240.469 315.41 239.127 315.429 237.788 315.45L237.819 317.449ZM245.877 317.342C247.225 317.327 248.576 317.313 249.928 317.3L249.909 315.3C248.555 315.313 247.204 315.327 245.854 315.342L245.877 317.342ZM253.947 317.264C255.286 317.253 256.629 317.243 257.973 317.234L257.959 315.234C256.614 315.244 255.271 315.254 253.93 315.264L253.947 317.264ZM262.011 317.209C263.359 317.202 264.709 317.195 266.061 317.188L266.051 315.188C264.699 315.195 263.348 315.202 262 315.209L262.011 317.209ZM270.08 317.171C271.421 317.166 272.764 317.161 274.109 317.157L274.102 315.157C272.757 315.161 271.414 315.166 270.072 315.171L270.08 317.171ZM278.148 317.144C279.495 317.14 280.843 317.136 282.193 317.133L282.188 315.133C280.838 315.136 279.489 315.14 278.142 315.144L278.148 317.144ZM286.217 317.122C287.56 317.119 288.904 317.115 290.249 317.112L290.243 315.112C288.898 315.115 287.554 315.119 286.212 315.122L286.217 317.122ZM294.287 317.1C295.633 317.096 296.981 317.092 298.329 317.087L298.322 315.087C296.974 315.092 295.627 315.096 294.281 315.1L294.287 317.1ZM302.357 317.073C303.701 317.068 305.045 317.062 306.391 317.055L306.381 315.055C305.037 315.062 303.693 315.068 302.349 315.073L302.357 317.073ZM310.428 317.035C311.774 317.027 313.121 317.019 314.468 317.01L314.455 315.01C313.108 315.019 311.762 315.027 310.417 315.035L310.428 317.035ZM318.5 316.981C319.845 316.97 321.19 316.959 322.535 316.946L322.516 314.946C321.172 314.959 319.828 314.97 318.484 314.981L318.5 316.981ZM326.571 316.905C327.917 316.891 329.263 316.875 330.609 316.858L330.584 314.858C329.239 314.875 327.894 314.891 326.55 314.906L326.571 316.905ZM334.645 316.804C335.99 316.784 337.335 316.764 338.681 316.742L338.648 314.742C337.304 314.764 335.96 314.785 334.616 314.804L334.645 316.804ZM342.716 316.671C344.061 316.646 345.406 316.619 346.751 316.591L346.709 314.591C345.366 314.619 344.022 314.646 342.679 314.671L342.716 316.671ZM350.79 316.5C352.136 316.469 353.482 316.435 354.827 316.4L354.774 314.4C353.431 314.436 352.087 314.469 350.743 314.501L350.79 316.5ZM358.86 316.288C360.205 316.249 361.549 316.207 362.892 316.164L362.828 314.165C361.487 314.208 360.145 314.25 358.802 314.289L358.86 316.288ZM366.934 316.027C368.28 315.979 369.626 315.929 370.97 315.877L370.893 313.879C369.55 313.931 368.207 313.981 366.863 314.029L366.934 316.027ZM375.001 315.713C376.345 315.656 377.688 315.596 379.03 315.534L378.938 313.536C377.598 313.598 376.258 313.658 374.917 313.715L375.001 315.713ZM383.073 315.339C384.419 315.271 385.764 315.201 387.108 315.128L386.999 313.131C385.658 313.204 384.316 313.274 382.972 313.341L383.073 315.339ZM391.135 314.899C392.478 314.82 393.82 314.738 395.16 314.653L395.033 312.657C393.696 312.742 392.358 312.824 391.017 312.903L391.135 314.899ZM399.202 314.387C400.547 314.295 401.891 314.2 403.233 314.102L403.087 312.107C401.748 312.205 400.408 312.3 399.065 312.392L399.202 314.387ZM407.254 313.797C408.596 313.691 409.936 313.582 411.274 313.47L411.107 311.477C409.772 311.589 408.436 311.698 407.097 311.803L407.254 313.797ZM415.312 313.119C416.656 312.999 417.997 312.874 419.337 312.746L419.146 310.755C417.811 310.883 416.473 311.007 415.133 311.127L415.312 313.119ZM423.348 312.35C424.689 312.213 426.027 312.073 427.363 311.928L427.148 309.94C425.816 310.084 424.482 310.224 423.145 310.36L423.348 312.35ZM431.393 311.478C432.733 311.323 434.071 311.165 435.406 311.002L435.163 309.017C433.833 309.179 432.5 309.337 431.164 309.491L431.393 311.478ZM439.403 310.499C440.742 310.326 442.078 310.148 443.412 309.965L443.14 307.983C441.812 308.165 440.48 308.343 439.146 308.516L439.403 310.499ZM447.427 309.399C448.762 309.205 450.094 309.006 451.422 308.803L451.119 306.826C449.796 307.029 448.469 307.226 447.139 307.419L447.427 309.399ZM455.398 308.176C456.735 307.96 458.068 307.738 459.398 307.511L459.061 305.54C457.737 305.766 456.41 305.987 455.078 306.202L455.398 308.176ZM463.39 306.81C464.717 306.571 466.04 306.327 467.36 306.076L466.987 304.111C465.674 304.361 464.357 304.604 463.036 304.842L463.39 306.81ZM471.308 305.307C472.64 305.04 473.969 304.768 475.292 304.489L474.88 302.532C473.563 302.809 472.242 303.08 470.916 303.345L471.308 305.307ZM479.251 303.634C480.566 303.342 481.877 303.045 483.183 302.74L482.729 300.793C481.43 301.095 480.127 301.391 478.819 301.681L479.251 303.634ZM487.112 301.802C488.431 301.479 489.744 301.149 491.053 300.813L490.555 298.876C489.254 299.21 487.947 299.538 486.636 299.859L487.112 301.802ZM494.964 299.781C496.263 299.43 497.557 299.071 498.845 298.706L498.299 296.782C497.019 297.145 495.733 297.501 494.443 297.85L494.964 299.781ZM502.743 297.572C504.042 297.185 505.336 296.79 506.624 296.387L506.027 294.479C504.748 294.879 503.463 295.271 502.172 295.655L502.743 297.572ZM510.47 295.155C511.751 294.735 513.025 294.307 514.294 293.87L513.643 291.979C512.384 292.412 511.118 292.838 509.847 293.255L510.47 295.155ZM518.131 292.517C519.404 292.058 520.67 291.589 521.93 291.112L521.222 289.242C519.972 289.715 518.715 290.18 517.452 290.636L518.131 292.517ZM525.69 289.655C526.95 289.154 528.204 288.645 529.45 288.126L528.681 286.279C527.445 286.794 526.202 287.299 524.952 287.796L525.69 289.655ZM533.185 286.533C534.422 285.993 535.653 285.443 536.876 284.883L536.044 283.065C534.831 283.62 533.612 284.165 532.385 284.7L533.185 286.533ZM540.536 283.168C541.761 282.58 542.977 281.983 544.186 281.374L543.287 279.588C542.09 280.19 540.884 280.783 539.671 281.365L540.536 283.168ZM547.788 279.518C548.981 278.889 550.165 278.249 551.342 277.599L550.374 275.849C549.209 276.493 548.036 277.126 546.855 277.75L547.788 279.518ZM554.878 275.596C556.049 274.916 557.212 274.225 558.366 273.523L557.327 271.814C556.185 272.509 555.034 273.193 553.874 273.866L554.878 275.596ZM561.802 271.382C562.942 270.654 564.074 269.915 565.195 269.163L564.083 267.501C562.973 268.244 561.854 268.976 560.726 269.696L561.802 271.382ZM568.544 266.867C569.65 266.09 570.747 265.3 571.835 264.498L570.648 262.888C569.573 263.681 568.488 264.462 567.394 265.231L568.544 266.867ZM575.069 262.055C576.138 261.227 577.198 260.387 578.247 259.534L576.986 257.982C575.949 258.825 574.902 259.655 573.845 260.473L575.069 262.055ZM581.366 256.937C582.395 256.059 583.414 255.167 584.423 254.263L583.088 252.774C582.091 253.667 581.084 254.548 580.067 255.416L581.366 256.937ZM587.405 251.522C588.388 250.596 589.36 249.657 590.322 248.705L588.915 247.284C587.965 248.224 587.004 249.152 586.033 250.066L587.405 251.522ZM593.175 245.807C593.645 245.318 594.113 244.825 594.577 244.329L593.117 242.962C592.658 243.452 592.197 243.939 591.733 244.422L593.175 245.807ZM594.577 244.329C595.042 243.833 595.503 243.334 595.96 242.833L594.483 241.485C594.031 241.98 593.576 242.472 593.117 242.962L594.577 244.329ZM598.661 239.801C599.549 238.779 600.423 237.749 601.284 236.709L599.743 235.434C598.893 236.461 598.029 237.48 597.151 238.489L598.661 239.801ZM603.837 233.551C604.675 232.489 605.5 231.419 606.312 230.341L604.714 229.138C603.911 230.204 603.095 231.262 602.267 232.312L603.837 233.551ZM608.718 227.072C609.508 225.974 610.285 224.869 611.051 223.756L609.403 222.622C608.645 223.724 607.876 224.818 607.095 225.904L608.718 227.072ZM613.315 220.391C614.058 219.262 614.789 218.126 615.51 216.982L613.818 215.916C613.104 217.048 612.38 218.173 611.644 219.291L613.315 220.391ZM617.639 213.534C618.338 212.378 619.027 211.216 619.705 210.047L617.975 209.043C617.303 210.201 616.62 211.354 615.928 212.499L617.639 213.534ZM621.709 206.526C622.366 205.347 623.015 204.162 623.654 202.972L621.892 202.026C621.258 203.207 620.615 204.382 619.962 205.551L621.709 206.526ZM625.543 199.388C626.162 198.191 626.774 196.988 627.377 195.78L625.588 194.886C624.989 196.086 624.382 197.28 623.766 198.469L625.543 199.388ZM629.162 192.143C629.747 190.93 630.326 189.712 630.896 188.489L629.084 187.643C628.517 188.858 627.942 190.068 627.361 191.274L629.162 192.143ZM632.588 184.81C633.144 183.582 633.692 182.351 634.235 181.117L632.404 180.312C631.864 181.54 631.318 182.765 630.766 183.985L632.588 184.81ZM635.844 177.404C636.374 176.165 636.897 174.923 637.416 173.678L635.569 172.909C635.053 174.149 634.532 175.385 634.005 176.618L635.844 177.404ZM638.954 169.938C639.461 168.69 639.964 167.44 640.462 166.187L638.603 165.448C638.107 166.696 637.607 167.942 637.101 169.185L638.954 169.938ZM641.941 162.426C642.43 161.17 642.915 159.913 643.397 158.654L641.529 157.94C641.048 159.195 640.565 160.449 640.078 161.7L641.941 162.426ZM644.829 154.877C645.303 153.616 645.774 152.354 646.243 151.091L644.368 150.396C643.9 151.656 643.43 152.915 642.957 154.173L644.829 154.877ZM647.64 147.302C648.103 146.038 648.564 144.774 649.024 143.508L647.144 142.826C646.685 144.089 646.225 145.352 645.762 146.614L647.64 147.302ZM650.397 139.711C650.854 138.445 651.309 137.179 651.763 135.913L649.88 135.238C649.426 136.503 648.972 137.768 648.516 139.033L650.397 139.711ZM653.124 132.112C653.577 130.846 654.03 129.579 654.482 128.313L652.599 127.639C652.146 128.906 651.694 130.172 651.24 131.439L653.124 132.112ZM655.842 124.515C656.296 123.248 656.75 121.982 657.206 120.717L655.324 120.04C654.868 121.305 654.413 122.572 653.959 123.84L655.842 124.515ZM658.575 116.926C659.034 115.661 659.494 114.397 659.956 113.134L658.077 112.447C657.615 113.711 657.154 114.977 656.695 116.245L658.575 116.926ZM661.346 109.354C661.814 108.092 662.283 106.831 662.755 105.574L660.883 104.871C660.41 106.132 659.939 107.395 659.471 108.66L661.346 109.354ZM664.18 101.807C664.66 100.55 665.142 99.2958 665.629 98.0449L663.764 97.3205C663.277 98.5754 662.793 99.8333 662.312 101.094L664.18 101.807ZM667.1 94.2958C667.596 93.0464 668.096 91.8005 668.6 90.5584L666.746 89.8063C666.24 91.0535 665.739 92.3043 665.241 93.5583L667.1 94.2958ZM670.13 86.8327C670.646 85.5929 671.167 84.3573 671.693 83.1262L669.854 82.3402C669.325 83.5775 668.802 84.819 668.284 86.0644L670.13 86.8327ZM673.295 79.4303C673.836 78.2025 674.382 76.9794 674.934 75.7616L673.113 74.9354C672.557 76.1604 672.008 77.3904 671.465 78.625L673.295 79.4303ZM676.621 72.1032C677.19 70.8892 677.766 69.6808 678.349 68.4783L676.549 67.6054C675.962 68.8162 675.382 70.0327 674.81 71.2545L676.621 72.1032ZM680.132 64.8683C680.734 63.6706 681.344 62.4792 681.963 61.2944L680.19 60.3685C679.567 61.5626 678.952 62.7631 678.345 63.9697L680.132 64.8683ZM683.854 57.7447C684.494 56.5668 685.142 55.396 685.801 54.2326L684.06 53.2476C683.396 54.4214 682.742 55.6023 682.096 56.79L683.854 57.7447ZM687.811 50.7543C688.492 49.6005 689.184 48.4545 689.885 47.3166L688.183 46.2666C687.474 47.4158 686.776 48.5729 686.089 49.7375L687.811 50.7543ZM692.027 43.9219C692.753 42.7968 693.49 41.6802 694.239 40.5726L692.582 39.4524C691.825 40.5722 691.08 41.7006 690.347 42.8374L692.027 43.9219ZM696.522 37.2747C697.296 36.1836 698.082 35.1017 698.881 34.0294L697.277 32.8347C696.469 33.9198 695.674 35.0142 694.891 36.1178L696.522 37.2747ZM701.315 30.8426C702.138 29.7909 702.975 28.7492 703.825 27.7178L702.282 26.4455C701.421 27.4901 700.574 28.5448 699.74 29.6094L701.315 30.8426ZM706.416 24.6564C707.291 23.6501 708.179 22.6543 709.082 21.6692L707.608 20.3177C706.693 21.316 705.793 22.3251 704.907 23.3446L706.416 24.6564ZM711.835 18.7476C712.76 17.7923 713.7 16.848 714.655 15.915L713.258 14.4842C712.289 15.4303 711.336 16.3878 710.398 17.3563L711.835 18.7476ZM717.567 13.1501C718.543 12.2498 719.534 11.361 720.541 10.4838L719.227 8.97571C718.206 9.86555 717.201 10.7672 716.211 11.6803L717.567 13.1501ZM723.606 7.89131C724.631 7.04924 725.672 6.21885 726.73 5.40043L725.506 3.81869C724.433 4.64902 723.376 5.49149 722.336 6.34577L723.606 7.89131ZM729.936 2.99328C730.479 2.59811 731.026 2.20599 731.577 1.81694L730.423 0.183063C729.864 0.577762 729.309 0.975588 728.759 1.3765L729.936 2.99328Z" fill="#B4B3EF"/>
</svg>
