<svg width="225" height="193" viewBox="0 0 225 193" fill="none" xmlns="http://www.w3.org/2000/svg">
<path d="M38.8274 84.8914L39.3623 84.0465L38.8274 84.8914ZM122.308 118.215L121.99 119.163L122.308 118.215ZM165.814 131.838L166.3 130.964L165.814 131.838ZM193.383 150.836L192.702 151.569L193.383 150.836ZM220.924 192.386C220.71 192.896 220.124 193.135 219.615 192.922L211.314 189.444C210.805 189.23 210.565 188.644 210.778 188.135C210.992 187.626 211.578 187.386 212.087 187.599L219.466 190.691L222.557 183.313C222.771 182.803 223.357 182.563 223.866 182.777C224.376 182.99 224.616 183.576 224.402 184.086L220.924 192.386ZM219.076 192.379C218.676 191.403 218.284 190.45 217.897 189.519L219.744 188.751C220.133 189.686 220.526 190.642 220.927 191.621L219.076 192.379ZM215.475 183.845C214.617 181.901 213.764 180.05 212.888 178.267L214.684 177.386C215.573 179.198 216.439 181.075 217.305 183.037L215.475 183.845ZM210.03 172.848C209.021 171.077 207.957 169.355 206.808 167.654L208.466 166.535C209.645 168.281 210.735 170.046 211.767 171.858L210.03 172.848ZM203.19 162.731C201.967 161.197 200.648 159.655 199.208 158.086L200.682 156.734C202.151 158.335 203.501 159.912 204.754 161.485L203.19 162.731ZM194.931 153.69C194.215 152.992 193.472 152.285 192.702 151.569L194.064 150.104C194.845 150.831 195.599 151.548 196.327 152.258L194.931 153.69ZM192.702 151.569C192.001 150.916 191.317 150.292 190.647 149.693L191.979 148.202C192.66 148.81 193.354 149.443 194.064 150.104L192.702 151.569ZM186.422 146.103C184.937 144.909 183.481 143.812 182.006 142.768L183.161 141.135C184.67 142.203 186.158 143.324 187.676 144.545L186.422 146.103ZM177.392 139.698C175.885 138.751 174.312 137.809 172.626 136.831L173.63 135.102C175.33 136.088 176.924 137.042 178.456 138.005L177.392 139.698ZM167.774 134.075C166.985 133.634 166.171 133.18 165.328 132.712L166.3 130.964C167.143 131.433 167.959 131.887 168.75 132.329L167.774 134.075ZM165.328 132.712C164.479 132.24 163.648 131.798 162.833 131.382L163.741 129.6C164.578 130.027 165.43 130.481 166.3 130.964L165.328 132.712ZM157.714 129.022C155.903 128.275 154.15 127.645 152.423 127.092L153.032 125.187C154.807 125.755 156.611 126.404 158.477 127.173L157.714 129.022ZM146.983 125.557C145.162 125.101 143.331 124.687 141.442 124.269L141.874 122.316C143.766 122.735 145.621 123.154 147.469 123.617L146.983 125.557ZM135.852 123.02C134.069 122.609 132.217 122.161 130.27 121.645L130.783 119.711C132.703 120.221 134.533 120.664 136.302 121.072L135.852 123.02ZM124.737 120.052C123.843 119.774 122.928 119.478 121.99 119.163L122.627 117.267C123.55 117.577 124.451 117.868 125.332 118.143L124.737 120.052ZM121.99 119.163C121.109 118.867 120.219 118.57 119.323 118.27L119.957 116.373C120.854 116.673 121.744 116.971 122.627 117.267L121.99 119.163ZM113.983 116.49C112.221 115.904 110.439 115.311 108.641 114.712L109.273 112.815C111.07 113.414 112.852 114.006 114.614 114.593L113.983 116.49ZM103.3 112.926C101.53 112.331 99.749 111.73 97.963 111.123L98.607 109.229C100.39 109.836 102.168 110.436 103.937 111.03L103.3 112.926ZM92.6321 109.294C90.8577 108.68 89.0824 108.06 87.3108 107.433L87.9779 105.547C89.7447 106.173 91.5156 106.792 93.2862 107.404L92.6321 109.294ZM82.0023 105.53C80.2287 104.885 78.4633 104.234 76.7108 103.576L77.4138 101.703C79.1592 102.359 80.918 103.007 82.6857 103.65L82.0023 105.53ZM71.4405 101.56C69.6726 100.87 67.923 100.173 66.1966 99.4694L66.9518 97.6174C68.6679 98.3172 70.408 99.0101 72.1672 99.6962L71.4405 101.56ZM60.9856 97.2899C59.2294 96.5357 57.5042 95.7733 55.8158 95.0026L56.6463 93.1832C58.3198 93.9471 60.0312 94.7034 61.7748 95.4523L60.9856 97.2899ZM50.6993 92.5838C48.9659 91.7335 47.2819 90.8733 45.6545 90.0029L46.5978 88.2393C48.2025 89.0976 49.8656 89.9472 51.5801 90.7882L50.6993 92.5838ZM40.7114 87.2198C39.8854 86.7286 39.0786 86.2341 38.2924 85.7363L39.3623 84.0465C40.1318 84.5338 40.9227 85.0185 41.7336 85.5007L40.7114 87.2198ZM38.2924 85.7363C37.426 85.1878 36.5781 84.6162 35.7482 84.023L36.9112 82.3959C37.7112 82.9677 38.5281 83.5184 39.3623 84.0465L38.2924 85.7363ZM30.9646 80.1984C29.4405 78.843 27.9868 77.4114 26.6007 75.9146L28.0681 74.5557C29.4125 76.0074 30.8202 77.3935 32.2937 78.7039L30.9646 80.1984ZM22.654 71.2553C21.4092 69.6519 20.228 67.9949 19.1075 66.295L20.7773 65.1943C21.8711 66.8537 23.0224 68.4685 24.2338 70.0289L22.654 71.2553ZM15.9365 61.0967C14.939 59.3302 13.9986 57.5312 13.1127 55.71L14.9111 54.8351C15.7802 56.6216 16.7017 58.3843 17.678 60.1133L15.9365 61.0967ZM10.6082 50.1734C9.81992 48.2973 9.0843 46.4087 8.39864 44.5183L10.2788 43.8363C10.9537 45.6972 11.6773 47.5547 12.4521 49.3987L10.6082 50.1734ZM6.46281 38.7692C5.85338 36.8145 5.2946 34.869 4.78345 32.9446L6.71642 32.4312C7.22061 34.3294 7.77155 36.2475 8.37216 38.1739L6.46281 38.7692ZM3.34761 27.0573C2.89693 25.0331 2.49835 23.0474 2.14806 21.1152L4.11598 20.7584C4.46169 22.6653 4.85506 24.625 5.2998 26.6227L3.34761 27.0573ZM1.18591 15.1234C0.890884 13.011 0.656555 10.9934 0.476837 9.09475L2.46793 8.90628C2.64484 10.7751 2.8757 12.7633 3.16669 14.8468L1.18591 15.1234ZM0.0632935 3.02966C0.0214844 1.95118 0.00146484 0.93867 0.00146484 -0.000244141H2.00146C2.00146 0.910556 2.0209 1.89713 2.0618 2.95219L0.0632935 3.02966Z" fill="#B4B3EF"/>
</svg>
