<svg width="263" height="239" viewBox="0 0 263 239" fill="none" xmlns="http://www.w3.org/2000/svg">
<path d="M204.376 111.088L204.939 111.914L204.376 111.088ZM112.508 150.573L112.848 151.513L112.508 150.573ZM64.6322 166.714L64.1188 165.856L64.6322 166.714ZM34.2938 189.226L35.0016 189.932L34.2938 189.226ZM4.08921 238.409C4.31545 238.913 4.90727 239.138 5.4111 238.912L13.6214 235.225C14.1252 234.999 14.3502 234.407 14.124 233.903C13.8977 233.4 13.3059 233.175 12.8021 233.401L5.50409 236.678L2.22704 229.38C2.0008 228.876 1.40898 228.651 0.905156 228.877C0.401333 229.103 0.176302 229.695 0.402535 230.199L4.08921 238.409ZM5.93618 238.355C6.28285 237.443 6.62455 236.549 6.96243 235.67L5.0957 234.952C4.75673 235.834 4.41412 236.731 4.06675 237.644L5.93618 238.355ZM9.05164 230.335C9.78311 228.508 10.5072 226.751 11.2367 225.049L9.39861 224.261C8.6614 225.98 7.9311 227.753 7.19496 229.591L9.05164 230.335ZM13.5755 219.846C14.3998 218.104 15.2465 216.413 16.1322 214.758L14.3687 213.814C13.4659 215.501 12.6045 217.222 11.7676 218.991L13.5755 219.846ZM18.9569 209.825C19.9347 208.23 20.9684 206.653 22.0746 205.077L20.4376 203.928C19.3074 205.538 18.251 207.15 17.2518 208.779L18.9569 209.825ZM25.4779 200.525C26.6197 199.087 27.8345 197.637 29.1347 196.164L27.6349 194.84C26.313 196.339 25.0759 197.815 23.9116 199.282L25.4779 200.525ZM32.9993 191.975C33.6475 191.301 34.3146 190.62 35.0016 189.932L33.5859 188.519C32.8906 189.216 32.2149 189.905 31.5579 190.588L32.9993 191.975ZM35.0016 189.932C35.7662 189.166 36.512 188.433 37.2429 187.73L35.8561 186.288C35.1149 187.002 34.3595 187.744 33.5859 188.519L35.0016 189.932ZM41.8617 183.499C43.4931 182.085 45.0912 180.786 46.7096 179.551L45.4959 177.961C43.8444 179.222 42.2142 180.546 40.5514 181.988L41.8617 183.499ZM51.7943 175.901C53.4608 174.773 55.2002 173.65 57.0629 172.486L56.0027 170.79C54.1251 171.964 52.3643 173.1 50.6726 174.246L51.7943 175.901ZM62.4366 169.198C63.3104 168.672 64.2122 168.131 65.1457 167.573L64.1188 165.856C63.1844 166.415 62.2808 166.957 61.4046 167.485L62.4366 169.198ZM65.1457 167.573C66.0721 167.018 66.9787 166.498 67.868 166.01L66.9051 164.257C65.9938 164.758 65.0659 165.29 64.1188 165.856L65.1457 167.573ZM73.4679 163.225C75.4584 162.338 77.3844 161.59 79.2822 160.935L78.6295 159.044C76.6814 159.717 74.7014 160.486 72.6543 161.398L73.4679 163.225ZM85.2787 159.107C87.2894 158.563 89.3121 158.07 91.3971 157.573L90.9331 155.628C88.8444 156.126 86.7974 156.624 84.7561 157.177L85.2787 159.107ZM97.5708 156.089C99.5383 155.601 101.582 155.069 103.731 154.455L103.181 152.532C101.061 153.137 99.041 153.663 97.089 154.148L97.5708 156.089ZM109.826 152.566C110.81 152.236 111.817 151.886 112.848 151.513L112.168 149.632C111.152 150 110.16 150.345 109.19 150.67L109.826 152.566ZM112.848 151.513C113.821 151.161 114.803 150.808 115.793 150.452L115.116 148.57C114.125 148.926 113.143 149.28 112.168 149.632L112.848 151.513ZM121.688 148.336C123.633 147.64 125.601 146.935 127.585 146.222L126.91 144.34C124.926 145.052 122.958 145.757 121.013 146.454L121.688 148.336ZM133.481 144.099C135.435 143.392 137.4 142.678 139.371 141.956L138.683 140.078C136.715 140.799 134.752 141.512 132.8 142.218L133.481 144.099ZM145.253 139.783C147.21 139.054 149.168 138.317 151.123 137.572L150.41 135.703C148.461 136.446 146.508 137.181 144.554 137.909L145.253 139.783ZM156.975 135.311C158.93 134.545 160.876 133.772 162.807 132.991L162.057 131.137C160.133 131.915 158.194 132.686 156.246 133.449L156.975 135.311ZM168.611 130.598C170.557 129.78 172.482 128.954 174.382 128.119L173.577 126.288C171.688 127.118 169.773 127.94 167.836 128.754L168.611 130.598ZM180.11 125.536C182.039 124.643 183.933 123.74 185.786 122.828L184.903 121.034C183.065 121.938 181.185 122.834 179.27 123.721L180.11 125.536ZM191.395 119.969C193.291 118.966 195.133 117.952 196.913 116.925L195.914 115.193C194.157 116.206 192.336 117.209 190.46 118.201L191.395 119.969ZM202.306 113.653C203.205 113.077 204.083 112.497 204.939 111.914L203.812 110.261C202.973 110.833 202.111 111.403 201.227 111.969L202.306 113.653ZM204.939 111.914C205.73 111.375 206.523 110.787 207.319 110.153L206.073 108.588C205.312 109.194 204.558 109.753 203.812 110.261L204.939 111.914ZM211.695 106.242C213.028 104.928 214.365 103.501 215.701 101.974L214.197 100.657C212.888 102.151 211.584 103.542 210.291 104.819L211.695 106.242ZM219.424 97.4733C220.593 95.9844 221.759 94.428 222.919 92.8132L221.295 91.6461C220.149 93.2401 219 94.7738 217.851 96.2387L219.424 97.4733ZM226.226 88.034C227.286 86.4458 228.339 84.8145 229.383 83.1471L227.688 82.0859C226.654 83.7377 225.611 85.3526 224.562 86.9236L226.226 88.034ZM232.402 78.1826C233.378 76.5314 234.343 74.8533 235.295 73.1544L233.551 72.1763C232.605 73.8625 231.648 75.5274 230.68 77.1649L232.402 78.1826ZM238.08 68.0625C238.989 66.3595 239.883 64.642 240.761 62.9157L238.978 62.009C238.106 63.7239 237.218 65.4298 236.315 67.121L238.08 68.0625ZM243.342 57.721C244.189 55.9744 245.018 54.2246 245.827 52.4773L244.012 51.6375C243.208 53.3737 242.384 55.1125 241.542 56.8479L243.342 57.721ZM248.215 47.1876C249.003 45.3997 249.766 43.6206 250.504 41.8565L248.658 41.0853C247.926 42.8375 247.168 44.6049 246.385 46.3814L248.215 47.1876ZM252.685 36.4893C253.41 34.6517 254.102 32.8383 254.76 31.0567L252.884 30.3641C252.232 32.1313 251.544 33.9309 250.824 35.7553L252.685 36.4893ZM256.705 25.5826C257.35 23.6894 257.948 21.8447 258.496 20.0589L256.584 19.472C256.043 21.2369 255.451 23.0622 254.812 24.9376L256.705 25.5826ZM260.101 14.4577C260.63 12.4511 261.079 10.5465 261.441 8.76332L259.481 8.36596C259.128 10.1055 258.688 11.9721 258.167 13.9473L260.101 14.4577ZM262.345 2.95333C262.448 1.89835 262.501 0.910938 262.501 -0.000244141H260.501C260.501 0.83453 260.452 1.75625 260.355 2.75988L262.345 2.95333Z" fill="#B4B3EF"/>
</svg>
