<svg width="547" height="264" viewBox="0 0 547 264" fill="none" xmlns="http://www.w3.org/2000/svg">
<path d="M546.511 1.85955C546.986 1.5773 547.142 0.963664 546.86 0.488948C546.577 0.0142317 545.964 -0.141796 545.489 0.14045L546.511 1.85955ZM450.012 144.02L450.681 144.764L450.012 144.02ZM129.123 191.414L129.269 192.403L129.123 191.414ZM7.29289 263.707C7.68342 264.098 8.31658 264.098 8.70711 263.707L15.0711 257.343C15.4616 256.953 15.4616 256.319 15.0711 255.929C14.6805 255.538 14.0474 255.538 13.6569 255.929L8 261.586L2.34315 255.929C1.95262 255.538 1.31946 255.538 0.928932 255.929C0.538408 256.319 0.538408 256.953 0.928932 257.343L7.29289 263.707ZM9.09386 261.05C9.14661 260.5 8.74369 260.012 8.19393 259.959C7.64417 259.906 7.15575 260.309 7.103 260.859L9.09386 261.05ZM7.89287 256.663C7.7441 257.195 8.05466 257.746 8.58653 257.895C9.1184 258.044 9.67017 257.733 9.81894 257.202L7.89287 256.663ZM11.1749 253.492C11.4017 252.989 11.1774 252.397 10.6738 252.17C10.1702 251.943 9.57816 252.167 9.35135 252.671L11.1749 253.492ZM11.3191 248.949C11.0326 249.422 11.1832 250.037 11.6554 250.323C12.1275 250.61 12.7425 250.459 13.029 249.987L11.3191 248.949ZM15.2723 246.682C15.6038 246.24 15.5143 245.613 15.0726 245.282C14.6308 244.95 14.004 245.04 13.6725 245.482L15.2723 246.682ZM16.3143 242.247C15.9487 242.661 15.988 243.293 16.402 243.659C16.816 244.024 17.448 243.985 17.8135 243.571L16.3143 242.247ZM20.5841 240.638C20.9758 240.249 20.9778 239.616 20.5885 239.224C20.1992 238.832 19.566 238.83 19.1743 239.22L20.5841 240.638ZM22.2033 236.373C21.791 236.74 21.7547 237.373 22.1222 237.785C22.4897 238.197 23.1219 238.233 23.5341 237.866L22.2033 236.373ZM26.6274 235.236C27.0561 234.888 27.1213 234.258 26.773 233.83C26.4248 233.401 25.795 233.336 25.3663 233.684L26.6274 235.236ZM28.6287 231.141C28.1867 231.472 28.0969 232.099 28.4281 232.54C28.7593 232.982 29.3861 233.072 29.828 232.741L28.6287 231.141ZM33.1154 230.365C33.5683 230.049 33.6793 229.426 33.3633 228.973C33.0473 228.52 32.4239 228.409 31.971 228.725L33.1154 230.365ZM35.3894 226.417C34.9273 226.719 34.7977 227.339 35.1 227.801C35.4024 228.263 36.0221 228.393 36.4843 228.09L35.3894 226.417ZM39.9234 225.907C40.3934 225.617 40.5394 225.001 40.2495 224.531C39.9595 224.061 39.3434 223.915 38.8734 224.204L39.9234 225.907ZM42.4136 222.08C41.9367 222.358 41.7761 222.971 42.0547 223.448C42.3333 223.924 42.9457 224.085 43.4226 223.807L42.4136 222.08ZM46.9693 221.786C47.4521 221.518 47.626 220.909 47.3578 220.426C47.0896 219.944 46.4808 219.77 45.998 220.038L46.9693 221.786ZM49.6123 218.077C49.1243 218.336 48.9384 218.941 49.197 219.429C49.4557 219.917 50.0609 220.103 50.5489 219.844L49.6123 218.077ZM54.1718 217.967C54.6644 217.717 54.8614 217.115 54.6117 216.623C54.3621 216.13 53.7603 215.933 53.2677 216.183L54.1718 217.967ZM56.9576 214.352C56.4608 214.594 56.2537 215.192 56.4949 215.689C56.7362 216.186 57.3345 216.393 57.8313 216.152L56.9576 214.352ZM61.5201 214.397C62.0206 214.163 62.2373 213.568 62.004 213.068C61.7706 212.567 61.1757 212.351 60.6751 212.584L61.5201 214.397ZM64.4156 210.875C63.9116 211.101 63.686 211.692 63.9118 212.196C64.1376 212.7 64.7292 212.926 65.2332 212.7L64.4156 210.875ZM68.9743 211.056C69.4815 210.838 69.7154 210.25 69.4969 209.742C69.2783 209.235 68.69 209.001 68.1828 209.22L68.9743 211.056ZM71.9711 207.618C71.4609 207.83 71.2189 208.415 71.4305 208.925C71.6421 209.435 72.2272 209.677 72.7373 209.465L71.9711 207.618ZM76.5191 207.926C77.032 207.721 77.2817 207.139 77.0769 206.626C76.872 206.114 76.2902 205.864 75.7773 206.069L76.5191 207.926ZM79.6098 204.567C79.0943 204.765 78.8371 205.343 79.0354 205.859C79.2336 206.374 79.8122 206.632 80.3277 206.433L79.6098 204.567ZM84.1537 204.99C84.6717 204.798 84.9361 204.222 84.7444 203.705C84.5526 203.187 83.9773 202.922 83.4594 203.114L84.1537 204.99ZM87.322 201.711C86.8017 201.897 86.5301 202.469 86.7153 202.989C86.9006 203.509 87.4726 203.781 87.9928 203.596L87.322 201.711ZM91.8414 202.252C92.364 202.073 92.6427 201.505 92.4639 200.982C92.2851 200.46 91.7166 200.181 91.1941 200.36L91.8414 202.252ZM95.1021 199.05C94.5774 199.223 94.2915 199.787 94.4636 200.312C94.6357 200.837 95.2007 201.123 95.7254 200.951L95.1021 199.05ZM99.6228 199.7C100.15 199.535 100.443 198.974 100.278 198.447C100.112 197.92 99.5512 197.627 99.0242 197.792L99.6228 199.7ZM102.959 196.587C102.43 196.745 102.129 197.302 102.287 197.831C102.445 198.36 103.003 198.661 103.532 198.503L102.959 196.587ZM107.452 197.362C107.983 197.211 108.292 196.658 108.141 196.127C107.991 195.595 107.438 195.287 106.907 195.437L107.452 197.362ZM110.869 194.347C110.336 194.489 110.019 195.037 110.161 195.571C110.303 196.105 110.851 196.422 111.385 196.28L110.869 194.347ZM115.333 195.262C115.869 195.129 116.196 194.587 116.063 194.051C115.93 193.515 115.387 193.188 114.851 193.321L115.333 195.262ZM118.858 192.368C118.32 192.49 117.982 193.026 118.104 193.565C118.227 194.103 118.762 194.441 119.301 194.318L118.858 192.368ZM123.292 193.461C123.834 193.352 124.184 192.825 124.075 192.283C123.966 191.742 123.438 191.392 122.897 191.501L123.292 193.461ZM126.971 190.743C126.427 190.835 126.06 191.351 126.152 191.896C126.243 192.44 126.759 192.807 127.304 192.715L126.971 190.743ZM131.226 192.121C131.773 192.044 132.154 191.538 132.077 190.991C132 190.445 131.494 190.064 130.947 190.14L131.226 192.121ZM134.939 189.607C134.391 189.677 134.004 190.177 134.073 190.725C134.142 191.273 134.643 191.661 135.191 191.591L134.939 189.607ZM139.194 191.11C139.742 191.048 140.137 190.552 140.074 190.004C140.012 189.455 139.516 189.061 138.967 189.123L139.194 191.11ZM142.953 188.693C142.404 188.749 142.004 189.24 142.06 189.789C142.117 190.339 142.608 190.739 143.157 190.682L142.953 188.693ZM147.179 190.293C147.729 190.243 148.134 189.756 148.083 189.206C148.033 188.656 147.546 188.251 146.996 188.301L147.179 190.293ZM150.989 187.956C150.438 188.001 150.029 188.483 150.074 189.034C150.119 189.584 150.602 189.994 151.152 189.949L150.989 187.956ZM155.161 189.639C155.712 189.599 156.126 189.12 156.085 188.569C156.045 188.019 155.566 187.605 155.015 187.645L155.161 189.639ZM159.042 187.368C158.49 187.404 158.072 187.88 158.108 188.431C158.144 188.982 158.619 189.4 159.17 189.364L159.042 187.368ZM163.165 189.121C163.717 189.09 164.138 188.617 164.107 188.066C164.075 187.514 163.603 187.093 163.051 187.124L163.165 189.121ZM167.103 186.907C166.552 186.935 166.127 187.404 166.155 187.956C166.182 188.508 166.652 188.932 167.203 188.905L167.103 186.907ZM171.19 188.717C171.742 188.693 172.169 188.226 172.145 187.674C172.121 187.122 171.654 186.695 171.102 186.719L171.19 188.717ZM175.133 186.553C174.581 186.574 174.151 187.039 174.172 187.591C174.193 188.143 174.657 188.573 175.209 188.552L175.133 186.553ZM179.23 188.408C179.782 188.39 180.215 187.928 180.197 187.376C180.178 186.824 179.716 186.391 179.164 186.409L179.23 188.408ZM183.177 186.286C182.625 186.302 182.19 186.762 182.206 187.314C182.221 187.866 182.682 188.301 183.234 188.285L183.177 186.286ZM187.268 188.179C187.82 188.166 188.257 187.707 188.244 187.155C188.23 186.603 187.772 186.166 187.22 186.18L187.268 188.179ZM191.233 186.09C190.681 186.102 190.242 186.558 190.253 187.111C190.265 187.663 190.721 188.101 191.274 188.09L191.233 186.09ZM195.291 188.015C195.843 188.006 196.283 187.55 196.274 186.998C196.264 186.446 195.809 186.006 195.257 186.015L195.291 188.015ZM199.297 185.953C198.745 185.961 198.303 186.415 198.311 186.967C198.319 187.519 198.773 187.96 199.325 187.953L199.297 185.953ZM203.329 187.902C203.881 187.896 204.324 187.443 204.317 186.891C204.311 186.339 203.858 185.896 203.306 185.902L203.329 187.902ZM207.337 185.861C206.784 185.866 206.341 186.318 206.346 186.87C206.351 187.422 206.803 187.866 207.355 187.861L207.337 185.861ZM211.378 187.829C211.93 187.825 212.375 187.374 212.371 186.821C212.367 186.269 211.916 185.825 211.364 185.829L211.378 187.829ZM215.38 185.803C214.828 185.806 214.383 186.256 214.386 186.809C214.389 187.361 214.839 187.806 215.391 187.803L215.38 185.803ZM219.422 187.783C219.974 187.781 220.42 187.331 220.418 186.779C220.415 186.227 219.966 185.781 219.414 185.783L219.422 187.783ZM223.432 185.768C222.88 185.77 222.434 186.219 222.436 186.772C222.437 187.324 222.887 187.77 223.439 187.768L223.432 185.768ZM227.458 187.756C228.011 187.755 228.457 187.306 228.456 186.754C228.454 186.202 228.005 185.755 227.453 185.756L227.458 187.756ZM231.486 185.747C230.934 185.748 230.487 186.197 230.489 186.749C230.49 187.301 230.939 187.748 231.491 187.747L231.486 185.747ZM235.505 187.738C236.057 187.737 236.504 187.288 236.503 186.736C236.501 186.183 236.053 185.737 235.501 185.738L235.505 187.738ZM239.523 185.729C238.971 185.73 238.524 186.179 238.526 186.731C238.527 187.283 238.976 187.73 239.528 187.729L239.523 185.729ZM243.556 187.718C244.109 187.716 244.555 187.267 244.554 186.715C244.552 186.163 244.103 185.716 243.551 185.718L243.556 187.718ZM247.567 185.705C247.015 185.707 246.569 186.156 246.571 186.709C246.573 187.261 247.022 187.707 247.575 187.705L247.567 185.705ZM251.6 187.688C252.152 187.686 252.597 187.236 252.595 186.684C252.592 186.131 252.142 185.686 251.59 185.688L251.6 187.688ZM255.613 185.667C255.061 185.67 254.616 186.121 254.619 186.673C254.623 187.225 255.073 187.67 255.625 187.667L255.613 185.667ZM259.647 187.639C260.2 187.635 260.644 187.184 260.64 186.632C260.636 186.08 260.185 185.635 259.632 185.639L259.647 187.639ZM263.654 185.605C263.101 185.61 262.658 186.062 262.663 186.615C262.668 187.167 263.12 187.61 263.673 187.605L263.654 185.605ZM267.698 187.563C268.25 187.556 268.693 187.103 268.686 186.551C268.68 185.999 268.227 185.556 267.674 185.563L267.698 187.563ZM271.694 185.511C271.142 185.519 270.701 185.973 270.708 186.525C270.716 187.077 271.17 187.519 271.722 187.511L271.694 185.511ZM275.746 187.449C276.298 187.44 276.738 186.985 276.729 186.433C276.72 185.88 276.265 185.44 275.712 185.449L275.746 187.449ZM279.733 185.376C279.181 185.387 278.742 185.844 278.753 186.396C278.764 186.948 279.221 187.387 279.773 187.376L279.733 185.376ZM283.798 187.29C284.35 187.277 284.787 186.819 284.775 186.267C284.762 185.715 284.304 185.277 283.752 185.29L283.798 187.29ZM287.765 185.191C287.213 185.205 286.778 185.665 286.792 186.217C286.807 186.769 287.267 187.205 287.819 187.19L287.765 185.191ZM291.849 187.075C292.401 187.058 292.835 186.597 292.818 186.045C292.801 185.493 292.34 185.059 291.788 185.076L291.849 187.075ZM295.803 184.945C295.251 184.964 294.819 185.427 294.839 185.979C294.858 186.531 295.321 186.963 295.873 186.944L295.803 184.945ZM299.892 186.795C300.444 186.773 300.874 186.308 300.852 185.756C300.831 185.205 300.366 184.775 299.814 184.796L299.892 186.795ZM303.835 184.629C303.284 184.653 302.856 185.12 302.88 185.672C302.905 186.224 303.372 186.651 303.923 186.627L303.835 184.629ZM307.943 186.439C308.495 186.412 308.92 185.943 308.893 185.391C308.866 184.84 308.397 184.415 307.845 184.442L307.943 186.439ZM311.855 184.233C311.303 184.263 310.881 184.735 310.911 185.286C310.941 185.838 311.413 186.26 311.964 186.23L311.855 184.233ZM315.993 185.997C316.544 185.964 316.964 185.49 316.93 184.938C316.897 184.387 316.422 183.967 315.871 184.001L315.993 185.997ZM319.872 183.745C319.321 183.782 318.904 184.259 318.941 184.81C318.978 185.361 319.455 185.778 320.006 185.741L319.872 183.745ZM324.029 185.458C324.58 185.417 324.994 184.938 324.953 184.387C324.912 183.836 324.433 183.423 323.882 183.463L324.029 185.458ZM327.889 183.153C327.339 183.198 326.929 183.68 326.973 184.231C327.018 184.781 327.5 185.191 328.05 185.147L327.889 183.153ZM332.052 184.808C332.602 184.76 333.009 184.274 332.96 183.724C332.912 183.174 332.426 182.768 331.876 182.816L332.052 184.808ZM335.887 182.446C335.338 182.499 334.935 182.987 334.988 183.537C335.041 184.087 335.53 184.489 336.079 184.436L335.887 182.446ZM340.088 184.033C340.638 183.975 341.036 183.483 340.979 182.934C340.921 182.385 340.429 181.986 339.88 182.044L340.088 184.033ZM343.86 181.608C343.311 181.671 342.917 182.166 342.98 182.715C343.042 183.264 343.538 183.658 344.086 183.596L343.86 181.608ZM348.104 183.119C348.652 183.051 349.041 182.552 348.974 182.004C348.906 181.456 348.407 181.066 347.859 181.134L348.104 183.119ZM351.829 180.624C351.282 180.697 350.897 181.2 350.97 181.747C351.043 182.295 351.546 182.679 352.094 182.606L351.829 180.624ZM356.092 182.051C356.639 181.972 357.018 181.465 356.939 180.918C356.86 180.372 356.353 179.993 355.806 180.071L356.092 182.051ZM359.779 179.476C359.233 179.561 358.86 180.072 358.945 180.618C359.03 181.163 359.541 181.537 360.087 181.452L359.779 179.476ZM364.049 180.812C364.593 180.72 364.961 180.205 364.869 179.66C364.778 179.115 364.263 178.748 363.718 178.839L364.049 180.812ZM367.689 178.148C367.146 178.246 366.785 178.766 366.883 179.31C366.981 179.853 367.501 180.214 368.045 180.116L367.689 178.148ZM372.005 179.375C372.548 179.269 372.902 178.745 372.797 178.202C372.691 177.66 372.167 177.306 371.624 177.411L372.005 179.375ZM375.55 176.621C375.01 176.734 374.663 177.264 374.776 177.804C374.888 178.345 375.418 178.692 375.959 178.579L375.55 176.621ZM379.915 177.724C380.454 177.603 380.793 177.069 380.673 176.53C380.552 175.991 380.017 175.652 379.478 175.772L379.915 177.724ZM383.361 174.872C382.824 175.001 382.493 175.541 382.622 176.078C382.751 176.615 383.291 176.945 383.828 176.817L383.361 174.872ZM387.767 175.837C388.301 175.699 388.623 175.154 388.485 174.619C388.348 174.084 387.802 173.762 387.268 173.9L387.767 175.837ZM391.132 172.869C390.599 173.016 390.287 173.567 390.434 174.099C390.581 174.632 391.132 174.944 391.664 174.797L391.132 172.869ZM395.546 173.687C396.076 173.53 396.378 172.974 396.221 172.445C396.064 171.915 395.508 171.613 394.979 171.769L395.546 173.687ZM398.815 170.594C398.288 170.761 397.997 171.323 398.164 171.85C398.331 172.376 398.893 172.667 399.419 172.5L398.815 170.594ZM403.238 171.247C403.761 171.07 404.041 170.502 403.863 169.979C403.685 169.456 403.118 169.176 402.595 169.353L403.238 171.247ZM406.391 168.018C405.872 168.207 405.604 168.781 405.793 169.3C405.982 169.819 406.556 170.087 407.075 169.898L406.391 168.018ZM410.848 168.476C411.363 168.275 411.617 167.695 411.416 167.181C411.216 166.666 410.636 166.412 410.121 166.612L410.848 168.476ZM413.836 165.112C413.326 165.325 413.086 165.911 413.299 166.421C413.512 166.93 414.098 167.171 414.607 166.958L413.836 165.112ZM418.321 165.35C418.825 165.124 419.05 164.532 418.824 164.028C418.598 163.524 418.007 163.299 417.503 163.525L418.321 165.35ZM421.12 161.845C420.623 162.085 420.413 162.682 420.652 163.18C420.892 163.678 421.489 163.887 421.987 163.648L421.12 161.845ZM425.62 161.838C426.111 161.585 426.304 160.982 426.051 160.491C425.797 160 425.194 159.808 424.703 160.061L425.62 161.838ZM428.21 158.186C427.727 158.454 427.552 159.062 427.819 159.545C428.087 160.029 428.696 160.203 429.179 159.936L428.21 158.186ZM432.706 157.91C433.181 157.627 433.337 157.014 433.054 156.539C432.772 156.064 432.158 155.909 431.683 156.191L432.706 157.91ZM435.067 154.102C434.602 154.4 434.466 155.019 434.764 155.484C435.062 155.949 435.68 156.085 436.145 155.787L435.067 154.102ZM439.531 153.538C439.986 153.224 440.101 152.602 439.787 152.147C439.474 151.692 438.851 151.578 438.396 151.891L439.531 153.538ZM441.634 149.575C441.191 149.904 441.099 150.53 441.428 150.974C441.757 151.417 442.383 151.51 442.827 151.18L441.634 149.575ZM446.041 148.701C446.472 148.356 446.542 147.727 446.196 147.296C445.851 146.865 445.222 146.795 444.791 147.14L446.041 148.701ZM447.852 144.592C447.434 144.953 447.389 145.585 447.75 146.003C448.112 146.42 448.743 146.466 449.161 146.105L447.852 144.592ZM452.168 143.4C452.571 143.023 452.593 142.39 452.216 141.987C451.838 141.583 451.206 141.562 450.802 141.939L452.168 143.4ZM453.62 139.203C453.231 139.595 453.234 140.229 453.626 140.618C454.018 141.007 454.651 141.004 455.04 140.612L453.62 139.203ZM457.816 137.709C458.19 137.303 458.164 136.67 457.758 136.296C457.352 135.921 456.719 135.947 456.345 136.353L457.816 137.709ZM458.961 133.409C458.602 133.829 458.65 134.46 459.07 134.819C459.489 135.179 460.12 135.13 460.48 134.711L458.961 133.409ZM463.033 131.626C463.378 131.194 463.308 130.565 462.876 130.22C462.445 129.876 461.816 129.946 461.471 130.377L463.033 131.626ZM463.879 127.259C463.549 127.701 463.64 128.328 464.082 128.658C464.525 128.989 465.152 128.898 465.482 128.455L463.879 127.259ZM467.828 125.207C468.145 124.754 468.034 124.131 467.581 123.814C467.129 123.498 466.505 123.608 466.189 124.061L467.828 125.207ZM468.4 120.795C468.097 121.257 468.226 121.877 468.688 122.18C469.149 122.483 469.769 122.354 470.072 121.893L468.4 120.795ZM472.221 118.519C472.511 118.049 472.365 117.432 471.896 117.142C471.426 116.852 470.81 116.997 470.519 117.467L472.221 118.519ZM472.552 114.081C472.274 114.558 472.435 115.17 472.912 115.449C473.389 115.727 474.001 115.566 474.28 115.089L472.552 114.081ZM476.254 111.614C476.522 111.131 476.347 110.523 475.864 110.255C475.381 109.988 474.772 110.163 474.505 110.646L476.254 111.614ZM476.382 107.167C476.125 107.656 476.312 108.26 476.801 108.518C477.29 108.775 477.895 108.588 478.152 108.099L476.382 107.167ZM479.98 104.549C480.228 104.056 480.029 103.455 479.536 103.207C479.043 102.958 478.442 103.157 478.193 103.65L479.98 104.549ZM479.944 100.1C479.704 100.597 479.912 101.195 480.409 101.436C480.906 101.676 481.504 101.468 481.745 100.971L479.944 100.1ZM483.455 97.3682C483.689 96.8678 483.473 96.2727 482.972 96.0392C482.472 95.8056 481.876 96.022 481.643 96.5225L483.455 97.3682ZM483.297 92.9215C483.07 93.4246 483.293 94.0171 483.796 94.2449C484.299 94.4726 484.892 94.2494 485.119 93.7463L483.297 92.9215ZM486.745 90.1095C486.968 89.6042 486.739 89.0138 486.234 88.7907C485.729 88.5676 485.138 88.7963 484.915 89.3015L486.745 90.1095ZM486.505 85.6662C486.285 86.173 486.518 86.7618 487.025 86.9814C487.531 87.201 488.12 86.9682 488.34 86.4615L486.505 85.6662ZM489.913 82.8063C490.13 82.2986 489.895 81.7108 489.387 81.4936C488.879 81.2764 488.291 81.5119 488.074 82.0197L489.913 82.8063ZM489.631 78.366C489.415 78.8743 489.652 79.4614 490.16 79.6774C490.669 79.8934 491.256 79.6565 491.472 79.1482L489.631 78.366ZM493.025 75.4898C493.241 74.9815 493.004 74.3944 492.496 74.1784C491.988 73.9625 491.401 74.1995 491.185 74.7078L493.025 75.4898ZM492.743 71.0486C492.526 71.5565 492.762 72.1441 493.27 72.3612C493.777 72.5782 494.365 72.3425 494.582 71.8346L492.743 71.0486ZM496.15 68.1874C496.369 67.6805 496.136 67.0918 495.629 66.8725C495.122 66.6532 494.533 66.8863 494.314 67.3931L496.15 68.1874ZM495.906 63.7455C495.684 64.2509 495.913 64.8412 496.418 65.0639C496.923 65.2867 497.514 65.0576 497.736 64.5523L495.906 63.7455ZM499.352 60.9302C499.58 60.4269 499.356 59.8346 498.853 59.6072C498.349 59.3797 497.757 59.6034 497.53 60.1067L499.352 60.9302ZM499.192 56.483C498.958 56.9836 499.175 57.5785 499.676 57.8117C500.176 58.045 500.771 57.8283 501.005 57.3277L499.192 56.483ZM502.701 53.75C502.942 53.2527 502.733 52.6548 502.236 52.4145C501.739 52.1742 501.141 52.3825 500.901 52.8798L502.701 53.75ZM502.665 49.302C502.417 49.7952 502.615 50.3965 503.108 50.645C503.602 50.8935 504.203 50.6951 504.451 50.2019L502.665 49.302ZM506.264 46.6851C506.522 46.1967 506.335 45.5917 505.847 45.3339C505.359 45.076 504.754 45.2629 504.496 45.7513L506.264 46.6851ZM506.399 42.2376C506.13 42.7203 506.304 43.3291 506.787 43.5975C507.27 43.8658 507.878 43.6921 508.147 43.2094L506.399 42.2376ZM510.107 39.7807C510.387 39.3046 510.228 38.6918 509.752 38.4118C509.276 38.1319 508.663 38.2908 508.383 38.7669L510.107 39.7807ZM510.456 35.3454C510.163 35.8138 510.306 36.4307 510.774 36.7233C511.243 37.0159 511.859 36.8733 512.152 36.4049L510.456 35.3454ZM514.29 33.0894C514.596 32.6297 514.471 32.0089 514.012 31.7028C513.552 31.3967 512.931 31.5212 512.625 31.9809L514.29 33.0894ZM514.896 28.6827C514.576 29.1325 514.681 29.7569 515.13 30.0774C515.58 30.3978 516.205 30.293 516.525 29.8432L514.896 28.6827ZM518.865 26.673C519.2 26.2343 519.117 25.6066 518.678 25.2712C518.239 24.9357 517.612 25.0193 517.276 25.458L518.865 26.673ZM519.77 22.315C519.419 22.7413 519.48 23.3716 519.906 23.7226C520.332 24.0736 520.963 24.0125 521.314 23.5862L519.77 22.315ZM523.869 20.5974C524.236 20.1846 524.199 19.5525 523.786 19.1857C523.373 18.8188 522.741 18.8561 522.374 19.2689L523.869 20.5974ZM525.096 16.3234C524.714 16.7216 524.726 17.3546 525.124 17.7374C525.522 18.1202 526.155 18.1077 526.538 17.7096L525.096 16.3234ZM529.323 14.9278C529.721 14.5455 529.734 13.9125 529.352 13.5139C528.97 13.1153 528.337 13.1021 527.938 13.4844L529.323 14.9278ZM530.894 10.7641C530.48 11.1296 530.441 11.7615 530.806 12.1756C531.172 12.5896 531.804 12.629 532.218 12.2635L530.894 10.7641ZM535.213 9.7289C535.642 9.38102 535.707 8.75127 535.36 8.32232C535.012 7.89338 534.382 7.82766 533.953 8.17555L535.213 9.7289ZM537.124 5.71207C536.681 6.04167 536.589 6.66811 536.919 7.11126C537.248 7.55441 537.875 7.64646 538.318 7.31687L537.124 5.71207ZM541.533 5.02835C541.99 4.71757 542.108 4.09553 541.797 3.63898C541.486 3.18244 540.864 3.06428 540.408 3.37506L541.533 5.02835ZM543.757 1.19427C543.288 1.48614 543.145 2.10284 543.436 2.5717C543.728 3.04056 544.345 3.18403 544.814 2.89216L543.757 1.19427ZM9 263C9 262.349 9.03159 261.699 9.09386 261.05L7.103 260.859C7.03473 261.57 7 262.284 7 263H9ZM9.81894 257.202C10.1655 255.962 10.6194 254.726 11.1749 253.492L9.35135 252.671C8.75774 253.989 8.26849 255.32 7.89287 256.663L9.81894 257.202ZM13.029 249.987C13.7003 248.88 14.4495 247.779 15.2723 246.682L13.6725 245.482C12.8137 246.626 12.0271 247.782 11.3191 248.949L13.029 249.987ZM17.8135 243.571C18.6821 242.587 19.6069 241.609 20.5841 240.638L19.1743 239.22C18.1686 240.219 17.2137 241.228 16.3143 242.247L17.8135 243.571ZM23.5341 237.866C24.5251 236.982 25.5572 236.106 26.6274 235.236L25.3663 233.684C24.2739 234.571 23.2185 235.468 22.2033 236.373L23.5341 237.866ZM29.828 232.741C30.8942 231.942 31.9909 231.15 33.1154 230.365L31.971 228.725C30.8289 229.522 29.7139 230.327 28.6287 231.141L29.828 232.741ZM36.4843 228.09C37.6084 227.355 38.7555 226.627 39.9234 225.907L38.8734 224.204C37.6911 224.934 36.529 225.671 35.3894 226.417L36.4843 228.09ZM43.4226 223.807C44.5883 223.125 45.7712 222.452 46.9693 221.786L45.998 220.038C44.7877 220.71 43.5922 221.391 42.4136 222.08L43.4226 223.807ZM50.5489 219.844C51.7446 219.21 52.9529 218.585 54.1718 217.967L53.2677 216.183C52.0383 216.806 50.8192 217.437 49.6123 218.077L50.5489 219.844ZM57.8313 216.152C59.053 215.558 60.2832 214.973 61.5201 214.397L60.6751 212.584C59.429 213.165 58.1892 213.754 56.9576 214.352L57.8313 216.152ZM65.2332 212.7C66.4761 212.143 67.7237 211.595 68.9743 211.056L68.1828 209.22C66.9237 209.762 65.6673 210.314 64.4156 210.875L65.2332 212.7ZM72.7373 209.465C73.9974 208.943 75.2586 208.43 76.5191 207.926L75.7773 206.069C74.5088 206.575 73.2394 207.092 71.9711 207.618L72.7373 209.465ZM80.3277 206.433C81.6063 205.942 82.8823 205.46 84.1537 204.99L83.4594 203.114C82.1802 203.587 80.8964 204.072 79.6098 204.567L80.3277 206.433ZM87.9928 203.596C89.2833 203.136 90.5668 202.688 91.8414 202.252L91.1941 200.36C89.9116 200.798 88.6203 201.249 87.322 201.711L87.9928 203.596ZM95.7254 200.951C97.0375 200.52 98.3374 200.104 99.6228 199.7L99.0242 197.792C97.7305 198.198 96.4224 198.617 95.1021 199.05L95.7254 200.951ZM103.532 198.503C104.858 198.107 106.166 197.726 107.452 197.362L106.907 195.437C105.611 195.804 104.295 196.188 102.959 196.587L103.532 198.503ZM111.385 196.28C112.731 195.92 114.049 195.581 115.333 195.262L114.851 193.321C113.555 193.643 112.227 193.985 110.869 194.347L111.385 196.28ZM119.301 194.318C120.681 194.005 122.014 193.719 123.292 193.461L122.897 191.501C121.601 191.762 120.253 192.051 118.858 192.368L119.301 194.318ZM127.304 192.715C127.98 192.601 128.636 192.497 129.269 192.403L128.976 190.425C128.329 190.521 127.66 190.627 126.971 190.743L127.304 192.715ZM129.269 192.403C129.919 192.307 130.571 192.213 131.226 192.121L130.947 190.14C130.287 190.233 129.63 190.328 128.976 190.425L129.269 192.403ZM135.191 191.591C136.514 191.424 137.849 191.263 139.194 191.11L138.967 189.123C137.614 189.277 136.271 189.438 134.939 189.607L135.191 191.591ZM143.157 190.682C144.488 190.546 145.829 190.417 147.179 190.293L146.996 188.301C145.64 188.426 144.292 188.556 142.953 188.693L143.157 190.682ZM151.152 189.949C152.48 189.84 153.816 189.737 155.161 189.639L155.015 187.645C153.665 187.743 152.323 187.847 150.989 187.956L151.152 189.949ZM159.17 189.364C160.495 189.279 161.827 189.198 163.165 189.121L163.051 187.124C161.708 187.201 160.371 187.282 159.042 187.368L159.17 189.364ZM167.203 188.905C168.526 188.838 169.855 188.776 171.19 188.717L171.102 186.719C169.763 186.778 168.43 186.84 167.103 186.907L167.203 188.905ZM175.209 188.552C176.544 188.501 177.884 188.453 179.23 188.408L179.164 186.409C177.815 186.454 176.471 186.502 175.133 186.553L175.209 188.552ZM183.234 188.285C184.573 188.247 185.918 188.212 187.268 188.179L187.22 186.18C185.867 186.212 184.52 186.248 183.177 186.286L183.234 188.285ZM191.274 188.09C192.608 188.063 193.947 188.038 195.291 188.015L195.257 186.015C193.911 186.038 192.57 186.063 191.233 186.09L191.274 188.09ZM199.325 187.953C200.656 187.934 201.99 187.917 203.329 187.902L203.306 185.902C201.966 185.917 200.63 185.934 199.297 185.953L199.325 187.953ZM207.355 187.861C208.693 187.849 210.034 187.838 211.378 187.829L211.364 185.829C210.018 185.838 208.676 185.849 207.337 185.861L207.355 187.861ZM215.391 187.803C216.732 187.796 218.076 187.789 219.422 187.783L219.414 185.783C218.066 185.789 216.722 185.796 215.38 185.803L215.391 187.803ZM223.439 187.768C224.776 187.764 226.116 187.76 227.458 187.756L227.453 185.756C226.111 185.76 224.77 185.764 223.432 185.768L223.439 187.768ZM231.491 187.747C232.827 187.744 234.165 187.741 235.505 187.738L235.501 185.738C234.161 185.741 232.823 185.744 231.486 185.747L231.491 187.747ZM239.528 187.729C240.869 187.725 242.212 187.722 243.556 187.718L243.551 185.718C242.207 185.722 240.864 185.725 239.523 185.729L239.528 187.729ZM247.575 187.705C248.915 187.7 250.257 187.695 251.6 187.688L251.59 185.688C250.248 185.695 248.907 185.7 247.567 185.705L247.575 187.705ZM255.625 187.667C256.965 187.659 258.306 187.65 259.647 187.639L259.632 185.639C258.292 185.65 256.952 185.659 255.613 185.667L255.625 187.667ZM263.673 187.605C265.014 187.592 266.356 187.578 267.698 187.563L267.674 185.563C266.334 185.578 264.994 185.592 263.654 185.605L263.673 187.605ZM271.722 187.511C273.064 187.492 274.405 187.472 275.746 187.449L275.712 185.449C274.373 185.472 273.034 185.492 271.694 185.511L271.722 187.511ZM279.773 187.376C281.115 187.349 282.457 187.321 283.798 187.29L283.752 185.29C282.413 185.321 281.074 185.35 279.733 185.376L279.773 187.376ZM287.819 187.19C289.163 187.154 290.507 187.116 291.849 187.075L291.788 185.076C290.448 185.117 289.107 185.155 287.765 185.191L287.819 187.19ZM295.873 186.944C297.214 186.897 298.554 186.847 299.892 186.795L299.814 184.796C298.479 184.849 297.142 184.898 295.803 184.945L295.873 186.944ZM303.923 186.627C305.265 186.568 306.605 186.505 307.943 186.439L307.845 184.442C306.51 184.508 305.174 184.57 303.835 184.629L303.923 186.627ZM311.964 186.23C313.309 186.156 314.652 186.079 315.993 185.997L315.871 184.001C314.535 184.082 313.196 184.16 311.855 184.233L311.964 186.23ZM320.006 185.741C321.35 185.651 322.691 185.556 324.029 185.458L323.882 183.463C322.548 183.562 321.212 183.656 319.872 183.745L320.006 185.741ZM328.05 185.147C329.388 185.039 330.722 184.926 332.052 184.808L331.876 182.816C330.551 182.933 329.222 183.046 327.889 183.153L328.05 185.147ZM336.079 184.436C337.42 184.307 338.756 184.173 340.088 184.033L339.88 182.044C338.553 182.183 337.222 182.317 335.887 182.446L336.079 184.436ZM344.086 183.596C345.43 183.442 346.769 183.284 348.104 183.119L347.859 181.134C346.531 181.298 345.198 181.456 343.86 181.608L344.086 183.596ZM352.094 182.606C353.432 182.428 354.764 182.243 356.092 182.051L355.806 180.071C354.486 180.262 353.16 180.446 351.829 180.624L352.094 182.606ZM360.087 181.452C361.413 181.245 362.734 181.032 364.049 180.812L363.718 178.839C362.411 179.058 361.098 179.27 359.779 179.476L360.087 181.452ZM368.045 180.116C369.371 179.877 370.692 179.63 372.005 179.375L371.624 177.411C370.319 177.665 369.008 177.91 367.689 178.148L368.045 180.116ZM375.959 178.579C377.285 178.303 378.604 178.018 379.915 177.724L379.478 175.772C378.176 176.064 376.867 176.347 375.55 176.621L375.959 178.579ZM383.828 176.817C385.149 176.499 386.462 176.173 387.767 175.837L387.268 173.9C385.974 174.233 384.671 174.557 383.361 174.872L383.828 176.817ZM391.664 174.797C392.967 174.437 394.261 174.067 395.546 173.687L394.979 171.769C393.705 172.146 392.423 172.513 391.132 172.869L391.664 174.797ZM399.419 172.5C400.702 172.094 401.975 171.676 403.238 171.247L402.595 169.353C401.345 169.778 400.085 170.191 398.815 170.594L399.419 172.5ZM407.075 169.898C408.343 169.436 409.601 168.962 410.848 168.476L410.121 166.612C408.889 167.093 407.645 167.562 406.391 168.018L407.075 169.898ZM414.607 166.958C415.857 166.435 417.095 165.899 418.321 165.35L417.503 163.525C416.293 164.067 415.07 164.596 413.836 165.112L414.607 166.958ZM421.987 163.648C423.211 163.059 424.423 162.456 425.62 161.838L424.703 160.061C423.523 160.67 422.328 161.265 421.12 161.845L421.987 163.648ZM429.179 159.936C430.369 159.276 431.545 158.601 432.706 157.91L431.683 156.191C430.54 156.872 429.382 157.537 428.21 158.186L429.179 159.936ZM436.145 155.787C437.29 155.054 438.419 154.305 439.531 153.538L438.396 151.891C437.303 152.645 436.193 153.382 435.067 154.102L436.145 155.787ZM442.827 151.18C443.915 150.372 444.987 149.546 446.041 148.701L444.791 147.14C443.756 147.969 442.704 148.781 441.634 149.575L442.827 151.18ZM449.161 146.105C449.672 145.662 450.179 145.215 450.681 144.764L449.343 143.277C448.851 143.72 448.354 144.158 447.852 144.592L449.161 146.105ZM450.681 144.764C451.182 144.312 451.678 143.858 452.168 143.4L450.802 141.939C450.322 142.388 449.835 142.834 449.343 143.277L450.681 144.764ZM455.04 140.612C455.988 139.657 456.913 138.689 457.816 137.709L456.345 136.353C455.458 137.316 454.551 138.266 453.62 139.203L455.04 140.612ZM460.48 134.711C461.352 133.694 462.203 132.665 463.033 131.626L461.471 130.377C460.654 131.399 459.818 132.41 458.961 133.409L460.48 134.711ZM465.482 128.455C466.283 127.382 467.065 126.299 467.828 125.207L466.189 124.061C465.437 125.137 464.667 126.203 463.879 127.259L465.482 128.455ZM470.072 121.893C470.805 120.776 471.521 119.651 472.221 118.519L470.519 117.467C469.828 118.585 469.122 119.695 468.4 120.795L470.072 121.893ZM474.28 115.089C474.952 113.938 475.61 112.779 476.254 111.614L474.505 110.646C473.867 111.798 473.217 112.943 472.552 114.081L474.28 115.089ZM478.152 108.099C478.772 106.921 479.381 105.738 479.98 104.549L478.193 103.65C477.6 104.828 476.997 106.001 476.382 107.167L478.152 108.099ZM481.745 100.971C482.324 99.7738 482.893 98.5726 483.455 97.3682L481.643 96.5225C481.085 97.7193 480.519 98.9121 479.944 100.1L481.745 100.971ZM485.119 93.7463C485.667 92.5363 486.208 91.3237 486.745 90.1095L484.915 89.3015C484.381 90.5108 483.842 91.7177 483.297 92.9215L485.119 93.7463ZM488.34 86.4615C488.868 85.2438 489.391 84.0251 489.913 82.8063L488.074 82.0197C487.554 83.2364 487.031 84.4521 486.505 85.6662L488.34 86.4615ZM491.472 79.1482C491.99 77.9287 492.508 76.7074 493.025 75.4898L491.185 74.7078C490.666 75.9276 490.15 77.1457 489.631 78.366L491.472 79.1482ZM494.582 71.8346C495.103 70.6164 495.625 69.4005 496.15 68.1874L494.314 67.3931C493.788 68.6096 493.264 69.8285 492.743 71.0486L494.582 71.8346ZM497.736 64.5523C498.27 63.3409 498.809 62.1333 499.352 60.9302L497.53 60.1067C496.983 61.3161 496.443 62.5293 495.906 63.7455L497.736 64.5523ZM501.005 57.3277C501.563 56.1295 502.128 54.9367 502.701 53.75L500.901 52.8798C500.323 54.0757 499.754 55.277 499.192 56.483L501.005 57.3277ZM504.451 50.2019C505.046 49.0223 505.649 47.8498 506.264 46.6851L504.496 45.7513C503.874 46.928 503.265 48.1119 502.665 49.302L504.451 50.2019ZM508.147 43.2094C508.787 42.0576 509.44 40.9144 510.107 39.7807L508.383 38.7669C507.707 39.9152 507.047 41.0724 506.399 42.2376L508.147 43.2094ZM512.152 36.4049C512.849 35.2892 513.561 34.1838 514.29 33.0894L512.625 31.9809C511.885 33.0921 511.162 34.2139 510.456 35.3454L512.152 36.4049ZM516.525 29.8432C517.287 28.7744 518.066 27.7174 518.865 26.673L517.276 25.458C516.463 26.521 515.67 27.5961 514.896 28.6827L516.525 29.8432ZM521.314 23.5862C522.145 22.5766 522.996 21.5801 523.869 20.5974L522.374 19.2689C521.484 20.2709 520.616 21.2865 519.77 22.315L521.314 23.5862ZM526.538 17.7096C527.443 16.7679 528.371 15.8404 529.323 14.9278L527.938 13.4844C526.967 14.416 526.02 15.3626 525.096 16.3234L526.538 17.7096ZM532.218 12.2635C533.192 11.4036 534.19 10.5585 535.213 9.7289L533.953 8.17555C532.908 9.02289 531.889 9.88598 530.894 10.7641L532.218 12.2635ZM538.318 7.31687C539.364 6.53853 540.436 5.77547 541.533 5.02835L540.408 3.37506C539.287 4.13793 538.193 4.91715 537.124 5.71207L538.318 7.31687ZM544.814 2.89216C545.373 2.54402 545.939 2.19979 546.511 1.85955L545.489 0.14045C544.905 0.487639 544.328 0.838938 543.757 1.19427L544.814 2.89216Z" fill="#B4B3EF"/>
</svg>
