<svg width="247" height="229" viewBox="0 0 247 229" fill="none" xmlns="http://www.w3.org/2000/svg">
<path d="M42.6272 100.588L43.1905 99.7613L42.6272 100.588ZM134.495 140.073L134.155 141.013L134.495 140.073ZM182.371 156.214L182.884 155.356L182.371 156.214ZM212.709 178.726L212.001 179.432L212.709 178.726ZM242.914 227.909C242.687 228.413 242.096 228.638 241.592 228.412L233.382 224.725C232.878 224.499 232.653 223.907 232.879 223.403C233.105 222.9 233.697 222.675 234.201 222.901L241.499 226.178L244.776 218.88C245.002 218.376 245.594 218.151 246.098 218.377C246.602 218.603 246.827 219.195 246.6 219.699L242.914 227.909ZM241.067 227.855C240.72 226.943 240.378 226.049 240.041 225.17L241.907 224.452C242.246 225.334 242.589 226.231 242.936 227.144L241.067 227.855ZM237.951 219.835C237.22 218.008 236.496 216.251 235.766 214.549L237.604 213.761C238.342 215.48 239.072 217.253 239.808 219.091L237.951 219.835ZM233.427 209.346C232.603 207.604 231.756 205.913 230.871 204.258L232.634 203.314C233.537 205.001 234.398 206.722 235.235 208.491L233.427 209.346ZM228.046 199.325C227.068 197.73 226.034 196.153 224.928 194.577L226.565 193.428C227.696 195.038 228.752 196.65 229.751 198.279L228.046 199.325ZM221.525 190.025C220.383 188.587 219.168 187.137 217.868 185.664L219.368 184.34C220.69 185.839 221.927 187.315 223.091 188.782L221.525 190.025ZM214.004 181.475C213.355 180.801 212.688 180.12 212.001 179.432L213.417 178.019C214.112 178.716 214.788 179.405 215.445 180.088L214.004 181.475ZM212.001 179.432C211.237 178.666 210.491 177.933 209.76 177.23L211.147 175.788C211.888 176.502 212.643 177.244 213.417 178.019L212.001 179.432ZM205.141 172.999C203.51 171.585 201.912 170.286 200.293 169.051L201.507 167.461C203.158 168.722 204.789 170.046 206.451 171.488L205.141 172.999ZM195.209 165.401C193.542 164.273 191.803 163.15 189.94 161.986L191 160.29C192.878 161.464 194.639 162.6 196.33 163.746L195.209 165.401ZM184.566 158.698C183.693 158.172 182.791 157.631 181.857 157.073L182.884 155.356C183.819 155.915 184.722 156.457 185.598 156.985L184.566 158.698ZM181.857 157.073C180.931 156.518 180.024 155.998 179.135 155.51L180.098 153.757C181.009 154.258 181.937 154.79 182.884 155.356L181.857 157.073ZM173.535 152.725C171.545 151.838 169.619 151.09 167.721 150.435L168.373 148.544C170.322 149.217 172.302 149.986 174.349 150.898L173.535 152.725ZM161.724 148.607C159.714 148.063 157.691 147.57 155.606 147.073L156.07 145.128C158.158 145.626 160.205 146.124 162.247 146.677L161.724 148.607ZM149.432 145.589C147.465 145.101 145.421 144.569 143.272 143.955L143.822 142.032C145.941 142.637 147.962 143.163 149.914 143.648L149.432 145.589ZM137.177 142.066C136.193 141.736 135.186 141.386 134.155 141.013L134.835 139.132C135.851 139.5 136.843 139.845 137.813 140.17L137.177 142.066ZM134.155 141.013C133.181 140.661 132.2 140.308 131.21 139.952L131.887 138.07C132.878 138.426 133.86 138.78 134.835 139.132L134.155 141.013ZM125.315 137.836C123.37 137.14 121.402 136.435 119.418 135.722L120.093 133.84C122.077 134.552 124.045 135.257 125.99 135.954L125.315 137.836ZM113.522 133.599C111.568 132.892 109.603 132.178 107.632 131.456L108.32 129.578C110.288 130.299 112.25 131.012 114.203 131.718L113.522 133.599ZM101.75 129.283C99.7927 128.554 97.8345 127.817 95.8804 127.072L96.5927 125.203C98.5417 125.946 100.495 126.681 102.449 127.409L101.75 129.283ZM90.0274 124.811C88.0728 124.045 86.1273 123.272 84.196 122.491L84.9462 120.637C86.8699 121.415 88.8085 122.186 90.7569 122.949L90.0274 124.811ZM78.3918 120.098C76.4462 119.28 74.5208 118.454 72.6212 117.619L73.426 115.788C75.3149 116.618 77.2303 117.44 79.1668 118.254L78.3918 120.098ZM66.8926 115.036C64.9642 114.143 63.0701 113.24 61.2165 112.328L62.0997 110.534C63.9379 111.438 65.8177 112.334 67.7329 113.221L66.8926 115.036ZM55.6081 109.469C53.712 108.466 51.8699 107.452 50.0898 106.425L51.0888 104.693C52.8458 105.706 54.6665 106.709 56.5432 107.701L55.6081 109.469ZM44.6968 103.153C43.7979 102.577 42.9198 101.997 42.0639 101.414L43.1905 99.7613C44.0297 100.333 44.8919 100.903 45.7757 101.469L44.6968 103.153ZM42.0639 101.414C41.1878 100.816 40.3288 100.196 39.4868 99.5541L40.6995 97.9637C41.5139 98.5847 42.3442 99.1843 43.1905 99.7613L42.0639 101.414ZM34.6416 95.4567C33.1008 94.0186 31.6245 92.5048 30.2103 90.9249L31.7005 89.591C33.0769 91.1286 34.5114 92.5994 36.0062 93.9946L34.6416 95.4567ZM26.1856 86.042C24.9155 84.3718 23.7028 82.6471 22.5451 80.877L24.2189 79.7823C25.3522 81.515 26.5377 83.2009 27.7776 84.8314L26.1856 86.042ZM19.2604 75.4845C18.2253 73.6608 17.2413 71.8016 16.3063 69.9155L18.0981 69.0271C19.0175 70.8816 19.9841 72.7078 20.9998 74.4973L19.2604 75.4845ZM13.6528 64.201C12.8149 62.2734 12.0235 60.3274 11.2766 58.3715L13.1451 57.6581C13.8817 59.5872 14.6617 61.5052 15.487 63.4036L13.6528 64.201ZM9.15538 52.447C8.48488 50.447 7.85809 48.4453 7.27289 46.4509L9.19197 45.8878C9.77036 47.8589 10.3896 49.8364 11.0517 51.8113L9.15538 52.447ZM5.61058 40.3843C5.08502 38.3245 4.60242 36.2823 4.16039 34.268L6.11389 33.8393C6.55128 35.8324 7.0287 37.8526 7.54851 39.8898L5.61058 40.3843ZM2.91533 28.1141C2.52362 26.0012 2.17671 23.9334 1.87149 21.9237L3.84882 21.6234C4.15083 23.6121 4.49416 25.6585 4.88182 27.7495L2.91533 28.1141ZM1.03203 15.6946C0.774765 13.5029 0.570145 11.4094 0.413254 9.43498L2.40697 9.27656C2.56183 11.2255 2.76399 13.2941 3.0184 15.4615L1.03203 15.6946ZM0.0541229 3.13328C0.0185699 2.02482 0.00146484 0.978248 0.00146484 -0.000244141H2.00146C2.00146 0.955157 2.01817 1.98028 2.0531 3.06916L0.0541229 3.13328Z" fill="#B4B3EF"/>
</svg>
