<svg width="1920" height="3502" viewBox="0 0 1920 3502" fill="none" xmlns="http://www.w3.org/2000/svg">
<g filter="url(#filter0_f_2622_3)">
<path d="M1804.45 1651.2C1722.74 1527.99 1516.99 1313.2 1347.7 1439.65C1178.41 1566.11 1581.66 1633.37 1804.45 1651.2Z" fill="#FFD1C8"/>
</g>
<g filter="url(#filter1_f_2622_3)">
<path d="M643.453 1051.2C561.739 927.994 355.989 713.2 186.697 839.654C17.4051 966.109 420.663 1033.37 643.453 1051.2Z" fill="#FFD1C8"/>
</g>
<g filter="url(#filter2_f_2622_3)">
<path d="M685.455 3170.2C603.741 3046.99 397.99 2832.2 228.698 2958.65C59.4065 3085.11 462.664 3152.37 685.455 3170.2Z" fill="#FFD1C8"/>
</g>
<g filter="url(#filter3_f_2622_3)">
<path d="M1714.45 581.198C1632.74 457.994 1426.99 243.2 1257.7 369.654C1088.41 496.109 1491.66 563.373 1714.45 581.198Z" fill="#94BFFF"/>
</g>
<g filter="url(#filter4_f_2622_3)">
<path d="M1756.45 2700.2C1674.74 2576.99 1468.99 2362.2 1299.7 2488.65C1130.41 2615.11 1533.66 2682.37 1756.45 2700.2Z" fill="#94BFFF"/>
</g>
<g filter="url(#filter5_f_2622_3)">
<path d="M682.455 1978.2C600.741 1854.99 394.99 1640.2 225.698 1766.65C56.4065 1893.11 459.664 1960.37 682.455 1978.2Z" fill="#94BFFF"/>
</g>
<defs>
<filter id="filter0_f_2622_3" x="976.278" y="1070.11" width="1159.18" height="912.086" filterUnits="userSpaceOnUse" color-interpolation-filters="sRGB">
<feFlood flood-opacity="0" result="BackgroundImageFix"/>
<feBlend mode="normal" in="SourceGraphic" in2="BackgroundImageFix" result="shape"/>
<feGaussianBlur stdDeviation="165.5" result="effect1_foregroundBlur_2622_3"/>
</filter>
<filter id="filter1_f_2622_3" x="-184.724" y="470.112" width="1159.18" height="912.086" filterUnits="userSpaceOnUse" color-interpolation-filters="sRGB">
<feFlood flood-opacity="0" result="BackgroundImageFix"/>
<feBlend mode="normal" in="SourceGraphic" in2="BackgroundImageFix" result="shape"/>
<feGaussianBlur stdDeviation="165.5" result="effect1_foregroundBlur_2622_3"/>
</filter>
<filter id="filter2_f_2622_3" x="-142.722" y="2589.11" width="1159.18" height="912.086" filterUnits="userSpaceOnUse" color-interpolation-filters="sRGB">
<feFlood flood-opacity="0" result="BackgroundImageFix"/>
<feBlend mode="normal" in="SourceGraphic" in2="BackgroundImageFix" result="shape"/>
<feGaussianBlur stdDeviation="165.5" result="effect1_foregroundBlur_2622_3"/>
</filter>
<filter id="filter3_f_2622_3" x="886.276" y="0.111816" width="1159.18" height="912.086" filterUnits="userSpaceOnUse" color-interpolation-filters="sRGB">
<feFlood flood-opacity="0" result="BackgroundImageFix"/>
<feBlend mode="normal" in="SourceGraphic" in2="BackgroundImageFix" result="shape"/>
<feGaussianBlur stdDeviation="165.5" result="effect1_foregroundBlur_2622_3"/>
</filter>
<filter id="filter4_f_2622_3" x="928.278" y="2119.11" width="1159.18" height="912.086" filterUnits="userSpaceOnUse" color-interpolation-filters="sRGB">
<feFlood flood-opacity="0" result="BackgroundImageFix"/>
<feBlend mode="normal" in="SourceGraphic" in2="BackgroundImageFix" result="shape"/>
<feGaussianBlur stdDeviation="165.5" result="effect1_foregroundBlur_2622_3"/>
</filter>
<filter id="filter5_f_2622_3" x="-145.722" y="1397.11" width="1159.18" height="912.086" filterUnits="userSpaceOnUse" color-interpolation-filters="sRGB">
<feFlood flood-opacity="0" result="BackgroundImageFix"/>
<feBlend mode="normal" in="SourceGraphic" in2="BackgroundImageFix" result="shape"/>
<feGaussianBlur stdDeviation="165.5" result="effect1_foregroundBlur_2622_3"/>
</filter>
</defs>
</svg>
