<svg width="163" height="611" viewBox="0 0 163 611" fill="none" xmlns="http://www.w3.org/2000/svg">
<path d="M394.721 156.311C394.721 157.784 393.527 158.977 392.054 158.977C390.582 158.977 389.388 157.784 389.388 156.311C389.388 154.838 390.582 153.644 392.054 153.644C393.527 153.644 394.721 154.838 394.721 156.311ZM24.8784 80.4416L25.3772 80.408L24.8784 80.4416ZM437.862 366.023L437.37 366.116L437.862 366.023ZM160.512 610.45L155.039 608.61L159.368 604.79L160.512 610.45ZM391.725 156.687C390.598 155.699 389.472 154.715 388.345 153.736L389.001 152.981C390.129 153.961 391.257 154.946 392.384 155.935L391.725 156.687ZM381.582 147.907C379.326 145.981 377.07 144.071 374.814 142.178L375.456 141.412C377.715 143.307 379.973 145.218 382.231 147.147L381.582 147.907ZM367.926 136.451C365.628 134.558 363.33 132.683 361.033 130.824L361.662 130.047C363.961 131.907 366.262 133.784 368.562 135.68L367.926 136.451ZM354.081 125.255C351.739 123.396 349.398 121.556 347.059 119.734L347.673 118.945C350.015 120.769 352.358 122.611 354.703 124.472L354.081 125.255ZM340.044 114.326C337.658 112.503 335.273 110.701 332.89 108.918L333.49 108.117C335.875 109.902 338.262 111.707 340.651 113.531L340.044 114.326ZM325.749 103.628C323.338 101.86 320.931 100.113 318.526 98.387L319.109 97.5747C321.516 99.3028 323.927 101.052 326.34 102.821L325.749 103.628ZM311.254 93.2224C308.819 91.5119 306.389 89.823 303.962 88.1559L304.528 87.3317C306.958 89.0007 309.391 90.6916 311.829 92.4042L311.254 93.2224ZM296.557 83.126C294.093 81.4722 291.635 79.8413 289.182 78.2335L289.73 77.3972C292.186 79.007 294.647 80.6399 297.114 82.2958L296.557 83.126ZM281.65 73.3568C279.142 71.7535 276.641 70.1748 274.147 68.6209L274.676 67.7722C277.173 69.3281 279.678 70.9089 282.189 72.5143L281.65 73.3568ZM266.528 63.937C263.975 62.3893 261.431 60.8681 258.896 59.3737L259.403 58.5122C261.942 60.0087 264.49 61.532 267.046 63.082L266.528 63.937ZM251.181 54.8938C248.583 53.4079 245.995 51.9509 243.419 50.523L243.903 49.6483C246.484 51.0784 249.076 52.5377 251.678 54.0258L251.181 54.8938ZM235.599 46.2611C232.956 44.8451 230.325 43.4606 227.708 42.1079L228.167 41.2195C230.789 42.5745 233.424 43.9613 236.071 45.3797L235.599 46.2611ZM219.77 38.0822C217.083 36.746 214.411 35.4445 211.755 34.1779L212.185 33.2753C214.846 34.5443 217.523 35.8482 220.215 37.1867L219.77 38.0822ZM203.682 30.4128C200.953 29.1694 198.243 27.9642 195.551 26.7975L195.949 25.88C198.646 27.0492 201.362 28.2569 204.096 29.5029L203.682 30.4128ZM187.325 23.3269C184.559 22.1924 181.815 21.1003 179.093 20.0511L179.453 19.118C182.181 20.1698 184.932 21.2645 187.705 22.4017L187.325 23.3269ZM170.696 16.9227C167.885 15.9132 165.102 14.9516 162.347 14.0383L162.661 13.0891C165.425 14.005 168.216 14.9694 171.034 15.9816L170.696 16.9227ZM153.8 11.3338C150.914 10.4646 148.061 9.6515 145.244 8.89515L145.503 7.92935C148.33 8.6884 151.193 9.50425 154.089 10.3763L153.8 11.3338ZM136.667 6.74243C133.701 6.05117 130.778 5.42701 127.9 4.87071L128.09 3.88889C130.981 4.44769 133.916 5.07451 136.894 5.76852L136.667 6.74243ZM119.141 3.36639C116.166 2.92204 113.246 2.55621 110.383 2.26977L110.482 1.27474C113.363 1.56286 116.299 1.93074 119.289 2.37736L119.141 3.36639ZM101.478 1.62789C98.4337 1.49766 95.4629 1.46663 92.5692 1.53599L92.5452 0.536275C95.4625 0.466359 98.4555 0.497681 101.521 0.628803L101.478 1.62789ZM83.7112 2.08792C80.6918 2.39939 77.7712 2.83528 74.9537 3.39709L74.7582 2.4164C77.6083 1.84808 80.56 1.40769 83.6086 1.0932L83.7112 2.08792ZM66.3882 5.59678C63.5127 6.51552 60.7697 7.59079 58.1649 8.82463L57.7368 7.92089C60.384 6.66698 63.1685 5.57569 66.0839 4.64422L66.3882 5.59678ZM50.4974 13.1879C48.0468 14.8479 45.7577 16.689 43.6367 18.7141L42.9462 17.9908C45.1082 15.9264 47.441 14.0505 49.9366 12.36L50.4974 13.1879ZM37.8088 25.313C36.089 27.6275 34.5321 30.1177 33.1448 32.7868L32.2575 32.3256C33.6687 29.6106 35.2537 27.075 37.0061 24.7165L37.8088 25.313ZM29.6523 40.891C28.7061 43.5833 27.9005 46.4211 27.2406 49.4067L26.2642 49.1908C26.9323 46.1682 27.7487 43.2916 28.7088 40.5594L29.6523 40.891ZM25.7743 58.1822C25.4411 61.0236 25.2219 63.9784 25.1201 67.0478L24.1206 67.0146C24.2234 63.919 24.4445 60.9364 24.7811 58.0657L25.7743 58.1822ZM25.1405 75.8393C25.1942 77.338 25.273 78.8609 25.3772 80.408L24.3795 80.4752C24.2746 78.9179 24.1953 77.3846 24.1412 75.8751L25.1405 75.8393ZM25.3772 80.408C25.477 81.8898 25.5904 83.3699 25.7173 84.8483L24.7209 84.9338C24.5936 83.4493 24.4797 81.9631 24.3795 80.4752L25.3772 80.408ZM26.6384 93.6977C26.9983 96.6403 27.4106 99.5755 27.8741 102.503L26.8864 102.659C26.4211 99.7204 26.0071 96.7735 25.6458 93.8191L26.6384 93.6977ZM29.4156 111.257C29.9796 114.166 30.5933 117.067 31.2554 119.959L30.2806 120.182C29.6161 117.279 29.0001 114.368 28.4339 111.447L29.4156 111.257ZM33.3849 128.606C34.1387 131.465 34.9391 134.315 35.7847 137.156L34.8263 137.441C33.9777 134.591 33.1744 131.73 32.4179 128.861L33.3849 128.606ZM38.4565 145.647C39.3891 148.46 40.3654 151.262 41.3843 154.054L40.4449 154.397C39.4227 151.596 38.4431 148.784 37.5073 145.961L38.4565 145.647ZM44.55 162.355C45.6464 165.11 46.7836 167.855 47.9603 170.588L47.0418 170.983C45.8615 168.242 44.7208 165.489 43.6208 162.724L44.55 162.355ZM51.5881 178.709C52.8308 181.394 54.1111 184.067 55.4277 186.728L54.5315 187.171C53.2111 184.503 51.927 181.822 50.6806 179.129L51.5881 178.709ZM59.4853 194.672C60.8633 197.289 62.2759 199.892 63.7218 202.483L62.8486 202.97C61.3988 200.373 59.9823 197.762 58.6005 195.138L59.4853 194.672ZM68.1503 210.201C69.6588 212.76 71.1994 215.306 72.7708 217.838L71.9212 218.365C70.3458 215.827 68.8013 213.275 67.2888 210.709L68.1503 210.201ZM77.5377 225.331C79.1561 227.814 80.8037 230.283 82.4792 232.738L81.6534 233.301C79.9738 230.841 78.3223 228.366 76.6999 225.877L77.5377 225.331ZM87.5833 240.049C89.3031 242.458 91.0494 244.853 92.821 247.233L92.0189 247.83C90.2433 245.445 88.4931 243.045 86.7693 240.629L87.5833 240.049ZM98.2104 254.324C100.029 256.669 101.872 258.999 103.738 261.312L102.96 261.94C101.09 259.622 99.2432 257.287 97.4202 254.937L98.2104 254.324ZM109.391 268.186C111.297 270.461 113.225 272.719 115.173 274.96L114.418 275.616C112.466 273.37 110.534 271.108 108.624 268.828L109.391 268.186ZM121.078 281.629C123.066 283.835 125.073 286.023 127.098 288.193L126.367 288.875C124.338 286.701 122.327 284.509 120.335 282.299L121.078 281.629ZM133.227 294.648C135.292 296.786 137.374 298.905 139.472 301.005L138.765 301.712C136.663 299.608 134.577 297.484 132.508 295.342L133.227 294.648ZM145.821 307.256C147.952 309.32 150.099 311.365 152.259 313.39L151.575 314.12C149.411 312.091 147.261 310.043 145.125 307.974L145.821 307.256ZM158.817 319.439C161.02 321.438 163.235 323.416 165.462 325.373L164.802 326.124C162.571 324.164 160.352 322.182 158.145 320.179L158.817 319.439ZM172.176 331.18C174.451 333.116 176.736 335.03 179.03 336.922L178.394 337.693C176.096 335.799 173.807 333.881 171.528 331.942L172.176 331.18ZM185.944 342.53C188.264 344.382 190.591 346.211 192.926 348.016L192.314 348.807C189.976 346.999 187.644 345.167 185.32 343.312L185.944 342.53ZM200.049 353.432C202.429 355.213 204.815 356.969 207.206 358.7L206.62 359.51C204.225 357.776 201.834 356.017 199.45 354.233L200.049 353.432ZM214.458 363.862C216.91 365.578 219.366 367.267 221.823 368.929L221.263 369.757C218.801 368.093 216.341 366.4 213.885 364.681L214.458 363.862ZM229.2 373.829C231.711 375.469 234.223 377.078 236.734 378.658L236.201 379.505C233.685 377.922 231.169 376.309 228.653 374.667L229.2 373.829ZM244.316 383.34C246.854 384.877 249.388 386.383 251.919 387.857L251.416 388.721C248.88 387.244 246.34 385.735 243.798 384.196L244.316 383.34ZM259.725 392.309C262.321 393.759 264.912 395.174 267.495 396.555L267.024 397.437C264.435 396.053 261.839 394.635 259.237 393.182L259.725 392.309ZM275.416 400.69C278.09 402.053 280.753 403.377 283.404 404.661L282.968 405.561C280.31 404.274 277.641 402.947 274.962 401.581L275.416 400.69ZM291.393 408.429C294.149 409.693 296.889 410.912 299.611 412.087L299.215 413.005C296.486 411.828 293.738 410.605 290.976 409.338L291.393 408.429ZM307.725 415.473C310.549 416.612 313.351 417.701 316.128 418.737L315.779 419.674C312.993 418.634 310.182 417.543 307.351 416.401L307.725 415.473ZM324.44 421.708C327.315 422.69 330.16 423.613 332.972 424.476L332.679 425.432C329.856 424.566 327.001 423.639 324.116 422.654L324.44 421.708ZM341.465 426.928C344.405 427.722 347.303 428.445 350.157 429.097L349.934 430.072C347.067 429.417 344.156 428.691 341.205 427.894L341.465 426.928ZM358.785 430.876C361.805 431.428 364.766 431.892 367.663 432.268L367.535 433.259C364.619 432.882 361.641 432.414 358.606 431.859L358.785 430.876ZM376.345 433.137C379.438 433.352 382.446 433.452 385.36 433.435L385.366 434.435C382.425 434.452 379.392 434.351 376.276 434.135L376.345 433.137ZM394.201 432.998C397.203 432.707 400.082 432.271 402.83 431.687L403.038 432.665C400.25 433.258 397.334 433.699 394.298 433.993L394.201 432.998ZM411.405 429.216C414.249 428.154 416.903 426.887 419.354 425.411L419.87 426.267C417.362 427.778 414.652 429.071 411.755 430.153L411.405 429.216ZM426.315 420.128C428.417 418.128 430.284 415.894 431.901 413.417L432.738 413.964C431.079 416.505 429.162 418.8 427.005 420.853L426.315 420.128ZM435.877 405.547C436.872 402.92 437.658 400.095 438.223 397.066L439.206 397.249C438.631 400.333 437.83 403.216 436.812 405.901L435.877 405.547ZM439.198 388.433C439.329 385.595 439.299 382.611 439.099 379.48L440.097 379.416C440.299 382.581 440.33 385.602 440.197 388.479L439.198 388.433ZM438.155 370.749C437.928 369.235 437.667 367.69 437.37 366.116L438.353 365.931C438.652 367.517 438.916 369.074 439.144 370.602L438.155 370.749ZM437.37 366.116C437.087 364.612 436.785 363.119 436.464 361.637L437.441 361.426C437.764 362.916 438.068 364.418 438.353 365.931L437.37 366.116ZM434.323 352.887C433.537 350.016 432.68 347.192 431.755 344.413L432.704 344.097C433.635 346.893 434.497 349.735 435.287 352.623L434.323 352.887ZM428.672 335.954C427.565 333.163 426.386 330.422 425.139 327.731L426.046 327.31C427.302 330.019 428.488 332.777 429.602 335.585L428.672 335.954ZM421.17 319.763C419.754 317.109 418.268 314.507 416.716 311.958L417.57 311.438C419.132 314.003 420.627 316.622 422.052 319.292L421.17 319.763ZM411.862 304.465C410.167 302.001 408.407 299.59 406.586 297.232L407.378 296.621C409.21 298.993 410.98 301.419 412.686 303.898L411.862 304.465ZM400.923 290.295C398.975 288.035 396.968 285.829 394.905 283.676L395.627 282.984C397.702 285.15 399.721 287.369 401.68 289.642L400.923 290.295ZM388.548 277.374C386.375 275.327 384.149 273.333 381.873 271.392L382.522 270.631C384.81 272.582 387.049 274.588 389.234 276.647L388.548 277.374ZM374.928 265.753C372.57 263.929 370.165 262.158 367.717 260.439L368.292 259.621C370.752 261.348 373.17 263.128 375.54 264.961L374.928 265.753ZM360.258 255.45C357.75 253.852 355.202 252.305 352.617 250.81L353.117 249.945C355.715 251.447 358.275 253.001 360.795 254.607L360.258 255.45ZM344.753 246.48C342.114 245.097 339.442 243.766 336.739 242.485L337.168 241.581C339.883 242.868 342.567 244.205 345.217 245.594L344.753 246.48ZM328.57 238.808C325.821 237.634 323.043 236.51 320.24 235.437L320.598 234.503C323.412 235.581 326.201 236.709 328.963 237.888L328.57 238.808ZM311.83 232.393C309.004 231.428 306.156 230.512 303.288 229.646L303.577 228.689C306.456 229.558 309.316 230.477 312.154 231.446L311.83 232.393ZM294.658 227.204C291.773 226.442 288.872 225.729 285.957 225.065L286.179 224.09C289.105 224.757 292.018 225.473 294.914 226.238L294.658 227.204ZM277.173 223.22C274.24 222.655 271.296 222.139 268.343 221.671L268.499 220.684C271.463 221.153 274.418 221.671 277.362 222.238L277.173 223.22ZM259.465 220.416C256.497 220.046 253.524 219.725 250.547 219.453L250.639 218.457C253.626 218.73 256.61 219.053 259.589 219.424L259.465 220.416ZM241.6 218.782C238.616 218.607 235.631 218.481 232.649 218.404L232.675 217.405C235.668 217.482 238.663 217.608 241.658 217.784L241.6 218.782ZM223.671 218.321C220.677 218.342 217.687 218.413 214.704 218.534L214.664 217.535C217.657 217.414 220.658 217.342 223.664 217.321L223.671 218.321ZM205.773 219.045C202.775 219.267 199.788 219.54 196.814 219.863L196.706 218.869C199.691 218.545 202.69 218.271 205.699 218.048L205.773 219.045ZM187.934 220.986C184.965 221.414 182.012 221.894 179.078 222.425L178.9 221.441C181.846 220.908 184.811 220.426 187.791 219.996L187.934 220.986ZM170.275 224.187C167.361 224.827 164.469 225.519 161.603 226.263L161.352 225.295C164.231 224.548 167.134 223.853 170.06 223.211L170.275 224.187ZM152.923 228.701C150.058 229.567 147.222 230.488 144.418 231.463L144.09 230.519C146.906 229.539 149.755 228.614 152.633 227.743L152.923 228.701ZM136.014 234.589C133.22 235.697 130.464 236.861 127.747 238.083L127.337 237.171C130.068 235.943 132.838 234.773 135.645 233.659L136.014 234.589ZM119.704 241.925C117.015 243.289 114.371 244.711 111.776 246.193L111.28 245.324C113.89 243.834 116.548 242.404 119.252 241.033L119.704 241.925ZM104.142 250.814C101.614 252.436 99.1393 254.118 96.7227 255.861L96.1378 255.05C98.5694 253.296 101.059 251.604 103.602 249.972L104.142 250.814ZM89.6155 261.299C87.2956 263.183 85.0381 265.128 82.8468 267.135L82.1714 266.397C84.3776 264.377 86.6502 262.419 88.9853 260.523L89.6155 261.299ZM76.431 273.387C74.362 275.534 72.3639 277.743 70.4406 280.015L69.6774 279.369C71.6147 277.08 73.6273 274.855 75.711 272.693L76.431 273.387ZM64.8948 287.026C63.1237 289.425 61.4312 291.888 59.8213 294.413L58.9781 293.875C60.6004 291.331 62.3057 288.849 64.0902 286.432L64.8948 287.026ZM55.2953 302.08C53.8736 304.69 52.5356 307.361 51.2851 310.093L50.3758 309.677C51.6361 306.924 52.9844 304.232 54.4171 301.602L55.2953 302.08ZM47.8515 318.333C46.8126 321.089 45.8586 323.902 44.9929 326.772L44.0355 326.483C44.9077 323.592 45.8689 320.757 46.9157 317.98L47.8515 318.333ZM42.6714 335.521C42.0213 338.347 41.4533 341.223 40.9702 344.151L39.9836 343.988C40.47 341.04 41.0421 338.143 41.6968 335.297L42.6714 335.521ZM39.7785 353.089C39.4795 356.008 39.2618 358.975 39.1281 361.99L38.1291 361.946C38.2636 358.912 38.4827 355.926 38.7837 352.987L39.7785 353.089ZM38.9779 370.848C39.0075 373.846 39.1175 376.887 39.3102 379.974L38.3121 380.036C38.1183 376.932 38.0077 373.873 37.9779 370.858L38.9779 370.848ZM40.0688 388.74C40.3886 391.642 40.7795 394.581 41.2433 397.557L40.2552 397.711C39.7892 394.72 39.3963 391.767 39.0749 388.85L40.0688 388.74ZM42.855 406.597C43.4214 409.424 44.0519 412.282 44.7479 415.173L43.7757 415.407C43.0768 412.504 42.4435 409.633 41.8745 406.793L42.855 406.597ZM46.9788 423.745C47.7859 426.633 48.6569 429.552 49.5932 432.501L48.64 432.804C47.7003 429.844 46.826 426.914 46.0157 424.014L46.9788 423.745ZM52.448 441.014C53.4042 443.723 54.4143 446.456 55.4792 449.215L54.5464 449.575C53.478 446.808 52.4645 444.065 51.505 441.347L52.448 441.014ZM58.8397 457.564C60.0153 460.372 61.2468 463.205 62.535 466.062L61.6234 466.473C60.3315 463.608 59.0964 460.767 57.9173 457.95L58.8397 457.564ZM66.2279 473.997C67.4795 476.605 68.7775 479.233 70.1227 481.88L69.2312 482.333C67.8826 479.679 66.5812 477.044 65.3264 474.43L66.2279 473.997ZM74.3007 489.884C75.741 492.572 77.2292 495.28 78.7659 498.008L77.8947 498.499C76.3545 495.765 74.8629 493.051 73.4193 490.357L74.3007 489.884ZM83.1655 505.646C84.6273 508.13 86.1287 510.63 87.6703 513.146L86.8176 513.668C85.2729 511.147 83.7685 508.642 82.3037 506.154L83.1655 505.646ZM92.4161 520.741C94.0386 523.29 95.7018 525.854 97.4062 528.434L96.5718 528.986C94.8644 526.4 93.1982 523.831 91.5726 521.279L92.4161 520.741ZM102.554 536.093C104.16 538.443 105.801 540.806 107.475 543.182L106.658 543.758C104.981 541.378 103.338 539.011 101.728 536.658L102.554 536.093ZM112.601 550.349C114.344 552.752 116.121 555.167 117.933 557.595L117.132 558.193C115.317 555.761 113.537 553.343 111.792 550.937L112.601 550.349ZM123.475 564.919C125.337 567.347 127.234 569.789 129.165 572.243L128.38 572.861C126.445 570.404 124.546 567.959 122.681 565.528L123.475 564.919ZM134.535 578.986C136.353 581.244 138.201 583.513 140.079 585.792L139.307 586.428C137.427 584.146 135.577 581.874 133.756 579.613L134.535 578.986ZM145.8 592.663C147.736 594.963 149.703 597.275 151.699 599.597L150.941 600.249C148.942 597.924 146.974 595.61 145.035 593.307L145.8 592.663ZM157.778 606.595C157.822 606.645 157.866 606.695 157.91 606.745L157.159 607.405C157.114 607.355 157.07 607.305 157.026 607.254L157.778 606.595Z" fill="#D9E7FD"/>
<path d="M35.4012 82.996C48.1279 177.703 126.764 232.839 171.778 252.637L171.777 48.7933C119.114 -1.58495 80.7493 5.40412 56.6236 23.5253C38.6842 36.9999 32.4131 60.7596 35.4012 82.996Z" fill="url(#paint0_linear_700_3165)"/>
<circle cx="12.1676" cy="12.1676" r="12.1676" transform="matrix(-1 0 0 1 24.3345 260.51)" fill="#A4C7FB"/>
<defs>
<linearGradient id="paint0_linear_700_3165" x1="33.3425" y1="40.7531" x2="241.55" y2="179.603" gradientUnits="userSpaceOnUse">
<stop stop-color="#FFD6B0"/>
<stop offset="1" stop-color="white"/>
</linearGradient>
</defs>
</svg>
