<svg width="131" height="610" viewBox="0 0 131 610" fill="none" xmlns="http://www.w3.org/2000/svg">
<path d="M109.746 529.716C94.6904 464.583 34.2918 426.277 -1.0503 412.059V566.302C36.7913 599.413 65.708 599.773 85.7328 590.31C107.486 580.031 115.165 553.157 109.746 529.716Z" fill="url(#paint0_linear_700_3169)"/>
<path d="M-239.944 454.139C-239.944 452.666 -238.75 451.472 -237.277 451.472C-235.805 451.472 -234.611 452.666 -234.611 454.139C-234.611 455.612 -235.805 456.806 -237.277 456.806C-238.75 456.806 -239.944 455.612 -239.944 454.139ZM129.898 530.008L129.4 530.042L129.898 530.008ZM-283.085 244.426L-282.594 244.334L-283.085 244.426ZM-5.73468 6.10352e-05L-0.262085 1.83954L-4.59143 5.65924L-5.73468 6.10352e-05ZM-236.948 453.763C-235.822 454.751 -234.695 455.735 -233.568 456.714L-234.224 457.469C-235.352 456.488 -236.48 455.504 -237.607 454.515L-236.948 453.763ZM-226.805 462.543C-224.549 464.469 -222.293 466.379 -220.037 468.272L-220.68 469.038C-222.938 467.143 -225.197 465.231 -227.454 463.303L-226.805 462.543ZM-213.149 473.998C-210.851 475.892 -208.553 477.767 -206.256 479.625L-206.885 480.403C-209.185 478.543 -211.485 476.665 -213.785 474.77L-213.149 473.998ZM-199.304 485.195C-196.962 487.054 -194.621 488.894 -192.282 490.715L-192.896 491.504C-195.238 489.681 -197.582 487.839 -199.926 485.978L-199.304 485.195ZM-185.267 496.124C-182.881 497.946 -180.496 499.749 -178.114 501.532L-178.713 502.333C-181.098 500.548 -183.485 498.743 -185.874 496.919L-185.267 496.124ZM-170.972 506.822C-168.561 508.59 -166.154 510.337 -163.749 512.063L-164.333 512.875C-166.74 511.147 -169.15 509.398 -171.563 507.629L-170.972 506.822ZM-156.477 517.227C-154.043 518.938 -151.612 520.627 -149.185 522.294L-149.752 523.118C-152.181 521.449 -154.615 519.758 -157.052 518.046L-156.477 517.227ZM-141.78 527.324C-139.316 528.977 -136.858 530.608 -134.405 532.216L-134.954 533.053C-137.409 531.443 -139.871 529.81 -142.337 528.154L-141.78 527.324ZM-126.873 537.093C-124.366 538.696 -121.864 540.275 -119.371 541.829L-119.899 542.677C-122.397 541.122 -124.901 539.541 -127.412 537.935L-126.873 537.093ZM-111.751 546.513C-109.198 548.06 -106.654 549.582 -104.119 551.076L-104.626 551.937C-107.166 550.441 -109.713 548.918 -112.27 547.368L-111.751 546.513ZM-96.4042 555.556C-93.8063 557.042 -91.2186 558.499 -88.6419 559.927L-89.1266 560.801C-91.7073 559.371 -94.2989 557.912 -96.9007 556.424L-96.4042 555.556ZM-80.8219 564.189C-78.179 565.605 -75.5485 566.989 -72.9313 568.342L-73.3904 569.23C-76.0121 567.875 -78.647 566.488 -81.2942 565.07L-80.8219 564.189ZM-64.9927 572.368C-62.3057 573.704 -59.6339 575.005 -56.978 576.272L-57.4085 577.174C-60.0694 575.905 -62.7462 574.601 -65.4379 573.263L-64.9927 572.368ZM-48.9048 580.037C-46.1761 581.28 -43.4657 582.486 -40.7744 583.652L-41.1722 584.57C-43.8692 583.401 -46.5853 582.193 -49.3194 580.947L-48.9048 580.037ZM-32.5483 587.123C-29.782 588.257 -27.0378 589.349 -24.3166 590.399L-24.6764 591.332C-27.4043 590.28 -30.1551 589.185 -32.9278 588.048L-32.5483 587.123ZM-15.9189 593.527C-13.1085 594.537 -10.325 595.498 -7.56973 596.411L-7.88434 597.361C-10.6477 596.445 -13.439 595.48 -16.257 594.468L-15.9189 593.527ZM0.976593 599.116C3.86316 599.985 6.71579 600.798 9.53296 601.555L9.27368 602.52C6.44644 601.761 3.58411 600.945 0.688263 600.073L0.976593 599.116ZM18.1095 603.707C21.076 604.399 23.9991 605.023 26.8766 605.579L26.6868 606.561C23.7963 606.002 20.8609 605.375 17.8825 604.681L18.1095 603.707ZM35.6357 607.083C38.6104 607.528 41.5307 607.894 44.394 608.18L44.2945 609.175C41.4143 608.887 38.4779 608.519 35.4879 608.072L35.6357 607.083ZM53.2988 608.822C56.3432 608.952 59.3139 608.983 62.2077 608.914L62.2317 609.913C59.3144 609.983 56.3214 609.952 53.2561 609.821L53.2988 608.822ZM71.0656 608.362C74.085 608.05 77.0056 607.614 79.8231 607.053L80.0187 608.033C77.1685 608.602 74.2168 609.042 71.1683 609.357L71.0656 608.362ZM88.3886 604.853C91.2641 603.934 94.0072 602.859 96.612 601.625L97.0401 602.529C94.3929 603.783 91.6083 604.874 88.693 605.805L88.3886 604.853ZM104.279 597.262C106.73 595.602 109.019 593.761 111.14 591.736L111.831 592.459C109.669 594.523 107.336 596.399 104.84 598.09L104.279 597.262ZM116.968 585.137C118.688 582.822 120.245 580.332 121.632 577.663L122.519 578.124C121.108 580.839 119.523 583.375 117.771 585.733L116.968 585.137ZM125.125 569.559C126.071 566.866 126.876 564.029 127.536 561.043L128.513 561.259C127.845 564.281 127.028 567.158 126.068 569.89L125.125 569.559ZM129.003 552.268C129.336 549.426 129.555 546.471 129.657 543.402L130.656 543.435C130.553 546.531 130.332 549.513 129.996 552.384L129.003 552.268ZM129.636 534.61C129.583 533.112 129.504 531.589 129.4 530.042L130.397 529.974C130.502 531.532 130.582 533.065 130.636 534.575L129.636 534.61ZM129.4 530.042C129.3 528.56 129.186 527.08 129.06 525.601L130.056 525.516C130.183 527 130.297 528.487 130.397 529.974L129.4 530.042ZM128.138 516.752C127.779 513.809 127.366 510.874 126.903 507.947L127.891 507.79C128.356 510.729 128.77 513.676 129.131 516.631L128.138 516.752ZM125.361 499.193C124.797 496.284 124.184 493.383 123.521 490.491L124.496 490.267C125.161 493.17 125.777 496.082 126.343 499.003L125.361 499.193ZM121.392 481.844C120.638 478.985 119.838 476.134 118.992 473.294L119.951 473.009C120.799 475.859 121.602 478.719 122.359 481.589L121.392 481.844ZM116.32 464.803C115.388 461.99 114.411 459.187 113.393 456.395L114.332 456.052C115.354 458.854 116.334 461.666 117.27 464.488L116.32 464.803ZM110.227 448.095C109.13 445.339 107.993 442.595 106.817 439.862L107.735 439.466C108.915 442.208 110.056 444.961 111.156 447.725L110.227 448.095ZM103.189 431.741C101.946 429.056 100.666 426.383 99.3491 423.722L100.245 423.279C101.566 425.947 102.85 428.628 104.096 431.321L103.189 431.741ZM95.2916 415.778C93.9136 413.161 92.501 410.557 91.0551 407.967L91.9283 407.479C93.3781 410.077 94.7945 412.688 96.1764 415.312L95.2916 415.778ZM86.6266 400.249C85.118 397.689 83.5774 395.144 82.006 392.612L82.8557 392.085C84.431 394.623 85.9756 397.175 87.4881 399.741L86.6266 400.249ZM77.2392 385.119C75.6207 382.636 73.9731 380.167 72.2976 377.712L73.1235 377.148C74.803 379.609 76.4546 382.084 78.077 384.573L77.2392 385.119ZM67.1936 370.401C65.4738 367.991 63.7275 365.596 61.9559 363.217L62.758 362.62C64.5335 365.005 66.2838 367.405 68.0076 369.82L67.1936 370.401ZM56.5664 356.126C54.7474 353.78 52.9044 351.451 51.0384 349.138L51.8167 348.51C53.6867 350.828 55.5337 353.162 57.3566 355.513L56.5664 356.126ZM45.386 342.264C43.4799 339.989 41.5521 337.731 39.6037 335.49L40.3584 334.834C42.3106 337.079 44.2424 339.342 46.1525 341.622L45.386 342.264ZM33.699 328.82C31.7113 326.615 29.7042 324.427 27.679 322.257L28.41 321.575C30.4392 323.749 32.4502 325.941 34.4418 328.151L33.699 328.82ZM21.5497 315.802C19.4848 313.664 17.4028 311.545 15.3048 309.445L16.0123 308.738C18.1142 310.842 20.2001 312.965 22.269 315.107L21.5497 315.802ZM8.95602 303.194C6.82452 301.129 4.67816 299.085 2.51813 297.06L3.20203 296.33C5.366 298.359 7.5163 300.407 9.65173 302.475L8.95602 303.194ZM-4.04001 291.011C-6.24274 289.012 -8.45819 287.034 -10.6852 285.077L-10.025 284.326C-7.7941 286.286 -5.57468 288.268 -3.36798 290.271L-4.04001 291.011ZM-17.3993 279.269C-19.6739 277.333 -21.959 275.419 -24.2534 273.528L-23.6173 272.756C-21.3188 274.651 -19.0297 276.568 -16.7511 278.508L-17.3993 279.269ZM-31.1671 267.919C-33.4867 266.067 -35.8145 264.239 -38.1491 262.434L-37.5375 261.643C-35.1987 263.451 -32.8669 265.283 -30.5432 267.138L-31.1671 267.919ZM-45.2717 257.017C-47.6521 255.237 -50.0383 253.481 -52.4291 251.75L-51.8427 250.94C-49.4477 252.674 -47.0573 254.433 -44.6727 256.217L-45.2717 257.017ZM-59.6815 246.588C-62.1335 244.872 -64.5889 243.183 -67.0463 241.521L-66.4862 240.693C-64.0244 242.357 -61.5645 244.049 -59.1081 245.768L-59.6815 246.588ZM-74.4228 236.62C-76.9341 234.981 -79.4459 233.371 -81.9568 231.791L-81.4243 230.945C-78.9086 232.528 -76.3921 234.141 -73.8762 235.783L-74.4228 236.62ZM-89.5396 227.109C-92.0767 225.573 -94.6114 224.067 -97.1422 222.593L-96.6389 221.729C-94.1031 223.206 -91.5635 224.714 -89.0215 226.254L-89.5396 227.109ZM-104.948 218.141C-107.544 216.691 -110.135 215.275 -112.718 213.895L-112.247 213.013C-109.658 214.396 -107.062 215.815 -104.46 217.268L-104.948 218.141ZM-120.64 209.759C-123.313 208.397 -125.976 207.073 -128.627 205.788L-128.191 204.888C-125.534 206.176 -122.864 207.503 -120.185 208.868L-120.64 209.759ZM-136.616 202.021C-139.372 200.757 -142.112 199.537 -144.835 198.363L-144.438 197.445C-141.709 198.622 -138.962 199.845 -136.199 201.112L-136.616 202.021ZM-152.948 194.976C-155.772 193.837 -158.574 192.749 -161.352 191.713L-161.002 190.776C-158.216 191.815 -155.406 192.907 -152.574 194.049L-152.948 194.976ZM-169.663 188.742C-172.538 187.76 -175.383 186.837 -178.195 185.974L-177.902 185.018C-175.079 185.884 -172.224 186.81 -169.34 187.796L-169.663 188.742ZM-186.689 183.521C-189.628 182.728 -192.526 182.004 -195.38 181.352L-195.157 180.377C-192.29 181.032 -189.38 181.759 -186.428 182.556L-186.689 183.521ZM-204.009 179.574C-207.028 179.022 -209.989 178.557 -212.887 178.182L-212.758 177.19C-209.842 177.568 -206.864 178.035 -203.829 178.59L-204.009 179.574ZM-221.569 177.312C-224.662 177.098 -227.669 176.998 -230.583 177.015L-230.589 176.015C-227.648 175.998 -224.616 176.099 -221.5 176.315L-221.569 177.312ZM-239.425 177.452C-242.426 177.742 -245.305 178.178 -248.053 178.763L-248.261 177.785C-245.473 177.192 -242.557 176.75 -239.521 176.456L-239.425 177.452ZM-256.628 181.233C-259.472 182.296 -262.126 183.563 -264.577 185.039L-265.093 184.183C-262.586 182.672 -259.875 181.379 -256.978 180.297L-256.628 181.233ZM-271.539 190.322C-273.64 192.321 -275.507 194.556 -277.124 197.033L-277.962 196.486C-276.302 193.944 -274.385 191.65 -272.228 189.597L-271.539 190.322ZM-281.1 204.903C-282.095 207.529 -282.882 210.354 -283.446 213.384L-284.429 213.2C-283.854 210.117 -283.053 207.234 -282.035 204.548L-281.1 204.903ZM-284.421 222.017C-284.552 224.855 -284.522 227.838 -284.322 230.97L-285.32 231.033C-285.522 227.868 -285.553 224.848 -285.42 221.971L-284.421 222.017ZM-283.378 239.7C-283.152 241.215 -282.89 242.759 -282.594 244.334L-283.576 244.519C-283.875 242.932 -284.139 241.376 -284.367 239.848L-283.378 239.7ZM-282.594 244.334C-282.31 245.838 -282.008 247.331 -281.687 248.812L-282.665 249.024C-282.987 247.534 -283.291 246.032 -283.576 244.519L-282.594 244.334ZM-279.546 257.563C-278.76 260.433 -277.903 263.258 -276.978 266.036L-277.927 266.352C-278.858 263.557 -279.72 260.715 -280.51 257.827L-279.546 257.563ZM-273.895 274.496C-272.788 277.286 -271.61 280.027 -270.362 282.719L-271.27 283.139C-272.525 280.431 -273.711 277.673 -274.825 274.864L-273.895 274.496ZM-266.393 290.687C-264.977 293.34 -263.491 295.942 -261.939 298.492L-262.793 299.012C-264.355 296.446 -265.85 293.828 -267.276 291.157L-266.393 290.687ZM-257.085 305.985C-255.39 308.449 -253.631 310.86 -251.809 313.218L-252.601 313.829C-254.433 311.457 -256.203 309.031 -257.909 306.552L-257.085 305.985ZM-246.146 320.155C-244.198 322.414 -242.191 324.621 -240.128 326.774L-240.85 327.466C-242.925 325.3 -244.944 323.081 -246.903 320.808L-246.146 320.155ZM-233.771 333.075C-231.598 335.123 -229.372 337.117 -227.096 339.058L-227.745 339.819C-230.034 337.867 -232.272 335.862 -234.457 333.803L-233.771 333.075ZM-220.152 344.697C-217.793 346.521 -215.389 348.292 -212.94 350.011L-213.515 350.829C-215.976 349.102 -218.393 347.321 -220.763 345.488L-220.152 344.697ZM-205.481 355C-202.973 356.598 -200.425 358.144 -197.84 359.639L-198.34 360.505C-200.938 359.003 -203.498 357.449 -206.019 355.843L-205.481 355ZM-189.976 363.97C-187.338 365.352 -184.666 366.684 -181.963 367.965L-182.391 368.868C-185.106 367.582 -187.79 366.245 -190.44 364.856L-189.976 363.97ZM-173.793 371.642C-171.044 372.816 -168.266 373.939 -165.463 375.013L-165.821 375.947C-168.635 374.869 -171.425 373.74 -174.186 372.561L-173.793 371.642ZM-157.054 378.057C-154.227 379.022 -151.379 379.938 -148.511 380.804L-148.8 381.761C-151.679 380.892 -154.539 379.972 -157.377 379.003L-157.054 378.057ZM-139.881 383.245C-136.996 384.007 -134.095 384.721 -131.18 385.385L-131.402 386.36C-134.328 385.693 -137.241 384.977 -140.137 384.212L-139.881 383.245ZM-122.396 387.23C-119.463 387.795 -116.519 388.311 -113.566 388.778L-113.722 389.766C-116.686 389.297 -119.641 388.779 -122.585 388.212L-122.396 387.23ZM-104.688 390.033C-101.72 390.403 -98.7471 390.724 -95.7706 390.997L-95.8616 391.993C-98.8491 391.719 -101.833 391.397 -104.812 391.026L-104.688 390.033ZM-86.8229 391.668C-83.8389 391.842 -80.8544 391.968 -77.872 392.045L-77.8978 393.045C-80.8911 392.968 -83.8865 392.841 -86.8814 392.666L-86.8229 391.668ZM-68.8944 392.129C-65.8997 392.108 -62.9098 392.036 -59.9274 391.916L-59.887 392.915C-62.8805 393.036 -65.8815 393.107 -68.8872 393.129L-68.8944 392.129ZM-50.9963 391.405C-47.9985 391.183 -45.0112 390.91 -42.0371 390.586L-41.929 391.58C-44.9145 391.905 -47.9133 392.179 -50.9223 392.402L-50.9963 391.405ZM-33.1573 389.464C-30.1881 389.035 -27.2353 388.556 -24.3016 388.024L-24.1234 389.008C-27.069 389.542 -30.0336 390.023 -33.0145 390.453L-33.1573 389.464ZM-15.4977 386.262C-12.584 385.623 -9.69263 384.931 -6.82651 384.187L-6.57523 385.155C-9.45374 385.902 -12.3574 386.597 -15.2832 387.239L-15.4977 386.262ZM1.85391 381.749C4.71915 380.882 7.55502 379.961 10.3586 378.986L10.6871 379.931C7.87045 380.91 5.02155 381.836 2.14346 382.706L1.85391 381.749ZM18.7628 375.861C21.5565 374.753 24.3131 373.588 27.0294 372.367L27.4395 373.279C24.7093 374.507 21.9388 375.677 19.1315 376.791L18.7628 375.861ZM35.0728 368.524C37.7623 367.161 40.4062 365.738 43.001 364.257L43.4968 365.125C40.8873 366.615 38.2289 368.046 35.525 369.416L35.0728 368.524ZM50.6351 359.636C53.1633 358.014 55.6375 356.331 58.0541 354.588L58.6391 355.4C56.2075 357.153 53.7182 358.846 51.175 360.477L50.6351 359.636ZM65.1613 349.15C67.4813 347.267 69.7388 345.322 71.9301 343.315L72.6055 344.052C70.3993 346.073 68.1267 348.031 65.7916 349.927L65.1613 349.15ZM78.3458 337.063C80.4149 334.916 82.4129 332.707 84.3362 330.434L85.0995 331.081C83.1621 333.369 81.1496 335.595 79.0659 337.757L78.3458 337.063ZM89.882 323.424C91.6532 321.025 93.3457 318.562 94.9556 316.037L95.7988 316.575C94.1765 319.119 92.4711 321.6 90.6866 324.018L89.882 323.424ZM99.4815 308.369C100.903 305.76 102.241 303.089 103.492 300.357L104.401 300.773C103.141 303.526 101.792 306.218 100.36 308.848L99.4815 308.369ZM106.925 292.117C107.964 289.361 108.918 286.548 109.784 283.678L110.741 283.966C109.869 286.858 108.908 289.692 107.861 292.469L106.925 292.117ZM112.105 274.928C112.756 272.103 113.324 269.226 113.807 266.298L114.793 266.461C114.307 269.41 113.735 272.307 113.08 275.153L112.105 274.928ZM114.998 257.361C115.297 254.441 115.515 251.474 115.649 248.46L116.648 248.504C116.513 251.538 116.294 254.524 115.993 257.462L114.998 257.361ZM115.799 239.601C115.769 236.604 115.659 233.562 115.467 230.476L116.465 230.414C116.659 233.517 116.769 236.576 116.799 239.591L115.799 239.601ZM114.708 221.709C114.388 218.808 113.997 215.869 113.534 212.893L114.522 212.739C114.988 215.73 115.381 218.683 115.702 221.6L114.708 221.709ZM111.922 203.853C111.355 201.026 110.725 198.167 110.029 195.277L111.001 195.043C111.7 197.946 112.333 200.817 112.902 203.656L111.922 203.853ZM107.798 186.704C106.991 183.816 106.12 180.898 105.184 177.949L106.137 177.646C107.077 180.606 107.951 183.536 108.761 186.435L107.798 186.704ZM102.329 169.435C101.373 166.727 100.363 163.993 99.2976 161.235L100.23 160.875C101.299 163.642 102.312 166.385 103.272 169.103L102.329 169.435ZM95.9372 152.886C94.7615 150.078 93.5301 147.245 92.2419 144.387L93.1535 143.976C94.4453 146.842 95.6804 149.683 96.8596 152.499L95.9372 152.886ZM88.5489 136.453C87.2974 133.845 85.9994 131.217 84.6541 128.569L85.5457 128.116C86.8943 130.771 88.1956 133.405 89.4505 136.02L88.5489 136.453ZM80.4762 120.565C79.0359 117.878 77.5477 115.17 76.0109 112.442L76.8822 111.951C78.4224 114.685 79.9139 117.399 81.3576 120.093L80.4762 120.565ZM71.6113 104.803C70.1496 102.32 68.6482 99.8201 67.1066 97.3042L67.9593 96.7817C69.5039 99.3026 71.0084 101.807 72.4731 104.296L71.6113 104.803ZM62.3607 89.7083C60.7382 87.1601 59.075 84.5958 57.3706 82.0153L58.2051 81.4642C59.9125 84.0493 61.5787 86.6182 63.2043 89.1711L62.3607 89.7083ZM52.223 74.3565C50.6164 72.0066 48.9761 69.6436 47.3017 67.2676L48.1191 66.6915C49.7962 69.0714 51.4392 71.4382 53.0485 73.7921L52.223 74.3565ZM42.176 60.1003C40.433 57.6981 38.6556 55.2829 36.8434 52.8546L37.6448 52.2565C39.4597 54.6884 41.2397 57.1072 42.9854 59.5131L42.176 60.1003ZM31.302 45.5306C29.4397 43.1022 27.543 40.661 25.6115 38.2071L26.3973 37.5886C28.3314 40.0458 30.2307 42.4903 32.0955 44.9221L31.302 45.5306ZM20.2423 31.4642C18.4235 29.2059 16.5755 26.937 14.6981 24.6575L15.47 24.0217C17.3497 26.304 19.2 28.5757 21.0211 30.8369L20.2423 31.4642ZM8.97714 17.787C7.04056 15.4863 5.07425 13.1749 3.07797 10.8529L3.83627 10.201C5.83478 12.5256 7.80334 14.8396 9.74219 17.1431L8.97714 17.787ZM-3.00098 3.85504C-3.04501 3.80487 -3.08908 3.7547 -3.13315 3.70447L-2.38168 3.04468C-2.33759 3.09497 -2.29346 3.1452 -2.24939 3.19543L-3.00098 3.85504Z" fill="#D9E7FD"/>
<circle cx="12.1676" cy="12.1676" r="12.1676" transform="matrix(-1 0 0 1 56.209 348)" fill="#F6E3FF"/>
<defs>
<linearGradient id="paint0_linear_700_3169" x1="113.469" y1="572.385" x2="-49.0051" y2="453.93" gradientUnits="userSpaceOnUse">
<stop stop-color="#F2D7FF"/>
<stop offset="1" stop-color="white"/>
</linearGradient>
</defs>
</svg>
