<svg width="430" height="1104" viewBox="0 0 430 1104" fill="none" xmlns="http://www.w3.org/2000/svg">
<g filter="url(#filter0_f_700_10943)">
<path d="M390 331C372.379 456.456 294.133 698.373 122.115 662.391C-49.9039 626.408 229.03 426.471 390 331Z" fill="#D6FF94"/>
</g>
<g filter="url(#filter1_f_700_10943)">
<path d="M117.113 772.349C111.58 733.003 87.0096 657.133 32.9929 668.418C-21.0238 679.702 66.5662 742.407 117.113 772.349Z" fill="#D6FF94"/>
</g>
<path d="M71.5495 764.601C59.9018 755.414 52.4845 742.662 49 734.001L105.745 734.001C108.728 737.411 110.989 740.624 112.651 743.64C124.262 764.713 90.4404 779.5 71.5495 764.601Z" fill="url(#paint0_linear_700_10943)"/>
<path d="M94.0799 699.054C116.448 688.493 130.109 667.959 135.809 655L60.8163 655C52.9241 663.25 48.8589 670.547 47.3072 676.891C41.9766 698.684 73.7914 708.633 94.0799 699.054Z" fill="url(#paint1_linear_700_10943)"/>
<circle cx="4.47637" cy="4.47637" r="4.47637" transform="matrix(-0.965926 0.258819 0.258819 0.965926 155.252 764.807)" fill="#D2E4FF"/>
<circle cx="4.47637" cy="4.47637" r="4.47637" transform="matrix(1 0 0 -1 39.4355 745.227)" fill="#F6E3FF"/>
<circle cx="2.36984" cy="2.36984" r="2.36984" transform="matrix(-0.965926 0.258819 0.258819 0.965926 143.743 760.128)" fill="#A4C7FB"/>
<g filter="url(#filter2_f_700_10943)">
<path d="M365.113 357.423C359.58 396.769 335.01 472.639 280.993 461.354C226.976 450.069 314.566 387.365 365.113 357.423Z" fill="#D6FF94"/>
</g>
<path d="M365.807 463.332C354.16 454.145 346.742 441.393 343.258 432.731L400.002 432.731C402.986 436.142 405.247 439.355 406.909 442.371C418.52 463.444 384.698 478.231 365.807 463.332Z" fill="url(#paint2_linear_700_10943)"/>
<path d="M342.08 360.766C364.448 371.327 378.109 391.861 383.809 404.82L308.816 404.82C300.924 396.57 296.859 389.274 295.307 382.929C289.977 361.136 321.791 351.187 342.08 360.766Z" fill="url(#paint3_linear_700_10943)"/>
<circle cx="400.087" cy="359.482" r="4.47637" transform="rotate(-165 400.087 359.482)" fill="#D2E4FF"/>
<circle cx="291.912" cy="389.021" r="4.47637" fill="#F6E3FF"/>
<circle cx="390.067" cy="366.741" r="2.36984" transform="rotate(-165 390.067 366.741)" fill="#A4C7FB"/>
<defs>
<filter id="filter0_f_700_10943" x="-263" y="0" width="984" height="997" filterUnits="userSpaceOnUse" color-interpolation-filters="sRGB">
<feFlood flood-opacity="0" result="BackgroundImageFix"/>
<feBlend mode="normal" in="SourceGraphic" in2="BackgroundImageFix" result="shape"/>
<feGaussianBlur stdDeviation="165.5" result="effect1_foregroundBlur_700_10943"/>
</filter>
<filter id="filter1_f_700_10943" x="-315" y="336.286" width="763.113" height="767.063" filterUnits="userSpaceOnUse" color-interpolation-filters="sRGB">
<feFlood flood-opacity="0" result="BackgroundImageFix"/>
<feBlend mode="normal" in="SourceGraphic" in2="BackgroundImageFix" result="shape"/>
<feGaussianBlur stdDeviation="165.5" result="effect1_foregroundBlur_700_10943"/>
</filter>
<filter id="filter2_f_700_10943" x="-67" y="26.4231" width="763.113" height="767.063" filterUnits="userSpaceOnUse" color-interpolation-filters="sRGB">
<feFlood flood-opacity="0" result="BackgroundImageFix"/>
<feBlend mode="normal" in="SourceGraphic" in2="BackgroundImageFix" result="shape"/>
<feGaussianBlur stdDeviation="165.5" result="effect1_foregroundBlur_700_10943"/>
</filter>
<linearGradient id="paint0_linear_700_10943" x1="107.983" y1="776.131" x2="64.404" y2="716.358" gradientUnits="userSpaceOnUse">
<stop stop-color="#F2D7FF"/>
<stop offset="1" stop-color="white"/>
</linearGradient>
<linearGradient id="paint1_linear_700_10943" x1="57.8583" y1="705.929" x2="108.94" y2="629.331" gradientUnits="userSpaceOnUse">
<stop stop-color="#FFD6B0"/>
<stop offset="1" stop-color="white"/>
</linearGradient>
<linearGradient id="paint2_linear_700_10943" x1="402.241" y1="474.862" x2="358.662" y2="415.089" gradientUnits="userSpaceOnUse">
<stop stop-color="#F2D7FF"/>
<stop offset="1" stop-color="white"/>
</linearGradient>
<linearGradient id="paint3_linear_700_10943" x1="305.858" y1="353.891" x2="356.94" y2="430.489" gradientUnits="userSpaceOnUse">
<stop stop-color="#FFD6B0"/>
<stop offset="1" stop-color="white"/>
</linearGradient>
</defs>
</svg>
