<svg width="594" height="474" viewBox="0 0 594 474" fill="none" xmlns="http://www.w3.org/2000/svg">
<ellipse cx="435.987" cy="246.104" rx="269.76" ry="319.572" fill="white"/>
<g filter="url(#filter0_f_2601_3)">
<ellipse cx="376.587" cy="242.401" rx="176.228" ry="208.77" fill="#CFDDEC"/>
</g>
<path d="M376.978 391.342L341.774 406.323M376.978 391.342L376.978 60.865M376.978 391.342L417.386 398.311M376.978 391.342L526.978 332.354M526.978 100.513L491.366 91.0997M526.978 100.513L526.978 162.16M526.978 100.513L252.003 199.39M376.978 60.865L336.978 73.2786M376.978 60.865L417.386 71.5456M306.57 421.305L258.814 441.627L257.081 379.98M306.57 421.305L296.978 85.6923M306.57 421.305L341.774 406.323M296.978 85.6923L249.223 100.513L250.613 149.951M296.978 85.6923L336.978 73.2786M336.978 73.2786L341.774 406.323M417.386 71.5456L417.386 398.311M417.386 71.5456L455.753 81.6867M417.386 398.311L455.753 404.927M455.753 404.927L455.753 81.6867M455.753 404.927L491.366 411.068M455.753 404.927L526.978 374.782M455.753 81.6867L491.366 91.0997M455.753 81.6867L250.613 149.951M491.366 91.0997L491.366 411.068M491.366 411.068L526.978 417.21L526.978 374.782M257.081 379.98L526.978 274.817M257.081 379.98L255.626 328.245M526.978 274.817L526.978 217.038M526.978 274.817L526.978 332.354M255.626 328.245L526.978 217.038M255.626 328.245L253.845 264.905M526.978 217.038L526.978 162.16M253.845 264.905L526.978 162.16M253.845 264.905L252.003 199.39M252.003 199.39L250.613 149.951M526.978 332.354L526.978 374.782" stroke="url(#paint0_linear_2601_3)" stroke-width="2"/>
<circle cx="64.529" cy="53.2252" r="20.2506" fill="#F8DFE4"/>
<path d="M444.92 363.07C446.92 361.915 449.42 363.359 449.42 365.668L449.42 374.23C449.42 376.539 446.92 377.983 444.92 376.828L437.505 372.547C435.505 371.392 435.505 368.506 437.505 367.351L444.92 363.07Z" fill="#FDD6D0"/>
<path d="M533.269 151.37C533.366 149.527 535.764 148.884 536.77 150.432C537.219 151.124 538.063 151.448 538.86 151.235C540.643 150.757 541.995 152.84 540.834 154.274C540.314 154.915 540.267 155.818 540.717 156.51C541.722 158.058 540.159 159.987 538.436 159.326C537.666 159.03 536.792 159.264 536.273 159.906C535.112 161.34 532.794 160.45 532.89 158.607C532.933 157.783 532.441 157.025 531.67 156.729C529.948 156.068 530.078 153.588 531.86 153.11C532.657 152.897 533.226 152.194 533.269 151.37Z" fill="#5956E8"/>
<path fill-rule="evenodd" clip-rule="evenodd" d="M264.799 58.897C274.015 53.4413 277.144 41.5684 271.775 32.2697C266.407 22.9709 254.56 19.744 245.227 24.998L245.503 25.4756C254.572 20.3737 266.081 23.5103 271.298 32.5453C276.514 41.5804 273.476 53.1161 264.523 58.4195L264.799 58.897ZM262.042 54.1218C268.621 50.189 270.847 41.6881 267.001 35.0264C263.154 28.3647 254.68 26.0414 247.984 29.7732L248.26 30.2508C254.692 26.6711 262.829 28.9041 266.523 35.3021C270.217 41.7 268.082 49.8638 261.766 53.6442L262.042 54.1218ZM259.284 49.3461C263.227 46.9366 264.549 41.8077 262.226 37.7831C259.902 33.7586 254.799 32.339 250.741 34.5489L251.017 35.0266C254.811 32.9687 259.577 34.2979 261.748 38.0588C263.92 41.8196 262.688 46.6114 259.009 48.8684L259.284 49.3461Z" fill="#D7E1EB"/>
<defs>
<filter id="filter0_f_2601_3" x="0.358398" y="-166.369" width="752.456" height="817.54" filterUnits="userSpaceOnUse" color-interpolation-filters="sRGB">
<feFlood flood-opacity="0" result="BackgroundImageFix"/>
<feBlend mode="normal" in="SourceGraphic" in2="BackgroundImageFix" result="shape"/>
<feGaussianBlur stdDeviation="100" result="effect1_foregroundBlur_2601_3"/>
</filter>
<linearGradient id="paint0_linear_2601_3" x1="513.375" y1="122.701" x2="392.032" y2="254.07" gradientUnits="userSpaceOnUse">
<stop stop-color="#CFDEEC"/>
<stop offset="1" stop-color="#B0C2D5" stop-opacity="0"/>
</linearGradient>
</defs>
</svg>
