<svg width="22" height="16" viewBox="0 0 22 16" fill="none" xmlns="http://www.w3.org/2000/svg">
<path d="M0 15C0 15.5523 0.656649 16 1.46667 16L20.5333 16C21.3434 16 22 15.5523 22 15C22 14.4477 21.3434 14 20.5333 14L1.46667 14C0.656649 14 0 14.4477 0 15Z" fill="black"/>
<path d="M0 8C0 8.55228 0.656649 9 1.46667 9L20.5333 9C21.3434 9 22 8.55228 22 8C22 7.44772 21.3434 7 20.5333 7L1.46667 7C0.656649 7 0 7.44772 0 8Z" fill="black"/>
<path d="M0 1C0 1.55229 0.656649 2 1.46667 2L20.5333 2C21.3434 2 22 1.55229 22 1C22 0.447716 21.3434 0 20.5333 0L1.46667 0C0.656649 0 0 0.447716 0 1Z" fill="black"/>
</svg>
