<svg width="120" height="40" viewBox="0 0 120 40" fill="none" xmlns="http://www.w3.org/2000/svg">
<path d="M53.775 24.55C53.775 25.6 53.5167 26.5167 53 27.3C52.4833 28.0833 51.7333 28.6917 50.75 29.125C49.7833 29.5417 48.6 29.75 47.2 29.75C46.5833 29.75 45.975 29.7083 45.375 29.625C44.7917 29.5417 44.225 29.425 43.675 29.275C43.1417 29.1083 42.6333 28.9083 42.15 28.675V25.15C43 25.5167 43.875 25.8583 44.775 26.175C45.6917 26.475 46.6 26.625 47.5 26.625C48.1167 26.625 48.6083 26.5417 48.975 26.375C49.3583 26.2083 49.6333 25.9833 49.8 25.7C49.9833 25.4167 50.075 25.0917 50.075 24.725C50.075 24.275 49.9167 23.8917 49.6 23.575C49.3 23.2583 48.8917 22.9667 48.375 22.7C47.8583 22.4167 47.2667 22.1167 46.6 21.8C46.1833 21.6 45.7333 21.3667 45.25 21.1C44.7667 20.8167 44.3 20.475 43.85 20.075C43.4167 19.6583 43.0583 19.1583 42.775 18.575C42.4917 17.9917 42.35 17.2917 42.35 16.475C42.35 15.4083 42.5917 14.5 43.075 13.75C43.575 12.9833 44.275 12.4 45.175 12C46.0917 11.6 47.1667 11.4 48.4 11.4C49.3333 11.4 50.2167 11.5083 51.05 11.725C51.9 11.9417 52.7833 12.25 53.7 12.65L52.475 15.6C51.6583 15.2667 50.925 15.0083 50.275 14.825C49.625 14.6417 48.9583 14.55 48.275 14.55C47.8083 14.55 47.4083 14.625 47.075 14.775C46.7417 14.925 46.4833 15.1333 46.3 15.4C46.1333 15.6667 46.05 15.9833 46.05 16.35C46.05 16.7667 46.175 17.125 46.425 17.425C46.675 17.7083 47.05 17.9833 47.55 18.25C48.05 18.5167 48.675 18.8333 49.425 19.2C50.3417 19.6333 51.1167 20.0833 51.75 20.55C52.4 21.0167 52.9 21.5667 53.25 22.2C53.6 22.8333 53.775 23.6167 53.775 24.55ZM62.4695 26.775C62.8862 26.775 63.2862 26.7333 63.6695 26.65C64.0529 26.5667 64.4362 26.4667 64.8195 26.35V29.125C64.4195 29.2917 63.9195 29.4333 63.3195 29.55C62.7362 29.6833 62.0945 29.75 61.3945 29.75C60.5779 29.75 59.8445 29.6167 59.1945 29.35C58.5612 29.0833 58.0529 28.625 57.6695 27.975C57.3029 27.3083 57.1195 26.3917 57.1195 25.225V18.65H55.3445V17.075L57.3945 15.825L58.4695 12.95H60.8445V15.85H64.6695V18.65H60.8445V25.225C60.8445 25.7417 60.9945 26.1333 61.2945 26.4C61.5945 26.65 61.9862 26.775 62.4695 26.775ZM73.1594 15.575C74.9927 15.575 76.3927 15.975 77.3594 16.775C78.3427 17.5583 78.8344 18.7667 78.8344 20.4V29.5H76.2344L75.5094 27.65H75.4094C75.026 28.1333 74.626 28.5333 74.2094 28.85C73.8094 29.1667 73.3427 29.3917 72.8094 29.525C72.2927 29.675 71.651 29.75 70.8844 29.75C70.0844 29.75 69.3594 29.6 68.7094 29.3C68.076 28.9833 67.576 28.5083 67.2094 27.875C66.8427 27.225 66.6594 26.4083 66.6594 25.425C66.6594 23.975 67.1677 22.9083 68.1844 22.225C69.201 21.525 70.726 21.1417 72.7594 21.075L75.1344 21V20.4C75.1344 19.6833 74.9427 19.1583 74.5594 18.825C74.1927 18.4917 73.676 18.325 73.0094 18.325C72.3427 18.325 71.6927 18.425 71.0594 18.625C70.426 18.8083 69.7927 19.0417 69.1594 19.325L67.9344 16.8C68.6677 16.4167 69.476 16.1167 70.3594 15.9C71.2594 15.6833 72.1927 15.575 73.1594 15.575ZM73.6844 23.225C72.4844 23.2583 71.651 23.475 71.1844 23.875C70.7177 24.275 70.4844 24.8 70.4844 25.45C70.4844 26.0167 70.651 26.425 70.9844 26.675C71.3177 26.9083 71.751 27.025 72.2844 27.025C73.0844 27.025 73.7594 26.7917 74.3094 26.325C74.8594 25.8417 75.1344 25.1667 75.1344 24.3V23.175L73.6844 23.225ZM90.2723 15.6C90.4556 15.6 90.6723 15.6083 90.9223 15.625C91.1723 15.6417 91.3723 15.6667 91.5223 15.7L91.2473 19.2C91.1306 19.1667 90.9556 19.1417 90.7223 19.125C90.5056 19.0917 90.3139 19.075 90.1473 19.075C89.6639 19.075 89.1973 19.1417 88.7473 19.275C88.2973 19.3917 87.8889 19.5833 87.5223 19.85C87.1723 20.1167 86.8889 20.475 86.6723 20.925C86.4723 21.3583 86.3723 21.9 86.3723 22.55V29.5H82.6473V15.85H85.4723L86.0223 18.15H86.1973C86.4639 17.6833 86.7973 17.2583 87.1973 16.875C87.5973 16.4917 88.0556 16.1833 88.5723 15.95C89.1056 15.7167 89.6723 15.6 90.2723 15.6ZM105.912 22.65C105.912 23.7833 105.753 24.7917 105.437 25.675C105.137 26.5583 104.695 27.3083 104.112 27.925C103.545 28.525 102.853 28.9833 102.037 29.3C101.22 29.6 100.295 29.75 99.2615 29.75C98.3115 29.75 97.4282 29.6 96.6115 29.3C95.8115 28.9833 95.1199 28.525 94.5365 27.925C93.9532 27.3083 93.4949 26.5583 93.1615 25.675C92.8449 24.7917 92.6865 23.7833 92.6865 22.65C92.6865 21.1333 92.9532 19.8583 93.4865 18.825C94.0199 17.775 94.7865 16.975 95.7865 16.425C96.7865 15.875 97.9699 15.6 99.3365 15.6C100.62 15.6 101.753 15.875 102.737 16.425C103.72 16.975 104.495 17.775 105.062 18.825C105.628 19.8583 105.912 21.1333 105.912 22.65ZM96.4865 22.65C96.4865 23.55 96.5782 24.3083 96.7615 24.925C96.9615 25.525 97.2699 25.9833 97.6865 26.3C98.1032 26.6 98.6449 26.75 99.3115 26.75C99.9782 26.75 100.512 26.6 100.912 26.3C101.328 25.9833 101.628 25.525 101.812 24.925C102.012 24.3083 102.112 23.55 102.112 22.65C102.112 21.75 102.012 21 101.812 20.4C101.628 19.8 101.328 19.35 100.912 19.05C100.495 18.75 99.9532 18.6 99.2865 18.6C98.3032 18.6 97.5865 18.9417 97.1365 19.625C96.7032 20.2917 96.4865 21.3 96.4865 22.65ZM118.515 25.45C118.515 26.3667 118.298 27.15 117.865 27.8C117.432 28.4333 116.782 28.9167 115.915 29.25C115.048 29.5833 113.973 29.75 112.69 29.75C111.74 29.75 110.923 29.6833 110.24 29.55C109.557 29.4333 108.873 29.2333 108.19 28.95V25.875C108.923 26.2083 109.715 26.4833 110.565 26.7C111.415 26.9167 112.165 27.025 112.815 27.025C113.548 27.025 114.065 26.9167 114.365 26.7C114.682 26.4833 114.84 26.2 114.84 25.85C114.84 25.6167 114.773 25.4083 114.64 25.225C114.523 25.0417 114.257 24.8333 113.84 24.6C113.423 24.3667 112.773 24.0667 111.89 23.7C111.04 23.3333 110.34 22.975 109.79 22.625C109.24 22.2583 108.832 21.825 108.565 21.325C108.298 20.8083 108.165 20.1667 108.165 19.4C108.165 18.1333 108.657 17.1833 109.64 16.55C110.623 15.9167 111.932 15.6 113.565 15.6C114.415 15.6 115.223 15.6833 115.99 15.85C116.757 16.0167 117.548 16.2917 118.365 16.675L117.24 19.35C116.79 19.15 116.357 18.975 115.94 18.825C115.523 18.675 115.115 18.5583 114.715 18.475C114.332 18.3917 113.932 18.35 113.515 18.35C112.965 18.35 112.548 18.425 112.265 18.575C111.998 18.725 111.865 18.95 111.865 19.25C111.865 19.4667 111.932 19.6667 112.065 19.85C112.215 20.0167 112.49 20.2 112.89 20.4C113.307 20.6 113.915 20.8667 114.715 21.2C115.498 21.5167 116.173 21.85 116.74 22.2C117.307 22.5333 117.74 22.9583 118.04 23.475C118.357 23.975 118.515 24.6333 118.515 25.45Z" fill="#292930"/>
<rect x="19.6946" y="2.85352" width="32.9123" height="8.84739" rx="4.42369" transform="rotate(60 19.6946 2.85352)" fill="#5956E8"/>
<rect width="32.9123" height="8.84739" rx="4.42369" transform="matrix(-0.5 0.866025 0.866025 0.5 16.4561 2.5)" fill="#474747"/>
<rect x="1" y="25.5" width="34" height="9" rx="4.5" fill="#FF60C9"/>
</svg>
