<svg width="156" height="40" viewBox="0 0 156 40" fill="none" xmlns="http://www.w3.org/2000/svg">
<path d="M50.8 29.5L46.5 15.5H46.4C46.4167 15.8333 46.4417 16.3333 46.475 17C46.5083 17.6667 46.5417 18.3833 46.575 19.15C46.6083 19.9 46.625 20.5833 46.625 21.2V29.5H43.25V11.65H48.4L52.625 25.3H52.7L57.175 11.65H62.325V29.5H58.8V21.05C58.8 20.4833 58.8083 19.8333 58.825 19.1C58.8583 18.3667 58.8833 17.675 58.9 17.025C58.9333 16.3583 58.9583 15.8583 58.975 15.525H58.875L54.275 29.5H50.8ZM72.134 15.575C73.9673 15.575 75.3673 15.975 76.334 16.775C77.3173 17.5583 77.809 18.7667 77.809 20.4V29.5H75.209L74.484 27.65H74.384C74.0007 28.1333 73.6007 28.5333 73.184 28.85C72.784 29.1667 72.3173 29.3917 71.784 29.525C71.2673 29.675 70.6257 29.75 69.859 29.75C69.059 29.75 68.334 29.6 67.684 29.3C67.0507 28.9833 66.5507 28.5083 66.184 27.875C65.8173 27.225 65.634 26.4083 65.634 25.425C65.634 23.975 66.1423 22.9083 67.159 22.225C68.1757 21.525 69.7007 21.1417 71.734 21.075L74.109 21V20.4C74.109 19.6833 73.9173 19.1583 73.534 18.825C73.1673 18.4917 72.6507 18.325 71.984 18.325C71.3173 18.325 70.6673 18.425 70.034 18.625C69.4007 18.8083 68.7673 19.0417 68.134 19.325L66.909 16.8C67.6423 16.4167 68.4507 16.1167 69.334 15.9C70.234 15.6833 71.1673 15.575 72.134 15.575ZM72.659 23.225C71.459 23.2583 70.6257 23.475 70.159 23.875C69.6923 24.275 69.459 24.8 69.459 25.45C69.459 26.0167 69.6257 26.425 69.959 26.675C70.2923 26.9083 70.7257 27.025 71.259 27.025C72.059 27.025 72.734 26.7917 73.284 26.325C73.834 25.8417 74.109 25.1667 74.109 24.3V23.175L72.659 23.225ZM89.2469 15.6C89.4302 15.6 89.6469 15.6083 89.8969 15.625C90.1469 15.6417 90.3469 15.6667 90.4969 15.7L90.2219 19.2C90.1052 19.1667 89.9302 19.1417 89.6969 19.125C89.4802 19.0917 89.2885 19.075 89.1219 19.075C88.6385 19.075 88.1719 19.1417 87.7219 19.275C87.2719 19.3917 86.8635 19.5833 86.4969 19.85C86.1469 20.1167 85.8635 20.475 85.6469 20.925C85.4469 21.3583 85.3469 21.9 85.3469 22.55V29.5H81.6219V15.85H84.4469L84.9969 18.15H85.1719C85.4385 17.6833 85.7719 17.2583 86.1719 16.875C86.5719 16.4917 87.0302 16.1833 87.5469 15.95C88.0802 15.7167 88.6469 15.6 89.2469 15.6ZM105.499 15.85V29.5H102.649L102.149 27.75H101.949C101.666 28.2167 101.299 28.6 100.849 28.9C100.416 29.1833 99.9327 29.3917 99.3994 29.525C98.8661 29.675 98.3161 29.75 97.7494 29.75C96.7827 29.75 95.9327 29.575 95.1994 29.225C94.4661 28.875 93.8994 28.3333 93.4994 27.6C93.0994 26.8667 92.8994 25.9167 92.8994 24.75V15.85H96.6244V23.825C96.6244 24.7917 96.7994 25.525 97.1494 26.025C97.4994 26.525 98.0577 26.775 98.8244 26.775C99.5911 26.775 100.183 26.6 100.599 26.25C101.033 25.9 101.333 25.3917 101.499 24.725C101.683 24.0583 101.774 23.2417 101.774 22.275V15.85H105.499ZM118.93 25.45C118.93 26.3667 118.713 27.15 118.28 27.8C117.847 28.4333 117.197 28.9167 116.33 29.25C115.463 29.5833 114.388 29.75 113.105 29.75C112.155 29.75 111.338 29.6833 110.655 29.55C109.972 29.4333 109.288 29.2333 108.605 28.95V25.875C109.338 26.2083 110.13 26.4833 110.98 26.7C111.83 26.9167 112.58 27.025 113.23 27.025C113.963 27.025 114.48 26.9167 114.78 26.7C115.097 26.4833 115.255 26.2 115.255 25.85C115.255 25.6167 115.188 25.4083 115.055 25.225C114.938 25.0417 114.672 24.8333 114.255 24.6C113.838 24.3667 113.188 24.0667 112.305 23.7C111.455 23.3333 110.755 22.975 110.205 22.625C109.655 22.2583 109.247 21.825 108.98 21.325C108.713 20.8083 108.58 20.1667 108.58 19.4C108.58 18.1333 109.072 17.1833 110.055 16.55C111.038 15.9167 112.347 15.6 113.98 15.6C114.83 15.6 115.638 15.6833 116.405 15.85C117.172 16.0167 117.963 16.2917 118.78 16.675L117.655 19.35C117.205 19.15 116.772 18.975 116.355 18.825C115.938 18.675 115.53 18.5583 115.13 18.475C114.747 18.3917 114.347 18.35 113.93 18.35C113.38 18.35 112.963 18.425 112.68 18.575C112.413 18.725 112.28 18.95 112.28 19.25C112.28 19.4667 112.347 19.6667 112.48 19.85C112.63 20.0167 112.905 20.2 113.305 20.4C113.722 20.6 114.33 20.8667 115.13 21.2C115.913 21.5167 116.588 21.85 117.155 22.2C117.722 22.5333 118.155 22.9583 118.455 23.475C118.772 23.975 118.93 24.6333 118.93 25.45ZM131.357 25.45C131.357 26.3667 131.14 27.15 130.707 27.8C130.274 28.4333 129.624 28.9167 128.757 29.25C127.89 29.5833 126.815 29.75 125.532 29.75C124.582 29.75 123.765 29.6833 123.082 29.55C122.399 29.4333 121.715 29.2333 121.032 28.95V25.875C121.765 26.2083 122.557 26.4833 123.407 26.7C124.257 26.9167 125.007 27.025 125.657 27.025C126.39 27.025 126.907 26.9167 127.207 26.7C127.524 26.4833 127.682 26.2 127.682 25.85C127.682 25.6167 127.615 25.4083 127.482 25.225C127.365 25.0417 127.099 24.8333 126.682 24.6C126.265 24.3667 125.615 24.0667 124.732 23.7C123.882 23.3333 123.182 22.975 122.632 22.625C122.082 22.2583 121.674 21.825 121.407 21.325C121.14 20.8083 121.007 20.1667 121.007 19.4C121.007 18.1333 121.499 17.1833 122.482 16.55C123.465 15.9167 124.774 15.6 126.407 15.6C127.257 15.6 128.065 15.6833 128.832 15.85C129.599 16.0167 130.39 16.2917 131.207 16.675L130.082 19.35C129.632 19.15 129.199 18.975 128.782 18.825C128.365 18.675 127.957 18.5583 127.557 18.475C127.174 18.3917 126.774 18.35 126.357 18.35C125.807 18.35 125.39 18.425 125.107 18.575C124.84 18.725 124.707 18.95 124.707 19.25C124.707 19.4667 124.774 19.6667 124.907 19.85C125.057 20.0167 125.332 20.2 125.732 20.4C126.149 20.6 126.757 20.8667 127.557 21.2C128.34 21.5167 129.015 21.85 129.582 22.2C130.149 22.5333 130.582 22.9583 130.882 23.475C131.199 23.975 131.357 24.6333 131.357 25.45ZM137.984 15.85V29.5H134.259V15.85H137.984ZM136.134 10.5C136.684 10.5 137.159 10.6333 137.559 10.9C137.959 11.15 138.159 11.625 138.159 12.325C138.159 13.0083 137.959 13.4833 137.559 13.75C137.159 14.0167 136.684 14.15 136.134 14.15C135.567 14.15 135.084 14.0167 134.684 13.75C134.3 13.4833 134.109 13.0083 134.109 12.325C134.109 11.625 134.3 11.15 134.684 10.9C135.084 10.6333 135.567 10.5 136.134 10.5ZM147.476 15.575C149.309 15.575 150.709 15.975 151.676 16.775C152.659 17.5583 153.151 18.7667 153.151 20.4V29.5H150.551L149.826 27.65H149.726C149.342 28.1333 148.942 28.5333 148.526 28.85C148.126 29.1667 147.659 29.3917 147.126 29.525C146.609 29.675 145.967 29.75 145.201 29.75C144.401 29.75 143.676 29.6 143.026 29.3C142.392 28.9833 141.892 28.5083 141.526 27.875C141.159 27.225 140.976 26.4083 140.976 25.425C140.976 23.975 141.484 22.9083 142.501 22.225C143.517 21.525 145.042 21.1417 147.076 21.075L149.451 21V20.4C149.451 19.6833 149.259 19.1583 148.876 18.825C148.509 18.4917 147.992 18.325 147.326 18.325C146.659 18.325 146.009 18.425 145.376 18.625C144.742 18.8083 144.109 19.0417 143.476 19.325L142.251 16.8C142.984 16.4167 143.792 16.1167 144.676 15.9C145.576 15.6833 146.509 15.575 147.476 15.575ZM148.001 23.225C146.801 23.2583 145.967 23.475 145.501 23.875C145.034 24.275 144.801 24.8 144.801 25.45C144.801 26.0167 144.967 26.425 145.301 26.675C145.634 26.9083 146.067 27.025 146.601 27.025C147.401 27.025 148.076 26.7917 148.626 26.325C149.176 25.8417 149.451 25.1667 149.451 24.3V23.175L148.001 23.225Z" fill="#292930"/>
<rect x="19.6946" y="2.85352" width="32.9123" height="8.84739" rx="4.42369" transform="rotate(60 19.6946 2.85352)" fill="#5956E8"/>
<rect width="32.9123" height="8.84739" rx="4.42369" transform="matrix(-0.5 0.866025 0.866025 0.5 16.4561 2.5)" fill="#474747"/>
<rect x="1" y="25.5" width="34" height="9" rx="4.5" fill="#FF60C9"/>
</svg>
