<svg width="139" height="40" viewBox="0 0 139 40" fill="none" xmlns="http://www.w3.org/2000/svg">
<path d="M59.45 20.1535C59.45 21.4868 59.2917 22.7035 58.975 23.8035C58.6583 24.9035 58.175 25.8618 57.525 26.6785C56.875 27.4785 56.05 28.1035 55.05 28.5535L59.35 33.3535H54.5L51.225 29.3535C51.175 29.3535 51.125 29.3535 51.075 29.3535C51.0417 29.3535 51 29.3535 50.95 29.3535C49.5 29.3535 48.2333 29.1368 47.15 28.7035C46.0833 28.2535 45.2 27.6285 44.5 26.8285C43.8167 26.0118 43.3 25.0368 42.95 23.9035C42.6167 22.7702 42.45 21.5118 42.45 20.1285C42.45 18.2785 42.75 16.6702 43.35 15.3035C43.9667 13.9368 44.9 12.8785 46.15 12.1285C47.4167 11.3618 49.025 10.9785 50.975 10.9785C52.9083 10.9785 54.5 11.3618 55.75 12.1285C57 12.8785 57.925 13.9452 58.525 15.3285C59.1417 16.6952 59.45 18.3035 59.45 20.1535ZM46.425 20.1535C46.425 21.4035 46.5833 22.4785 46.9 23.3785C47.2167 24.2785 47.7083 24.9702 48.375 25.4535C49.0417 25.9368 49.9 26.1785 50.95 26.1785C52.0333 26.1785 52.9 25.9368 53.55 25.4535C54.2167 24.9702 54.7 24.2785 55 23.3785C55.3167 22.4785 55.475 21.4035 55.475 20.1535C55.475 18.2702 55.125 16.7952 54.425 15.7285C53.725 14.6618 52.575 14.1285 50.975 14.1285C49.9083 14.1285 49.0417 14.3702 48.375 14.8535C47.7083 15.3368 47.2167 16.0285 46.9 16.9285C46.5833 17.8285 46.425 18.9035 46.425 20.1535ZM69.2656 29.1035H65.4906V14.4035H60.6406V11.2535H74.1156V14.4035H69.2656V29.1035ZM87.1432 29.1035H76.8682V11.2535H87.1432V14.3535H80.6432V18.2785H86.6932V21.3785H80.6432V25.9785H87.1432V29.1035ZM96.0574 11.2535C97.6741 11.2535 99.0074 11.4535 100.057 11.8535C101.107 12.2368 101.891 12.8285 102.407 13.6285C102.924 14.4118 103.182 15.4035 103.182 16.6035C103.182 17.4202 103.024 18.1368 102.707 18.7535C102.407 19.3535 101.999 19.8702 101.482 20.3035C100.982 20.7202 100.441 21.0618 99.8574 21.3285L105.107 29.1035H100.907L96.6574 22.2535H94.6324V29.1035H90.8574V11.2535H96.0574ZM95.7824 14.3535H94.6324V19.1785H95.8574C96.6908 19.1785 97.3658 19.0868 97.8824 18.9035C98.3991 18.7202 98.7741 18.4452 99.0074 18.0785C99.2408 17.6952 99.3574 17.2368 99.3574 16.7035C99.3574 16.1368 99.2241 15.6868 98.9574 15.3535C98.7074 15.0035 98.3158 14.7535 97.7824 14.6035C97.2658 14.4368 96.5991 14.3535 95.7824 14.3535ZM112.561 11.2535C114.178 11.2535 115.511 11.4535 116.561 11.8535C117.611 12.2368 118.395 12.8285 118.911 13.6285C119.428 14.4118 119.686 15.4035 119.686 16.6035C119.686 17.4202 119.528 18.1368 119.211 18.7535C118.911 19.3535 118.503 19.8702 117.986 20.3035C117.486 20.7202 116.945 21.0618 116.361 21.3285L121.611 29.1035H117.411L113.161 22.2535H111.136V29.1035H107.361V11.2535H112.561ZM112.286 14.3535H111.136V19.1785H112.361C113.195 19.1785 113.87 19.0868 114.386 18.9035C114.903 18.7202 115.278 18.4452 115.511 18.0785C115.745 17.6952 115.861 17.2368 115.861 16.7035C115.861 16.1368 115.728 15.6868 115.461 15.3535C115.211 15.0035 114.82 14.7535 114.286 14.6035C113.77 14.4368 113.103 14.3535 112.286 14.3535ZM134.79 29.1035L133.49 24.8535H126.99L125.69 29.1035H121.615L127.915 11.1785H132.54L138.865 29.1035H134.79ZM131.29 17.5285C131.207 17.2452 131.099 16.8868 130.965 16.4535C130.832 16.0202 130.699 15.5785 130.565 15.1285C130.432 14.6785 130.324 14.2868 130.24 13.9535C130.157 14.2868 130.04 14.7035 129.89 15.2035C129.757 15.6868 129.624 16.1535 129.49 16.6035C129.374 17.0368 129.282 17.3452 129.215 17.5285L127.94 21.6785H132.59L131.29 17.5285Z" fill="#292930"/>
<rect x="19.6943" y="2.45703" width="32.9123" height="8.84739" rx="4.42369" transform="rotate(60 19.6943 2.45703)" fill="#5956E8"/>
<rect width="32.9123" height="8.84739" rx="4.42369" transform="matrix(-0.5 0.866025 0.866025 0.5 16.4561 2.10352)" fill="#474747"/>
<rect x="1" y="25.1035" width="34" height="9" rx="4.5" fill="#FF60C9"/>
</svg>
