<svg width="99" height="43" viewBox="0 0 99 43" fill="none" xmlns="http://www.w3.org/2000/svg">
<path d="M84.25 11.2535L78.175 29.1035H74.05L68 11.2535H71.825L75.175 21.8785C75.2417 22.0618 75.3333 22.4035 75.45 22.9035C75.5833 23.3868 75.7167 23.9035 75.85 24.4535C75.9833 24.9868 76.075 25.4368 76.125 25.8035C76.175 25.4368 76.2583 24.9868 76.375 24.4535C76.5083 23.9035 76.6417 23.3868 76.775 22.9035C76.9083 22.4035 77 22.0618 77.05 21.8785L80.425 11.2535H84.25ZM96.7848 29.1035H86.5098V11.2535H96.7848V14.3535H90.2848V18.2785H96.3348V21.3785H90.2848V25.9785H96.7848V29.1035Z" fill="#292930"/>
<circle cx="14.5" cy="19.6035" r="14.5" fill="#6FDB5D"/>
<path d="M42.768 8.10351C43.5378 6.77018 45.4622 6.77018 46.232 8.10352L58.7894 29.8535C59.5592 31.1869 58.597 32.8535 57.0574 32.8535H31.9426C30.403 32.8535 29.4408 31.1868 30.2106 29.8535L42.768 8.10351Z" fill="#FFDC60"/>
</svg>
