<svg width="189" height="42" viewBox="0 0 189 42" fill="none" xmlns="http://www.w3.org/2000/svg">
<path d="M77.825 14.05C77.1083 14.05 76.4667 14.1917 75.9 14.475C75.35 14.7583 74.8833 15.1667 74.5 15.7C74.1167 16.2167 73.825 16.85 73.625 17.6C73.4417 18.35 73.35 19.1917 73.35 20.125C73.35 21.3917 73.5 22.475 73.8 23.375C74.1167 24.2583 74.6083 24.9333 75.275 25.4C75.9417 25.8667 76.7917 26.1 77.825 26.1C78.5583 26.1 79.2833 26.0167 80 25.85C80.7333 25.6833 81.525 25.45 82.375 25.15V28.325C81.5917 28.6417 80.8167 28.875 80.05 29.025C79.2833 29.175 78.425 29.25 77.475 29.25C75.6417 29.25 74.125 28.875 72.925 28.125C71.7417 27.3583 70.8667 26.2917 70.3 24.925C69.7333 23.5417 69.45 21.9333 69.45 20.1C69.45 18.75 69.6333 17.5167 70 16.4C70.3667 15.2667 70.9 14.2917 71.6 13.475C72.3167 12.6583 73.1917 12.025 74.225 11.575C75.275 11.125 76.475 10.9 77.825 10.9C78.7083 10.9 79.5917 11.0167 80.475 11.25C81.375 11.4667 82.2333 11.7667 83.05 12.15L81.825 15.225C81.1583 14.9083 80.4833 14.6333 79.8 14.4C79.1333 14.1667 78.475 14.05 77.825 14.05ZM91.468 15.075C93.3013 15.075 94.7013 15.475 95.668 16.275C96.6513 17.0583 97.143 18.2667 97.143 19.9V29H94.543L93.818 27.15H93.718C93.3346 27.6333 92.9346 28.0333 92.518 28.35C92.118 28.6667 91.6513 28.8917 91.118 29.025C90.6013 29.175 89.9596 29.25 89.193 29.25C88.393 29.25 87.668 29.1 87.018 28.8C86.3846 28.4833 85.8846 28.0083 85.518 27.375C85.1513 26.725 84.968 25.9083 84.968 24.925C84.968 23.475 85.4763 22.4083 86.493 21.725C87.5096 21.025 89.0346 20.6417 91.068 20.575L93.443 20.5V19.9C93.443 19.1833 93.2513 18.6583 92.868 18.325C92.5013 17.9917 91.9846 17.825 91.318 17.825C90.6513 17.825 90.0013 17.925 89.368 18.125C88.7346 18.3083 88.1013 18.5417 87.468 18.825L86.243 16.3C86.9763 15.9167 87.7846 15.6167 88.668 15.4C89.568 15.1833 90.5013 15.075 91.468 15.075ZM91.993 22.725C90.793 22.7583 89.9596 22.975 89.493 23.375C89.0263 23.775 88.793 24.3 88.793 24.95C88.793 25.5167 88.9596 25.925 89.293 26.175C89.6263 26.4083 90.0596 26.525 90.593 26.525C91.393 26.525 92.068 26.2917 92.618 25.825C93.168 25.3417 93.443 24.6667 93.443 23.8V22.675L91.993 22.725ZM110.481 24.95C110.481 25.8667 110.264 26.65 109.831 27.3C109.398 27.9333 108.748 28.4167 107.881 28.75C107.014 29.0833 105.939 29.25 104.656 29.25C103.706 29.25 102.889 29.1833 102.206 29.05C101.523 28.9333 100.839 28.7333 100.156 28.45V25.375C100.889 25.7083 101.681 25.9833 102.531 26.2C103.381 26.4167 104.131 26.525 104.781 26.525C105.514 26.525 106.031 26.4167 106.331 26.2C106.648 25.9833 106.806 25.7 106.806 25.35C106.806 25.1167 106.739 24.9083 106.606 24.725C106.489 24.5417 106.223 24.3333 105.806 24.1C105.389 23.8667 104.739 23.5667 103.856 23.2C103.006 22.8333 102.306 22.475 101.756 22.125C101.206 21.7583 100.798 21.325 100.531 20.825C100.264 20.3083 100.131 19.6667 100.131 18.9C100.131 17.6333 100.623 16.6833 101.606 16.05C102.589 15.4167 103.898 15.1 105.531 15.1C106.381 15.1 107.189 15.1833 107.956 15.35C108.723 15.5167 109.514 15.7917 110.331 16.175L109.206 18.85C108.756 18.65 108.323 18.475 107.906 18.325C107.489 18.175 107.081 18.0583 106.681 17.975C106.298 17.8917 105.898 17.85 105.481 17.85C104.931 17.85 104.514 17.925 104.231 18.075C103.964 18.225 103.831 18.45 103.831 18.75C103.831 18.9667 103.898 19.1667 104.031 19.35C104.181 19.5167 104.456 19.7 104.856 19.9C105.273 20.1 105.881 20.3667 106.681 20.7C107.464 21.0167 108.139 21.35 108.706 21.7C109.273 22.0333 109.706 22.4583 110.006 22.975C110.323 23.475 110.481 24.1333 110.481 24.95ZM119.008 15.1C120.274 15.1 121.358 15.3417 122.258 15.825C123.174 16.3083 123.883 17.0083 124.383 17.925C124.883 18.8417 125.133 19.9667 125.133 21.3V23.1H116.333C116.366 24.15 116.674 24.975 117.258 25.575C117.858 26.175 118.683 26.475 119.733 26.475C120.616 26.475 121.416 26.3917 122.133 26.225C122.849 26.0417 123.591 25.7667 124.358 25.4V28.275C123.691 28.6083 122.983 28.85 122.233 29C121.499 29.1667 120.608 29.25 119.558 29.25C118.191 29.25 116.983 29 115.933 28.5C114.883 27.9833 114.058 27.2083 113.458 26.175C112.858 25.1417 112.558 23.8417 112.558 22.275C112.558 20.675 112.824 19.35 113.358 18.3C113.908 17.2333 114.666 16.4333 115.633 15.9C116.599 15.3667 117.724 15.1 119.008 15.1ZM119.033 17.75C118.316 17.75 117.716 17.9833 117.233 18.45C116.766 18.9167 116.491 19.6417 116.408 20.625H121.633C121.633 20.075 121.533 19.5833 121.333 19.15C121.149 18.7167 120.866 18.375 120.483 18.125C120.099 17.875 119.616 17.75 119.033 17.75ZM137.678 24.95C137.678 25.8667 137.461 26.65 137.028 27.3C136.595 27.9333 135.945 28.4167 135.078 28.75C134.211 29.0833 133.136 29.25 131.853 29.25C130.903 29.25 130.086 29.1833 129.403 29.05C128.72 28.9333 128.036 28.7333 127.353 28.45V25.375C128.086 25.7083 128.878 25.9833 129.728 26.2C130.578 26.4167 131.328 26.525 131.978 26.525C132.711 26.525 133.228 26.4167 133.528 26.2C133.845 25.9833 134.003 25.7 134.003 25.35C134.003 25.1167 133.936 24.9083 133.803 24.725C133.686 24.5417 133.42 24.3333 133.003 24.1C132.586 23.8667 131.936 23.5667 131.053 23.2C130.203 22.8333 129.503 22.475 128.953 22.125C128.403 21.7583 127.995 21.325 127.728 20.825C127.461 20.3083 127.328 19.6667 127.328 18.9C127.328 17.6333 127.82 16.6833 128.803 16.05C129.786 15.4167 131.095 15.1 132.728 15.1C133.578 15.1 134.386 15.1833 135.153 15.35C135.92 15.5167 136.711 15.7917 137.528 16.175L136.403 18.85C135.953 18.65 135.52 18.475 135.103 18.325C134.686 18.175 134.278 18.0583 133.878 17.975C133.495 17.8917 133.095 17.85 132.678 17.85C132.128 17.85 131.711 17.925 131.428 18.075C131.161 18.225 131.028 18.45 131.028 18.75C131.028 18.9667 131.095 19.1667 131.228 19.35C131.378 19.5167 131.653 19.7 132.053 19.9C132.47 20.1 133.078 20.3667 133.878 20.7C134.661 21.0167 135.336 21.35 135.903 21.7C136.47 22.0333 136.903 22.4583 137.203 22.975C137.52 23.475 137.678 24.1333 137.678 24.95ZM155.305 29H150.98L146.83 22.25L142.68 29H138.63L144.555 19.8L139.005 11.15H143.18L147.03 17.575L150.805 11.15H154.88L149.28 20L155.305 29ZM171.98 29H167.655L163.505 22.25L159.355 29H155.305L161.23 19.8L155.68 11.15H159.855L163.705 17.575L167.48 11.15H171.555L165.955 20L171.98 29ZM188.654 29H184.329L180.179 22.25L176.029 29H171.979L177.904 19.8L172.354 11.15H176.529L180.379 17.575L184.154 11.15H188.229L182.629 20L188.654 29Z" fill="#292930"/>
<circle cx="14.5" cy="19.5" r="14.5" fill="#6FDB5D"/>
<path d="M42.768 8C43.5378 6.66666 45.4622 6.66667 46.232 8L58.7894 29.75C59.5592 31.0833 58.597 32.75 57.0574 32.75H31.9426C30.403 32.75 29.4408 31.0833 30.2106 29.75L42.768 8Z" fill="#FFDC60"/>
</svg>
