<svg width="14" height="16" viewBox="0 0 14 16" fill="none" xmlns="http://www.w3.org/2000/svg">
<path d="M7 0.651367C5.61553 0.651367 4.26216 1.07668 3.11101 1.87352C1.95987 2.67036 1.06266 3.80293 0.532846 5.12803C0.00303299 6.45312 -0.13559 7.91122 0.134506 9.31793C0.404603 10.7246 1.07129 12.0168 2.05026 13.031C3.02922 14.0452 4.2765 14.7358 5.63437 15.0156C6.99224 15.2955 8.3997 15.1518 9.67879 14.603C10.9579 14.0541 12.0511 13.1246 12.8203 11.9321C13.5895 10.7395 14 9.33745 14 7.90317C13.9964 5.98101 13.2578 4.13862 11.9458 2.77944C10.6338 1.42026 8.85542 0.655053 7 0.651367ZM9.82019 7.44296L7.39712 10.2321C7.34667 10.2892 7.28531 10.3348 7.21695 10.3659C7.14858 10.3971 7.0747 10.4132 7 10.4132C6.9253 10.4132 6.85142 10.3971 6.78306 10.3659C6.71469 10.3348 6.65333 10.2892 6.60289 10.2321L4.17981 7.44296C4.08703 7.33326 4.0394 7.19028 4.04715 7.04465C4.0549 6.89901 4.11739 6.76231 4.22125 6.66384C4.32511 6.56536 4.46206 6.51295 4.60277 6.51782C4.74348 6.52269 4.87676 6.58446 4.97404 6.68989L7 9.01884L9.02596 6.68989C9.07321 6.63403 9.13075 6.58851 9.19521 6.55599C9.25966 6.52347 9.32974 6.50462 9.40133 6.50053C9.47291 6.49645 9.54456 6.50721 9.61207 6.53219C9.67959 6.55718 9.74161 6.59588 9.7945 6.64602C9.84738 6.69617 9.89007 6.75675 9.92005 6.82421C9.95004 6.89167 9.96672 6.96466 9.96911 7.03889C9.97151 7.11312 9.95956 7.1871 9.93399 7.25649C9.90842 7.32588 9.86973 7.38927 9.82019 7.44296Z" fill="#292930"/>
</svg>
