<svg width="315" height="52" viewBox="0 0 315 52" fill="none" xmlns="http://www.w3.org/2000/svg">
<path d="M16.2423 51.0644H0.121094C0.121094 51.0644 17.8181 1.99938 21.5756 1.03188C25.3332 0.0643737 31.515 0.0643381 34.5453 1.03188C37.5756 1.99942 42.4241 26.4628 42.4241 26.4628C42.4241 26.4628 50.4241 2.27581 54.1817 1.03188C57.9393 -0.212053 65.3332 -0.163119 67.8787 1.03188C70.4241 2.22687 79.9999 51.0644 79.9999 51.0644H64.8484L58.909 25.6335L48.4847 51.0644H32.7272L26.5453 25.6335L16.2423 51.0644Z" fill="white"/>
<path d="M26.5455 25.8248C26.5455 25.8248 22.303 3.43455 21.5758 1.08496C17.4545 2.3288 0 51.1174 0 51.1174H16.2424L26.5455 25.8248Z" fill="url(#paint0_linear_700_2521)"/>
<path d="M58.9092 25.5484C58.9092 25.5484 66.788 2.32881 68.0001 1.08496C70.4243 2.60529 80.0001 51.1175 80.0001 51.1175H64.8486L58.9092 25.5484Z" fill="url(#paint1_linear_700_2521)"/>
<path d="M109.29 36.3872C108.61 36.3872 108.09 36.1972 107.73 35.8172C107.37 35.4372 107.19 34.9072 107.19 34.2272V16.8572C107.19 16.1772 107.38 15.6472 107.76 15.2672C108.16 14.8872 108.7 14.6972 109.38 14.6972C109.98 14.6972 110.45 14.8172 110.79 15.0572C111.15 15.2772 111.48 15.6672 111.78 16.2272L118.71 28.8872H117.69L124.62 16.2272C124.92 15.6672 125.24 15.2772 125.58 15.0572C125.94 14.8172 126.41 14.6972 126.99 14.6972C127.67 14.6972 128.19 14.8872 128.55 15.2672C128.93 15.6472 129.12 16.1772 129.12 16.8572V34.2272C129.12 34.9072 128.94 35.4372 128.58 35.8172C128.22 36.1972 127.7 36.3872 127.02 36.3872C126.34 36.3872 125.81 36.1972 125.43 35.8172C125.07 35.4372 124.89 34.9072 124.89 34.2272V22.0772H125.55L119.97 32.0672C119.73 32.4472 119.47 32.7372 119.19 32.9372C118.93 33.1172 118.58 33.2072 118.14 33.2072C117.7 33.2072 117.34 33.1072 117.06 32.9072C116.78 32.7072 116.53 32.4272 116.31 32.0672L110.67 22.0472H111.39V34.2272C111.39 34.9072 111.21 35.4372 110.85 35.8172C110.51 36.1972 109.99 36.3872 109.29 36.3872ZM137.999 36.4472C136.919 36.4472 135.949 36.2372 135.089 35.8172C134.229 35.3972 133.559 34.8272 133.079 34.1072C132.599 33.3872 132.359 32.5772 132.359 31.6772C132.359 30.5972 132.639 29.7472 133.199 29.1272C133.759 28.4872 134.669 28.0372 135.929 27.7772C137.189 27.4972 138.859 27.3572 140.939 27.3572H142.529V29.6972H140.969C139.949 29.6972 139.119 29.7572 138.479 29.8772C137.859 29.9772 137.409 30.1572 137.129 30.4172C136.869 30.6772 136.739 31.0372 136.739 31.4972C136.739 32.0572 136.929 32.5172 137.309 32.8772C137.709 33.2372 138.279 33.4172 139.019 33.4172C139.599 33.4172 140.109 33.2872 140.549 33.0272C141.009 32.7472 141.369 32.3772 141.629 31.9172C141.889 31.4372 142.019 30.8972 142.019 30.2972V26.8472C142.019 25.9672 141.819 25.3472 141.419 24.9872C141.019 24.6072 140.339 24.4172 139.379 24.4172C138.839 24.4172 138.249 24.4872 137.609 24.6272C136.989 24.7472 136.299 24.9572 135.539 25.2572C135.099 25.4572 134.709 25.5072 134.369 25.4072C134.029 25.2872 133.769 25.0872 133.589 24.8072C133.409 24.5072 133.319 24.1872 133.319 23.8472C133.319 23.4872 133.419 23.1472 133.619 22.8272C133.819 22.4872 134.149 22.2372 134.609 22.0772C135.549 21.6972 136.429 21.4372 137.249 21.2972C138.089 21.1572 138.859 21.0872 139.559 21.0872C141.099 21.0872 142.359 21.3172 143.339 21.7772C144.339 22.2172 145.089 22.9072 145.589 23.8472C146.089 24.7672 146.339 25.9572 146.339 27.4172V34.0772C146.339 34.8172 146.159 35.3872 145.799 35.7872C145.439 36.1872 144.919 36.3872 144.239 36.3872C143.559 36.3872 143.029 36.1872 142.649 35.7872C142.289 35.3872 142.109 34.8172 142.109 34.0772V32.9672L142.319 33.1472C142.199 33.8272 141.939 34.4172 141.539 34.9172C141.159 35.3972 140.669 35.7772 140.069 36.0572C139.469 36.3172 138.779 36.4472 137.999 36.4472ZM152.059 36.3872C151.299 36.3872 150.719 36.1872 150.319 35.7872C149.919 35.3872 149.719 34.8172 149.719 34.0772V23.4272C149.719 22.6872 149.909 22.1272 150.289 21.7472C150.689 21.3472 151.239 21.1472 151.939 21.1472C152.659 21.1472 153.209 21.3472 153.589 21.7472C153.969 22.1272 154.159 22.6872 154.159 23.4272V24.9872H153.859C154.099 23.7872 154.629 22.8572 155.449 22.1972C156.269 21.5372 157.329 21.1672 158.629 21.0872C159.129 21.0472 159.509 21.1772 159.769 21.4772C160.049 21.7572 160.199 22.2272 160.219 22.8872C160.259 23.5072 160.129 23.9972 159.829 24.3572C159.549 24.7172 159.069 24.9372 158.389 25.0172L157.699 25.0772C156.559 25.1772 155.709 25.5072 155.149 26.0672C154.609 26.6272 154.339 27.4372 154.339 28.4972V34.0772C154.339 34.8172 154.139 35.3872 153.739 35.7872C153.359 36.1872 152.799 36.3872 152.059 36.3872ZM164.362 36.3872C163.622 36.3872 163.052 36.1872 162.652 35.7872C162.272 35.3872 162.082 34.8172 162.082 34.0772V17.0072C162.082 16.2472 162.272 15.6772 162.652 15.2972C163.052 14.8972 163.622 14.6972 164.362 14.6972C165.082 14.6972 165.632 14.8972 166.012 15.2972C166.412 15.6772 166.612 16.2472 166.612 17.0072V27.4772H166.672L171.022 22.6472C171.462 22.1472 171.862 21.7772 172.222 21.5372C172.602 21.2772 173.102 21.1472 173.722 21.1472C174.342 21.1472 174.812 21.3072 175.132 21.6272C175.472 21.9472 175.642 22.3372 175.642 22.7972C175.662 23.2372 175.472 23.6872 175.072 24.1472L170.482 29.2772V27.5672L175.582 33.4472C175.962 33.9072 176.122 34.3672 176.062 34.8272C176.022 35.2872 175.822 35.6672 175.462 35.9672C175.102 36.2472 174.642 36.3872 174.082 36.3872C173.402 36.3872 172.852 36.2572 172.432 35.9972C172.032 35.7372 171.622 35.3372 171.202 34.7972L166.672 29.7572H166.612V34.0772C166.612 35.6172 165.862 36.3872 164.362 36.3872ZM186.226 36.4472C184.486 36.4472 182.986 36.1372 181.726 35.5172C180.486 34.8772 179.526 33.9872 178.846 32.8472C178.186 31.6872 177.856 30.3272 177.856 28.7672C177.856 27.2472 178.176 25.9172 178.816 24.7772C179.456 23.6172 180.346 22.7172 181.486 22.0772C182.646 21.4172 183.956 21.0872 185.416 21.0872C186.476 21.0872 187.436 21.2672 188.296 21.6272C189.156 21.9672 189.896 22.4672 190.516 23.1272C191.136 23.7672 191.606 24.5572 191.926 25.4972C192.246 26.4172 192.406 27.4472 192.406 28.5872C192.406 28.9672 192.286 29.2572 192.046 29.4572C191.806 29.6372 191.456 29.7272 190.996 29.7272H181.576V27.3872H189.136L188.656 27.8072C188.656 26.9872 188.536 26.3072 188.296 25.7672C188.056 25.2072 187.706 24.7872 187.246 24.5072C186.806 24.2272 186.256 24.0872 185.596 24.0872C184.856 24.0872 184.226 24.2572 183.706 24.5972C183.186 24.9372 182.786 25.4272 182.506 26.0672C182.226 26.7072 182.086 27.4772 182.086 28.3772V28.6172C182.086 30.1372 182.436 31.2572 183.136 31.9772C183.856 32.6972 184.916 33.0572 186.316 33.0572C186.796 33.0572 187.346 32.9972 187.966 32.8772C188.586 32.7572 189.166 32.5672 189.706 32.3072C190.166 32.0872 190.576 32.0172 190.936 32.0972C191.296 32.1572 191.576 32.3172 191.776 32.5772C191.976 32.8372 192.086 33.1372 192.106 33.4772C192.146 33.8172 192.076 34.1572 191.896 34.4972C191.716 34.8172 191.416 35.0872 190.996 35.3072C190.316 35.6872 189.546 35.9672 188.686 36.1472C187.846 36.3472 187.026 36.4472 186.226 36.4472ZM202.183 36.4472C200.803 36.4472 199.643 36.2172 198.703 35.7572C197.783 35.2972 197.093 34.6272 196.633 33.7472C196.193 32.8672 195.973 31.7572 195.973 30.4172V24.7772H194.713C194.153 24.7772 193.713 24.6272 193.393 24.3272C193.093 24.0272 192.943 23.6172 192.943 23.0972C192.943 22.5372 193.093 22.1172 193.393 21.8372C193.713 21.5372 194.153 21.3872 194.713 21.3872H195.973V19.1072C195.973 18.3472 196.173 17.7772 196.573 17.3972C196.973 16.9972 197.533 16.7972 198.253 16.7972C198.993 16.7972 199.553 16.9972 199.933 17.3972C200.313 17.7772 200.503 18.3472 200.503 19.1072V21.3872H203.353C203.913 21.3872 204.343 21.5372 204.643 21.8372C204.943 22.1172 205.093 22.5372 205.093 23.0972C205.093 23.6172 204.943 24.0272 204.643 24.3272C204.343 24.6272 203.913 24.7772 203.353 24.7772H200.503V30.2372C200.503 31.0772 200.693 31.7072 201.073 32.1272C201.473 32.5472 202.103 32.7572 202.963 32.7572C203.263 32.7572 203.543 32.7272 203.803 32.6672C204.063 32.6072 204.303 32.5672 204.523 32.5472C204.803 32.5272 205.033 32.6172 205.213 32.8172C205.393 32.9972 205.483 33.4072 205.483 34.0472C205.483 34.5272 205.403 34.9472 205.243 35.3072C205.083 35.6672 204.803 35.9272 204.403 36.0872C204.143 36.1872 203.783 36.2672 203.323 36.3272C202.883 36.4072 202.503 36.4472 202.183 36.4472ZM218.011 36.3872C217.331 36.3872 216.811 36.1972 216.451 35.8172C216.091 35.4372 215.911 34.9072 215.911 34.2272V16.8572C215.911 16.1772 216.101 15.6472 216.481 15.2672C216.881 14.8872 217.421 14.6972 218.101 14.6972C218.701 14.6972 219.171 14.8172 219.511 15.0572C219.871 15.2772 220.201 15.6672 220.501 16.2272L227.431 28.8872H226.411L233.341 16.2272C233.641 15.6672 233.961 15.2772 234.301 15.0572C234.661 14.8172 235.131 14.6972 235.711 14.6972C236.391 14.6972 236.911 14.8872 237.271 15.2672C237.651 15.6472 237.841 16.1772 237.841 16.8572V34.2272C237.841 34.9072 237.661 35.4372 237.301 35.8172C236.941 36.1972 236.421 36.3872 235.741 36.3872C235.061 36.3872 234.531 36.1972 234.151 35.8172C233.791 35.4372 233.611 34.9072 233.611 34.2272V22.0772H234.271L228.691 32.0672C228.451 32.4472 228.191 32.7372 227.911 32.9372C227.651 33.1172 227.301 33.2072 226.861 33.2072C226.421 33.2072 226.061 33.1072 225.781 32.9072C225.501 32.7072 225.251 32.4272 225.031 32.0672L219.391 22.0472H220.111V34.2272C220.111 34.9072 219.931 35.4372 219.571 35.8172C219.231 36.1972 218.711 36.3872 218.011 36.3872ZM248.82 36.4472C247.24 36.4472 245.86 36.1372 244.68 35.5172C243.52 34.8972 242.62 34.0072 241.98 32.8472C241.34 31.6872 241.02 30.3172 241.02 28.7372C241.02 27.5572 241.2 26.4972 241.56 25.5572C241.92 24.6172 242.44 23.8172 243.12 23.1572C243.82 22.4772 244.65 21.9672 245.61 21.6272C246.57 21.2672 247.64 21.0872 248.82 21.0872C250.4 21.0872 251.77 21.3972 252.93 22.0172C254.11 22.6372 255.02 23.5172 255.66 24.6572C256.32 25.7972 256.65 27.1572 256.65 28.7372C256.65 29.9372 256.46 31.0072 256.08 31.9472C255.72 32.8872 255.2 33.6972 254.52 34.3772C253.84 35.0572 253.01 35.5772 252.03 35.9372C251.07 36.2772 250 36.4472 248.82 36.4472ZM248.82 33.0572C249.48 33.0572 250.05 32.8972 250.53 32.5772C251.01 32.2572 251.39 31.7872 251.67 31.1672C251.95 30.5272 252.09 29.7172 252.09 28.7372C252.09 27.2772 251.79 26.2072 251.19 25.5272C250.59 24.8272 249.8 24.4772 248.82 24.4772C248.18 24.4772 247.61 24.6272 247.11 24.9272C246.63 25.2272 246.25 25.6972 245.97 26.3372C245.71 26.9572 245.58 27.7572 245.58 28.7372C245.58 30.1972 245.88 31.2872 246.48 32.0072C247.08 32.7072 247.86 33.0572 248.82 33.0572ZM261.686 36.3872C260.946 36.3872 260.376 36.1872 259.976 35.7872C259.596 35.3872 259.406 34.8172 259.406 34.0772V23.4272C259.406 22.6872 259.596 22.1272 259.976 21.7472C260.376 21.3472 260.926 21.1472 261.626 21.1472C262.346 21.1472 262.896 21.3472 263.276 21.7472C263.656 22.1272 263.846 22.6872 263.846 23.4272V25.1372L263.516 24.1472C263.976 23.1672 264.656 22.4172 265.556 21.8972C266.476 21.3572 267.516 21.0872 268.676 21.0872C269.856 21.0872 270.826 21.3172 271.586 21.7772C272.346 22.2172 272.916 22.8972 273.296 23.8172C273.676 24.7172 273.866 25.8672 273.866 27.2672V34.0772C273.866 34.8172 273.666 35.3872 273.266 35.7872C272.886 36.1872 272.326 36.3872 271.586 36.3872C270.866 36.3872 270.306 36.1872 269.906 35.7872C269.526 35.3872 269.336 34.8172 269.336 34.0772V27.4772C269.336 26.4572 269.146 25.7272 268.766 25.2872C268.406 24.8272 267.846 24.5972 267.086 24.5972C266.126 24.5972 265.356 24.8972 264.776 25.4972C264.216 26.0972 263.936 26.8972 263.936 27.8972V34.0772C263.936 35.6172 263.186 36.3872 261.686 36.3872ZM282.888 36.4472C282.008 36.4472 281.098 36.3672 280.158 36.2072C279.238 36.0472 278.398 35.7772 277.638 35.3972C277.238 35.1972 276.948 34.9472 276.768 34.6472C276.608 34.3272 276.538 34.0072 276.558 33.6872C276.578 33.3672 276.678 33.0772 276.858 32.8172C277.058 32.5572 277.308 32.3872 277.608 32.3072C277.928 32.2072 278.278 32.2372 278.658 32.3972C279.478 32.7372 280.228 32.9772 280.908 33.1172C281.588 33.2572 282.258 33.3272 282.918 33.3272C283.778 33.3272 284.398 33.1972 284.778 32.9372C285.178 32.6572 285.378 32.2972 285.378 31.8572C285.378 31.4572 285.248 31.1572 284.988 30.9572C284.728 30.7572 284.348 30.6172 283.848 30.5372L280.698 29.9672C279.458 29.7472 278.498 29.2972 277.818 28.6172C277.158 27.9172 276.828 27.0272 276.828 25.9472C276.828 24.9472 277.108 24.0872 277.668 23.3672C278.228 22.6272 278.998 22.0672 279.978 21.6872C280.978 21.2872 282.108 21.0872 283.368 21.0872C284.268 21.0872 285.098 21.1672 285.858 21.3272C286.618 21.4872 287.348 21.7472 288.048 22.1072C288.408 22.2872 288.658 22.5272 288.798 22.8272C288.958 23.1272 289.008 23.4372 288.948 23.7572C288.908 24.0772 288.788 24.3672 288.588 24.6272C288.388 24.8872 288.128 25.0572 287.808 25.1372C287.508 25.2172 287.158 25.1772 286.758 25.0172C286.118 24.7172 285.528 24.5072 284.988 24.3872C284.448 24.2472 283.928 24.1772 283.428 24.1772C282.528 24.1772 281.878 24.3272 281.478 24.6272C281.078 24.9072 280.878 25.2672 280.878 25.7072C280.878 26.0472 280.988 26.3372 281.208 26.5772C281.448 26.7972 281.808 26.9472 282.288 27.0272L285.438 27.5972C286.738 27.8172 287.728 28.2572 288.408 28.9172C289.088 29.5572 289.428 30.4372 289.428 31.5572C289.428 33.0772 288.828 34.2772 287.628 35.1572C286.448 36.0172 284.868 36.4472 282.888 36.4472ZM299.097 36.4472C297.717 36.4472 296.557 36.2172 295.617 35.7572C294.697 35.2972 294.007 34.6272 293.547 33.7472C293.107 32.8672 292.887 31.7572 292.887 30.4172V24.7772H291.627C291.067 24.7772 290.627 24.6272 290.307 24.3272C290.007 24.0272 289.857 23.6172 289.857 23.0972C289.857 22.5372 290.007 22.1172 290.307 21.8372C290.627 21.5372 291.067 21.3872 291.627 21.3872H292.887V19.1072C292.887 18.3472 293.087 17.7772 293.487 17.3972C293.887 16.9972 294.447 16.7972 295.167 16.7972C295.907 16.7972 296.467 16.9972 296.847 17.3972C297.227 17.7772 297.417 18.3472 297.417 19.1072V21.3872H300.267C300.827 21.3872 301.257 21.5372 301.557 21.8372C301.857 22.1172 302.007 22.5372 302.007 23.0972C302.007 23.6172 301.857 24.0272 301.557 24.3272C301.257 24.6272 300.827 24.7772 300.267 24.7772H297.417V30.2372C297.417 31.0772 297.607 31.7072 297.987 32.1272C298.387 32.5472 299.017 32.7572 299.877 32.7572C300.177 32.7572 300.457 32.7272 300.717 32.6672C300.977 32.6072 301.217 32.5672 301.437 32.5472C301.717 32.5272 301.947 32.6172 302.127 32.8172C302.307 32.9972 302.397 33.4072 302.397 34.0472C302.397 34.5272 302.317 34.9472 302.157 35.3072C301.997 35.6672 301.717 35.9272 301.317 36.0872C301.057 36.1872 300.697 36.2672 300.237 36.3272C299.797 36.4072 299.417 36.4472 299.097 36.4472ZM306.336 36.3872C305.576 36.3872 304.996 36.1872 304.596 35.7872C304.196 35.3872 303.996 34.8172 303.996 34.0772V23.4272C303.996 22.6872 304.186 22.1272 304.566 21.7472C304.966 21.3472 305.516 21.1472 306.216 21.1472C306.936 21.1472 307.486 21.3472 307.866 21.7472C308.246 22.1272 308.436 22.6872 308.436 23.4272V24.9872H308.136C308.376 23.7872 308.906 22.8572 309.726 22.1972C310.546 21.5372 311.606 21.1672 312.906 21.0872C313.406 21.0472 313.786 21.1772 314.046 21.4772C314.326 21.7572 314.476 22.2272 314.496 22.8872C314.536 23.5072 314.406 23.9972 314.106 24.3572C313.826 24.7172 313.346 24.9372 312.666 25.0172L311.976 25.0772C310.836 25.1772 309.986 25.5072 309.426 26.0672C308.886 26.6272 308.616 27.4372 308.616 28.4972V34.0772C308.616 34.8172 308.416 35.3872 308.016 35.7872C307.636 36.1872 307.076 36.3872 306.336 36.3872Z" fill="white"/>
<defs>
<linearGradient id="paint0_linear_700_2521" x1="22.5455" y1="5.64587" x2="4.56765" y2="49.4718" gradientUnits="userSpaceOnUse">
<stop stop-color="#252525"/>
<stop offset="1" stop-color="#B0B0B0"/>
</linearGradient>
<linearGradient id="paint1_linear_700_2521" x1="65.2122" y1="7.5809" x2="76.6929" y2="50.3045" gradientUnits="userSpaceOnUse">
<stop stop-color="#252525"/>
<stop offset="1" stop-color="#B0B0B0"/>
</linearGradient>
</defs>
</svg>
