<svg width="34" height="35" viewBox="0 0 34 35" fill="none" xmlns="http://www.w3.org/2000/svg">
<path d="M6.04391 22.1353C6.03925 22.2819 6.04594 22.4311 6.06478 22.5818L6.67141 27.4348C6.90674 29.3175 8.50717 30.7304 10.4045 30.7304C12.4823 30.7304 14.1667 29.046 14.1667 26.9682V22.6308C13.2401 22.4057 12.2908 22.2741 11.3333 22.2396V26.9682C11.3333 27.4812 10.9175 27.897 10.4045 27.897C9.93609 27.897 9.54096 27.5482 9.48286 27.0834L8.87623 22.2304C12.3852 22.2304 8.84893 22.2303 7.08319 22.2303C6.72819 22.2303 6.38082 22.1977 6.04391 22.1353Z" fill="#C4C2FF"/>
<path fill-rule="evenodd" clip-rule="evenodd" d="M10.8222 13.7302H7.08317C5.51836 13.7302 4.24984 14.9988 4.24984 16.5636C4.24984 18.1284 5.51836 19.3969 7.08317 19.3969H10.8222C13.4614 19.3969 16.0643 20.0114 18.4248 21.1916L26.2829 25.1207C27.2249 25.5917 28.3332 24.9067 28.3332 23.8536V9.27355C28.3332 8.22042 27.2249 7.53547 26.283 8.00644L18.4248 11.9355C16.0643 13.1158 13.4614 13.7302 10.8222 13.7302ZM7.08317 10.8969C3.95356 10.8969 1.4165 13.434 1.4165 16.5636C1.4165 19.6932 3.95356 22.2302 7.08317 22.2302H10.8222C13.0215 22.2302 15.1906 22.7423 17.1577 23.7259L25.0158 27.6549C27.8417 29.0678 31.1665 27.013 31.1665 23.8536V9.27355C31.1665 6.11418 27.8417 4.05932 25.0158 5.47223L17.1577 9.40129C15.1906 10.3849 13.0215 10.8969 10.8222 10.8969H7.08317Z" fill="#C4C2FF"/>
<path d="M15.5833 23.0545C14.665 22.7268 13.7155 22.4949 12.75 22.3623V10.7655C13.7155 10.6328 14.665 10.4009 15.5833 10.0732V23.0545Z" fill="#C4C2FF"/>
<path d="M31.1665 19.2764C31.9918 18.9847 32.5832 18.1976 32.5832 17.2723V15.8556C32.5832 14.9304 31.9918 14.1433 31.1665 13.8516V19.2764Z" fill="#C4C2FF"/>
</svg>
