<svg width="33" height="33" viewBox="0 0 33 33" fill="none" xmlns="http://www.w3.org/2000/svg">
<path d="M10.625 10.7432H21.625" stroke="#279B41" stroke-width="2" stroke-linecap="round" stroke-linejoin="round"/>
<path d="M10.625 16.2432H21.625" stroke="#279B41" stroke-width="2" stroke-linecap="round" stroke-linejoin="round"/>
<path d="M10.625 21.7432H16.125" stroke="#279B41" stroke-width="2" stroke-linecap="round" stroke-linejoin="round"/>
<path d="M21.0578 31.3682H2.375C2.01033 31.3682 1.66059 31.2233 1.40273 30.9654C1.14487 30.7076 1 30.3578 1 29.9932V2.49316C1 2.12849 1.14487 1.77875 1.40273 1.52089C1.66059 1.26303 2.01033 1.11816 2.375 1.11816H29.875C30.2397 1.11816 30.5894 1.26303 30.8473 1.52089C31.1051 1.77875 31.25 2.12849 31.25 2.49316V21.176C31.2506 21.3545 31.216 21.5314 31.1482 21.6966C31.0804 21.8618 30.9806 22.0119 30.8547 22.1385L22.0203 30.9728C21.8937 31.0988 21.7436 31.1985 21.5784 31.2664C21.4133 31.3342 21.2364 31.3688 21.0578 31.3682V31.3682Z" stroke="#279B41" stroke-width="2" stroke-linecap="round" stroke-linejoin="round"/>
<path d="M31.1297 21.7432H21.625V31.2479" stroke="#279B41" stroke-width="2" stroke-linecap="round" stroke-linejoin="round"/>
</svg>
