<svg width="36" height="33" viewBox="0 0 36 33" fill="none" xmlns="http://www.w3.org/2000/svg">
<path d="M12.9721 12.4857C16.0964 12.4857 18.6292 9.95288 18.6292 6.82853C18.6292 3.70418 16.0964 1.17139 12.9721 1.17139C9.84773 1.17139 7.31494 3.70418 7.31494 6.82853C7.31494 9.95288 9.84773 12.4857 12.9721 12.4857Z" stroke="#C4C2FF" stroke-width="2" stroke-linecap="round" stroke-linejoin="round"/>
<path d="M24.2863 31.3427H1.65771V28.8284C1.65771 25.8277 2.84975 22.9499 4.97159 20.828C7.09343 18.7062 9.97126 17.5142 12.972 17.5142C15.9727 17.5142 18.8506 18.7062 20.9724 20.828C23.0942 22.9499 24.2863 25.8277 24.2863 28.8284V31.3427Z" stroke="#C4C2FF" stroke-width="2" stroke-linecap="round" stroke-linejoin="round"/>
<path d="M23.0293 1.17139C24.5297 1.17139 25.9686 1.76741 27.0295 2.82833C28.0904 3.88925 28.6864 5.32816 28.6864 6.82853C28.6864 8.3289 28.0904 9.76781 27.0295 10.8287C25.9686 11.8897 24.5297 12.4857 23.0293 12.4857" stroke="#C4C2FF" stroke-width="2" stroke-linecap="round" stroke-linejoin="round"/>
<path d="M27.0518 17.9922C29.1935 18.8069 31.0374 20.2528 32.3394 22.1385C33.6414 24.0241 34.3402 26.2607 34.3432 28.5522V31.343H30.5718" stroke="#C4C2FF" stroke-width="2" stroke-linecap="round" stroke-linejoin="round"/>
</svg>
