<svg width="30" height="30" viewBox="0 0 30 30" fill="none" xmlns="http://www.w3.org/2000/svg">
<path fill-rule="evenodd" clip-rule="evenodd" d="M15 25C20.5228 25 25 20.5228 25 15C25 9.47715 20.5228 5 15 5C9.47715 5 5 9.47715 5 15C5 20.5228 9.47715 25 15 25ZM15 27.5C21.9036 27.5 27.5 21.9036 27.5 15C27.5 8.09644 21.9036 2.5 15 2.5C8.09644 2.5 2.5 8.09644 2.5 15C2.5 21.9036 8.09644 27.5 15 27.5Z" fill="#C556D7"/>
<path fill-rule="evenodd" clip-rule="evenodd" d="M15 7.5C15.6904 7.5 16.25 8.05964 16.25 8.75V14.4822L19.0089 17.2411C19.497 17.7293 19.497 18.5207 19.0089 19.0089C18.5207 19.497 17.7293 19.497 17.2411 19.0089L14.1161 15.8839C13.8817 15.6495 13.75 15.3315 13.75 15V8.75C13.75 8.05964 14.3096 7.5 15 7.5Z" fill="#C556D7"/>
</svg>
