<svg width="35" height="34" viewBox="0 0 35 34" fill="none" xmlns="http://www.w3.org/2000/svg">
<path d="M18.9713 2.86381L22.8328 10.6595C22.9206 10.8574 23.0588 11.0288 23.2335 11.1566C23.4082 11.2845 23.6133 11.3643 23.8285 11.3881L32.3528 12.651C32.5996 12.6827 32.8323 12.784 33.0237 12.943C33.2151 13.102 33.3573 13.3122 33.4337 13.5491C33.5101 13.7859 33.5175 14.0396 33.4551 14.2805C33.3927 14.5214 33.2631 14.7396 33.0813 14.9095L26.9371 21.0052C26.7803 21.1518 26.6626 21.3351 26.5947 21.5387C26.5268 21.7423 26.5109 21.9597 26.5485 22.171L28.0299 30.7438C28.0728 30.9901 28.0457 31.2436 27.9517 31.4753C27.8576 31.7069 27.7005 31.9076 27.498 32.0544C27.2956 32.2011 27.056 32.2881 26.8066 32.3054C26.5571 32.3228 26.3078 32.2697 26.0871 32.1524L18.4128 28.0967C18.2163 28.0002 18.0003 27.95 17.7813 27.95C17.5624 27.95 17.3464 28.0002 17.1499 28.0967L9.47563 32.1524C9.25485 32.2697 9.00555 32.3228 8.75611 32.3054C8.50667 32.2881 8.26711 32.2011 8.06467 32.0544C7.86223 31.9076 7.70506 31.7069 7.61103 31.4753C7.517 31.2436 7.48988 30.9901 7.53278 30.7438L9.01421 22.0738C9.05175 21.8625 9.03587 21.6452 8.96801 21.4416C8.90014 21.238 8.78245 21.0546 8.62563 20.9081L2.40849 14.9095C2.22456 14.7349 2.0952 14.5107 2.0361 14.264C1.977 14.0174 1.99069 13.7589 2.0755 13.5199C2.16032 13.2809 2.31262 13.0716 2.51397 12.9173C2.71531 12.7631 2.95706 12.6706 3.20992 12.651L11.7342 11.3881C11.9494 11.3643 12.1545 11.2845 12.3292 11.1566C12.5039 11.0288 12.6421 10.8574 12.7299 10.6595L16.5913 2.86381C16.6965 2.63676 16.8644 2.44453 17.0753 2.30982C17.2861 2.1751 17.5311 2.10352 17.7813 2.10352C18.0316 2.10352 18.2766 2.1751 18.4874 2.30982C18.6983 2.44453 18.8662 2.63676 18.9713 2.86381V2.86381Z" stroke="#C556D7" stroke-width="2.5" stroke-linecap="round" stroke-linejoin="round"/>
</svg>
