<svg width="34" height="34" viewBox="0 0 34 34" fill="none" xmlns="http://www.w3.org/2000/svg">
<path d="M18.1428 16.7569C17.7826 16.9133 17.3941 16.994 17.0014 16.994C16.6086 16.994 16.2201 16.9133 15.8599 16.7569L2.01707 10.3454C1.79228 10.2321 1.60338 10.0585 1.4714 9.84411C1.33941 9.62972 1.26953 9.3829 1.26953 9.13114C1.26953 8.87938 1.33941 8.63256 1.4714 8.41817C1.60338 8.20378 1.79228 8.03023 2.01707 7.91686L15.8599 1.45686C16.2201 1.30044 16.6086 1.21973 17.0014 1.21973C17.3941 1.21973 17.7826 1.30044 18.1428 1.45686L31.9856 7.86828C32.2104 7.98166 32.3993 8.15521 32.5313 8.3696C32.6633 8.58399 32.7332 8.83081 32.7332 9.08257C32.7332 9.33433 32.6633 9.58115 32.5313 9.79554C32.3993 10.0099 32.2104 10.1835 31.9856 10.2969L18.1428 16.7569Z" stroke="#C4C2FF" stroke-width="2" stroke-linecap="round" stroke-linejoin="round"/>
<path d="M32.7872 17.8496L17.973 24.6739C17.6566 24.8182 17.3129 24.8929 16.9651 24.8929C16.6173 24.8929 16.2736 24.8182 15.9572 24.6739L1.21582 17.8496" stroke="#C4C2FF" stroke-width="2" stroke-linecap="round" stroke-linejoin="round"/>
<path d="M32.7872 25.7427L17.973 32.567C17.6566 32.7113 17.3129 32.786 16.9651 32.786C16.6173 32.786 16.2736 32.7113 15.9572 32.567L1.21582 25.7427" stroke="#C4C2FF" stroke-width="2" stroke-linecap="round" stroke-linejoin="round"/>
</svg>
