<svg width="35" height="32" viewBox="0 0 35 32" fill="none" xmlns="http://www.w3.org/2000/svg">
<path d="M8.49609 13.4369L14.8824 3.22886C15.1299 2.82539 15.4777 2.4929 15.8918 2.26377C16.306 2.03465 16.7725 1.91671 17.2458 1.92143V1.92143C17.6186 1.90798 17.9903 1.96939 18.3389 2.10203C18.6875 2.23467 19.006 2.43585 19.2756 2.69368C19.5451 2.95152 19.7603 3.26077 19.9083 3.60317C20.0563 3.94556 20.1341 4.31415 20.1372 4.68715V12.0037H31.175C31.5828 12.0169 31.9832 12.1164 32.3499 12.2954C32.7166 12.4745 33.0412 12.7291 33.3025 13.0426C33.5637 13.3561 33.7556 13.7213 33.8656 14.1143C33.9756 14.5072 34.0012 14.919 33.9407 15.3226L31.9292 28.2963C31.8434 28.9896 31.5074 29.6278 30.9842 30.0908C30.461 30.5538 29.7867 30.8097 29.0881 30.8106H12.5944C11.8092 30.8137 11.0342 30.6328 10.3315 30.2826L8.52124 29.3774" stroke="#B4962B" stroke-width="2" stroke-linecap="round" stroke-linejoin="round"/>
<path d="M8.49609 13.4369V29.302" stroke="#B4962B" stroke-width="2" stroke-linecap="round" stroke-linejoin="round"/>
<path d="M2.53742 13.4369H8.49627V29.302H2.53742C2.204 29.302 1.88424 29.1696 1.64848 28.9338C1.41272 28.698 1.28027 28.3783 1.28027 28.0449V14.694C1.28027 14.3606 1.41272 14.0408 1.64848 13.8051C1.88424 13.5693 2.204 13.4369 2.53742 13.4369V13.4369Z" stroke="#B4962B" stroke-width="2" stroke-linecap="round" stroke-linejoin="round"/>
</svg>
