<svg width="32" height="32" viewBox="0 0 32 32" fill="none" xmlns="http://www.w3.org/2000/svg">
<path fill-rule="evenodd" clip-rule="evenodd" d="M23.3335 20C22.7306 20 21.8787 20.0833 20.9919 20.2048C20.5776 20.2615 20.2617 20.5774 20.205 20.9917C20.0835 21.8785 20.0002 22.7304 20.0002 23.3333C20.0002 23.9362 20.0835 24.7881 20.205 25.6749C20.2617 26.0892 20.5776 26.4051 20.9919 26.4619C21.8787 26.5833 22.7306 26.6666 23.3335 26.6666C23.9364 26.6666 24.7883 26.5833 25.6751 26.4619C26.0894 26.4051 26.4053 26.0892 26.462 25.6749C26.5835 24.7881 26.6668 23.9362 26.6668 23.3333C26.6668 22.7304 26.5835 21.8785 26.462 20.9917C26.4053 20.5774 26.0894 20.2615 25.6751 20.2048C24.7883 20.0833 23.9364 20 23.3335 20ZM20.6301 17.5628C19.0302 17.7819 17.7821 19.03 17.563 20.6299C17.4373 21.5475 17.3335 22.5442 17.3335 23.3333C17.3335 24.1224 17.4373 25.1191 17.563 26.0367C17.7821 27.6366 19.0302 28.8847 20.6301 29.1039C21.5477 29.2295 22.5444 29.3333 23.3335 29.3333C24.1226 29.3333 25.1193 29.2295 26.0369 29.1039C27.6368 28.8847 28.8849 27.6366 29.104 26.0367C29.2297 25.1191 29.3335 24.1224 29.3335 23.3333C29.3335 22.5442 29.2297 21.5475 29.104 20.6299C28.8849 19.03 27.6368 17.7819 26.0369 17.5628C25.1193 17.4371 24.1226 17.3333 23.3335 17.3333C22.5444 17.3333 21.5477 17.4371 20.6301 17.5628Z" fill="#C4C2FF"/>
<path fill-rule="evenodd" clip-rule="evenodd" d="M8.6665 20C8.0636 20 7.21174 20.0833 6.32492 20.2048C5.91062 20.2615 5.5947 20.5774 5.53796 20.9917C5.41651 21.8785 5.33317 22.7304 5.33317 23.3333C5.33317 23.9362 5.41651 24.7881 5.53796 25.6749C5.5947 26.0892 5.91062 26.4051 6.32492 26.4619C7.21174 26.5833 8.0636 26.6666 8.6665 26.6666C9.26941 26.6666 10.1213 26.5833 11.0081 26.4619C11.4224 26.4051 11.7383 26.0892 11.795 25.6749C11.9165 24.7881 11.9998 23.9362 11.9998 23.3333C11.9998 22.7304 11.9165 21.8785 11.795 20.9917C11.7383 20.5774 11.4224 20.2615 11.0081 20.2048C10.1213 20.0833 9.26941 20 8.6665 20ZM5.96309 17.5628C4.36322 17.7819 3.11507 19.03 2.89596 20.6299C2.77029 21.5475 2.6665 22.5442 2.6665 23.3333C2.6665 24.1224 2.77029 25.1191 2.89596 26.0367C3.11507 27.6366 4.36322 28.8847 5.96309 29.1039C6.8807 29.2295 7.87739 29.3333 8.6665 29.3333C9.45562 29.3333 10.4523 29.2295 11.3699 29.1039C12.9698 28.8847 14.2179 27.6366 14.437 26.0367C14.5627 25.1191 14.6665 24.1224 14.6665 23.3333C14.6665 22.5442 14.5627 21.5475 14.437 20.6299C14.2179 19.03 12.9698 17.7819 11.3699 17.5628C10.4523 17.4371 9.45562 17.3333 8.6665 17.3333C7.87739 17.3333 6.8807 17.4371 5.96309 17.5628Z" fill="#C4C2FF"/>
<path fill-rule="evenodd" clip-rule="evenodd" d="M23.3335 5.33335C22.7306 5.33335 21.8787 5.41669 20.9919 5.53815C20.5776 5.59489 20.2617 5.9108 20.205 6.3251C20.0835 7.21192 20.0002 8.06378 20.0002 8.66669C20.0002 9.2696 20.0835 10.1215 20.205 11.0083C20.2617 11.4226 20.5776 11.7385 20.9919 11.7952C21.8787 11.9167 22.7306 12 23.3335 12C23.9364 12 24.7883 11.9167 25.6751 11.7952C26.0894 11.7385 26.4053 11.4226 26.462 11.0083C26.5835 10.1215 26.6668 9.2696 26.6668 8.66669C26.6668 8.06378 26.5835 7.21192 26.462 6.3251C26.4053 5.9108 26.0894 5.59489 25.6751 5.53815C24.7883 5.41669 23.9364 5.33335 23.3335 5.33335ZM20.6301 2.89614C19.0302 3.11525 17.7821 4.3634 17.563 5.96327C17.4373 6.88088 17.3335 7.87757 17.3335 8.66669C17.3335 9.45581 17.4373 10.4525 17.563 11.3701C17.7821 12.97 19.0302 14.2181 20.6301 14.4372C21.5477 14.5629 22.5444 14.6667 23.3335 14.6667C24.1226 14.6667 25.1193 14.5629 26.0369 14.4372C27.6368 14.2181 28.8849 12.97 29.104 11.3701C29.2297 10.4525 29.3335 9.45581 29.3335 8.66669C29.3335 7.87757 29.2297 6.88088 29.104 5.96327C28.8849 4.3634 27.6368 3.11525 26.0369 2.89614C25.1193 2.77047 24.1226 2.66669 23.3335 2.66669C22.5444 2.66669 21.5477 2.77047 20.6301 2.89614Z" fill="#C4C2FF"/>
<path fill-rule="evenodd" clip-rule="evenodd" d="M8.6665 5.33335C8.0636 5.33335 7.21174 5.41669 6.32492 5.53815C5.91062 5.59489 5.5947 5.9108 5.53796 6.3251C5.41651 7.21192 5.33317 8.06378 5.33317 8.66669C5.33317 9.2696 5.41651 10.1215 5.53796 11.0083C5.5947 11.4226 5.91062 11.7385 6.32492 11.7952C7.21174 11.9167 8.0636 12 8.6665 12C9.26941 12 10.1213 11.9167 11.0081 11.7952C11.4224 11.7385 11.7383 11.4226 11.795 11.0083C11.9165 10.1215 11.9998 9.2696 11.9998 8.66669C11.9998 8.06378 11.9165 7.21192 11.795 6.3251C11.7383 5.9108 11.4224 5.59489 11.0081 5.53815C10.1213 5.41669 9.26941 5.33335 8.6665 5.33335ZM5.96309 2.89614C4.36322 3.11525 3.11507 4.3634 2.89596 5.96327C2.77029 6.88088 2.6665 7.87757 2.6665 8.66669C2.6665 9.45581 2.77029 10.4525 2.89596 11.3701C3.11507 12.97 4.36322 14.2181 5.96309 14.4372C6.8807 14.5629 7.87739 14.6667 8.6665 14.6667C9.45562 14.6667 10.4523 14.5629 11.3699 14.4372C12.9698 14.2181 14.2179 12.97 14.437 11.3701C14.5627 10.4525 14.6665 9.45581 14.6665 8.66669C14.6665 7.87757 14.5627 6.88088 14.437 5.96327C14.2179 4.3634 12.9698 3.11525 11.3699 2.89614C10.4523 2.77047 9.45562 2.66669 8.6665 2.66669C7.87739 2.66669 6.8807 2.77047 5.96309 2.89614Z" fill="#C4C2FF"/>
</svg>
