<svg width="25" height="38" viewBox="0 0 25 38" fill="none" xmlns="http://www.w3.org/2000/svg">
<path d="M16.1094 17.6429H13.4427V6.78571H14.776C16.1892 6.79019 17.5432 7.36356 18.5424 8.38065C19.5417 9.39773 20.105 10.7759 20.1094 12.2143C20.1094 12.5742 20.2499 12.9194 20.4999 13.1739C20.7499 13.4284 21.0891 13.5714 21.4427 13.5714C21.7963 13.5714 22.1355 13.4284 22.3855 13.1739C22.6356 12.9194 22.776 12.5742 22.776 12.2143C22.776 10.0547 21.9332 7.9835 20.4329 6.45642C18.9326 4.92933 16.8978 4.07143 14.776 4.07143H13.4427V1.35714C13.4427 0.997206 13.3022 0.652012 13.0522 0.397498C12.8021 0.142984 12.463 0 12.1094 0C11.7558 0 11.4166 0.142984 11.1666 0.397498C10.9165 0.652012 10.776 0.997206 10.776 1.35714V4.07143H8.77604C6.65431 4.07143 4.61948 4.92933 3.11919 6.45642C1.6189 7.9835 0.776042 10.0547 0.776042 12.2143C0.776042 14.3739 1.6189 16.4451 3.11919 17.9722C4.61948 19.4992 6.65431 20.3571 8.77604 20.3571H10.776V31.2143H8.10938C6.69624 31.2098 5.34224 30.6364 4.34299 29.6194C3.34375 28.6023 2.78044 27.2241 2.77604 25.7857C2.77604 25.4258 2.63557 25.0806 2.38552 24.8261C2.13547 24.5716 1.79633 24.4286 1.44271 24.4286C1.08909 24.4286 0.749948 24.5716 0.4999 24.8261C0.249851 25.0806 0.109375 25.4258 0.109375 25.7857C0.109375 27.9453 0.95223 30.0165 2.45252 31.5436C3.95281 33.0707 5.98764 33.9286 8.10938 33.9286H10.776V36.6429C10.776 37.0028 10.9165 37.348 11.1666 37.6025C11.4166 37.857 11.7558 38 12.1094 38C12.463 38 12.8021 37.857 13.0522 37.6025C13.3022 37.348 13.4427 37.0028 13.4427 36.6429V33.9286H16.1094C18.2311 33.9286 20.2659 33.0707 21.7662 31.5436C23.2665 30.0165 24.1094 27.9453 24.1094 25.7857C24.1094 23.6261 23.2665 21.5549 21.7662 20.0278C20.2659 18.5008 18.2311 17.6429 16.1094 17.6429ZM10.776 17.6429H8.77604C7.36155 17.6429 6.005 17.0709 5.00481 16.0529C4.00461 15.0348 3.44271 13.654 3.44271 12.2143C3.44271 10.7745 4.00461 9.39376 5.00481 8.37571C6.005 7.35765 7.36155 6.78571 8.77604 6.78571H10.776V17.6429ZM16.1094 31.2143H13.4427V20.3571H16.1094C17.5239 20.3571 18.8804 20.9291 19.8806 21.9471C20.8808 22.9652 21.4427 24.346 21.4427 25.7857C21.4427 27.2255 20.8808 28.6062 19.8806 29.6243C18.8804 30.6423 17.5239 31.2143 16.1094 31.2143Z" fill="#B4962B"/>
</svg>
