<svg width="46" height="46" viewBox="0 0 46 46" fill="none" xmlns="http://www.w3.org/2000/svg">
<path d="M38.9643 6.82129H42.1786C42.6048 6.82129 43.0136 6.99061 43.315 7.29201C43.6164 7.59341 43.7857 8.00219 43.7857 8.42843V34.1427C43.7857 34.569 43.6164 34.9777 43.315 35.2791C43.0136 35.5805 42.6048 35.7499 42.1786 35.7499H3.60714C3.1809 35.7499 2.77212 35.5805 2.47072 35.2791C2.16932 34.9777 2 34.569 2 34.1427V8.42843C2 8.00219 2.16932 7.59341 2.47072 7.29201C2.77212 6.99061 3.1809 6.82129 3.60714 6.82129H6.82143" stroke="#722AAB" stroke-width="2.5" stroke-linecap="round" stroke-linejoin="round"/>
<path d="M19.6786 35.75L16.4644 43.7857" stroke="#722AAB" stroke-width="2.5" stroke-linecap="round" stroke-linejoin="round"/>
<path d="M26.1069 35.75L29.3212 43.7857" stroke="#722AAB" stroke-width="2.5" stroke-linecap="round" stroke-linejoin="round"/>
<path d="M13.25 43.7856H32.5357" stroke="#722AAB" stroke-width="2.5" stroke-linecap="round" stroke-linejoin="round"/>
<path d="M16.4644 8.42857C16.4644 7.15712 16.8414 5.91422 17.5478 4.85705C18.2541 3.79988 19.2582 2.97591 20.4328 2.48935C21.6075 2.00279 22.9001 1.87548 24.1471 2.12353C25.3941 2.37157 26.5396 2.98384 27.4386 3.88289C28.3377 4.78194 28.9499 5.9274 29.198 7.17442C29.446 8.42144 29.3187 9.71401 28.8322 10.8887C28.3456 12.0634 27.5216 13.0674 26.4644 13.7737C25.4073 14.4801 24.1644 14.8571 22.8929 14.8571V18.0714" stroke="#722AAB" stroke-width="2.5" stroke-linecap="round" stroke-linejoin="round"/>
<path d="M22.8929 27.7141C22.4491 27.7141 22.0894 27.3543 22.0894 26.9105C22.0894 26.4667 22.4491 26.1069 22.8929 26.1069" stroke="#722AAB" stroke-width="2.5" stroke-linecap="round" stroke-linejoin="round"/>
<path d="M22.8931 27.7141C23.3369 27.7141 23.6966 27.3543 23.6966 26.9105C23.6966 26.4667 23.3369 26.1069 22.8931 26.1069" stroke="#722AAB" stroke-width="2.5" stroke-linecap="round" stroke-linejoin="round"/>
</svg>
