<svg width="315" height="52" viewBox="0 0 315 52" fill="none" xmlns="http://www.w3.org/2000/svg">
<path d="M16.2423 51.5986H0.121094C0.121094 51.5986 17.8181 2.53356 21.5756 1.56606C25.3332 0.598553 31.515 0.598518 34.5453 1.56606C37.5756 2.5336 42.4241 26.9969 42.4241 26.9969C42.4241 26.9969 50.4241 2.80999 54.1817 1.56606C57.9393 0.322126 65.3332 0.37106 67.8787 1.56606C70.4241 2.76105 79.9999 51.5986 79.9999 51.5986H64.8484L58.909 26.1677L48.4847 51.5986H32.7272L26.5453 26.1677L16.2423 51.5986Z" fill="#292930"/>
<path d="M26.5455 26.359C26.5455 26.359 22.303 3.96873 21.5758 1.61914C17.4545 2.86298 0 51.6516 0 51.6516H16.2424L26.5455 26.359Z" fill="url(#paint0_linear_700_2438)"/>
<path d="M58.9092 26.0826C58.9092 26.0826 66.788 2.86299 68.0001 1.61914C70.4243 3.13947 80.0001 51.6517 80.0001 51.6517H64.8486L58.9092 26.0826Z" fill="url(#paint1_linear_700_2438)"/>
<path d="M109.29 36.4214C108.61 36.4214 108.09 36.2314 107.73 35.8514C107.37 35.4714 107.19 34.9414 107.19 34.2614V16.8914C107.19 16.2114 107.38 15.6814 107.76 15.3014C108.16 14.9214 108.7 14.7314 109.38 14.7314C109.98 14.7314 110.45 14.8514 110.79 15.0914C111.15 15.3114 111.48 15.7014 111.78 16.2614L118.71 28.9214H117.69L124.62 16.2614C124.92 15.7014 125.24 15.3114 125.58 15.0914C125.94 14.8514 126.41 14.7314 126.99 14.7314C127.67 14.7314 128.19 14.9214 128.55 15.3014C128.93 15.6814 129.12 16.2114 129.12 16.8914V34.2614C129.12 34.9414 128.94 35.4714 128.58 35.8514C128.22 36.2314 127.7 36.4214 127.02 36.4214C126.34 36.4214 125.81 36.2314 125.43 35.8514C125.07 35.4714 124.89 34.9414 124.89 34.2614V22.1114H125.55L119.97 32.1014C119.73 32.4814 119.47 32.7714 119.19 32.9714C118.93 33.1514 118.58 33.2414 118.14 33.2414C117.7 33.2414 117.34 33.1414 117.06 32.9414C116.78 32.7414 116.53 32.4614 116.31 32.1014L110.67 22.0814H111.39V34.2614C111.39 34.9414 111.21 35.4714 110.85 35.8514C110.51 36.2314 109.99 36.4214 109.29 36.4214ZM137.999 36.4814C136.919 36.4814 135.949 36.2714 135.089 35.8514C134.229 35.4314 133.559 34.8614 133.079 34.1414C132.599 33.4214 132.359 32.6114 132.359 31.7114C132.359 30.6314 132.639 29.7814 133.199 29.1614C133.759 28.5214 134.669 28.0714 135.929 27.8114C137.189 27.5314 138.859 27.3914 140.939 27.3914H142.529V29.7314H140.969C139.949 29.7314 139.119 29.7914 138.479 29.9114C137.859 30.0114 137.409 30.1914 137.129 30.4514C136.869 30.7114 136.739 31.0714 136.739 31.5314C136.739 32.0914 136.929 32.5514 137.309 32.9114C137.709 33.2714 138.279 33.4514 139.019 33.4514C139.599 33.4514 140.109 33.3214 140.549 33.0614C141.009 32.7814 141.369 32.4114 141.629 31.9514C141.889 31.4714 142.019 30.9314 142.019 30.3314V26.8814C142.019 26.0014 141.819 25.3814 141.419 25.0214C141.019 24.6414 140.339 24.4514 139.379 24.4514C138.839 24.4514 138.249 24.5214 137.609 24.6614C136.989 24.7814 136.299 24.9914 135.539 25.2914C135.099 25.4914 134.709 25.5414 134.369 25.4414C134.029 25.3214 133.769 25.1214 133.589 24.8414C133.409 24.5414 133.319 24.2214 133.319 23.8814C133.319 23.5214 133.419 23.1814 133.619 22.8614C133.819 22.5214 134.149 22.2714 134.609 22.1114C135.549 21.7314 136.429 21.4714 137.249 21.3314C138.089 21.1914 138.859 21.1214 139.559 21.1214C141.099 21.1214 142.359 21.3514 143.339 21.8114C144.339 22.2514 145.089 22.9414 145.589 23.8814C146.089 24.8014 146.339 25.9914 146.339 27.4514V34.1114C146.339 34.8514 146.159 35.4214 145.799 35.8214C145.439 36.2214 144.919 36.4214 144.239 36.4214C143.559 36.4214 143.029 36.2214 142.649 35.8214C142.289 35.4214 142.109 34.8514 142.109 34.1114V33.0014L142.319 33.1814C142.199 33.8614 141.939 34.4514 141.539 34.9514C141.159 35.4314 140.669 35.8114 140.069 36.0914C139.469 36.3514 138.779 36.4814 137.999 36.4814ZM152.059 36.4214C151.299 36.4214 150.719 36.2214 150.319 35.8214C149.919 35.4214 149.719 34.8514 149.719 34.1114V23.4614C149.719 22.7214 149.909 22.1614 150.289 21.7814C150.689 21.3814 151.239 21.1814 151.939 21.1814C152.659 21.1814 153.209 21.3814 153.589 21.7814C153.969 22.1614 154.159 22.7214 154.159 23.4614V25.0214H153.859C154.099 23.8214 154.629 22.8914 155.449 22.2314C156.269 21.5714 157.329 21.2014 158.629 21.1214C159.129 21.0814 159.509 21.2114 159.769 21.5114C160.049 21.7914 160.199 22.2614 160.219 22.9214C160.259 23.5414 160.129 24.0314 159.829 24.3914C159.549 24.7514 159.069 24.9714 158.389 25.0514L157.699 25.1114C156.559 25.2114 155.709 25.5414 155.149 26.1014C154.609 26.6614 154.339 27.4714 154.339 28.5314V34.1114C154.339 34.8514 154.139 35.4214 153.739 35.8214C153.359 36.2214 152.799 36.4214 152.059 36.4214ZM164.362 36.4214C163.622 36.4214 163.052 36.2214 162.652 35.8214C162.272 35.4214 162.082 34.8514 162.082 34.1114V17.0414C162.082 16.2814 162.272 15.7114 162.652 15.3314C163.052 14.9314 163.622 14.7314 164.362 14.7314C165.082 14.7314 165.632 14.9314 166.012 15.3314C166.412 15.7114 166.612 16.2814 166.612 17.0414V27.5114H166.672L171.022 22.6814C171.462 22.1814 171.862 21.8114 172.222 21.5714C172.602 21.3114 173.102 21.1814 173.722 21.1814C174.342 21.1814 174.812 21.3414 175.132 21.6614C175.472 21.9814 175.642 22.3714 175.642 22.8314C175.662 23.2714 175.472 23.7214 175.072 24.1814L170.482 29.3114V27.6014L175.582 33.4814C175.962 33.9414 176.122 34.4014 176.062 34.8614C176.022 35.3214 175.822 35.7014 175.462 36.0014C175.102 36.2814 174.642 36.4214 174.082 36.4214C173.402 36.4214 172.852 36.2914 172.432 36.0314C172.032 35.7714 171.622 35.3714 171.202 34.8314L166.672 29.7914H166.612V34.1114C166.612 35.6514 165.862 36.4214 164.362 36.4214ZM186.226 36.4814C184.486 36.4814 182.986 36.1714 181.726 35.5514C180.486 34.9114 179.526 34.0214 178.846 32.8814C178.186 31.7214 177.856 30.3614 177.856 28.8014C177.856 27.2814 178.176 25.9514 178.816 24.8114C179.456 23.6514 180.346 22.7514 181.486 22.1114C182.646 21.4514 183.956 21.1214 185.416 21.1214C186.476 21.1214 187.436 21.3014 188.296 21.6614C189.156 22.0014 189.896 22.5014 190.516 23.1614C191.136 23.8014 191.606 24.5914 191.926 25.5314C192.246 26.4514 192.406 27.4814 192.406 28.6214C192.406 29.0014 192.286 29.2914 192.046 29.4914C191.806 29.6714 191.456 29.7614 190.996 29.7614H181.576V27.4214H189.136L188.656 27.8414C188.656 27.0214 188.536 26.3414 188.296 25.8014C188.056 25.2414 187.706 24.8214 187.246 24.5414C186.806 24.2614 186.256 24.1214 185.596 24.1214C184.856 24.1214 184.226 24.2914 183.706 24.6314C183.186 24.9714 182.786 25.4614 182.506 26.1014C182.226 26.7414 182.086 27.5114 182.086 28.4114V28.6514C182.086 30.1714 182.436 31.2914 183.136 32.0114C183.856 32.7314 184.916 33.0914 186.316 33.0914C186.796 33.0914 187.346 33.0314 187.966 32.9114C188.586 32.7914 189.166 32.6014 189.706 32.3414C190.166 32.1214 190.576 32.0514 190.936 32.1314C191.296 32.1914 191.576 32.3514 191.776 32.6114C191.976 32.8714 192.086 33.1714 192.106 33.5114C192.146 33.8514 192.076 34.1914 191.896 34.5314C191.716 34.8514 191.416 35.1214 190.996 35.3414C190.316 35.7214 189.546 36.0014 188.686 36.1814C187.846 36.3814 187.026 36.4814 186.226 36.4814ZM202.183 36.4814C200.803 36.4814 199.643 36.2514 198.703 35.7914C197.783 35.3314 197.093 34.6614 196.633 33.7814C196.193 32.9014 195.973 31.7914 195.973 30.4514V24.8114H194.713C194.153 24.8114 193.713 24.6614 193.393 24.3614C193.093 24.0614 192.943 23.6514 192.943 23.1314C192.943 22.5714 193.093 22.1514 193.393 21.8714C193.713 21.5714 194.153 21.4214 194.713 21.4214H195.973V19.1414C195.973 18.3814 196.173 17.8114 196.573 17.4314C196.973 17.0314 197.533 16.8314 198.253 16.8314C198.993 16.8314 199.553 17.0314 199.933 17.4314C200.313 17.8114 200.503 18.3814 200.503 19.1414V21.4214H203.353C203.913 21.4214 204.343 21.5714 204.643 21.8714C204.943 22.1514 205.093 22.5714 205.093 23.1314C205.093 23.6514 204.943 24.0614 204.643 24.3614C204.343 24.6614 203.913 24.8114 203.353 24.8114H200.503V30.2714C200.503 31.1114 200.693 31.7414 201.073 32.1614C201.473 32.5814 202.103 32.7914 202.963 32.7914C203.263 32.7914 203.543 32.7614 203.803 32.7014C204.063 32.6414 204.303 32.6014 204.523 32.5814C204.803 32.5614 205.033 32.6514 205.213 32.8514C205.393 33.0314 205.483 33.4414 205.483 34.0814C205.483 34.5614 205.403 34.9814 205.243 35.3414C205.083 35.7014 204.803 35.9614 204.403 36.1214C204.143 36.2214 203.783 36.3014 203.323 36.3614C202.883 36.4414 202.503 36.4814 202.183 36.4814ZM218.011 36.4214C217.331 36.4214 216.811 36.2314 216.451 35.8514C216.091 35.4714 215.911 34.9414 215.911 34.2614V16.8914C215.911 16.2114 216.101 15.6814 216.481 15.3014C216.881 14.9214 217.421 14.7314 218.101 14.7314C218.701 14.7314 219.171 14.8514 219.511 15.0914C219.871 15.3114 220.201 15.7014 220.501 16.2614L227.431 28.9214H226.411L233.341 16.2614C233.641 15.7014 233.961 15.3114 234.301 15.0914C234.661 14.8514 235.131 14.7314 235.711 14.7314C236.391 14.7314 236.911 14.9214 237.271 15.3014C237.651 15.6814 237.841 16.2114 237.841 16.8914V34.2614C237.841 34.9414 237.661 35.4714 237.301 35.8514C236.941 36.2314 236.421 36.4214 235.741 36.4214C235.061 36.4214 234.531 36.2314 234.151 35.8514C233.791 35.4714 233.611 34.9414 233.611 34.2614V22.1114H234.271L228.691 32.1014C228.451 32.4814 228.191 32.7714 227.911 32.9714C227.651 33.1514 227.301 33.2414 226.861 33.2414C226.421 33.2414 226.061 33.1414 225.781 32.9414C225.501 32.7414 225.251 32.4614 225.031 32.1014L219.391 22.0814H220.111V34.2614C220.111 34.9414 219.931 35.4714 219.571 35.8514C219.231 36.2314 218.711 36.4214 218.011 36.4214ZM248.82 36.4814C247.24 36.4814 245.86 36.1714 244.68 35.5514C243.52 34.9314 242.62 34.0414 241.98 32.8814C241.34 31.7214 241.02 30.3514 241.02 28.7714C241.02 27.5914 241.2 26.5314 241.56 25.5914C241.92 24.6514 242.44 23.8514 243.12 23.1914C243.82 22.5114 244.65 22.0014 245.61 21.6614C246.57 21.3014 247.64 21.1214 248.82 21.1214C250.4 21.1214 251.77 21.4314 252.93 22.0514C254.11 22.6714 255.02 23.5514 255.66 24.6914C256.32 25.8314 256.65 27.1914 256.65 28.7714C256.65 29.9714 256.46 31.0414 256.08 31.9814C255.72 32.9214 255.2 33.7314 254.52 34.4114C253.84 35.0914 253.01 35.6114 252.03 35.9714C251.07 36.3114 250 36.4814 248.82 36.4814ZM248.82 33.0914C249.48 33.0914 250.05 32.9314 250.53 32.6114C251.01 32.2914 251.39 31.8214 251.67 31.2014C251.95 30.5614 252.09 29.7514 252.09 28.7714C252.09 27.3114 251.79 26.2414 251.19 25.5614C250.59 24.8614 249.8 24.5114 248.82 24.5114C248.18 24.5114 247.61 24.6614 247.11 24.9614C246.63 25.2614 246.25 25.7314 245.97 26.3714C245.71 26.9914 245.58 27.7914 245.58 28.7714C245.58 30.2314 245.88 31.3214 246.48 32.0414C247.08 32.7414 247.86 33.0914 248.82 33.0914ZM261.686 36.4214C260.946 36.4214 260.376 36.2214 259.976 35.8214C259.596 35.4214 259.406 34.8514 259.406 34.1114V23.4614C259.406 22.7214 259.596 22.1614 259.976 21.7814C260.376 21.3814 260.926 21.1814 261.626 21.1814C262.346 21.1814 262.896 21.3814 263.276 21.7814C263.656 22.1614 263.846 22.7214 263.846 23.4614V25.1714L263.516 24.1814C263.976 23.2014 264.656 22.4514 265.556 21.9314C266.476 21.3914 267.516 21.1214 268.676 21.1214C269.856 21.1214 270.826 21.3514 271.586 21.8114C272.346 22.2514 272.916 22.9314 273.296 23.8514C273.676 24.7514 273.866 25.9014 273.866 27.3014V34.1114C273.866 34.8514 273.666 35.4214 273.266 35.8214C272.886 36.2214 272.326 36.4214 271.586 36.4214C270.866 36.4214 270.306 36.2214 269.906 35.8214C269.526 35.4214 269.336 34.8514 269.336 34.1114V27.5114C269.336 26.4914 269.146 25.7614 268.766 25.3214C268.406 24.8614 267.846 24.6314 267.086 24.6314C266.126 24.6314 265.356 24.9314 264.776 25.5314C264.216 26.1314 263.936 26.9314 263.936 27.9314V34.1114C263.936 35.6514 263.186 36.4214 261.686 36.4214ZM282.888 36.4814C282.008 36.4814 281.098 36.4014 280.158 36.2414C279.238 36.0814 278.398 35.8114 277.638 35.4314C277.238 35.2314 276.948 34.9814 276.768 34.6814C276.608 34.3614 276.538 34.0414 276.558 33.7214C276.578 33.4014 276.678 33.1114 276.858 32.8514C277.058 32.5914 277.308 32.4214 277.608 32.3414C277.928 32.2414 278.278 32.2714 278.658 32.4314C279.478 32.7714 280.228 33.0114 280.908 33.1514C281.588 33.2914 282.258 33.3614 282.918 33.3614C283.778 33.3614 284.398 33.2314 284.778 32.9714C285.178 32.6914 285.378 32.3314 285.378 31.8914C285.378 31.4914 285.248 31.1914 284.988 30.9914C284.728 30.7914 284.348 30.6514 283.848 30.5714L280.698 30.0014C279.458 29.7814 278.498 29.3314 277.818 28.6514C277.158 27.9514 276.828 27.0614 276.828 25.9814C276.828 24.9814 277.108 24.1214 277.668 23.4014C278.228 22.6614 278.998 22.1014 279.978 21.7214C280.978 21.3214 282.108 21.1214 283.368 21.1214C284.268 21.1214 285.098 21.2014 285.858 21.3614C286.618 21.5214 287.348 21.7814 288.048 22.1414C288.408 22.3214 288.658 22.5614 288.798 22.8614C288.958 23.1614 289.008 23.4714 288.948 23.7914C288.908 24.1114 288.788 24.4014 288.588 24.6614C288.388 24.9214 288.128 25.0914 287.808 25.1714C287.508 25.2514 287.158 25.2114 286.758 25.0514C286.118 24.7514 285.528 24.5414 284.988 24.4214C284.448 24.2814 283.928 24.2114 283.428 24.2114C282.528 24.2114 281.878 24.3614 281.478 24.6614C281.078 24.9414 280.878 25.3014 280.878 25.7414C280.878 26.0814 280.988 26.3714 281.208 26.6114C281.448 26.8314 281.808 26.9814 282.288 27.0614L285.438 27.6314C286.738 27.8514 287.728 28.2914 288.408 28.9514C289.088 29.5914 289.428 30.4714 289.428 31.5914C289.428 33.1114 288.828 34.3114 287.628 35.1914C286.448 36.0514 284.868 36.4814 282.888 36.4814ZM299.097 36.4814C297.717 36.4814 296.557 36.2514 295.617 35.7914C294.697 35.3314 294.007 34.6614 293.547 33.7814C293.107 32.9014 292.887 31.7914 292.887 30.4514V24.8114H291.627C291.067 24.8114 290.627 24.6614 290.307 24.3614C290.007 24.0614 289.857 23.6514 289.857 23.1314C289.857 22.5714 290.007 22.1514 290.307 21.8714C290.627 21.5714 291.067 21.4214 291.627 21.4214H292.887V19.1414C292.887 18.3814 293.087 17.8114 293.487 17.4314C293.887 17.0314 294.447 16.8314 295.167 16.8314C295.907 16.8314 296.467 17.0314 296.847 17.4314C297.227 17.8114 297.417 18.3814 297.417 19.1414V21.4214H300.267C300.827 21.4214 301.257 21.5714 301.557 21.8714C301.857 22.1514 302.007 22.5714 302.007 23.1314C302.007 23.6514 301.857 24.0614 301.557 24.3614C301.257 24.6614 300.827 24.8114 300.267 24.8114H297.417V30.2714C297.417 31.1114 297.607 31.7414 297.987 32.1614C298.387 32.5814 299.017 32.7914 299.877 32.7914C300.177 32.7914 300.457 32.7614 300.717 32.7014C300.977 32.6414 301.217 32.6014 301.437 32.5814C301.717 32.5614 301.947 32.6514 302.127 32.8514C302.307 33.0314 302.397 33.4414 302.397 34.0814C302.397 34.5614 302.317 34.9814 302.157 35.3414C301.997 35.7014 301.717 35.9614 301.317 36.1214C301.057 36.2214 300.697 36.3014 300.237 36.3614C299.797 36.4414 299.417 36.4814 299.097 36.4814ZM306.336 36.4214C305.576 36.4214 304.996 36.2214 304.596 35.8214C304.196 35.4214 303.996 34.8514 303.996 34.1114V23.4614C303.996 22.7214 304.186 22.1614 304.566 21.7814C304.966 21.3814 305.516 21.1814 306.216 21.1814C306.936 21.1814 307.486 21.3814 307.866 21.7814C308.246 22.1614 308.436 22.7214 308.436 23.4614V25.0214H308.136C308.376 23.8214 308.906 22.8914 309.726 22.2314C310.546 21.5714 311.606 21.2014 312.906 21.1214C313.406 21.0814 313.786 21.2114 314.046 21.5114C314.326 21.7914 314.476 22.2614 314.496 22.9214C314.536 23.5414 314.406 24.0314 314.106 24.3914C313.826 24.7514 313.346 24.9714 312.666 25.0514L311.976 25.1114C310.836 25.2114 309.986 25.5414 309.426 26.1014C308.886 26.6614 308.616 27.4714 308.616 28.5314V34.1114C308.616 34.8514 308.416 35.4214 308.016 35.8214C307.636 36.2214 307.076 36.4214 306.336 36.4214Z" fill="#292930"/>
<defs>
<linearGradient id="paint0_linear_700_2438" x1="22.5455" y1="6.18005" x2="4.56765" y2="50.006" gradientUnits="userSpaceOnUse">
<stop stop-color="#252525"/>
<stop offset="1" stop-color="#B0B0B0"/>
</linearGradient>
<linearGradient id="paint1_linear_700_2438" x1="65.2122" y1="8.11508" x2="76.6929" y2="50.8387" gradientUnits="userSpaceOnUse">
<stop stop-color="#252525"/>
<stop offset="1" stop-color="#B0B0B0"/>
</linearGradient>
</defs>
</svg>
