<svg width="128" height="24" viewBox="0 0 128 24" fill="none" xmlns="http://www.w3.org/2000/svg">
<path d="M3.13725 23.4267L0.300781 0.408203H4.67966L6.36586 16.0676L7.86906 0.408203H12.2479L9.41147 23.4267H3.13725Z" fill="#111111"/>
<path d="M14.8272 23.4267L17.0493 0.421274H24.8528L27.0358 23.4267H22.683L22.3562 19.7145H19.5851L19.2975 23.4267H14.8272ZM19.9119 16.0415H22.0033L20.9968 4.34266H20.7877L19.9119 16.0415Z" fill="#111111"/>
<path d="M32.4907 23.4267V4.83937H29.7588V0.421274H39.8237V4.83937H37.0918V23.4267H32.4907Z" fill="#111111"/>
<path d="M43.5139 23.4267V0.421274H50.5724C51.7489 0.421274 52.6377 0.691414 53.239 1.23169C53.8403 1.76326 54.2411 2.51268 54.4415 3.47996C54.6507 4.43852 54.7552 5.56701 54.7552 6.86542C54.7552 8.12026 54.594 9.1224 54.2716 9.87182C53.9579 10.6212 53.361 11.1397 52.4808 11.4273C53.2041 11.5754 53.7095 11.9371 53.9971 12.5122C54.2934 13.0786 54.4415 13.815 54.4415 14.7213V23.4267H49.9058V14.4206C49.9058 13.7496 49.7664 13.3357 49.4875 13.1789C49.2174 13.0133 48.7773 12.9305 48.1673 12.9305V23.4267H43.5139ZM48.1935 8.94376H49.3045C49.9407 8.94376 50.2587 8.25098 50.2587 6.86542C50.2587 5.96786 50.189 5.37965 50.0496 5.1008C49.9102 4.82194 49.6487 4.68251 49.2653 4.68251H48.1935V8.94376Z" fill="#111111"/>
<path d="M58.0534 23.4267L60.2755 0.421274H68.0791L70.262 23.4267H65.9092L65.5825 19.7145H62.8113L62.5238 23.4267H58.0534ZM63.1381 16.0415H65.2295L64.223 4.34266H64.0139L63.1381 16.0415Z" fill="#111111"/>
<path d="M80.3973 23.6357C78.2971 23.6357 76.7809 23.1128 75.8484 22.0671C74.9247 21.0214 74.4629 19.357 74.4629 17.0739V14.8256H79.0117V17.7013C79.0117 18.2329 79.0901 18.6511 79.247 18.9561C79.4126 19.2524 79.6958 19.4006 80.0966 19.4006C80.5149 19.4006 80.8025 19.2786 80.9593 19.0346C81.1249 18.7906 81.2077 18.3897 81.2077 17.832C81.2077 17.1262 81.138 16.538 80.9985 16.0674C80.8591 15.5881 80.6151 15.135 80.2665 14.708C79.9267 14.2723 79.4518 13.7668 78.8418 13.1917L76.7765 11.231C75.2341 9.77574 74.4629 8.11133 74.4629 6.23778C74.4629 4.27708 74.916 2.7826 75.8223 1.75433C76.7373 0.726051 78.0575 0.211914 79.7829 0.211914C81.8917 0.211914 83.3862 0.77398 84.2664 1.89811C85.1552 3.02224 85.5996 4.73022 85.5996 7.02206H80.9201V5.44043C80.9201 5.12672 80.8286 4.88272 80.6456 4.70844C80.4713 4.53415 80.2317 4.44701 79.9267 4.44701C79.5607 4.44701 79.2906 4.55158 79.1163 4.76072C78.9507 4.96115 78.8679 5.22258 78.8679 5.545C78.8679 5.86742 78.9551 6.21599 79.1293 6.5907C79.3036 6.96541 79.6478 7.39677 80.162 7.88476L82.8154 10.4337C83.347 10.9391 83.835 11.475 84.2794 12.0414C84.7239 12.5991 85.0811 13.2527 85.3513 14.0021C85.6214 14.7428 85.7565 15.6491 85.7565 16.721C85.7565 18.8821 85.3556 20.577 84.5539 21.8057C83.7609 23.0257 82.3754 23.6357 80.3973 23.6357Z" fill="#156BB8"/>
<path d="M91.8257 23.4265L88.9893 0.407983H93.3682L95.0544 16.0674L96.5576 0.407983H100.936L98.1 23.4265H91.8257Z" fill="#156BB8"/>
<path d="M104.692 23.4265V0.421055H113.894V4.86529H109.372V9.34875H113.711V13.6753H109.372V18.9431H114.195V23.4265H104.692Z" fill="#156BB8"/>
<path d="M120.107 23.4265V4.83915H117.375V0.421055H127.44V4.83915H124.708V23.4265H120.107Z" fill="#156BB8"/>
</svg>
