<svg width="30" height="31" viewBox="0 0 30 31" fill="none" xmlns="http://www.w3.org/2000/svg">
<path d="M22.05 9.11719H4.95C4.42533 9.11719 4 9.53692 4 10.0547V23.1797C4 23.6975 4.42533 24.1172 4.95 24.1172H22.05C22.5747 24.1172 23 23.6975 23 23.1797V10.0547C23 9.53692 22.5747 9.11719 22.05 9.11719Z" stroke="#FF5449" stroke-width="1.5" stroke-linecap="round" stroke-linejoin="round"/>
<path d="M8 9.11719V7.05469C8 6.80605 8.09482 6.56759 8.2636 6.39178C8.43239 6.21596 8.66131 6.11719 8.9 6.11719H25.1C25.3387 6.11719 25.5676 6.21596 25.7364 6.39178C25.9052 6.56759 26 6.80605 26 7.05469V20.1797C26 20.4283 25.9052 20.6668 25.7364 20.8426C25.5676 21.0184 25.3387 21.1172 25.1 21.1172H23" stroke="#FF5449" stroke-width="1.5" stroke-linecap="round" stroke-linejoin="round"/>
<path d="M4 13.1172H23" stroke="#FF5449" stroke-width="1.5" stroke-linecap="round" stroke-linejoin="round"/>
</svg>
