<svg width="40" height="40" viewBox="0 0 40 40" fill="none" xmlns="http://www.w3.org/2000/svg">
<g clip-path="url(#clip0_895_473)">
<path d="M35.6513 32.6348L32.4764 35.8097C32.4764 35.8097 24.2268 39.3452 12.4417 27.5601C0.656583 15.775 4.19212 7.52541 4.19212 7.52541L7.367 4.35053C8.80137 2.91616 11.1736 3.08475 12.3907 4.70755L15.4211 8.74816C16.4164 10.0752 16.2845 11.9322 15.1115 13.1052L12.4417 15.775C12.4417 15.775 12.4417 18.132 17.1557 22.8461C21.8698 27.5601 24.2268 27.5601 24.2268 27.5601L26.8966 24.8903C28.0696 23.7173 29.9266 23.5853 31.2536 24.5807L35.2942 27.6111C36.917 28.8282 37.0856 31.2004 35.6513 32.6348Z" fill="white"/>
</g>
<defs>
<clipPath id="clip0_895_473">
<rect width="40" height="40" fill="white" transform="translate(0.000976562 0.000976562)"/>
</clipPath>
</defs>
</svg>
