<svg width="18" height="17" viewBox="0 0 18 17" fill="none" xmlns="http://www.w3.org/2000/svg">
<path d="M8.04894 1.53056C8.3483 0.609254 9.6517 0.609256 9.95106 1.53057L11.2451 5.51335C11.379 5.92537 11.763 6.20433 12.1962 6.20433H16.3839C17.3527 6.20433 17.7554 7.44394 16.9717 8.01335L13.5838 10.4748C13.2333 10.7295 13.0866 11.1809 13.2205 11.5929L14.5146 15.5757C14.8139 16.497 13.7595 17.2631 12.9757 16.6937L9.58778 14.2322C9.2373 13.9775 8.7627 13.9775 8.41221 14.2322L5.02426 16.6937C4.24054 17.2631 3.18607 16.497 3.48542 15.5757L4.7795 11.5929C4.91338 11.1808 4.76672 10.7295 4.41623 10.4748L1.02827 8.01334C0.244561 7.44394 0.647338 6.20433 1.61606 6.20433H5.8038C6.23703 6.20433 6.62099 5.92537 6.75486 5.51335L8.04894 1.53056Z" fill="#FFB545"/>
</svg>
