<svg width="24" height="24" viewBox="0 0 24 24" fill="none" xmlns="http://www.w3.org/2000/svg">
<path d="M7.28864 12.1929C8.27473 14.2293 9.92134 15.8716 11.9602 16.8525C12.1106 16.9237 12.277 16.9545 12.4429 16.9419C12.6088 16.9293 12.7686 16.8737 12.9065 16.7806L15.9011 14.7802C16.0334 14.6905 16.1863 14.6358 16.3455 14.6211C16.5047 14.6064 16.665 14.6323 16.8114 14.6964L22.4173 17.104C22.6089 17.1838 22.769 17.3243 22.8729 17.5039C22.9768 17.6836 23.0187 17.8924 22.9923 18.0983C22.8146 19.485 22.1377 20.7596 21.0883 21.6833C20.0388 22.6071 18.6887 23.1169 17.2906 23.1172C12.9701 23.1172 8.82648 21.4009 5.7714 18.3458C2.71632 15.2907 1 11.1471 1 6.8266C1.00032 5.42849 1.51006 4.07838 2.43384 3.02893C3.35763 1.97947 4.63215 1.30258 6.01894 1.1249C6.22477 1.09846 6.43359 1.14042 6.61324 1.24431C6.79288 1.3482 6.9334 1.50827 7.01314 1.69986L9.42079 7.31772C9.4834 7.46187 9.5096 7.61922 9.49706 7.77588C9.48453 7.93255 9.43366 8.08373 9.34892 8.2161L7.34854 11.2586C7.25948 11.3962 7.20721 11.5544 7.19672 11.7179C7.18624 11.8815 7.21788 12.0451 7.28864 12.1929V12.1929Z" stroke="#3AD879" stroke-width="1.5" stroke-linecap="round" stroke-linejoin="round"/>
</svg>
