<svg width="32" height="33" viewBox="0 0 32 33" fill="none" xmlns="http://www.w3.org/2000/svg">
<path fill-rule="evenodd" clip-rule="evenodd" d="M16 32.1172C7.16344 32.1172 0 24.9537 0 16.1172C0 7.28063 7.16344 0.117188 16 0.117188C24.8366 0.117188 32 7.28063 32 16.1172C32 24.9537 24.8366 32.1172 16 32.1172ZM16.6919 12.1246C15.2589 12.7206 12.3949 13.9542 8.09992 15.8255C7.40248 16.1028 7.03714 16.3742 7.00388 16.6395C6.94767 17.0878 7.50915 17.2644 8.27374 17.5048C8.37774 17.5375 8.4855 17.5714 8.59598 17.6073C9.34822 17.8518 10.3601 18.1379 10.8862 18.1493C11.3633 18.1596 11.8959 17.9628 12.4839 17.5591C16.4968 14.8503 18.5683 13.4811 18.6983 13.4516C18.7901 13.4307 18.9172 13.4046 19.0034 13.4811C19.0895 13.5577 19.0811 13.7027 19.0719 13.7416C19.0163 13.9787 16.8123 16.0278 15.6717 17.0882C15.3161 17.4187 15.0639 17.6532 15.0124 17.7068C14.8969 17.8267 14.7791 17.9402 14.666 18.0493C13.9672 18.723 13.4431 19.2282 14.695 20.0532C15.2967 20.4497 15.7781 20.7775 16.2584 21.1046C16.7829 21.4618 17.306 21.8181 17.9829 22.2618C18.1554 22.3748 18.3201 22.4922 18.4805 22.6066C19.0909 23.0418 19.6393 23.4327 20.3168 23.3704C20.7105 23.3342 21.1172 22.964 21.3237 21.8599C21.8118 19.2507 22.7712 13.5973 22.9929 11.2677C23.0123 11.0635 22.9879 10.8023 22.9683 10.6877C22.9486 10.573 22.9076 10.4096 22.7586 10.2887C22.582 10.1454 22.3095 10.1152 22.1877 10.1173C21.6335 10.1271 20.7834 10.4228 16.6919 12.1246Z" fill="white"/>
</svg>
