<svg width="32" height="33" viewBox="0 0 32 33" fill="none" xmlns="http://www.w3.org/2000/svg">
<path d="M10.6987 12.9865C10.784 17.1465 12.864 19.6425 16.512 19.6425H16.7253V17.2638C18.064 17.3972 19.0773 18.3785 19.4827 19.6425H21.376C21.1818 18.9242 20.8376 18.2553 20.366 17.6798C19.8943 17.1043 19.3061 16.6354 18.64 16.3038C19.2369 15.9404 19.7524 15.4577 20.1543 14.886C20.5563 14.3143 20.836 13.6658 20.976 12.9812H19.2587C18.8853 14.3038 17.776 15.5038 16.7253 15.6158V12.9865H15.0027V17.5945C13.936 17.3278 12.592 16.0372 12.5333 12.9865H10.6987Z" fill="white"/>
<path fill-rule="evenodd" clip-rule="evenodd" d="M16 0.117188C24.8366 0.117188 32 7.28063 32 16.1172C32 24.9537 24.8366 32.1172 16 32.1172C7.16344 32.1172 0 24.9537 0 16.1172C0 7.28063 7.16344 0.117188 16 0.117188ZM8 15.7972C8 12.1759 8 10.3679 9.12 9.23719C10.256 8.11719 12.064 8.11719 15.68 8.11719H16.32C19.9413 8.11719 21.7493 8.11719 22.88 9.23719C24 10.3732 24 12.1812 24 15.7972V16.4372C24 20.0585 24 21.8665 22.88 22.9972C21.744 24.1172 19.936 24.1172 16.32 24.1172H15.68C12.0587 24.1172 10.2507 24.1172 9.12 22.9972C8 21.8612 8 20.0532 8 16.4372V15.7972Z" fill="white"/>
</svg>
