<svg width="32" height="33" viewBox="0 0 32 33" fill="none" xmlns="http://www.w3.org/2000/svg">
<path fill-rule="evenodd" clip-rule="evenodd" d="M12.6 21.8172C13.6 22.4172 14.8 22.7172 16 22.7172C19.7 22.7172 22.6 19.7172 22.6 16.2172C22.6 14.4172 22 12.8172 20.7 11.5172C19.4 10.3172 17.8 9.61719 16 9.61719C12.4 9.61719 9.39999 12.6172 9.39999 16.2172C9.39999 17.4172 9.7 18.6172 10.4 19.7172L10.6 20.0172L9.89999 22.4172L12.4 21.7172L12.6 21.8172ZM18.2 17.1172C18.4 17.1172 19.4 17.6172 19.6 17.7172C19.6311 17.7328 19.6623 17.7459 19.6931 17.7589C19.8599 17.8293 20.0156 17.895 20.1 18.3172C20.2 18.3172 20.2 18.7172 20 19.2172C19.9 19.6172 19.1 20.1172 18.7 20.1172C18.6322 20.1172 18.5673 20.1229 18.498 20.1291C18.1582 20.1591 17.712 20.1986 16.3 19.6172C14.5475 18.9162 13.3325 17.2171 12.9913 16.74C12.9431 16.6726 12.9124 16.6296 12.9 16.6172C12.883 16.5831 12.8485 16.5288 12.8031 16.4571C12.5819 16.1078 12.1 15.3469 12.1 14.5172C12.1 13.5172 12.6 13.0172 12.8 12.8172C13 12.6172 13.2 12.6172 13.3 12.6172H13.7C13.8 12.6172 14 12.6172 14.1 12.9172C14.3 13.3172 14.7 14.3172 14.7 14.4172C14.7 14.4505 14.7111 14.4839 14.7222 14.5172C14.7445 14.5839 14.7667 14.6505 14.7 14.7172C14.65 14.7672 14.625 14.8172 14.6 14.8672C14.575 14.9172 14.55 14.9672 14.5 15.0172L14.2 15.3172C14.1 15.4172 14 15.5172 14.1 15.7172C14.2 15.9172 14.6 16.6172 15.2 17.1172C15.8751 17.7079 16.4078 17.9426 16.6778 18.0615C16.7278 18.0835 16.7688 18.1016 16.8 18.1172C17 18.1172 17.1 18.1172 17.2 18.0172C17.25 17.9172 17.375 17.7672 17.5 17.6172C17.625 17.4672 17.75 17.3172 17.8 17.2172C17.9 17.0172 18 17.0172 18.2 17.1172Z" fill="white"/>
<path fill-rule="evenodd" clip-rule="evenodd" d="M0 16.1172C0 7.28063 7.16344 0.117188 16 0.117188C24.8366 0.117188 32 7.28063 32 16.1172C32 24.9537 24.8366 32.1172 16 32.1172C7.16344 32.1172 0 24.9537 0 16.1172ZM16 8.11719C18.1 8.11719 20.1 8.91719 21.6 10.4172C23.1 11.9172 24 13.9172 24 16.0172C24 20.4172 20.4 24.0172 16 24.0172C14.7 24.0172 13.4 23.6172 12.2 23.0172L8 24.1172L9.10001 20.1172C8.40001 18.9172 8 17.5172 8 16.1172C8 11.7172 11.6 8.11719 16 8.11719Z" fill="white"/>
</svg>
